<?xml version="1.0" encoding="UTF-8" standalone="no"?>
<!-- Created with Inkscape (http://www.inkscape.org/) -->

<svg
   xmlns:dc="http://purl.org/dc/elements/1.1/"
   xmlns:cc="http://creativecommons.org/ns#"
   xmlns:rdf="http://www.w3.org/1999/02/22-rdf-syntax-ns#"
   xmlns:svg="http://www.w3.org/2000/svg"
   xmlns="http://www.w3.org/2000/svg"
   xmlns:xlink="http://www.w3.org/1999/xlink"
   xmlns:sodipodi="http://sodipodi.sourceforge.net/DTD/sodipodi-0.dtd"
   xmlns:inkscape="http://www.inkscape.org/namespaces/inkscape"
   id="svg7233"
   version="1.1"
   inkscape:version="0.91+devel+osxmenu r12855"
   xml:space="preserve"
   width="444.82666"
   height="343.73334"
   viewBox="0 0 444.82666 343.73334"
   sodipodi:docname="royal_logo_svg.svg"><metadata
     id="metadata7239"><rdf:RDF><cc:Work
         rdf:about=""><dc:format>image/svg+xml</dc:format><dc:type
           rdf:resource="http://purl.org/dc/dcmitype/StillImage" /><dc:title /></cc:Work></rdf:RDF></metadata><defs
     id="defs7237" /><sodipodi:namedview
     pagecolor="#ffffff"
     bordercolor="#666666"
     borderopacity="1"
     objecttolerance="10"
     gridtolerance="10"
     guidetolerance="10"
     inkscape:pageopacity="0"
     inkscape:pageshadow="2"
     inkscape:window-width="1680"
     inkscape:window-height="1001"
     id="namedview7235"
     showgrid="false"
     inkscape:zoom="1.2120877"
     inkscape:cx="241.50004"
     inkscape:cy="88.290886"
     inkscape:window-x="0"
     inkscape:window-y="23"
     inkscape:window-maximized="0"
     inkscape:current-layer="g7241"
     showguides="true"
     inkscape:guide-bbox="true"><sodipodi:guide
       orientation="0,1"
       position="371.67278,186.04265"
       id="guide4537" /><sodipodi:guide
       orientation="0,1"
       position="270.19497,156.75434"
       id="guide5843" /><sodipodi:guide
       orientation="0,1"
       position="176.90975,200.53661"
       id="guide5845" /><sodipodi:guide
       orientation="0,1"
       position="305.54487,145.55312"
       id="guide5847" /><sodipodi:guide
       orientation="0,1"
       position="47.107873,184.49368"
       id="guide6544" /><sodipodi:guide
       orientation="0,1"
       position="193.46785,165.88115"
       id="guide4516" /><sodipodi:guide
       orientation="1,0"
       position="373.65439,120.46781"
       id="guide4542" /><sodipodi:guide
       orientation="0,1"
       position="383.71769,98.736934"
       id="guide4544" /><sodipodi:guide
       orientation="0,1"
       position="692.19414,18.975525"
       id="guide4588" /><sodipodi:guide
       orientation="1,0"
       position="656.71816,89.927487"
       id="guide4590" /><sodipodi:guide
       orientation="0,1"
       position="152.62922,77.964656"
       id="guide4640" /><sodipodi:guide
       orientation="0,1"
       position="169.74844,72.808263"
       id="guide4642" /><sodipodi:guide
       orientation="0,1"
       position="172.32664,64.661163"
       id="guide4674" /><sodipodi:guide
       orientation="0,1"
       position="299.12769,72.2661"
       id="guide5887" /></sodipodi:namedview><g
     id="g7241"
     inkscape:groupmode="layer"
     inkscape:label="ink_ext_XXXXXX"
     transform="matrix(1.3333333,0,0,-1.3333333,0,343.73333)"><path
       inkscape:connector-curvature="0"
       id="path7309-4-0-8"
       style="fill:#ffffff;fill-opacity:1;fill-rule:nonzero;stroke:none"
       d="m 295.40843,134.72504 c -0.711,0.082 -1.43201,0.082 -2.14301,0 -0.57499,-0.066 -1.14399,-0.186 -1.69599,-0.3571 0.486,0.7301 1.146,1.3454 1.91,1.7762 0.253,0.1442 0.52399,0.2692 0.813,0.2981 0.145,0.014 0.29299,0.003 0.432,-0.0411 0.138,-0.0449 0.267,-0.123 0.363,-0.2308 0.108,-0.1223 0.172,-0.2774 0.21799,-0.432 0.045,-0.1571 0.074,-0.3161 0.123,-0.4723 0.065,-0.2059 0.16601,-0.4 0.29501,-0.5719 l -0.315,0.0309 0,0" /><path
       inkscape:connector-curvature="0"
       style="fill:#100f0d;fill-opacity:1;fill-rule:nonzero;stroke:none"
       d="m 47.443112,77.774766 c -0.0896,-0.005 -0.179,-0.0179 -0.2666,-0.0381 -0.3015,-0.0699 -0.58015,-0.22796 -0.81445,-0.43066 -0.2364,-0.2032 -0.42909,-0.44972 -0.59619,-0.71192 -0.3348,-0.52299 -0.56787,-1.10677 -0.90967,-1.62597 -0.6269,-0.9492 -1.5822,-1.62706 -2.5459,-2.23096 -3.2528,-2.041 -6.84355,-3.49076 -10.13965,-5.46386 -1.9563,-1.17111 -3.82857,-2.54749 -5.2251,-4.35059 -1.39766,-1.8032 -2.28603,-4.07607 -2.09033,-6.34717 0.18828,-2.1922 1.38413,-4.23236 3.05713,-5.66016 1.6731,-1.42809 3.79175,-2.27534 5.96045,-2.64404 2.9367,-0.5 6.05079,-0.13537 8.68359,1.25684 2.6324,1.39179 4.73463,3.85015 5.46973,6.73535 0.659,2.5879 0.18266,5.44471 -1.28174,7.67871 -1.4641,2.234 -3.89424,3.81115 -6.53174,4.23925 1.7383,0.5121 3.43043,1.18477 5.04493,2.00977 0.9882,0.5039 1.95944,1.07363 2.75244,1.84864 0.7949,0.7762 1.40359,1.78237 1.53369,2.88427 0.0828,0.7129 -0.0482,1.47285 -0.47901,2.04786 -0.2149,0.28789 -0.50123,0.52377 -0.83203,0.66357 -0.24787,0.10522 -0.52076,0.15495 -0.78955,0.13916 z m -7.75781,-11.38183 c 0.23018,-0.006 0.45982,-0.0217 0.68994,-0.0498 0.9207,-0.1129 1.8269,-0.41321 2.5957,-0.93311 0.7671,-0.51999 1.39205,-1.26687 1.70655,-2.13867 0.3027,-0.8403 0.31076,-1.77298 0.085,-2.63818 -0.2261,-0.8649 -0.67548,-1.66068 -1.24659,-2.34668 -1.1457,-1.3711 -2.74001,-2.28138 -4.32861,-3.09668 -1.7012,-0.8738 -3.49121,-1.68733 -5.39941,-1.81933 -0.9543,-0.0648 -1.9263,0.0455 -2.8169,0.3955 -0.8911,0.3492 -1.69585,0.94441 -2.23095,1.73731 -0.6309,0.934 -0.8642,2.10905 -0.7251,3.22705 0.1363,1.1179 0.63055,2.17761 1.32275,3.06591 1.3871,1.7769 3.49493,2.8315 5.60742,3.61671 1.52163,0.56533 3.12896,1.02429 4.74024,0.97998 z"
       id="path7245-7-2-5-6"
       sodipodi:nodetypes="ccccccccccccccccccccccccccccccccccccc" /><path
       inkscape:connector-curvature="0"
       id="path7249-9-2-8-2"
       style="fill:#100f0d;fill-opacity:1;fill-rule:nonzero;stroke:none"
       d="m 49.453452,61.284706 c -0.12429,1.5449 0.34101,3.1418 1.32341,4.3418 0.982,1.1992 2.4832,1.9742 4.03399,2.0203 1.08711,0.0316 2.17191,-0.2864 3.10351,-0.8453 0.9324,-0.559 1.7129,-1.3539 2.31129,-2.2618 1.1946,-1.816 1.64301,-4.03 1.75001,-6.2019 0.1098,-2.2371 -0.13751,-4.55899 -1.2195,-6.52109 -0.54101,-0.9801 -1.2891,-1.8551 -2.2148,-2.4859 -0.925,-0.6313 -2.0313,-1.0122 -3.1504,-1.0153 -1.4278,-0.005 -2.8282,0.609 -3.86211,1.5942 -1.0344,0.9847 -1.70749,2.3179 -1.98559,3.7187 -0.073,0.3723 -0.1211,0.7613 -0.0227,1.1274 0.0493,0.18279 0.13481,0.35779 0.2598,0.49999 0.12621,0.1418 0.2934,0.25 0.47771,0.2918 0.1653,0.0378 0.3411,0.023 0.4993,-0.034 0.159,-0.0571 0.3035,-0.1539 0.4215,-0.275 0.2343,-0.2418 0.3644,-0.57 0.4296,-0.902 0.0637,-0.332 0.0696,-0.6711 0.0871,-1.009 0.0188,-0.3371 0.0516,-0.6789 0.1708,-0.9949 0.1332,-0.3539 0.371,-0.6652 0.671,-0.8949 0.3008,-0.2293 0.6602,-0.3781 1.0332,-0.4383 0.7461,-0.1187 1.5262,0.1223 2.1309,0.5762 0.6047,0.4539 1.041,1.1051 1.3184,1.809 0.2761,0.7039 0.4004,1.4578 0.4582,2.2109 0.0664,0.8898 0.0418,1.784 -0.0102,2.6738 -0.0496,0.8762 -0.125,1.7543 -0.3113,2.6114 -0.1453,0.6687 -0.3645,1.3277 -0.7141,1.9168 -0.3511,0.5878 -0.8406,1.1039 -1.448,1.4179 -0.6074,0.3153 -1.3399,0.4153 -1.9903,0.2039 -0.3253,-0.1047 -0.6281,-0.2867 -0.8664,-0.5316 -0.239,-0.2453 -0.4148,-0.5531 -0.4937,-0.8863 -0.0735,-0.311 -0.0625,-0.636 -0.0344,-0.9539 0.0274,-0.3188 0.0723,-0.6372 0.0645,-0.9571 -0.006,-0.3199 -0.0664,-0.6461 -0.2356,-0.9179 -0.084,-0.136 -0.1949,-0.2559 -0.3277,-0.3438 -0.1328,-0.0891 -0.2895,-0.1453 -0.4485,-0.1531 -0.1867,-0.0102 -0.3718,0.0461 -0.53,0.1449 -0.1567,0.098 -0.2864,0.2379 -0.3852,0.3961 -0.198,0.318 -0.2637,0.6969 -0.2937,1.068 l 0,0"
       sodipodi:nodetypes="cccccccccccccccccccccscccccccccccccccccc" /><path
       style="fill:#100f0d;fill-opacity:1;fill-rule:nonzero;stroke:none"
       d="m 88.310192,78.284539 c -0.29119,-0.006 -0.58398,-0.0464 -0.86718,-0.11279 -0.5676,-0.134003 -1.10599,-0.369713 -1.62159,-0.641603 -1.19421,-0.62891 -2.28781,-1.46356 -3.15381,-2.49756 -0.8672,-1.0339 -1.50202,-2.27212 -1.76952,-3.59473 -0.1536,-0.75699 -0.16901,-1.7245 -0.0791,-2.4917 -1.69168,-0.89847 -2.50392,-2.38057 -2.51514,-3.77783 0.008,-0.8244 0.44162,-1.61248 0.79248,-2.24854 0.35732,-0.0876 1.3482,-0.0989 2.05518,-0.0835 1.06962,0.0233 3.0955,0.27162 4.32568,-0.16553 0.5164,-0.1371 1.01661,-0.36136 1.43261,-0.69727 0.4172,-0.3348 0.74702,-0.78575 0.89942,-1.29785 0.1633,-0.5508 0.11379,-1.15496 -0.0952,-1.68896 -0.209,-0.534 -0.57098,-1.00076 -1.00928,-1.37256 -0.8735,-0.7442 -2.00877,-1.10036 -3.12597,-1.35938 -3.58911,-0.834 -7.33917,-0.86103 -10.98487,-0.31494 -1.2157,0.18321 -2.46386,0.44612 -3.45996,1.16602 -0.4981,0.3601 -0.92263,0.83327 -1.17773,1.39307 -0.25391,0.5589 -0.32874,1.20637 -0.16114,1.79736 0.11549,0.40287 0.34273,0.76377 0.63281,1.06641 0.0426,0.0395 0.0811,0.0827 0.12598,0.12011 0.43991,0.36717 0.98457,0.63469 1.56152,0.83203 0.0872,0.0239 0.17406,0.0497 0.26221,0.0688 0.0811,0.0177 0.13207,0.0431 0.20508,0.063 0.7557,0.2064 1.53233,0.31867 2.18262,0.36621 1.58184,0.11571 3.078,0.10711 4.03857,0.0117 0.43932,1.21952 0.65541,3.12981 -0.16992,4.50293 -0.36866,0.56461 -0.88071,1.03018 -1.45898,1.37695 -1.15455,0.69387 -2.53796,0.91444 -3.88477,0.94044 -1.16834,0.0227 -2.38527,-0.10248 -3.39111,-0.69873 -0.50446,-0.29792 -0.94466,-0.71294 -1.2334,-1.22169 -0.28881,-0.50765 -0.42013,-1.11152 -0.3252,-1.68896 0.0657,-0.40314 0.2446,-0.78663 0.50537,-1.1001 0.26182,-0.31414 0.60845,-0.55494 0.99317,-0.69287 0.38473,-0.13784 0.80537,-0.1705 1.20556,-0.0937 0.40128,0.0755 0.78162,0.26214 1.08838,0.53174 0.50019,0.4389 1.01249,0.86378 1.53955,1.27148 0.26049,0.20458 0.52475,0.40446 0.81592,0.56397 0.2902,0.15903 0.61146,0.27508 0.9419,0.29443 0.54103,0.0324 1.08908,-0.20678 1.43408,-0.62402 0.34301,-0.41775 0.47539,-1.00301 0.33984,-1.52783 -0.85879,0.006 -1.71527,-0.0251 -2.5708,-0.0923 -1.50561,-0.11915 -3.08649,-0.35945 -4.38084,-1.192 -1.65643,-1.06545 -3.03043,-2.65432 -3.3513,-4.86614 -0.32086,-2.21182 0.44991,-4.6167 1.94601,-6.3886 1.4012,-1.657 3.38086,-2.76548 5.47266,-3.34277 2.09181,-0.57701 4.29587,-0.64907 6.45996,-0.47608 2.8468,0.227 5.7314,0.90507 8.083,2.52686 1.1746,0.81102 2.20043,1.85391 2.92383,3.08349 0.7238,1.23011 1.14015,2.65189 1.11475,4.07959 -0.0243,1.3461 -0.44461,2.68407 -1.19531,3.80127 -0.7508,1.1168 -1.82842,2.01245 -3.06592,2.54444 0.6172,0.22311 1.15068,0.66636 1.48388,1.23047 0.4375,0.74299 0.51249,1.68883 0.20508,2.49463 -0.9733,2.02803 -3.48565,2.53785 -5.15185,1.79883 0.52299,1.7442 1.94508,3.09233 3.68408,3.63134 0.7676,0.2371 1.58179,0.30736 2.34229,0.56836 0.3813,0.13 0.74831,0.30979 1.05761,0.56689 0.3106,0.25581 0.55933,0.59252 0.67383,0.97852 0.0808,0.2801 0.0908,0.57836 0.0322,0.86426 -0.0578,0.2864 -0.1826,0.55738 -0.3545,0.79248 -0.343,0.4711 -0.87207,0.78917 -1.43847,0.930173 -0.282,0.0705 -0.57306,0.0983 -0.86426,0.0923 z m -4.19091,-10.543953 c 1.29826,0.0101 1.89048,-0.58739 1.88671,-1.25683 -9.8e-4,-0.21029 -0.0572,-0.43379 -0.19189,-0.60059 -0.23301,-0.28962 -0.53821,-0.38382 -0.84814,-0.38232 -0.52502,0.003 -1.08789,0.23711 -1.42969,0.66211 -0.2937,0.3649 -0.44193,0.88631 -0.40283,1.35352 0.18548,0.10956 0.66349,0.22161 0.98584,0.22411 z m -2.81983,-0.93896 c 0.0743,-0.411 0.20067,-0.81137 0.37647,-1.18946 0.1504,-0.32301 0.33571,-0.62939 0.55371,-0.91259 -0.55102,-0.0868 -1.40738,-0.1877 -2.04053,0.0175 -0.36838,0.42555 -0.20691,0.93631 -0.041,1.1587 0.3015,0.3961 0.70066,0.71598 1.15137,0.92578 z"
       id="path7251-7-8-9-4"
       inkscape:connector-curvature="0"
       sodipodi:nodetypes="ccccccccscccccccccccccccccccccccccccccccccscccccccccccccccccccsccccccccccccccc" /><path
       style="fill:#100f0d;fill-opacity:1;fill-rule:nonzero;stroke:none"
       d="m 109.76131,74.721813 c -1.85592,-1.687197 -3.19301,-3.937138 -3.78577,-6.373903 l -3.435,-2.479671 c -0.016,1.09104 -0.46044,2.1697 -1.21781,2.956622 -0.69041,0.717862 -1.641528,1.188611 -2.634018,1.26456 -0.86641,0.06651 -1.74489,-0.166146 -2.491588,-0.607681 -0.747408,-0.441915 -1.368602,-1.085211 -1.827159,-1.823 -0.555622,-0.889103 -0.882174,-1.919815 -0.932201,-2.966931 -0.0288,-0.583432 0.028,-1.175858 0.218142,-1.72924 0.189335,-0.552259 0.515667,-1.065324 0.97065,-1.431747 0.454992,-0.366823 1.042541,-0.580538 1.625003,-0.542482 0.291717,0.01906 0.579405,0.101393 0.834542,0.242509 0.256658,0.141155 0.479063,0.344725 0.63737,0.589306 0.289503,0.444283 0.357957,1.000345 0.321521,1.528433 -0.03643,0.528188 -0.170078,1.043707 -0.256286,1.566148 -0.08621,0.522441 -0.124111,1.067185 0.03118,1.574445 0.07651,0.252711 0.201557,0.492995 0.37928,0.69013 0.177303,0.196045 0.406094,0.346862 0.661964,0.415722 0.256664,0.06904 0.535029,0.05365 0.787522,-0.03045 0.252922,-0.08382 0.481138,-0.233746 0.671448,-0.419796 0.39011,-0.382663 0.61658,-0.927881 0.61343,-1.473307 -0.003,-0.545007 -0.23599,-1.085828 -0.63044,-1.464329 -0.867287,-1.038873 -1.69863,-2.107906 -2.490515,-3.205843 -1.482255,-2.053417 -2.826455,-4.203317 -4.27417,-6.281463 -0.198532,-0.285 -0.398734,-0.568815 -0.552941,-0.878832 -0.155006,-0.310685 -0.263153,-0.649596 -0.261601,-0.996657 0.0023,-0.34709 0.120789,-0.702489 0.36695,-0.946381 0.124108,-0.122224 0.275924,-0.214812 0.444223,-0.261211 0.167222,-0.04557 0.347243,-0.04467 0.511719,0.01097 0.160914,0.05344 0.302029,0.157846 0.423682,0.275678 0.121172,0.118545 0.225442,0.252275 0.335718,0.382111 0.108587,0.130292 0.224583,0.256031 0.362829,0.355004 0.13756,0.09949 0.298374,0.167969 0.467784,0.173368 0.181432,0.0061 0.359963,-0.06282 0.502255,-0.174879 0.142753,-0.110527 0.249597,-0.261342 0.329897,-0.423688 0.156497,-0.325481 0.202392,-0.692117 0.298473,-1.039762 0.238696,-0.847812 0.793907,-1.595816 1.519662,-2.09586 0.725646,-0.500041 1.610694,-0.754151 2.491215,-0.750722 1.0786,0.0034 2.15232,0.393638 2.98078,1.082338 0.83008,0.689757 1.40938,1.671359 1.61012,2.731587 0.12551,-0.915857 0.52568,-1.791946 1.13389,-2.486873 0.60828,-0.695718 1.42517,-1.207218 2.31532,-1.452243 1.16239,-0.320866 2.42605,-0.184599 3.53498,0.286195 1.10894,0.471083 2.06598,1.26159 2.82072,2.20038 1.61287,2.008044 2.2928,4.75303 1.73806,7.267865 -0.50438,2.284579 -1.99784,4.31123 -3.96735,5.575409 -1.96901,1.264276 -4.38488,1.77921 -6.71464,1.551554 -0.68566,-0.06646 -1.36391,-0.193929 -2.02681,-0.382952 1.58726,1.071184 3.45301,1.726441 5.3604,1.88357 3.16841,0.261956 6.35183,-0.853207 8.95076,-2.683652 1.66961,-1.175992 3.14188,-2.657254 4.17023,-4.421815 1.02735,-1.763824 1.5947,-3.817792 1.46417,-5.855983 -0.11759,-1.632224 -0.55968,-3.466628 -2.82503,-3.541741 -1.17143,0.0136 -1.66514,0.837234 -1.97908,1.594662 l -2.06634,-0.553318 c 0.46621,-1.770899 1.82827,-3.33022 4.12612,-3.405107 1.42996,-0.02094 2.91391,0.674467 3.90333,1.704912 0.99042,1.030418 1.62608,2.356763 2.0474,3.722009 0.82277,2.661366 0.87626,5.555262 0.15426,8.245917 -0.72202,2.690554 -2.51964,5.364076 -4.56487,7.256359 1.57449,0.848579 2.10389,2.160122 2.14415,3.454136 0.0305,0.97217 -0.24956,1.974516 -0.76889,2.813966 -0.51834,0.839423 -1.26321,1.531639 -2.11495,2.030013 -1.06659,0.621838 -2.5849,0.896227 -4.23075,0.949065 -3.12768,0.07348 -6.26277,-1.460986 -8.21297,-3.193643 z m 8.52087,-4.464368 c 0,0 -1.07219,0.172875 -1.51867,0.235083 -2.70107,0.371776 -6.17851,-0.0094 -8.4159,-0.979127 0.20908,0.715423 1.59526,2.384993 2.78526,3.103261 2.30542,1.39152 4.85182,2.236216 7.83377,1.973254 0,0 -1.25822,-0.631248 -1.31368,-2.589444 -0.0285,-1.018262 0.62922,-1.743027 0.62922,-1.743027 z m 3.27775,3.471909 c 1.12215,-0.04227 1.87222,-1.081473 1.83955,-2.013419 -0.044,-1.248194 -0.85381,-1.935662 -1.88676,-1.887451 -1.22398,0.02533 -2.03177,1.12049 -1.97073,2.060707 0.005,0.769627 0.58359,1.894184 2.01794,1.840163 z M 103.76112,56.752099 c -0.31232,-1.54146 -1.33112,-3.256125 -4.000012,-3.094043 -1.330488,0.0808 -2.488409,1.783719 -3.815846,1.195789 0.779572,1.362091 1.654083,2.669937 2.616706,3.910189 1.258198,1.621356 2.707392,3.161222 4.548082,4.071536 1.24147,0.613848 2.64278,0.91836 4.02322,0.834136 l 0,-4e-5 c 0.1972,-0.01237 0.39454,-0.03195 0.59039,-0.06 1.56666,-0.224736 3.06413,-0.977715 4.12953,-2.149365 0.74815,-0.823774 1.28989,-1.889228 1.27519,-3.00213 -0.009,-0.769133 -0.28487,-1.52586 -0.74131,-2.145653 -0.45572,-0.618722 -1.08732,-1.101646 -1.78826,-1.416689 -0.70144,-0.31502 -1.4865,-0.467533 -2.24763,-0.366673 -0.76327,0.09972 -1.49924,0.461418 -1.99512,1.049336 -0.46944,0.555987 -0.54803,0.897558 -0.71655,1.606209 -0.0893,0.375397 -0.14275,0.695181 -0.22402,1.051064 l -1.60522,-0.789308 c 0,0 0.007,-0.433038 -0.0491,-0.694358 z"
       id="path7253-9-0-8-4"
       inkscape:connector-curvature="0"
       sodipodi:nodetypes="cccccccccccccsscccccccccccccccccccccccccccccccccccccccccccscccccccccaacscssccscsccccccccccccscccc" /><path
       style="fill:#100f0d;fill-opacity:1;fill-rule:nonzero;stroke:none"
       d="m 201.65234,249.85742 c -3.21962,0.0168 -5.76129,1.36133 -7.08007,4.07031 -1.24986,2.56738 -0.2129,4.98047 -0.21289,4.98047 2.07621,-0.76192 4.36889,-1.02233 6.11328,-1.14453 1.95612,-0.0775 3.63843,0.55068 4.75976,1.81055 1.124,1.25893 1.67612,3.58222 1.24219,5.14651 -0.89645,3.23168 -4.37484,5.19091 -7.51172,5.4043 -0.0919,0.005 -0.18838,-10e-4 -0.28125,0.002 0.0112,-0.0116 0.0303,-0.0236 0.041,-0.0351 -2.54654,0.1434 -3.866,-0.54801 -5.03944,-1.89453 -0.62592,-0.74132 -1.10616,-1.63599 -1.33086,-2.58085 -0.11906,-0.50054 -0.22138,-0.90791 -0.32968,-1.55001 l -2.14727,0.95703 c 0,0 0.0348,0.67167 -0.0535,0.99023 -0.91703,3.30995 -3.95406,4.48855 -6.36095,4.63086 -1.36756,0.0809 -2.934,-0.41356 -3.96485,-1.08206 -1.34666,-0.8948 -2.32804,-2.30661 -2.74804,-3.86914 -0.42134,-1.56147 -0.29398,-3.69374 0.30468,-5.19534 0.72668,-1.81867 2.13838,-3.34822 3.87305,-4.25196 1.18267,-0.61772 2.54464,-0.84961 3.86133,-0.83398 2.19159,0.026 3.52561,1.09593 4.56055,3.01172 l 2.48828,-1.03125 c -0.47795,-1.5256 -1.31476,-2.37763 -2.28125,-3.25586 -1.156,-0.92495 -2.53405,-1.59027 -3.99805,-1.81055 -1.268,-0.19172 -2.57892,-0.0421 -3.79492,0.36719 -1.216,0.4104 -2.33836,1.07705 -3.31836,1.90625 -1.50535,1.2744 -2.67638,2.92461 -3.48438,4.72461 -0.80666,1.8 -1.25812,3.74964 -1.43945,5.71484 -0.276,3.01867 0.10574,6.1538 1.50977,8.8418 0.7,1.34427 1.65158,2.56386 2.82226,3.52734 1.172,0.96412 2.56359,1.66666 4.04492,1.98438 2.06932,0.44268 4.29725,0.10718 6.14258,-0.92774 1.844,-1.03493 3.296,-2.75816 4,-4.7539 0.476,1.53854 1.40783,2.93453 2.64649,3.96679 1.24,1.03014 2.78219,1.69517 4.38086,1.88477 1.45333,0.17187 2.94459,-0.0428 4.30859,-0.57617 1.36,-0.53334 2.59206,-1.38146 3.60938,-2.4336 2.03199,-2.1036 3.16458,-4.98023 3.44726,-7.89062 0.35065,-3.6256 -0.59466,-7.39797 -2.77734,-10.3125 -0.53866,-0.71613 -1.69082,-1.72432 -2.06446,-1.90234 0.7001,-0.45476 1.00628,-1.50347 1.01563,-2.30079 -0.14061,-2.48334 -2.57379,-4.22819 -4.95313,-4.28906 z m -1.18164,2.73828 c 1.11208,0.0504 1.39902,0.73409 1.24414,1.46094 -0.19961,0.93676 0.10352,1.16211 0.10352,1.16211 -1.06665,-0.17845 -1.82661,-0.0446 -2.7168,0.0566 -0.76666,0.088 -1.52767,0.24646 -2.26367,0.47461 0.0307,-1.69079 1.62643,-2.98636 3.63281,-3.1543 z"
       transform="matrix(0.75000002,0,0,-0.75000002,0,257.8)"
       id="path7255-7-8-3-3"
       inkscape:connector-curvature="0"
       sodipodi:nodetypes="cscccscccccccssccccscccccccccccccccccccccccccccccc" /><path
       sodipodi:nodetypes="cssaccsscccccccccccccccccccccccaacsscscssss"
       inkscape:connector-curvature="0"
       id="path7293-4-1-4-4"
       d="m 175.24837,75.353306 c -0.0431,-2.28228 0.82514,-3.27267 2.81696,-3.96796 1.97551,-0.6896 4.52022,-0.5077 8.91487,-0.83474 4.0286,-0.29981 7.20737,-2.69146 8.53439,-5.88132 0.89031,-2.14015 0.66777,-5.22636 -1.23769,-6.84284 -2.28527,-2.03954 -4.79034,-2.93075 -8.96924,-3.38524 -3.17413,-0.28719 -8.68207,0.71506 -8.69678,3.89061 -0.0137,2.97141 3.38225,3.45049 5.45508,3.48048 1.5859,0.023 3.07937,-0.0727 4.03272,-0.22413 0.50988,1.19175 0.83732,3.08682 0.0937,4.50586 -0.33501,0.5852 -0.81849,1.07899 -1.3755,1.45898 -1.11199,0.7602 -2.48024,1.06132 -3.82323,1.16602 -1.16501,0.091 -2.38728,0.0369 -3.42627,-0.49951 -0.52101,-0.2679 -0.98425,-0.65598 -1.30225,-1.14697 -0.318,-0.4899 -0.48434,-1.085 -0.42334,-1.667 0.042,-0.40629 0.19745,-0.79973 0.43945,-1.12792 0.243,-0.32891 0.57469,-0.58981 0.95068,-0.75 0.37601,-0.1601 0.79425,-0.21727 1.19825,-0.16407 0.405,0.0519 0.79567,0.21609 1.11767,0.46729 0.525,0.4089 1.06133,0.803 1.61133,1.1792 0.272,0.189 0.54815,0.37342 0.84815,0.51562 0.299,0.1418 0.62554,0.23877 0.95654,0.23877 0.542,7.5e-4 1.07599,-0.26935 1.396,-0.70605 0.318,-0.4371 0.41502,-1.02942 0.24902,-1.54542 -0.857,0.0558 -1.71427,0.0743 -2.57227,0.0572 -1.51,-0.0309 -3.05243,-0.18224 -4.41943,-0.82324 -1.83,-0.8582 -3.22484,-2.60975 -3.61084,-4.59375 -0.204,-1.0461 -0.13412,-2.13716 0.15088,-3.16406 0.285,-1.027 0.78429,-1.98834 1.42529,-2.84034 1.909,-2.541 5.0125,-4.01774 8.16651,-4.41064 4.59199,-0.57111 9.44018,1.10801 12.59618,4.49121 1.578,1.6906 2.89635,3.7641 3.31788,6.01465 0.45899,2.45055 0.0526,5.1515 -0.99765,7.41264 -0.79116,1.70326 -2.26667,3.12687 -3.78193,4.17616 0.54913,0.11213 2.71486,1.11108 2.72657,3.34415 0.0236,4.50309 -5.1355,7.749643 -11.20447,7.879513 -6.18675,0.13238 -10.99462,-2.20839 -11.15723,-5.703153 z m 19.12066,-2.81739 c 0.0114,-0.88196 -0.96486,-1.73416 -2.16792,-1.30301 -1.42343,0.63175 -2.82117,1.20019 -5.40264,1.29919 -4.18905,0.16063 -10.5898,-0.19939 -9.11139,2.70819 1.00714,1.98074 6.12057,1.88071 10.34893,1.14816 3.71515,-0.64363 6.30587,-1.76224 6.33302,-3.85253 z"
       style="fill:#100f0d;fill-opacity:1;fill-rule:nonzero;stroke:none" /><path
       style="fill:#100f0d;fill-opacity:1;fill-rule:nonzero;stroke:none"
       d="m 211.7775,69.570116 c -0.52102,-0.2679 -0.98425,-0.65598 -1.30225,-1.14697 -0.318,-0.4899 -0.48435,-1.08499 -0.42334,-1.66699 0.042,-0.40629 0.19745,-0.79974 0.43945,-1.12793 0.243,-0.32891 0.57469,-0.58981 0.95068,-0.75 0.37602,-0.1601 0.79425,-0.21726 1.19825,-0.16406 0.405,0.0519 0.79567,0.21608 1.11767,0.46728 0.525,0.4089 1.06133,0.803 1.61133,1.1792 0.272,0.189 0.54815,0.37342 0.84815,0.51562 0.299,0.14181 0.62554,0.23877 0.95654,0.23877 0.542,7.5e-4 1.07599,-0.26935 1.396,-0.70605 0.318,-0.4371 0.62772,-1.3218 0.46172,-1.8378 -0.857,0.0558 -3.847,0.10159 -5.98183,-0.0759 -2.13483,-0.1775 -4.51088,-0.45736 -6.52355,-1.61013 -1.31598,-0.7539 -2.42821,-1.86405 -3.15819,-3.19335 -0.729,-1.32771 -1.0733,-2.87046 -0.94629,-4.38135 0.144,-1.71021 0.88843,-3.35299 2.02441,-4.6377 1.136,-1.28599 4.54733,-2.987429 7.10862,-2.995139 2.27527,-0.0068 5.73747,0.764048 7.23202,2.107048 1.0924,0.981623 1.26586,1.281241 2.32494,2.115601 0.33799,0.2598 0.71864,0.48587 1.13965,0.56397 0.21099,0.0379 -1.23227,0.38636 -1.02427,0.33636 0,0 1.00316,-0.2036 0.54187,0.26447 0.141,0.19179 1.15276,1.4422 1.25276,1.6594 0.34604,0.71474 0.38326,1.25944 -2.8e-4,1.6568 -0.22864,0.23687 -0.75763,0.22396 -0.98702,0.0351 -0.32752,-0.26968 -1.16989,-1.7741 -1.74463,-2.68799 -0.78798,-1.18281 -2.0277,-2.05495 -3.40869,-2.39794 -1.671,-0.41601 -3.51324,-0.0378 -4.90723,0.97119 -1.397,1.00899 -2.3265,2.62227 -2.54151,4.33008 -0.11901,0.94108 -0.0259,1.9184 0.35304,2.78759 1.19751,2.2739 3.78445,2.86243 5.96484,3.18018 2.10849,0.3001 3.50794,0.18193 4.26123,0.11133 0.17533,-0.0208 0.35952,-0.0406 0.50977,-0.0644 0.50988,1.19175 0.62466,3.37921 -0.11895,4.79824 -0.33501,0.58521 -0.81849,1.079 -1.3755,1.45899 -1.11198,0.7602 -2.49468,1.06536 -3.82323,1.16601 -1.15086,0.0872 -2.43669,-0.004 -3.42624,-0.49955 z"
       id="path7295-1-1-5-23"
       inkscape:connector-curvature="0"
       sodipodi:nodetypes="cccccccccccccccccsscccccasccccccccccacc" /><path
       inkscape:connector-curvature="0"
       id="path7303-3-6-1-8"
       style="fill:#100f0d;fill-opacity:1;fill-rule:nonzero;stroke:none"
       d="m 252.85732,63.605806 c -0.106,0.3367 -0.038,0.725 0.179,1.0039 0.173,0.2211 0.427,0.3699 0.695,0.4449 0.271,0.075 0.554,0.0801 0.834,0.0789 l 9.127,-0.0109 c 0.155,-0.0719 0.281,-0.2032 0.347,-0.3598 0.065,-0.157 0.068,-0.3391 0.012,-0.4992 -0.048,-0.1301 -0.134,-0.245 -0.242,-0.3328 -0.105,-0.0891 -0.231,-0.152 -0.364,-0.1954 -0.263,-0.0847 -0.546,-0.0867 -0.822,-0.0859 -0.544,0.003 -1.089,0.016 -1.631,-0.0219 -0.178,-0.0129 -0.355,-0.0308 -0.532,-0.0558 -0.173,-0.025 -0.347,-0.0571 -0.51,-0.116 -0.163,-0.0602 -0.319,-0.1481 -0.438,-0.2743 -0.108,-0.1129 -0.184,-0.2531 -0.225,-0.4039 -0.04,-0.15 -0.046,-0.309 -0.02,-0.4621 0.053,-0.3058 0.231,-0.5828 0.465,-0.7867 0.23501,-0.2043 0.52401,-0.3383 0.82301,-0.423 0.29899,-0.084 0.609,-0.1211 0.919,-0.1461 0.863,-0.07 1.73499,-0.0539 2.589,0.0789 0.777,0.1211 1.551,0.3429 2.202,0.7832 0.32499,0.2199 0.61599,0.4929 0.84,0.8136 0.227,0.3223 0.383,0.6934 0.441,1.0813 0.091,0.6098 -0.072,1.2418 -0.376,1.7777 -0.30701,0.5371 -0.747,0.9852 -1.232,1.3692 -1.003,0.7949 -2.20401,1.3289 -3.457,1.598 -1.25201,0.2692 -2.553,0.275 -3.818,0.0762 -2.502,-0.3934 -4.85901,-1.6 -6.675,-3.3652 -1.81401,-1.7649 -3.081,-4.0758 -3.639,-6.545 -0.583,-2.5832 -0.39,-5.341 0.582,-7.8039 0.971,-2.4633 2.72199,-4.6179 4.955,-6.0422 1.87699,-1.1968 4.105,-1.8769 6.331,-1.7808 2.22399,0.0961 4.431,0.9937 5.99,2.5847 1.419,1.4493 2.266,3.4524 2.287,5.4801 0.006,0.4781 -0.034,0.9653 -0.207,1.411 -0.172,0.4472 -0.486,0.8531 -0.921,1.055 -0.382,0.1789 -0.841,0.1852 -1.227,0.0172 -0.388,-0.1679 -0.696,-0.5082 -0.82701,-0.9101 l -2.40999,0.8039 c 0.143,0.6961 0.51,1.3429 1.035,1.82109 0.52599,0.47811 1.205,0.78321 1.911,0.85821 0.70899,0.075 1.43499,-0.0801 2.06799,-0.4071 0.633,-0.32811 1.17201,-0.825 1.578,-1.41009 0.81401,-1.16991 1.08401,-2.65311 0.996,-4.07581 -0.094,-1.5293 -0.579,-3.0273 -1.359,-4.34529 -0.78199,-1.31801 -1.85499,-2.457 -3.09799,-3.35391 -2.483,-1.7942 -5.603,-2.5899 -8.66801,-2.5692 -2.68999,0.0184 -5.38299,0.6461 -7.782,1.8633 -2.40099,1.218 -4.50399,3.027 -6.02799,5.2457 -1.525,2.2184 -2.461,4.8442 -2.63901,7.53011 -0.17799,2.68588 0.41201,5.42418 1.719,7.77808 1.509,2.72001 3.94901,4.8782 6.74801,6.2371 2.799,1.359 5.943,1.9411 9.054,1.8879 2.245,-0.039 4.50199,-0.407 6.56299,-1.2949 1.30301,-0.5609 2.535,-1.3441 3.43301,-2.441 0.898,-1.0981 1.43299,-2.53588 1.254,-3.943 -0.161,-1.2801 -0.90101,-2.4453 -1.892,-3.2711 -0.99,-0.8261 -2.21901,-1.332 -3.477,-1.6172 -1.17801,-0.2679 -2.418,-0.3488 -3.592,-0.0597 -1.173,0.289 -2.27501,0.9758 -2.915,2.0008 -0.685,1.1023 -0.771,2.5519 -0.222,3.7281 l -4.732,9.8e-4 0,0"
       sodipodi:nodetypes="cccccccccccccccccccccccccccccccccccccccccccccccccsccccccccccccc" /><path
       inkscape:connector-curvature="0"
       id="path7309-4-0-8-3"
       style="fill:#ffffff;fill-opacity:1;fill-rule:nonzero;stroke:none"
       d="m 294.25684,65.813686 c -0.711,0.082 -1.43201,0.082 -2.14301,0 -0.57499,-0.066 -1.14399,-0.186 -1.69599,-0.3571 0.486,0.7301 1.146,1.3454 1.91,1.7762 0.253,0.1442 0.52399,0.2692 0.813,0.2981 0.145,0.014 0.29299,0.003 0.432,-0.0411 0.138,-0.0449 0.267,-0.123 0.363,-0.2308 0.108,-0.1223 0.172,-0.2774 0.21799,-0.432 0.045,-0.1571 0.074,-0.3161 0.123,-0.4723 0.065,-0.2059 0.16601,-0.4 0.29501,-0.5719 l -0.315,0.0309 0,0"
       sodipodi:nodetypes="cccccccccccc" /><path
       style="fill:#100f0d;fill-opacity:1;fill-rule:nonzero;stroke:none"
       d="m 222.25944,52.364715 c 0.86414,0.0179 1.38501,-0.993796 1.14369,-2.626673 -0.55869,-3.780442 -3.19201,-7.102206 -4.3234,-8.461648 l 1.0777,-0.800546 c 0.26055,0.283752 0.93338,1.127268 1.09136,1.276785 0.15783,0.163096 0.76221,0.725548 2.2496,0.701 1.83476,-0.03028 2.74224,-2.402482 5.06032,-2.417271 2.27445,-0.01451 4.06219,1.244226 4.04144,4.931074 -0.008,1.46711 -0.6107,3.141251 -1.87881,4.001221 1.9669,3.177992 -0.10482,5.209488 -1.69772,5.244568 -1.97908,0.04359 -2.87887,-1.523829 -2.82332,-2.74028 0.10607,-2.322864 3.49059,-3.977938 3.46535,-6.464439 -0.0106,-1.043585 -0.63803,-1.974474 -1.58736,-2.016774 -1.62365,-0.07235 -3.52347,1.69347 -5.42624,0.698457 0.6597,0.87326 1.87371,3.073648 2.30479,5.369817 0.65336,3.480165 -0.29184,5.29538 -2.36664,5.212534 -0.8361,-0.03339 -1.2744,-0.74542 -2.81601,-1.51984 -1.44107,-1.07137 -1.05965,-1.105523 -0.95279,-2.423985 0.0824,-1.016085 1.2523,-1.079406 1.68132,-0.686195 0.74922,0.686694 0.61483,2.69854 1.75672,2.722195 z m 7.5084,-2.867689 c -2.16871,0.9868 -2.54235,3.202314 -0.79035,3.206274 1.37687,0.003 1.75243,-2.212819 0.79035,-3.206274 z"
       id="path7295-1-1-5-2-7"
       inkscape:connector-curvature="0"
       sodipodi:nodetypes="sscccssscsssscsscssscsc" /><path
       inkscape:connector-curvature="0"
       id="path7249-9-2-8-6-4"
       style="fill:#100f0d;fill-opacity:1;fill-rule:nonzero;stroke:none"
       d="m 230.89638,51.881376 c 0.69229,0.80029 1.7311,1.3015 2.79031,1.30436 0.74249,9.8e-4 1.47695,-0.23553 2.10242,-0.63415 0.62602,-0.39869 1.14402,-0.95558 1.53565,-1.58622 0.78175,-1.2614 1.04694,-2.78062 1.07989,-4.26484 0.0337,-1.52875 -0.17787,-3.10879 -0.95257,-4.42789 -0.38731,-0.6589 -0.91399,-1.24227 -1.55737,-1.65568 -0.64294,-0.41376 -1.40496,-0.65331 -2.16876,-0.63477 -0.9745,0.0233 -1.9189,0.46779 -2.60633,1.15922 -0.68777,0.69111 -1.12252,1.61338 -1.28648,2.57451 -0.0429,0.25542 -0.0686,0.52179 0.005,0.76982 0.037,0.12385 0.0987,0.2417 0.18654,0.33643 0.0888,0.0944 0.20485,0.16519 0.3314,0.19034 0.11347,0.0227 0.23319,0.009 0.34012,-0.0324 0.10739,-0.0419 0.20428,-0.11057 0.28259,-0.19546 0.15544,-0.16933 0.23817,-0.39572 0.27654,-0.6235 0.0374,-0.22774 0.035,-0.45927 0.0409,-0.6902 0.007,-0.23041 0.0227,-0.46429 0.0983,-0.68214 0.0843,-0.24399 0.24091,-0.46082 0.4414,-0.62312 0.20106,-0.16204 0.4436,-0.27021 0.69704,-0.31818 0.50699,-0.0948 1.04383,0.0553 1.46489,0.35392 0.42105,0.29862 0.73083,0.73497 0.93312,1.21026 0.20141,0.47528 0.30015,0.98749 0.35349,1.50038 0.0617,0.60604 0.0614,1.21676 0.0413,1.82499 -0.0178,0.5989 -0.0529,1.19954 -0.16428,1.78791 -0.0868,0.45906 -0.22426,0.91284 -0.45198,1.32133 -0.22878,0.40763 -0.55332,0.76888 -0.96204,0.99437 -0.40872,0.22638 -0.90678,0.30815 -1.35455,0.17587 -0.55265,-0.10417 -1.0527,-0.68682 -1.21985,-0.84955 -0.16765,-0.163 -0.4323,0.214968 -0.49229,-0.01096"
       sodipodi:nodetypes="cccccccccccccccccccccccccccccc" /><use
       x="0"
       y="0"
       xlink:href="#path7255-7-8-3-3"
       id="use4716"
       transform="translate(144,0)"
       width="100%"
       height="100%" /></g></svg>