<?xml version="1.0" encoding="UTF-8" standalone="no"?>
<!-- Created with Inkscape (http://www.inkscape.org/) -->

<svg
   xmlns:dc="http://purl.org/dc/elements/1.1/"
   xmlns:cc="http://creativecommons.org/ns#"
   xmlns:rdf="http://www.w3.org/1999/02/22-rdf-syntax-ns#"
   xmlns:svg="http://www.w3.org/2000/svg"
   xmlns="http://www.w3.org/2000/svg"
   xmlns:xlink="http://www.w3.org/1999/xlink"
   xmlns:sodipodi="http://sodipodi.sourceforge.net/DTD/sodipodi-0.dtd"
   xmlns:inkscape="http://www.inkscape.org/namespaces/inkscape"
   id="svg7233"
   version="1.1"
   inkscape:version="0.91+devel+osxmenu r12855"
   xml:space="preserve"
   width="444.82666"
   height="343.73334"
   viewBox="0 0 444.82666 343.73334"
   sodipodi:docname="royal_logo_svg.svg"><metadata
     id="metadata7239"><rdf:RDF><cc:Work
         rdf:about=""><dc:format>image/svg+xml</dc:format><dc:type
           rdf:resource="http://purl.org/dc/dcmitype/StillImage" /><dc:title /></cc:Work></rdf:RDF></metadata><defs
     id="defs7237" /><sodipodi:namedview
     pagecolor="#ffffff"
     bordercolor="#666666"
     borderopacity="1"
     objecttolerance="10"
     gridtolerance="10"
     guidetolerance="10"
     inkscape:pageopacity="0"
     inkscape:pageshadow="2"
     inkscape:window-width="1680"
     inkscape:window-height="1001"
     id="namedview7235"
     showgrid="false"
     inkscape:zoom="0.42853773"
     inkscape:cx="113.5131"
     inkscape:cy="64.998651"
     inkscape:window-x="0"
     inkscape:window-y="23"
     inkscape:window-maximized="0"
     inkscape:current-layer="g7241"
     showguides="false"
     inkscape:guide-bbox="true"><sodipodi:guide
       orientation="0,1"
       position="371.67278,186.04265"
       id="guide4537" /><sodipodi:guide
       orientation="0,1"
       position="270.19497,156.75434"
       id="guide5843" /><sodipodi:guide
       orientation="0,1"
       position="176.90975,200.53661"
       id="guide5845" /><sodipodi:guide
       orientation="0,1"
       position="305.54487,145.55312"
       id="guide5847" /><sodipodi:guide
       orientation="0,1"
       position="47.107873,184.49368"
       id="guide6544" /><sodipodi:guide
       orientation="0,1"
       position="193.46785,165.88115"
       id="guide4516" /><sodipodi:guide
       orientation="1,0"
       position="373.65439,120.46781"
       id="guide4542" /><sodipodi:guide
       orientation="0,1"
       position="383.71769,98.736934"
       id="guide4544" /><sodipodi:guide
       orientation="0,1"
       position="692.19414,18.975525"
       id="guide4588" /><sodipodi:guide
       orientation="1,0"
       position="656.71816,89.927487"
       id="guide4590" /><sodipodi:guide
       orientation="0,1"
       position="152.62922,77.964656"
       id="guide4640" /><sodipodi:guide
       orientation="0,1"
       position="169.74844,72.808263"
       id="guide4642" /><sodipodi:guide
       orientation="0,1"
       position="172.32664,64.661163"
       id="guide4674" /><sodipodi:guide
       orientation="0,1"
       position="299.12769,72.2661"
       id="guide5887" /><sodipodi:guide
       orientation="0,1"
       position="122.21794,92.90314"
       id="guide5889" /><sodipodi:guide
       orientation="0,1"
       position="104.67477,91.654876"
       id="guide5891" /></sodipodi:namedview><g
     id="g7241"
     inkscape:groupmode="layer"
     inkscape:label="ink_ext_XXXXXX"
     transform="matrix(1.3333333,0,0,-1.3333333,0,343.73333)"><path
       inkscape:connector-curvature="0"
       id="path7309-4-0-8"
       style="fill:#ffffff;fill-opacity:1;fill-rule:nonzero;stroke:none"
       d="m 295.40843,134.72504 c -0.711,0.082 -1.43201,0.082 -2.14301,0 -0.57499,-0.066 -1.14399,-0.186 -1.69599,-0.3571 0.486,0.7301 1.146,1.3454 1.91,1.7762 0.253,0.1442 0.52399,0.2692 0.813,0.2981 0.145,0.014 0.29299,0.003 0.432,-0.0411 0.138,-0.0449 0.267,-0.123 0.363,-0.2308 0.108,-0.1223 0.172,-0.2774 0.21799,-0.432 0.045,-0.1571 0.074,-0.3161 0.123,-0.4723 0.065,-0.2059 0.16601,-0.4 0.29501,-0.5719 l -0.315,0.0309 0,0" /><path
       inkscape:connector-curvature="0"
       style="fill:#100f0d;fill-opacity:1;fill-rule:nonzero;stroke:none"
       d="m 47.443112,77.774766 c -0.0896,-0.005 -0.179,-0.0179 -0.2666,-0.0381 -0.3015,-0.0699 -0.58015,-0.22796 -0.81445,-0.43066 -0.2364,-0.2032 -0.42909,-0.44972 -0.59619,-0.71192 -0.3348,-0.52299 -0.56787,-1.10677 -0.90967,-1.62597 -0.6269,-0.9492 -1.5822,-1.62706 -2.5459,-2.23096 -3.2528,-2.041 -6.84355,-3.49076 -10.13965,-5.46386 -1.9563,-1.17111 -3.82857,-2.54749 -5.2251,-4.35059 -1.39766,-1.8032 -2.28603,-4.07607 -2.09033,-6.34717 0.18828,-2.1922 1.38413,-4.23236 3.05713,-5.66016 1.6731,-1.42809 3.79175,-2.27534 5.96045,-2.64404 2.9367,-0.5 6.05079,-0.13537 8.68359,1.25684 2.6324,1.39179 4.73463,3.85015 5.46973,6.73535 0.659,2.5879 0.18266,5.44471 -1.28174,7.67871 -1.4641,2.234 -3.89424,3.81115 -6.53174,4.23925 1.7383,0.5121 3.43043,1.18477 5.04493,2.00977 0.9882,0.5039 1.95944,1.07363 2.75244,1.84864 0.7949,0.7762 1.40359,1.78237 1.53369,2.88427 0.0828,0.7129 -0.0482,1.47285 -0.47901,2.04786 -0.2149,0.28789 -0.50123,0.52377 -0.83203,0.66357 -0.24787,0.10522 -0.52076,0.15495 -0.78955,0.13916 z m -7.75781,-11.38183 c 0.23018,-0.006 0.45982,-0.0217 0.68994,-0.0498 0.9207,-0.1129 1.8269,-0.41321 2.5957,-0.93311 0.7671,-0.51999 1.39205,-1.26687 1.70655,-2.13867 0.3027,-0.8403 0.31076,-1.77298 0.085,-2.63818 -0.2261,-0.8649 -0.67548,-1.66068 -1.24659,-2.34668 -1.1457,-1.3711 -2.74001,-2.28138 -4.32861,-3.09668 -1.7012,-0.8738 -3.49121,-1.68733 -5.39941,-1.81933 -0.9543,-0.0648 -1.9263,0.0455 -2.8169,0.3955 -0.8911,0.3492 -1.69585,0.94441 -2.23095,1.73731 -0.6309,0.934 -0.8642,2.10905 -0.7251,3.22705 0.1363,1.1179 0.63055,2.17761 1.32275,3.06591 1.3871,1.7769 3.49493,2.8315 5.60742,3.61671 1.52163,0.56533 3.12896,1.02429 4.74024,0.97998 z"
       id="path7245-7-2-5-6"
       sodipodi:nodetypes="ccccccccccccccccccccccccccccccccccccc" /><path
       inkscape:connector-curvature="0"
       id="path7249-9-2-8-2"
       style="fill:#100f0d;fill-opacity:1;fill-rule:nonzero;stroke:none"
       d="m 49.453452,61.284706 c -0.12429,1.5449 0.34101,3.1418 1.32341,4.3418 0.982,1.1992 2.4832,1.9742 4.03399,2.0203 1.08711,0.0316 2.17191,-0.2864 3.10351,-0.8453 0.9324,-0.559 1.7129,-1.3539 2.31129,-2.2618 1.1946,-1.816 1.64301,-4.03 1.75001,-6.2019 0.1098,-2.2371 -0.13751,-4.55899 -1.2195,-6.52109 -0.54101,-0.9801 -1.2891,-1.8551 -2.2148,-2.4859 -0.925,-0.6313 -2.0313,-1.0122 -3.1504,-1.0153 -1.4278,-0.005 -2.8282,0.609 -3.86211,1.5942 -1.0344,0.9847 -1.70749,2.3179 -1.98559,3.7187 -0.073,0.3723 -0.1211,0.7613 -0.0227,1.1274 0.0493,0.18279 0.13481,0.35779 0.2598,0.49999 0.12621,0.1418 0.2934,0.25 0.47771,0.2918 0.1653,0.0378 0.3411,0.023 0.4993,-0.034 0.159,-0.0571 0.3035,-0.1539 0.4215,-0.275 0.2343,-0.2418 0.3644,-0.57 0.4296,-0.902 0.0637,-0.332 0.0696,-0.6711 0.0871,-1.009 0.0188,-0.3371 0.0516,-0.6789 0.1708,-0.9949 0.1332,-0.3539 0.371,-0.6652 0.671,-0.8949 0.3008,-0.2293 0.6602,-0.3781 1.0332,-0.4383 0.7461,-0.1187 1.5262,0.1223 2.1309,0.5762 0.6047,0.4539 1.041,1.1051 1.3184,1.809 0.2761,0.7039 0.4004,1.4578 0.4582,2.2109 0.0664,0.8898 0.0418,1.784 -0.0102,2.6738 -0.0496,0.8762 -0.125,1.7543 -0.3113,2.6114 -0.1453,0.6687 -0.3645,1.3277 -0.7141,1.9168 -0.3511,0.5878 -0.8406,1.1039 -1.448,1.4179 -0.6074,0.3153 -1.3399,0.4153 -1.9903,0.2039 -0.3253,-0.1047 -0.6281,-0.2867 -0.8664,-0.5316 -0.239,-0.2453 -0.4148,-0.5531 -0.4937,-0.8863 -0.0735,-0.311 -0.0625,-0.636 -0.0344,-0.9539 0.0274,-0.3188 0.0723,-0.6372 0.0645,-0.9571 -0.006,-0.3199 -0.0664,-0.6461 -0.2356,-0.9179 -0.084,-0.136 -0.1949,-0.2559 -0.3277,-0.3438 -0.1328,-0.0891 -0.2895,-0.1453 -0.4485,-0.1531 -0.1867,-0.0102 -0.3718,0.0461 -0.53,0.1449 -0.1567,0.098 -0.2864,0.2379 -0.3852,0.3961 -0.198,0.318 -0.2637,0.6969 -0.2937,1.068 l 0,0"
       sodipodi:nodetypes="cccccccccccccccccccccscccccccccccccccccc" /><path
       style="fill:#100f0d;fill-opacity:1;fill-rule:nonzero;stroke:none"
       d="m 88.81064,77.925941 c -0.291227,0.0038 -0.585211,-0.0267 -0.870487,-0.08352 -0.571791,-0.114809 -1.117815,-0.332251 -1.642281,-0.58662 -1.214715,-0.588329 -2.335808,-1.38567 -3.236145,-2.389914 -0.901532,-1.004103 -1.577699,-2.220238 -1.889596,-3.533088 -0.17901,-0.751386 -0.323627,-1.714572 -0.259609,-2.484365 -1.781566,-0.916328 -2.486056,-2.298137 -2.544334,-3.694226 -0.01977,-0.824202 0.387057,-1.62644 0.716294,-2.273957 0.354166,-0.09959 1.344104,-0.144255 2.051201,-0.152677 1.069798,-0.01274 3.102893,0.167201 4.31765,-0.311137 0.511489,-0.154415 1.003862,-0.395397 1.408311,-0.745128 0.405687,-0.348663 0.72013,-0.810466 0.855195,-1.327409 0.144655,-0.555987 0.07482,-1.158137 -0.152035,-1.684795 -0.226868,-0.526657 -0.604364,-0.98096 -1.054939,-1.337785 -0.898071,-0.714356 -2.044693,-1.032075 -3.169984,-1.253318 -3.615165,-0.712636 -7.364007,-0.613338 -10.989245,0.05524 -1.208839,0.224054 -2.447435,0.528856 -3.418722,1.281899 -0.485688,0.376673 -0.894039,0.863874 -1.130139,1.431949 -0.234941,0.567135 -0.28792,1.216758 -0.100509,1.801768 0.128995,0.398751 0.368262,0.751792 0.668371,1.04449 0.04391,0.03804 0.08384,0.07992 0.129954,0.115798 0.452028,0.352145 1.005389,0.601167 1.588659,0.778962 0.08796,0.02095 0.175635,0.04381 0.264379,0.05993 0.08165,0.01496 0.133446,0.03863 0.207085,0.05606 0.762224,0.180828 1.542194,0.266876 2.193717,0.292485 1.58484,0.06236 3.079861,0.0034 4.036672,-0.124336 0.480148,1.20403 0.760459,3.105958 -0.01815,4.506098 -0.349434,0.576707 -0.845511,1.05926 -1.411773,1.425311 -1.130524,0.732365 -2.505719,0.999407 -3.850889,1.070756 -1.166913,0.06204 -2.387369,-0.02208 -3.412721,-0.584112 -0.514209,-0.280759 -0.968138,-0.680716 -1.27385,-1.179452 -0.305745,-0.497634 -0.457331,-1.096738 -0.381904,-1.677048 0.05208,-0.405124 0.217965,-0.794423 0.468029,-1.116498 0.25109,-0.322781 0.589412,-0.57512 0.969268,-0.72593 0.379869,-0.15072 0.79917,-0.19753 1.20172,-0.134253 0.403595,0.06194 0.790006,0.235664 1.105673,0.494779 0.514689,0.421803 1.04101,0.829186 1.581503,1.218902 0.267233,0.19569 0.538076,0.386555 0.834453,0.536167 0.295392,0.149165 0.620379,0.254329 0.951283,0.262538 0.541814,0.01416 1.081497,-0.243346 1.412248,-0.67197 0.328744,-0.429067 0.441336,-1.018453 0.288185,-1.53841 -0.8581,0.03492 -1.715142,0.03269 -2.57245,-0.0057 -1.508769,-0.06837 -3.295527,-0.46748 -4.418504,-1.043765 -1.752245,-0.899211 -3.118115,-2.550741 -3.513303,-4.750498 -0.395178,-2.199757 0.294152,-4.629234 1.72972,-6.450522 1.344593,-1.703256 3.285793,-2.877787 5.356961,-3.525207 2.071188,-0.647141 4.27157,-0.793398 6.440259,-0.693399 2.852831,0.130983 5.758633,0.711507 8.163525,2.253169 1.201251,0.770996 2.261626,1.778741 3.026032,2.983258 0.764822,1.205032 1.228825,2.611981 1.251529,4.039727 0.02105,1.346155 -0.353951,2.697523 -1.066595,3.839374 -0.712757,1.141456 -1.759598,2.072895 -2.978477,2.646265 1.326848,0.547368 1.783753,1.386898 1.891651,2.541311 0.0293,2.247986 -2.665144,3.563312 -5.140132,3.017843 0.581442,1.725595 2.021752,3.103339 3.77792,3.583469 0.775151,0.21111 1.591245,0.253906 2.360105,0.489143 0.385462,0.117083 0.75832,0.284409 1.076104,0.530945 0.31904,0.245203 0.578971,0.573344 0.706407,0.955268 0.09019,0.27722 0.110229,0.574974 0.06129,0.862685 -0.04812,0.288184 -0.163723,0.563214 -0.327606,0.803971 -0.326938,0.482386 -0.844994,0.818096 -1.406323,0.978097 -0.279466,0.07996 -0.569424,0.117546 -0.860661,0.121358 z M 84.266959,67.529132 c 1.297864,-0.03364 1.869623,-0.650733 1.843306,-1.319667 -0.0081,-0.210137 -0.07178,-0.431617 -0.21201,-0.593785 -0.242633,-0.281608 -0.550833,-0.365474 -0.860537,-0.353536 -0.524621,0.02068 -1.079286,0.273619 -1.406577,0.70989 -0.281242,0.374586 -0.411826,0.900693 -0.357011,1.366321 0.189065,0.10325 0.670578,0.199136 0.992829,0.190777 z m -2.849856,-0.843448 c 0.06041,-0.413269 0.173227,-0.817669 0.336192,-1.201465 0.139435,-0.327893 0.31432,-0.640341 0.522657,-0.930723 -0.553631,-0.06819 -1.412904,-0.140189 -2.038783,0.08622 -0.353837,0.437716 -0.05474,1.074118 0.118565,1.290793 0.314671,0.38572 0.603867,0.560604 1.061388,0.755103 z"
       id="path7251-7-8-9-4"
       inkscape:connector-curvature="0"
       sodipodi:nodetypes="ccccccccscccccccccccccccccccccccccccccccccsccccccccccccccccccsccccccccccccccc" /><path
       style="fill:#100f0d;fill-opacity:1;fill-rule:nonzero;stroke:none"
       d="m 109.9738,74.73077 c -1.88575,-1.653786 -3.26281,-3.879491 -3.89899,-6.305282 l -3.47873,-2.417934 c 0.003,1.091152 -0.42162,2.177576 -1.16482,2.977898 -0.67748,0.730076 -1.62004,1.217735 -2.611015,1.311395 -0.865084,0.08197 -1.747579,-0.13496 -2.502042,-0.56309 -0.755181,-0.428498 -1.387764,-1.060598 -1.859423,-1.79008 -0.57141,-0.87904 -0.916316,-1.903756 -0.985034,-2.949811 -0.03921,-0.582825 0.007,-1.176171 0.187227,-1.73286 0.179442,-0.555552 0.49656,-1.074363 0.944927,-1.448852 0.448369,-0.37489 1.032008,-0.599063 1.615057,-0.571415 0.29201,0.01385 0.581123,0.09103 0.838739,0.227568 0.259138,0.136549 0.485143,0.336115 0.647792,0.57783 0.297391,0.439042 0.375764,0.993793 0.348764,1.522447 -0.02699,0.528755 -0.151413,1.046578 -0.228277,1.570475 -0.07687,0.523898 -0.105034,1.069232 0.05929,1.573638 0.08101,0.251304 0.210328,0.489317 0.391543,0.683246 0.180776,0.192848 0.412224,0.339555 0.669283,0.403835 0.257856,0.06445 0.535901,0.04409 0.786852,-0.04451 0.251385,-0.08832 0.476886,-0.242301 0.663846,-0.43172 0.38321,-0.389568 0.59991,-0.938744 0.58702,-1.484026 -0.0127,-0.544867 -0.25534,-1.081441 -0.65649,-1.452838 -0.885699,-1.023219 -1.735999,-2.077236 -2.547365,-3.160857 -1.518688,-2.02662 -2.901065,-4.152173 -4.38566,-6.204135 -0.20359,-0.281409 -0.408828,-0.561603 -0.568547,-0.868817 -0.160529,-0.307868 -0.274711,-0.644793 -0.279357,-0.991827 -0.0039,-0.347075 0.108225,-0.704534 0.349991,-0.952783 0.121906,-0.12442 0.272044,-0.219705 0.439488,-0.269102 0.166381,-0.04855 0.34639,-0.05086 0.511833,0.0018 0.161843,0.05056 0.3048,0.152428 0.428537,0.268069 0.12327,0.116362 0.229911,0.248208 0.342488,0.376054 0.110897,0.128333 0.22912,0.25198 0.369111,0.348469 0.139315,0.09702 0.301326,0.162614 0.470805,0.164986 0.181512,0.0029 0.358784,-0.06924 0.499052,-0.18382 0.140757,-0.113058 0.244891,-0.265757 0.322279,-0.429511 0.150659,-0.328224 0.19,-0.695621 0.279857,-1.044927 0.223518,-0.851939 0.765283,-1.609739 1.481993,-2.122663 0.716601,-0.51292 1.59697,-0.782794 2.477415,-0.79509 1.07849,-0.01586 2.159,0.35514 2.99963,1.028936 0.84226,0.674824 1.439,1.645924 1.65864,2.702399 0.10914,-0.917953 0.4936,-1.801048 1.0893,-2.506726 0.59576,-0.706469 1.40339,-1.232475 2.28902,-1.493357 1.15647,-0.341573 2.42237,-0.227893 3.53953,0.223023 1.11717,0.451205 2.08818,1.224495 2.85956,2.149658 1.64847,1.978921 2.37731,4.711328 1.86757,7.235668 -0.4635,2.293222 -1.92053,4.346219 -3.86715,5.645367 -1.94612,1.299237 -4.35241,1.85723 -6.68587,1.671215 -0.68673,-0.05421 -1.36715,-0.169542 -2.03332,-0.346697 1.60613,1.042668 3.48329,1.664503 5.39318,1.787545 3.17258,0.205334 6.33558,-0.966499 8.90141,-2.843063 1.64834,-1.20562 3.09393,-2.712937 4.0906,-4.495581 0.99569,-1.781889 1.52627,-3.845661 1.35936,-5.881196 -0.14672,-1.629863 -0.62149,-3.45608 -2.88782,-3.490727 -1.171,0.03452 -1.64993,0.866836 -1.95029,1.629749 l -2.07589,-0.51633 c 0.43451,-1.778942 1.76851,-3.362337 4.06465,-3.478247 1.42936,-0.04647 2.92549,0.622324 3.93316,1.634936 1.00866,1.012567 1.6679,2.327349 2.11354,3.684854 0.87016,2.646249 0.97532,5.538728 0.30148,8.241847 -0.67385,2.703019 -2.42345,5.408216 -4.43456,7.33672 1.5894,0.820327 2.14213,2.122207 2.20549,3.415296 0.0479,0.97147 -0.21426,1.978658 -0.71851,2.827248 -0.50327,0.848545 -1.23566,1.553952 -2.07836,2.067457 -1.05532,0.640786 -2.56849,0.942244 -4.21313,1.024465 -3.12587,0.129321 -6.28786,-1.348915 -8.26869,-3.046469 z m 8.43979,-4.615819 c 0,0 -1.06893,0.191994 -1.51423,0.262166 -2.694,0.419951 -6.17769,0.100935 -8.43204,-0.828683 0.22182,0.711575 1.63759,2.356125 2.84023,3.053028 2.3299,1.350129 4.89098,2.149217 7.86776,1.833046 0,0 -1.26929,-0.608678 -1.35971,-2.565571 -0.0467,-1.017591 0.59799,-1.753986 0.59799,-1.753986 z m 3.33923,3.412823 c 1.12121,-0.0623 1.85261,-1.114734 1.8033,-2.045948 -0.0663,-1.24721 -0.88824,-1.920107 -1.92017,-1.853457 -1.22333,0.04718 -2.01143,1.156594 -1.93361,2.095571 0.0187,0.769415 0.61732,1.88346 2.05048,1.803834 z M 103.65367,56.871071 c -0.3398,-1.535637 -1.38905,-3.231835 -4.054626,-3.022119 -1.328833,0.104546 -2.456159,1.827872 -3.793883,1.26374 0.803771,1.347953 1.701498,2.639974 2.686115,3.862838 1.286951,1.598629 2.763414,3.11237 4.620064,3.989668 1.25224,0.591581 2.65876,0.87102 4.03748,0.762158 l -1e-5,-4e-5 c 0.19695,-0.01589 0.39391,-0.03899 0.58923,-0.07053 1.5624,-0.252677 3.04618,-1.032278 4.09049,-2.222766 0.73332,-0.837003 1.25595,-1.911962 1.22137,-3.024424 -0.0227,-0.768849 -0.31207,-1.520529 -0.7795,-2.132072 -0.4667,-0.610486 -1.10682,-1.082054 -1.81328,-1.384529 -0.70695,-0.302444 -1.49461,-0.440913 -2.25382,-0.326477 -0.76137,0.113334 -1.49076,0.488117 -1.97606,1.084796 -0.45944,0.564282 -0.53192,0.907202 -0.68775,1.618749 -0.0826,0.376932 -0.13032,0.697619 -0.20522,1.054897 l -1.61906,-0.760517 c 0,0 -7.3e-4,-0.433094 -0.0615,-0.69337 z"
       id="path7253-9-0-8-4"
       inkscape:connector-curvature="0"
       sodipodi:nodetypes="cccccccccccccsscccccccccccccccccccccccccccccccccccccccccccscccccccccaacscssccscsccccccccccccscccc" /><path
       style="fill:#100f0d;fill-opacity:1;fill-rule:nonzero;stroke:none"
       d="m 201.65234,249.85742 c -3.21962,0.0168 -5.76129,1.36133 -7.08007,4.07031 -1.24986,2.56738 -0.2129,4.98047 -0.21289,4.98047 2.07621,-0.76192 4.36889,-1.02233 6.11328,-1.14453 1.95612,-0.0775 3.63843,0.55068 4.75976,1.81055 1.124,1.25893 1.67612,3.58222 1.24219,5.14651 -0.89645,3.23168 -4.37484,5.19091 -7.51172,5.4043 -0.0919,0.005 -0.18838,-10e-4 -0.28125,0.002 0.0112,-0.0116 0.0303,-0.0236 0.041,-0.0351 -2.54654,0.1434 -3.866,-0.54801 -5.03944,-1.89453 -0.62592,-0.74132 -1.10616,-1.63599 -1.33086,-2.58085 -0.11906,-0.50054 -0.22138,-0.90791 -0.32968,-1.55001 l -2.12149,0.96348 c 0,0 -0.0218,0.6583 -0.0793,0.98378 -0.50452,2.84588 -3.95406,4.48855 -6.36095,4.63086 -1.36756,0.0809 -2.934,-0.41356 -3.96485,-1.08206 -1.34666,-0.8948 -2.32804,-2.30661 -2.74804,-3.86914 -0.42134,-1.56147 -0.29398,-3.69374 0.30468,-5.19534 0.72668,-1.81867 2.13838,-3.34822 3.87305,-4.25196 1.18267,-0.61772 2.54464,-0.84961 3.86133,-0.83398 2.19159,0.026 3.52561,1.09593 4.56055,3.01172 l 2.48828,-1.03125 c -0.47795,-1.5256 -1.31476,-2.37763 -2.28125,-3.25586 -1.156,-0.92495 -2.53405,-1.59027 -3.99805,-1.81055 -1.268,-0.19172 -2.57892,-0.0421 -3.79492,0.36719 -1.216,0.4104 -2.33836,1.07705 -3.31836,1.90625 -1.50535,1.2744 -2.67638,2.92461 -3.48438,4.72461 -0.80666,1.8 -1.25812,3.74964 -1.43945,5.71484 -0.276,3.01867 0.10574,6.1538 1.50977,8.8418 0.7,1.34427 1.65158,2.56386 2.82226,3.52734 1.172,0.96412 2.56359,1.66666 4.04492,1.98438 2.06932,0.44268 4.29725,0.10718 6.14258,-0.92774 1.844,-1.03493 3.296,-2.75816 4,-4.7539 0.476,1.53854 1.40783,2.93453 2.64649,3.96679 1.24,1.03014 2.78219,1.69517 4.38086,1.88477 1.45333,0.17187 2.94459,-0.0428 4.30859,-0.57617 1.36,-0.53334 2.59206,-1.38146 3.60938,-2.4336 2.03199,-2.1036 3.16458,-4.98023 3.44726,-7.89062 0.35065,-3.6256 -0.59466,-7.39797 -2.77734,-10.3125 -0.53866,-0.71613 -1.69082,-1.72432 -2.06446,-1.90234 0.7001,-0.45476 1.00628,-1.50347 1.01563,-2.30079 -0.14061,-2.48334 -2.57379,-4.22819 -4.95313,-4.28906 z m -1.18164,2.73828 c 1.11208,0.0504 1.39902,0.73409 1.24414,1.46094 -0.19961,0.93676 0.10352,1.16211 0.10352,1.16211 -1.06665,-0.17845 -1.82661,-0.0446 -2.7168,0.0566 -0.76666,0.088 -1.52767,0.24646 -2.26367,0.47461 0.0307,-1.69079 1.62643,-2.98636 3.63281,-3.1543 z"
       transform="matrix(0.75000002,0,0,-0.75000002,0,257.8)"
       id="path7255-7-8-3-3"
       inkscape:connector-curvature="0"
       sodipodi:nodetypes="cscccscccccccssccccscccccccccccccccccccccccccccccc" /><path
       sodipodi:nodetypes="cssasssscccccccccccccccccccccccaacsscscssss"
       inkscape:connector-curvature="0"
       id="path7293-4-1-4-4"
       d="m 175.24837,75.353306 c -0.0431,-2.28228 0.82514,-3.27267 2.81696,-3.96796 1.97551,-0.6896 4.52022,-0.5077 8.91487,-0.83474 4.0286,-0.29981 7.20737,-2.69146 8.53439,-5.88132 0.89031,-2.14015 0.43903,-4.90697 -1.23769,-6.84284 -2.09216,-2.415526 -5.77865,-3.206331 -8.96924,-3.38524 -3.1357,-0.175831 -8.68207,0.71506 -8.69678,3.89061 -0.0137,2.97141 3.38225,3.45049 5.45508,3.48048 1.5859,0.023 3.07937,-0.0727 4.03272,-0.22413 0.50988,1.19175 0.83732,3.08682 0.0937,4.50586 -0.33501,0.5852 -0.81849,1.07899 -1.3755,1.45898 -1.11199,0.7602 -2.48024,1.06132 -3.82323,1.16602 -1.16501,0.091 -2.38728,0.0369 -3.42627,-0.49951 -0.52101,-0.2679 -0.98425,-0.65598 -1.30225,-1.14697 -0.318,-0.4899 -0.48434,-1.085 -0.42334,-1.667 0.042,-0.40629 0.19745,-0.79973 0.43945,-1.12792 0.243,-0.32891 0.57469,-0.58981 0.95068,-0.75 0.37601,-0.1601 0.79425,-0.21727 1.19825,-0.16407 0.405,0.0519 0.79567,0.21609 1.11767,0.46729 0.525,0.4089 1.06133,0.803 1.61133,1.1792 0.272,0.189 0.54815,0.37342 0.84815,0.51562 0.299,0.1418 0.62554,0.23877 0.95654,0.23877 0.542,7.5e-4 1.07599,-0.26935 1.396,-0.70605 0.318,-0.4371 0.41502,-1.02942 0.24902,-1.54542 -0.857,0.0558 -1.71427,0.0743 -2.57227,0.0572 -1.51,-0.0309 -3.05243,-0.18224 -4.41943,-0.82324 -1.83,-0.8582 -3.22484,-2.60975 -3.61084,-4.59375 -0.204,-1.0461 -0.13412,-2.13716 0.15088,-3.16406 0.285,-1.027 0.78429,-1.98834 1.42529,-2.84034 1.909,-2.541 5.0125,-4.01774 8.16651,-4.41064 4.59199,-0.57111 9.44018,1.10801 12.59618,4.49121 1.578,1.6906 2.89635,3.7641 3.31788,6.01465 0.45899,2.45055 0.0526,5.1515 -0.99765,7.41264 -0.79116,1.70326 -2.26667,3.12687 -3.78193,4.17616 0.54913,0.11213 2.71486,1.11108 2.72657,3.34415 0.0236,4.50309 -5.1355,7.749643 -11.20447,7.879513 -6.18675,0.13238 -10.99462,-2.20839 -11.15723,-5.703153 z m 19.12066,-2.81739 c 0.0114,-0.88196 -0.96486,-1.73416 -2.16792,-1.30301 -1.42343,0.63175 -2.82117,1.20019 -5.40264,1.29919 -4.18905,0.16063 -10.5898,-0.19939 -9.11139,2.70819 1.00714,1.98074 6.12057,1.88071 10.34893,1.14816 3.71515,-0.64363 6.30587,-1.76224 6.33302,-3.85253 z"
       style="fill:#100f0d;fill-opacity:1;fill-rule:nonzero;stroke:none" /><path
       style="fill:#100f0d;fill-opacity:1;fill-rule:nonzero;stroke:none"
       d="m 211.7775,69.570116 c -0.52102,-0.2679 -0.98425,-0.65598 -1.30225,-1.14697 -0.318,-0.4899 -0.48435,-1.08499 -0.42334,-1.66699 0.042,-0.40629 0.19745,-0.79974 0.43945,-1.12793 0.243,-0.32891 0.57469,-0.58981 0.95068,-0.75 0.37602,-0.1601 0.79425,-0.21726 1.19825,-0.16406 0.405,0.0519 0.79567,0.21608 1.11767,0.46728 0.525,0.4089 1.06133,0.803 1.61133,1.1792 0.272,0.189 0.54815,0.37342 0.84815,0.51562 0.299,0.14181 0.62554,0.23877 0.95654,0.23877 0.542,7.5e-4 1.07599,-0.26935 1.396,-0.70605 0.318,-0.4371 0.62772,-1.3218 0.46172,-1.8378 -0.857,0.0558 -3.847,0.10159 -5.98183,-0.0759 -2.13483,-0.1775 -4.51088,-0.45736 -6.52355,-1.61013 -1.31598,-0.7539 -2.42821,-1.86405 -3.15819,-3.19335 -0.729,-1.32771 -1.0733,-2.87046 -0.94629,-4.38135 0.144,-1.71021 0.88843,-3.35299 2.02441,-4.6377 1.136,-1.28599 4.54733,-2.987429 7.10862,-2.995139 2.27527,-0.0068 5.73747,0.764048 7.23202,2.107048 1.0924,0.981623 1.26586,1.281241 2.32494,2.115601 0.33799,0.2598 0.71864,0.48587 1.13965,0.56397 0.21099,0.0379 -1.23227,0.38636 -1.02427,0.33636 0,0 1.00316,-0.2036 0.54187,0.26447 0.141,0.19179 1.15276,1.4422 1.25276,1.6594 0.34604,0.71474 0.38326,1.25944 -2.8e-4,1.6568 -0.22864,0.23687 -0.75763,0.22396 -0.98702,0.0351 -0.32752,-0.26968 -1.16989,-1.7741 -1.74463,-2.68799 -0.78798,-1.18281 -2.0277,-2.05495 -3.40869,-2.39794 -1.671,-0.41601 -3.51324,-0.0378 -4.90723,0.97119 -1.397,1.00899 -2.3265,2.62227 -2.54151,4.33008 -0.11901,0.94108 -0.0259,1.9184 0.35304,2.78759 1.19751,2.2739 3.78445,2.86243 5.96484,3.18018 2.10849,0.3001 3.50794,0.18193 4.26123,0.11133 0.17533,-0.0208 0.35952,-0.0406 0.50977,-0.0644 0.50988,1.19175 0.62466,3.37921 -0.11895,4.79824 -0.33501,0.58521 -0.81849,1.079 -1.3755,1.45899 -1.11198,0.7602 -2.49468,1.06536 -3.82323,1.16601 -1.15086,0.0872 -2.43669,-0.004 -3.42624,-0.49955 z"
       id="path7295-1-1-5-23"
       inkscape:connector-curvature="0"
       sodipodi:nodetypes="cccccccccccccccccsscccccasccccccccccacc" /><path
       inkscape:connector-curvature="0"
       id="path7303-3-6-1-8"
       style="fill:#100f0d;fill-opacity:1;fill-rule:nonzero;stroke:none"
       d="m 252.85732,63.605806 c -0.106,0.3367 -0.038,0.725 0.179,1.0039 0.173,0.2211 0.427,0.3699 0.695,0.4449 0.271,0.075 0.554,0.0801 0.834,0.0789 l 9.127,-0.0109 c 0.155,-0.0719 0.281,-0.2032 0.347,-0.3598 0.065,-0.157 0.068,-0.3391 0.012,-0.4992 -0.048,-0.1301 -0.134,-0.245 -0.242,-0.3328 -0.105,-0.0891 -0.231,-0.152 -0.364,-0.1954 -0.263,-0.0847 -0.546,-0.0867 -0.822,-0.0859 -0.544,0.003 -1.089,0.016 -1.631,-0.0219 -0.178,-0.0129 -0.355,-0.0308 -0.532,-0.0558 -0.173,-0.025 -0.347,-0.0571 -0.51,-0.116 -0.163,-0.0602 -0.319,-0.1481 -0.438,-0.2743 -0.108,-0.1129 -0.184,-0.2531 -0.225,-0.4039 -0.04,-0.15 -0.046,-0.309 -0.02,-0.4621 0.053,-0.3058 0.231,-0.5828 0.465,-0.7867 0.23501,-0.2043 0.52401,-0.3383 0.82301,-0.423 0.29899,-0.084 0.609,-0.1211 0.919,-0.1461 0.863,-0.07 1.73499,-0.0539 2.589,0.0789 0.777,0.1211 1.551,0.3429 2.202,0.7832 0.32499,0.2199 0.61599,0.4929 0.84,0.8136 0.227,0.3223 0.383,0.6934 0.441,1.0813 0.091,0.6098 -0.072,1.2418 -0.376,1.7777 -0.30701,0.5371 -0.747,0.9852 -1.232,1.3692 -1.003,0.7949 -2.20401,1.3289 -3.457,1.598 -1.25201,0.2692 -2.553,0.275 -3.818,0.0762 -2.502,-0.3934 -4.85901,-1.6 -6.675,-3.3652 -1.81401,-1.7649 -3.081,-4.0758 -3.639,-6.545 -0.583,-2.5832 -0.39,-5.341 0.582,-7.8039 0.971,-2.4633 2.72199,-4.6179 4.955,-6.0422 1.87699,-1.1968 4.105,-1.8769 6.331,-1.7808 2.22399,0.0961 4.431,0.9937 5.99,2.5847 1.419,1.4493 2.266,3.4524 2.287,5.4801 0.006,0.4781 -0.034,0.9653 -0.207,1.411 -0.172,0.4472 -0.486,0.8531 -0.921,1.055 -0.382,0.1789 -0.841,0.1852 -1.227,0.0172 -0.388,-0.1679 -0.696,-0.5082 -0.82701,-0.9101 l -2.40999,0.8039 c 0.143,0.6961 0.51,1.3429 1.035,1.82109 0.52599,0.47811 1.205,0.78321 1.911,0.85821 0.70899,0.075 1.43499,-0.0801 2.06799,-0.4071 0.633,-0.32811 1.17201,-0.825 1.578,-1.41009 0.81401,-1.16991 1.08401,-2.65311 0.996,-4.07581 -0.094,-1.5293 -0.579,-3.0273 -1.359,-4.34529 -0.78199,-1.31801 -1.85499,-2.457 -3.09799,-3.35391 -2.483,-1.7942 -5.603,-2.5899 -8.66801,-2.5692 -2.68999,0.0184 -5.38299,0.6461 -7.782,1.8633 -2.40099,1.218 -4.50399,3.027 -6.02799,5.2457 -1.525,2.2184 -2.461,4.8442 -2.63901,7.53011 -0.17799,2.68588 0.41201,5.42418 1.719,7.77808 1.509,2.72001 3.94901,4.8782 6.74801,6.2371 2.799,1.359 5.943,1.9411 9.054,1.8879 2.245,-0.039 4.50199,-0.407 6.56299,-1.2949 1.30301,-0.5609 2.535,-1.3441 3.43301,-2.441 0.898,-1.0981 1.43299,-2.53588 1.254,-3.943 -0.161,-1.2801 -0.90101,-2.4453 -1.892,-3.2711 -0.99,-0.8261 -2.21901,-1.332 -3.477,-1.6172 -1.17801,-0.2679 -2.418,-0.3488 -3.592,-0.0597 -1.173,0.289 -2.27501,0.9758 -2.915,2.0008 -0.685,1.1023 -0.771,2.5519 -0.222,3.7281 l -4.732,9.8e-4 0,0"
       sodipodi:nodetypes="cccccccccccccccccccccccccccccccccccccccccccccccccsccccccccccccc" /><path
       inkscape:connector-curvature="0"
       id="path7309-4-0-8-3"
       style="fill:#ffffff;fill-opacity:1;fill-rule:nonzero;stroke:none"
       d="m 294.25684,65.813686 c -0.711,0.082 -1.43201,0.082 -2.14301,0 -0.57499,-0.066 -1.14399,-0.186 -1.69599,-0.3571 0.486,0.7301 1.146,1.3454 1.91,1.7762 0.253,0.1442 0.52399,0.2692 0.813,0.2981 0.145,0.014 0.29299,0.003 0.432,-0.0411 0.138,-0.0449 0.267,-0.123 0.363,-0.2308 0.108,-0.1223 0.172,-0.2774 0.21799,-0.432 0.045,-0.1571 0.074,-0.3161 0.123,-0.4723 0.065,-0.2059 0.16601,-0.4 0.29501,-0.5719 l -0.315,0.0309 0,0"
       sodipodi:nodetypes="cccccccccccc" /><path
       style="fill:#100f0d;fill-opacity:1;fill-rule:nonzero;stroke:none"
       d="m 222.25944,52.364715 c 0.86414,0.0179 1.38501,-0.993796 1.14369,-2.626673 -0.55869,-3.780442 -3.19201,-7.102206 -4.3234,-8.461648 l 1.0777,-0.800546 c 0.26055,0.283752 0.93338,1.127268 1.09136,1.276785 0.15783,0.163096 0.76221,0.725548 2.2496,0.701 1.83476,-0.03028 2.74224,-2.402482 5.06032,-2.417271 2.27445,-0.01451 4.06219,1.244226 4.04144,4.931074 -0.008,1.46711 -0.6107,3.141251 -1.87881,4.001221 1.9669,3.177992 -0.10482,5.209488 -1.69772,5.244568 -1.97908,0.04359 -2.87887,-1.523829 -2.82332,-2.74028 0.10607,-2.322864 3.49059,-3.977938 3.46535,-6.464439 -0.0106,-1.043585 -0.63803,-1.974474 -1.58736,-2.016774 -1.62365,-0.07235 -3.52347,1.69347 -5.42624,0.698457 0.6597,0.87326 1.87371,3.073648 2.30479,5.369817 0.65336,3.480165 -0.29184,5.29538 -2.36664,5.212534 -0.8361,-0.03339 -1.2744,-0.74542 -2.81601,-1.51984 -1.44107,-1.07137 -1.05965,-1.105523 -0.95279,-2.423985 0.0824,-1.016085 1.2523,-1.079406 1.68132,-0.686195 0.74922,0.686694 0.61483,2.69854 1.75672,2.722195 z m 7.5084,-2.867689 c -2.16871,0.9868 -2.54235,3.202314 -0.79035,3.206274 1.37687,0.003 1.75243,-2.212819 0.79035,-3.206274 z"
       id="path7295-1-1-5-2-7"
       inkscape:connector-curvature="0"
       sodipodi:nodetypes="sscccssscsssscsscssscsc" /><path
       inkscape:connector-curvature="0"
       id="path7249-9-2-8-6-4"
       style="fill:#100f0d;fill-opacity:1;fill-rule:nonzero;stroke:none"
       d="m 230.89638,51.881376 c 0.69229,0.80029 1.7311,1.3015 2.79031,1.30436 0.74249,9.8e-4 1.47695,-0.23553 2.10242,-0.63415 0.62602,-0.39869 1.14402,-0.95558 1.53565,-1.58622 0.78175,-1.2614 1.04694,-2.78062 1.07989,-4.26484 0.0337,-1.52875 -0.17787,-3.10879 -0.95257,-4.42789 -0.38731,-0.6589 -0.91399,-1.24227 -1.55737,-1.65568 -0.64294,-0.41376 -1.40496,-0.65331 -2.16876,-0.63477 -0.9745,0.0233 -1.9189,0.46779 -2.60633,1.15922 -0.68777,0.69111 -1.12252,1.61338 -1.28648,2.57451 -0.0429,0.25542 -0.0686,0.52179 0.005,0.76982 0.037,0.12385 0.0987,0.2417 0.18654,0.33643 0.0888,0.0944 0.20485,0.16519 0.3314,0.19034 0.11347,0.0227 0.23319,0.009 0.34012,-0.0324 0.10739,-0.0419 0.20428,-0.11057 0.28259,-0.19546 0.15544,-0.16933 0.23817,-0.39572 0.27654,-0.6235 0.0374,-0.22774 0.035,-0.45927 0.0409,-0.6902 0.007,-0.23041 0.0227,-0.46429 0.0983,-0.68214 0.0843,-0.24399 0.24091,-0.46082 0.4414,-0.62312 0.20106,-0.16204 0.4436,-0.27021 0.69704,-0.31818 0.50699,-0.0948 1.04383,0.0553 1.46489,0.35392 0.42105,0.29862 0.73083,0.73497 0.93312,1.21026 0.20141,0.47528 0.30015,0.98749 0.35349,1.50038 0.0617,0.60604 0.0614,1.21676 0.0413,1.82499 -0.0178,0.5989 -0.0529,1.19954 -0.16428,1.78791 -0.0868,0.45906 -0.22426,0.91284 -0.45198,1.32133 -0.22878,0.40763 -0.55332,0.76888 -0.96204,0.99437 -0.40872,0.22638 -0.90678,0.30815 -1.35455,0.17587 -0.55265,-0.10417 -1.0527,-0.68682 -1.21985,-0.84955 -0.16765,-0.163 -0.4323,0.214968 -0.49229,-0.01096"
       sodipodi:nodetypes="cccccccccccccccccccccccccccccc" /><use
       x="0"
       y="0"
       xlink:href="#path7255-7-8-3-3"
       id="use4716"
       transform="translate(144,0)"
       width="100%"
       height="100%" /></g></svg>