<?xml version="1.0" encoding="UTF-8" standalone="no"?>
<!-- Created with Inkscape (http://www.inkscape.org/) -->

<svg
   xmlns:dc="http://purl.org/dc/elements/1.1/"
   xmlns:cc="http://creativecommons.org/ns#"
   xmlns:rdf="http://www.w3.org/1999/02/22-rdf-syntax-ns#"
   xmlns:svg="http://www.w3.org/2000/svg"
   xmlns="http://www.w3.org/2000/svg"
   xmlns:xlink="http://www.w3.org/1999/xlink"
   xmlns:sodipodi="http://sodipodi.sourceforge.net/DTD/sodipodi-0.dtd"
   xmlns:inkscape="http://www.inkscape.org/namespaces/inkscape"
   id="svg7233"
   version="1.1"
   inkscape:version="0.91+devel+osxmenu r12848"
   xml:space="preserve"
   width="444.82666"
   height="343.73334"
   viewBox="0 0 444.82666 343.73334"
   sodipodi:docname="royal_logo_svg.svg"><metadata
     id="metadata7239"><rdf:RDF><cc:Work
         rdf:about=""><dc:format>image/svg+xml</dc:format><dc:type
           rdf:resource="http://purl.org/dc/dcmitype/StillImage" /><dc:title /></cc:Work></rdf:RDF></metadata><defs
     id="defs7237" /><sodipodi:namedview
     pagecolor="#ffffff"
     bordercolor="#666666"
     borderopacity="1"
     objecttolerance="10"
     gridtolerance="10"
     guidetolerance="10"
     inkscape:pageopacity="0"
     inkscape:pageshadow="2"
     inkscape:window-width="1680"
     inkscape:window-height="1001"
     id="namedview7235"
     showgrid="false"
     inkscape:zoom="5.4926298"
     inkscape:cx="103.12767"
     inkscape:cy="234.43666"
     inkscape:window-x="0"
     inkscape:window-y="23"
     inkscape:window-maximized="0"
     inkscape:current-layer="g7241"
     showguides="false"
     inkscape:guide-bbox="true"><sodipodi:guide
       orientation="0,1"
       position="368.85792,210.46385"
       id="guide4537" /><sodipodi:guide
       orientation="0,1"
       position="110.6015,229.07208"
       id="guide4540" /><sodipodi:guide
       orientation="0,1"
       position="110.52104,231.61464"
       id="guide4542" /></sodipodi:namedview><g
     id="g7241"
     inkscape:groupmode="layer"
     inkscape:label="ink_ext_XXXXXX"
     transform="matrix(1.3333333,0,0,-1.3333333,0,343.73333)"><path
       inkscape:connector-curvature="0"
       id="path7245"
       style="fill:#100f0d;fill-opacity:1;fill-rule:nonzero;stroke:none"
       d="m 43.808556,177.05697 c 2.6375,-0.4281 5.0664,-2.005 6.5305,-4.239 1.4644,-2.234 1.941,-5.0918 1.282,-7.6797 -0.7351,-2.8852 -2.8371,-5.3422 -5.4695,-6.734 -2.6328,-1.3922 -5.7473,-1.757 -8.684,-1.257 -2.1687,0.3687 -4.2867,1.2148 -5.9598,2.6429 -1.673,1.4278 -2.8691,3.4688 -3.05738,5.661 -0.1957,2.2711 0.69219,4.5437 2.08985,6.3469 1.39653,1.8031 3.26913,3.18 5.22543,4.3511 3.2961,1.9731 6.8878,3.4219 10.1406,5.4629 0.9637,0.6039 1.918,1.2828 2.5449,2.232 0.3418,0.5192 0.5754,1.102 0.9102,1.625 0.1671,0.2622 0.3593,0.509 0.5957,0.7122 0.2343,0.2027 0.5129,0.3609 0.8144,0.4308 0.3504,0.0809 0.7254,0.0391 1.0559,-0.1012 0.3308,-0.1398 0.6179,-0.3757 0.8328,-0.6636 0.4308,-0.575 0.5613,-1.3352 0.4785,-2.0481 -0.1301,-1.1019 -0.7383,-2.107 -1.5332,-2.8832 -0.793,-0.775 -1.7645,-1.3449 -2.7527,-1.8488 -1.6145,-0.825 -3.3059,-1.4981 -5.0442,-2.0102" /><path
       inkscape:connector-curvature="0"
       id="path7247"
       style="fill:#ffffff;fill-opacity:1;fill-rule:nonzero;stroke:none"
       d="m 38.540256,174.28907 c -2.1125,-0.7852 -4.2207,-1.8399 -5.6078,-3.6168 -0.6922,-0.8883 -1.1856,-1.9481 -1.3219,-3.066 -0.1391,-1.118 0.0945,-2.2942 0.7254,-3.2282 0.5351,-0.7929 1.3386,-1.3879 2.2297,-1.7371 0.8906,-0.35 1.8628,-0.4597 2.8171,-0.3949 1.9082,0.132 3.6985,0.9461 5.3997,1.8199 1.5886,0.8153 3.1824,1.725 4.3281,3.0961 0.5711,0.686 1.0215,1.482 1.2476,2.3469 0.2258,0.8652 0.218,1.798 -0.0847,2.6383 -0.3145,0.8718 -0.9407,1.6179 -1.7078,2.1379 -0.7688,0.5199 -1.6743,0.8199 -2.595,0.9328 -1.841,0.2242 -3.6914,-0.2828 -5.4304,-0.9289 l 0,0" /><path
       inkscape:connector-curvature="0"
       id="path7249"
       style="fill:#100f0d;fill-opacity:1;fill-rule:nonzero;stroke:none"
       d="m 53.048856,170.16017 c -0.1243,1.5449 0.341,3.1418 1.3234,4.3418 0.982,1.1992 2.4832,1.9742 4.034,2.0203 1.0871,0.0316 2.1719,-0.2864 3.1035,-0.8453 0.9324,-0.559 1.7129,-1.3539 2.3113,-2.2618 1.1946,-1.816 1.643,-4.03 1.75,-6.2019 0.1098,-2.2371 -0.1375,-4.559 -1.2195,-6.5211 -0.541,-0.9801 -1.2891,-1.8551 -2.2148,-2.4859 -0.925,-0.6313 -2.0313,-1.0122 -3.1504,-1.0153 -1.4278,-0.005 -2.8282,0.609 -3.8621,1.5942 -1.0344,0.9847 -1.7075,2.3179 -1.9856,3.7187 -0.073,0.3723 -0.1211,0.7613 -0.0227,1.1274 0.0493,0.1828 0.1348,0.3578 0.2598,0.5 0.1262,0.1418 0.2934,0.25 0.4777,0.2918 0.1653,0.0378 0.3411,0.023 0.4993,-0.034 0.159,-0.0571 0.3035,-0.1539 0.4215,-0.275 0.2343,-0.2418 0.3644,-0.57 0.4296,-0.902 0.0637,-0.332 0.0696,-0.6711 0.0871,-1.009 0.0188,-0.3371 0.0516,-0.6789 0.1708,-0.9949 0.1332,-0.3539 0.371,-0.6652 0.671,-0.8949 0.3008,-0.2293 0.6602,-0.3781 1.0332,-0.4383 0.7461,-0.1187 1.5262,0.1223 2.1309,0.5762 0.6047,0.4539 1.041,1.1051 1.3184,1.809 0.2761,0.7039 0.4004,1.4578 0.4582,2.2109 0.0664,0.8898 0.0418,1.784 -0.0102,2.6738 -0.0496,0.8762 -0.125,1.7543 -0.3113,2.6114 -0.1453,0.6687 -0.3645,1.3277 -0.7141,1.9168 -0.3511,0.5878 -0.8406,1.1039 -1.448,1.4179 -0.6074,0.3153 -1.3399,0.4153 -1.9903,0.2039 -0.3253,-0.1047 -0.6281,-0.2867 -0.8664,-0.5316 -0.239,-0.2453 -0.4148,-0.5531 -0.4937,-0.8863 -0.0735,-0.311 -0.0625,-0.636 -0.0344,-0.9539 0.0274,-0.3188 0.0723,-0.6372 0.0645,-0.9571 -0.0059,-0.3199 -0.0664,-0.6461 -0.2356,-0.9179 -0.084,-0.136 -0.1949,-0.2559 -0.3277,-0.3438 -0.1328,-0.0891 -0.2895,-0.1453 -0.4485,-0.1531 -0.1867,-0.0102 -0.3718,0.0461 -0.53,0.1449 -0.1567,0.098 -0.2864,0.2379 -0.3852,0.3961 -0.198,0.318 -0.2637,0.6969 -0.2937,1.068 l 0,0" /><path
       style="fill:#100f0d;fill-opacity:1;fill-rule:nonzero;stroke:none"
       d="m 123.36523,94.1875 c -0.38826,0.008 -0.77865,0.06186 -1.15625,0.150391 -0.7568,0.178666 -1.47464,0.492935 -2.1621,0.855468 -1.59228,0.838534 -3.05042,1.951411 -4.20508,3.330079 -1.15627,1.378533 -2.00271,3.029502 -2.35938,4.792972 -0.2048,1.00933 -0.22534,2.29933 -0.10547,3.32226 -2.25557,1.19796 -3.33854,3.17409 -3.35351,5.03711 0.01,1.09919 0.58883,2.14997 1.05664,2.99805 0.47643,0.11685 1.79787,0.1312 2.74051,0.11066 1.42616,-0.0311 4.12706,-0.36149 5.7673,0.22138 0.68853,0.1828 1.35549,0.48182 1.91016,0.92969 0.55626,0.4464 0.99602,1.04767 1.19922,1.73047 0.21773,0.7344 0.15171,1.53995 -0.12696,2.25195 -0.27866,0.712 -0.7613,1.33434 -1.3457,1.83008 -1.16467,0.99226 -2.67837,1.46716 -4.16797,1.8125 -4.78547,1.112 -9.78555,1.14805 -14.64648,0.41992 -1.62094,-0.24427 -3.285152,-0.59482 -4.613285,-1.55469 -0.664133,-0.48013 -1.230178,-1.11102 -1.570313,-1.85742 -0.338533,-0.7452 -0.43831,-1.60849 -0.214843,-2.39648 0.214133,-0.74695 0.710211,-1.39271 1.330078,-1.85938 0.6188,-0.46667 1.356614,-0.75983 2.113281,-0.92383 1.515602,-0.3308 3.726812,-0.16406 5.277342,-0.16406 1.69792,-9.3e-4 3.09036,-0.32791 3.78516,-0.50391 0.0678,-0.18874 0.59634,-1.68834 0.58594,-3.03125 -0.0186,-1.46033 -0.88113,-3.33017 -2.37891,-4.35156 -1.41224,-0.96305 -3.03547,-1.44446 -4.75947,-1.58046 -1.49466,-0.1188 -3.011651,-0.0694 -4.345918,0.61868 -1.521073,0.8317 -2.41315,2.12493 -2.406331,3.71373 0.0075,1.74737 1.623698,2.62751 2.937336,2.62857 0.522536,4.2e-4 1.405456,-0.28664 1.818523,-0.60903 0.66827,-0.53068 1.35713,-1.03608 2.05859,-1.51368 0.35054,-0.2376 0.70793,-0.4683 1.0918,-0.64843 0.3844,-0.17974 0.79919,-0.30672 1.22266,-0.32032 0.61293,-0.0197 1.39174,0.0715 1.84961,0.48243 0.50272,0.48898 0.65804,1.56968 0.49855,2.45465 -0.9255,0.46585 -2.68906,0.2604 -4.67824,0.20159 -1.533,-0.0453 -3.092765,0.19011 -4.529298,0.73438 -1.428133,0.54267 -2.678511,1.52103 -3.589844,2.74609 -0.911467,1.22547 -1.488891,2.68829 -1.71289,4.19922 -0.454135,3.05987 0.573559,6.26638 2.568359,8.62891 1.868266,2.20933 4.50781,3.6873 7.296873,4.45703 2.78907,0.76933 5.72782,0.86543 8.61328,0.63477 3.79574,-0.30267 7.64188,-1.20675 10.77735,-3.36914 1.56613,-1.08135 2.9339,-2.47187 3.89843,-4.11133 0.96507,-1.64014 1.5202,-3.53586 1.48633,-5.43946 -0.0324,-1.7948 -0.59281,-3.57876 -1.59375,-5.06836 -1.00106,-1.48906 -2.43789,-2.68324 -4.08789,-3.39257 0.82294,-0.29747 1.53425,-0.8885 1.97852,-1.64063 0.58333,-0.99067 0.68331,-2.25177 0.27343,-3.32617 -1.29773,-2.70403 -4.64754,-3.3838 -6.86914,-2.39844 0.69733,-2.3256 2.59345,-4.12312 4.91211,-4.8418 1.02347,-0.31613 2.10905,-0.40981 3.12305,-0.757808 0.5084,-0.173333 0.99776,-0.413059 1.41016,-0.755859 0.41413,-0.341067 0.74577,-0.790021 0.89843,-1.304687 0.10774,-0.373467 0.12108,-0.771144 0.043,-1.152344 -0.0771,-0.381867 -0.24345,-0.743174 -0.47265,-1.056641 -0.45734,-0.628133 -1.16277,-1.052234 -1.91797,-1.240234 -0.376,-0.094 -0.76408,-0.131047 -1.15235,-0.123047 z m -5.58789,14.05859 c 1.73102,-0.0135 2.52064,0.78321 2.51563,1.67579 -0.002,0.28039 -0.0763,0.57838 -0.25586,0.80078 -0.31069,0.38616 -0.71762,0.51175 -1.13086,0.50976 -0.70002,-0.004 -1.45052,-0.31614 -1.90625,-0.88281 -0.3916,-0.48653 -0.58924,-1.18175 -0.53711,-1.80469 0.24731,-0.14608 0.88465,-0.29549 1.31445,-0.29883 z m -3.75976,1.25196 c 0.0991,0.548 0.26755,1.0818 0.50195,1.58593 0.20053,0.43067 0.44762,0.8392 0.73828,1.2168 -0.73469,0.11578 -1.87591,0.24904 -2.7201,-0.0246 -0.49118,-0.5674 -0.27649,-1.2472 -0.0553,-1.54373 0.402,-0.52813 0.93422,-0.95464 1.53516,-1.23437 z"
       transform="matrix(0.75000002,0,0,-0.75000002,0,257.8)"
       id="path7251"
       inkscape:connector-curvature="0"
       sodipodi:nodetypes="scccccccscccccccccccccccsccssccccccccccccccccccccccccccccsscccccscccccccc" /><path
       sodipodi:nodetypes="cccccccccccccccccccscccccccccccccccccccccccccccccccccccccccccccsccc"
       inkscape:connector-curvature="0"
       id="path7253"
       style="fill:#100f0d;fill-opacity:1;fill-rule:nonzero;stroke:none"
       d="m 101.97656,170.34607 c -0.1516,-0.2488 -0.3684,-0.4578 -0.6211,-0.6059 -0.2512,-0.148 -0.5359,-0.2382 -0.827,-0.2652 -0.581204,-0.0539 -1.175004,0.143 -1.639804,0.4973 -0.4648,0.3539 -0.8047,0.8578 -1.009,1.4047 -0.2051,0.548 -0.2781,1.1382 -0.2652,1.7222 0.0215,1.0481 0.3203,2.0879 0.8515,2.9918 0.4383,0.75 1.0411,1.4102 1.776204,1.8723 0.7344,0.4617 1.6067,0.7187 2.4746,0.6758 0.9942,-0.0489 1.9571,-0.4942 2.6668,-1.193 0.7785,-0.766 1.2524,-1.8328 1.2981,-2.923 l 3.3664,2.573 c 0.5262,2.452 1.8008,4.7379 3.6101,6.475 1.8086,1.7371 4.1453,2.9172 6.6172,3.3422 1.9441,0.334 4.0281,0.1879 5.7611,-0.7602 0.865,-0.475 1.629,-1.1461 2.17,-1.9711 0.542,-0.825 0.854,-1.8058 0.845,-2.7929 -0.008,-0.6789 -0.166,-1.3551 -0.449,-1.9731 -0.303,-0.6578 -0.745,-1.25 -1.293,-1.7258 2.096,-1.8359 3.658,-4.2722 4.453,-6.9421 0.795,-2.67 0.82,-5.5641 0.07,-8.2469 -0.384,-1.3762 -0.983,-2.7192 -1.945,-3.7762 -0.961,-1.057 -2.42562,-1.79183 -3.85562,-1.80983 -2.29904,0.0123 -3.70314,1.53429 -4.21738,3.29183 l 2.111,0.6082 c 0.10515,-0.33825 0.78988,-1.48629 1.96125,-1.46799 2.26246,0.13676 2.6546,1.91016 2.72775,3.54498 0.075,2.041 -0.548,4.0789 -1.623,5.8141 -1.076,1.7359 -2.588,3.1777 -4.289,4.3078 -2.6478,1.759 -5.8607,2.7871 -9.0208,2.439 -1.9024,-0.209 -3.7492,-0.916 -5.3067,-2.03 0.6575,0.207 1.3328,0.3539 2.0164,0.439 2.3227,0.291 4.7512,-0.1578 6.7539,-1.368 2.0032,-1.2101 3.5508,-3.196 4.1172,-5.466 0.623,-2.4988 0.019,-5.2609 -1.5386,-7.3121 -0.7289,-0.959 -1.6641,-1.7758 -2.7598,-2.2769 -1.0957,-0.5008 -2.3559,-0.6719 -3.5266,-0.3828 -0.8965,0.2207 -1.7265,0.7109 -2.3535,1.3898 -0.6269,0.6781 -1.0508,1.543 -1.2012,2.4551 -0.1718,-1.0653 -0.7253,-2.0629 -1.5363,-2.775 -0.8094,-0.711 -1.8719,-1.1301 -2.95,-1.1629 -0.8801,-0.0274 -1.7707,0.2027 -2.5097,0.6828 -0.7391,0.4801 -1.3145,1.2129 -1.5762,2.0539 -0.1055,0.3449 -0.1621,0.709 -0.3274,1.0301 -0.0847,0.1601 -0.1961,0.3082 -0.3418,0.4148 -0.1453,0.1082 -0.3242,0.1731 -0.5054,0.1621 -0.169204,-0.01 -0.329304,-0.0839 -0.464104,-0.1871 -0.1355,-0.1027 -0.2473,-0.2316 -0.3523,-0.3648 -0.1067,-0.1328 -0.2075,-0.2692 -0.3254,-0.391 -0.1184,-0.1211 -0.2559,-0.2282 -0.4153,-0.286 -0.1629,-0.0601 -0.3433,-0.066 -0.5117,-0.025 -0.1695,0.0418 -0.3238,0.1301 -0.4512,0.2489 -0.2527,0.2371 -0.3804,0.5882 -0.3921,0.9351 -0.011,0.3469 0.0867,0.6891 0.2332,1.0039 0.1457,0.3141 0.3386,0.6039 0.5293,0.8942 1.3906,2.1168 2.675704,4.3019 4.101504,6.3949 0.7617,1.1191 1.5637,2.2109 2.4024,3.273 0.384,0.3891 0.6015,0.936 0.5898,1.4809 -0.0117,0.5453 -0.2527,1.0832 -0.6531,1.4551 -0.1953,0.1808 -0.4277,0.3242 -0.6828,0.4011 -0.2547,0.077 -0.5324,0.086 -0.7871,0.01 -0.2539,-0.0758 -0.4793,-0.234 -0.6512,-0.4348 -0.1723,-0.2019 -0.2902,-0.4453 -0.3598,-0.7 -0.1414,-0.5113 -0.0894,-1.0543 0.011,-1.5742 0.1004,-0.5199 0.248,-1.032 0.2988,-1.559 0.0508,-0.5269 -0.002,-1.0839 -0.2793,-1.5359 l 0,0" /><path
       inkscape:connector-curvature="0"
       id="path7255"
       style="fill:#100f0d;fill-opacity:1;fill-rule:nonzero;stroke:none"
       d="m 147.48646,175.29727 c -0.323,0.409 -0.697,0.7789 -1.105,1.1039 -0.867,0.6937 -1.901,1.1918 -2.999,1.357 -0.951,0.1438 -1.934,0.0328 -2.846,-0.2742 -0.912,-0.3078 -1.754,-0.809 -2.489,-1.4309 -1.129,-0.9558 -2.007,-2.1929 -2.613,-3.5429 -0.605,-1.35 -0.944,-2.8121 -1.08,-4.286 -0.207,-2.264 0.08,-4.616 1.133,-6.632 0.525,-1.0082 1.238,-1.9223 2.116,-2.6449 0.879,-0.7231 1.922,-1.25 3.033,-1.4883 1.552,-0.332 3.224,-0.0801 4.608,0.6961 1.383,0.7762 2.472,2.068 3,3.5648 0.357,-1.1539 1.056,-2.2008 1.985,-2.975 0.93,-0.7726 2.086,-1.2707 3.285,-1.4129 1.09,-0.1289 2.208,0.0313 3.231,0.4313 1.02,0.4 1.945,1.0359 2.708,1.825 1.524,1.5777 2.373,3.7359 2.585,5.9187 0.263,2.7192 -0.446,5.5481 -2.083,7.734 -0.404,0.5371 -0.859,1.0352 -1.358,1.4832 0.361,0.4778 0.564,1.0719 0.571,1.6699 0.008,0.5981 -0.18,1.1969 -0.528,1.684 -0.401,0.5621 -1.005,0.9629 -1.658,1.1871 -0.653,0.2231 -1.356,0.275 -2.047,0.2258 -1.043,-0.0738 -2.069,-0.382 -2.972,-0.9117 -0.9,-0.5301 -1.672,-1.2832 -2.205,-2.182 -0.174,-0.2953 -0.325,-0.6082 -0.405,-0.941 -0.078,-0.334 -0.084,-0.6903 0.026,-1.0161 0.159,-0.4679 0.549,-0.8351 1,-1.0359 0.452,-0.2012 0.959,-0.248 1.453,-0.2113 0.985,0.073 1.927,0.464 2.914,0.5211 1.262,0.0718 2.552,-0.4461 3.393,-1.391 0.843,-0.9442 1.208,-2.2989 0.932,-3.5329 -0.277,-1.2371 -1.165,-2.2902 -2.269,-2.916 -1.102,-0.6261 -2.398,-0.8543 -3.667,-0.809 -0.855,0.0297 -1.723,0.186 -2.479,0.5891 -0.757,0.4027 -1.395,1.0789 -1.623,1.9047 -0.111,0.3961 -0.127,0.8191 -0.281,1.2012 -0.077,0.191 -0.19,0.3711 -0.348,0.5019 -0.159,0.1309 -0.365,0.2102 -0.57,0.191 -0.139,-0.014 -0.272,-0.0711 -0.382,-0.1539 -0.113,-0.0832 -0.203,-0.191 -0.278,-0.309 -0.146,-0.2351 -0.225,-0.507 -0.319,-0.7691 -0.556,-1.5512 -1.76,-2.8762 -3.286,-3.4918 -0.766,-0.3082 -1.601,-0.4402 -2.422,-0.3703 -0.819,0.0711 -1.623,0.3441 -2.311,0.8 -1.01,0.6711 -1.746,1.7312 -2.061,2.9031 -0.316,1.1711 -0.22,2.4418 0.229,3.568 0.545,1.364 1.604,2.5101 2.905,3.1879 0.887,0.4633 1.897,0.714 2.895,0.6261 0.996,-0.0878 1.976,-0.5332 2.629,-1.2898 0.274,-0.3152 0.489,-0.6812 0.792,-0.9684 0.151,-0.1437 0.324,-0.2679 0.521,-0.3429 0.193,-0.075 0.412,-0.0989 0.614,-0.0457 0.239,0.0629 0.444,0.2328 0.57,0.4457 0.127,0.2133 0.176,0.4679 0.162,0.7152 -0.029,0.5008 -0.299,0.9488 -0.606,1.3391" /><path
       inkscape:connector-curvature="0"
       id="path7261"
       style="fill:#ffffff;fill-opacity:1;fill-rule:nonzero;stroke:none"
       d="m 112.38276,178.45627 c 0.2571,0.6636 0.6457,1.2769 1.1348,1.7918 0.7356,0.7718 1.6817,1.3128 2.6563,1.741 1.7683,0.775 3.6765,1.2152 5.6046,1.339 0.624,0.0399 1.25,0.0469 1.875,0.0219 -0.694,-0.4277 -1.234,-1.1027 -1.496,-1.875 -0.234,-0.6867 -0.25,-1.4457 -0.045,-2.143 -0.444,0.084 -0.891,0.1512 -1.339,0.2012 -2.7102,0.2981 -5.4883,-0.057 -8.0364,-1.0269 l -0.3543,-0.05 0,0" /><path
       inkscape:connector-curvature="0"
       id="path7263"
       style="fill:#ffffff;fill-opacity:1;fill-rule:nonzero;stroke:none"
       d="m 126.14546,182.88827 c -0.278,0.118 -0.588,0.1637 -0.891,0.1348 -0.301,-0.0282 -0.595,-0.129 -0.853,-0.2879 -0.518,-0.3172 -0.88,-0.8621 -1.011,-1.4539 -0.096,-0.4332 -0.071,-0.8961 0.09,-1.309 0.163,-0.4133 0.469,-0.7731 0.86,-0.9801 0.486,-0.2563 1.087,-0.2641 1.594,-0.0531 0.508,0.2109 0.917,0.6308 1.149,1.1289 0.234,0.5011 0.292,1.0883 0.127,1.616 -0.164,0.5293 -0.556,0.9883 -1.065,1.2043 l 0,0" /><path
       inkscape:connector-curvature="0"
       id="path7265"
       style="fill:#ffffff;fill-opacity:1;fill-rule:nonzero;stroke:none"
       d="m 100.38866,163.33317 c 0.7422,1.3828 1.5813,2.7149 2.5098,3.9809 1.2136,1.655 2.6203,3.234 4.4355,4.1941 1.3992,0.7399 3.0176,1.0809 4.5899,0.8988 1.5722,-0.182 3.0898,-0.8937 4.1867,-2.0359 0.7703,-0.8031 1.3406,-1.8539 1.3562,-2.9668 0.0117,-0.7691 -0.2422,-1.5332 -0.6816,-2.1652 -0.4387,-0.6309 -1.0567,-1.1309 -1.7488,-1.4649 -0.6926,-0.334 -1.4739,-0.507 -2.2375,-0.4269 -0.7657,0.0789 -1.5118,0.4207 -2.0235,0.9949 -0.4844,0.543 -0.7351,1.2519 -0.9148,1.9578 -0.0821,0.3231 -0.1543,0.657 -0.3363,0.9371 -0.0918,0.1399 -0.2079,0.2641 -0.3536,0.3481 -0.1433,0.0839 -0.3132,0.1257 -0.4785,0.1039 -0.1883,-0.0258 -0.3594,-0.136 -0.4804,-0.2821 -0.1219,-0.1461 -0.1981,-0.3257 -0.243,-0.5109 -0.0899,-0.3699 -0.0613,-0.7578 -0.1289,-1.132 -0.0899,-0.511 -0.3535,-0.9809 -0.7071,-1.361 -0.3515,-0.3808 -0.7878,-0.6761 -1.25,-0.9121 -1.6875,-0.8609 -3.7617,-0.9211 -5.4941,-0.1578 l 0,0" /><path
       sodipodi:nodetypes="cccccccccccccccccccccccccccccccccccccccccccscccccccccccccscccccscscccccccccc"
       inkscape:connector-curvature="0"
       id="path7267"
       style="fill:#100f0d;fill-opacity:1;fill-rule:nonzero;stroke:none"
       d="m 37.865256,126.20427 0.136547,-10.48201 11.539153,5.10971 -6.3,8.359 z m -0.2063,-0.73959 0,-20.11741 c -1.968647,2.93787 -1.23032,17.74101 0,20.11741 z m -6.6316,-9.50381 0,5.6903 c -0.002,1.3859 -0.30768,-1.66245 0,-5.6903 z m 1.7402,17.075 c 0.8281,-0.3757 1.575,-0.8546 2.2395,-1.4359 0.6621,-0.5809 1.2339,-1.2301 1.7117,-1.9488 0.4785,-0.718 0.8301,-1.4699 1.0508,-2.2563 l 9.8379,6.1551 7.7363,-10.1539 -7.7363,-4.9219 4.5871,-3.6922 c 0.1843,-0.205 0.3945,-0.4609 0.6367,-0.7687 0.239,-0.309 0.5055,-0.65 0.7996,-1.025 0.073,-0.0692 0.1555,-0.1801 0.2488,-0.3352 0.091,-0.1531 0.2129,-0.35 0.3606,-0.5898 0.1465,-0.1711 0.33,-0.4953 0.5527,-0.9742 l 2.9844,-7.3321 1.2707,-1.3847 1.3262,0.8718 0.8289,-0.8718 -5.5821,-4.512143 c -0.7383,0.03399 -1.3816,0.325 -1.9343,0.87188 -0.625,0.64804 -1.0696,1.21289 -1.3262,1.692193 -0.0754,0.20585 -0.1848,0.40976 -0.3321,0.61484 -0.0734,0.20503 -0.1847,0.41093 -0.3312,0.61603 l -1.9348,5.5898 c -0.5535,1.6063 -1.6773,3.1442 -3.3718,4.6153 -1.6954,1.4691 -6.5743,2.205 -8.6368,2.205 l 0,-9.1269 8.6922,-2.1031 1.1614,1.025 0.8835,-0.718 -5.6921,-5.640243 -0.6641,0 c -1.0691,0.99023 -2.5066,1.79414 -4.3113,2.41133 -2.0989,0.681643 -3.7766,1.023833 -5.0293,1.023833 l -1.9348,0 c -0.0371,-0.034 -0.14726,-0.05 -0.33202,-0.05 -1.17891,-0.0691 -2.70704,-0.34219 -4.58711,-0.8211 -1.36211,-0.375783 -2.74571,-0.905863 -4.144145,-1.589843 l -0.940625,0.10195 c 0.257031,0.85391 0.774219,1.657813 1.54766,2.410163 0.33203,0.23871 0.72656,0.54691 1.18945,0.92261 0.45937,0.3762 1.00234,0.8211 1.63008,1.334 l 5.80271,2.5641 0,1.1262 c -0.04363,6.61019 0.002,9.0257 0,16.1019 l 0,4.8719 c -0.22068,0.7512 -0.75584,1.418 -1.60349,1.9992 -0.92071,0.6488 -1.80469,0.9738 -2.65313,0.9738 l -0.38672,0 -0.22109,0.1032 c -0.14727,-0.07 -0.36016,-0.1539 -0.63633,-0.2571 -0.27656,-0.1019 -0.6543,-0.205 -1.1332,-0.307 -0.18438,-0.0352 -0.34063,-0.0609 -0.46953,-0.0762 -0.13008,-0.0179 -0.26758,-0.0258 -0.41485,-0.0258 l -0.22109,0 c -0.03711,-0.0351 -0.10899,-0.0511 -0.2207,-0.0511 l -0.49688,0 c 0.44141,0.889 1.06836,1.5551 1.87891,1.9992 0.29375,0.1711 0.6914,0.359 1.1875,0.5648 0.49883,0.2051 1.05859,0.3922 1.68554,0.5641 0.25782,0.0672 0.47071,0.1102 0.63672,0.127 0.16602,0.0171 0.48828,0.0601 0.9668,0.1281 l 0.49727,0 0.71875,0.1027 c 0.92342,-0.1019 1.79842,-0.3418 2.62772,-0.718 l 0,0" /><path
       inkscape:connector-curvature="0"
       id="path7269"
       style="fill:#100f0d;fill-opacity:1;fill-rule:nonzero;stroke:none"
       d="m 70.764856,119.44807 0,-14.7168 6.0801,-2.4614 0,14.7672 -6.0801,2.411 z m 2.4324,4.5128 c 0.9941,-0.7859 2.1727,-1.4929 3.5371,-2.125 1.3621,-0.6316 2.5781,-1.0828 3.6484,-1.3558 l 1.8235,-0.461 0,-17.655 -8.3457,-4.094173 -7.0742,3.377373 -2.8743,0.7168 1.1602,1.5851 0.332,1.6899 0,14.0742 c 1.3992,0.2379 2.7813,0.7418 4.1446,1.509 1.3625,0.7679 2.5781,1.6457 3.6484,2.6347 l 0,0.1039" /><path
       inkscape:connector-curvature="0"
       id="path7271"
       style="fill:#100f0d;fill-opacity:1;fill-rule:nonzero;stroke:none"
       d="m 99.062456,119.03827 -3.5382,-2.975 0,-13.0231 c 1.3625,0.8879 2.5988,2.1528 3.7035,3.7938 1.106204,1.6402 1.787104,3.2133 2.045704,4.718 0,0.2382 0.0351,0.53 0.1093,0.8722 0,0.1699 0.0188,0.3231 0.0547,0.4598 l 0,0.7711 c -0.0359,0.0332 -0.0547,0.1351 -0.0547,0.307 l 0,0.3578 c -0.0363,0.0352 -0.0546,0.1551 -0.0546,0.3594 -0.2571,1.675 -1.0137,3.0938 -2.265704,4.2566 l 0,0.1024 z m -7.4621,4.9226 c 0.0735,-0.0699 0.2395,-0.1296 0.4973,-0.1816 0.2578,-0.0523 0.4609,-0.1391 0.6094,-0.2594 0.1457,-0.1207 0.405,-0.3879 0.7722,-0.8008 0.1117,-0.0691 0.2297,-0.1808 0.3598,-0.3378 0.1297,-0.1551 0.2684,-0.3364 0.4148,-0.5411 0,-0.0703 0.0176,-0.1132 0.0547,-0.13 0.0371,-0.018 0.1004,-0.0782 0.1934,-0.1821 0.0918,-0.1031 0.1562,-0.189 0.1941,-0.2582 l 0.1645,-0.4656 c 0.0371,-0.1371 0.0918,-0.3102 0.166,-0.5172 l 0.1668,-0.4648 c 0.0359,-0.1051 0.0723,-0.268 0.1113,-0.4922 0.0363,-0.225 0.0918,-0.4738 0.166,-0.7488 l 0.1661,-0.6223 7.074204,6 0.4433,0 c 1.1043,-1.7117 1.9512,-3.3547 2.5418,-4.9297 0.1098,-0.3762 0.2754,-0.9594 0.4961,-1.7461 0.0735,-0.1359 0.1477,-0.548 0.2207,-1.2332 0,-0.2738 0.0188,-0.4609 0.0559,-0.5641 l 0,-0.8238 c -0.0371,-0.1019 -0.0559,-0.2039 -0.0559,-0.3058 l 0,-0.5141 c -0.0359,-0.2063 -0.1011,-0.4961 -0.1929,-0.8731 -0.093,-0.3769 -0.1567,-0.6679 -0.1934,-0.8742 -1.0688,-2.6359 -2.7082,-4.8449 -4.9184,-6.625 -3.204704,-2.5687 -7.093304,-4.99997 -11.662904,-7.292943 -0.5156,-0.40977 -0.9035,-0.76094 -1.1613,-1.05273 -0.2586,-0.29024 -0.5152,-0.79493 -0.7722,-1.51524 l 0,-0.30703 c 0,-0.16992 0.0183,-0.30898 0.0554,-0.41172 0,0.03594 0.1289,-0.30625 0.3867,-1.025 0.1836,-0.17109 0.2954,-0.325 0.3313,-0.46211 1.2156,-0.65117 2.2109,-1.01015 2.9851,-1.0789 0.1106,0 0.2207,-0.01602 0.3313,-0.05118 l 0.2766,0 c 0.1843,0 0.2937,-0.01601 0.3308,-0.05078 l 0.8289,0 c 0.0364,0.03477 0.0918,0.05078 0.1653,0.05078 0.4793,0.06914 0.8293,0.13711 1.0507,0.20625 0.2215,0.06797 0.4793,0.23789 0.7735,0.51172 l 0,0.10313 0.0554,0 c 0,0.03398 0.0176,0.05 0.0547,0.05 0.1836,0.34179 0.4985,0.68515 0.9399,1.02578 0.4414,0.34219 0.8648,0.51328 1.2703,0.51328 0.2207,-0.13711 0.4785,-0.41094 0.7746,-0.82227 0,-0.03281 0.0176,-0.06679 0.0547,-0.10195 l 0,-0.05078 c 0,-0.03398 0.0183,-0.06719 0.0555,-0.10313 l 0,-0.15312 c -0.0379,0 -0.0555,-0.0168 -0.0555,-0.05078 l 0,-0.25703 c -0.0371,0 -0.0547,-0.01602 -0.0547,-0.05117 l 0,-0.10196 c -0.4426,-0.58086 -1.0512,-0.991795 -1.8242,-1.230857 -1.1438,-0.376172 -1.9531,-0.564063 -2.4321,-0.564063 l -0.6636,0 c -0.0371,0 -0.1465,0 -0.3313,0 l -1.1601,0 c -0.1114,0.03399 -0.2039,0.05117 -0.2762,0.05117 -0.5551,0.03477 -1.3266,0.136719 -2.3215,0.305859 -1.989,0.444922 -2.9844,1.503129 -2.9844,3.173829 0,0.44414 0.0911,0.93828 0.2762,1.48516 0.3676,1.05703 1.0859,2.08086 2.1555,3.06992 0.3308,0.375 0.6445,0.869143 0.9394,1.483203 0.295,0.61366 0.461,1.12576 0.4981,1.53596 l 0,15.764 c -0.075,0.2047 -0.1668,0.4598 -0.2774,0.7668 -0.0742,0.0352 -0.1093,0.086 -0.1093,0.1551 l 0,0.102 c -0.0379,0 -0.0657,0.025 -0.084,0.0761 -0.0188,0.0508 -0.1199,0.0938 -0.3035,0.1278 -0.0371,0.0679 -0.1477,0.1191 -0.3325,0.1531 -0.2593,-0.102 -0.6265,-0.307 -1.1043,-0.616 -0.0742,-0.068 -0.2207,-0.1871 -0.4433,-0.359 -0.2207,-0.1699 -0.3867,-0.307 -0.4961,-0.4102 l -0.9402,0.8801 5.6929,5.0199 0,0" /><path
       inkscape:connector-curvature="0"
       id="path7273"
       style="fill:#100f0d;fill-opacity:1;fill-rule:nonzero;stroke:none"
       d="m 116.47266,113.49997 c -0.6641,-0.8207 -1.1172,-1.5719 -1.3555,-2.2559 -0.2414,-0.6851 -0.3594,-1.4359 -0.3594,-2.2558 l 0,-0.7184 c 0,-0.2738 0.0364,-0.5129 0.1094,-0.7179 0.2942,-1.8118 1.1613,-3.6411 2.5988,-5.486 l 0.6083,0.3082 3.8672,3.1789 0,5.025 -5.4688,2.9219 z m -2.157,7.025 2.1558,-5.6398 5.361,-2.8719 0,5.9476 -6.8532,2.5653 -0.6636,-0.001 0,0 z m 5.1406,3.4359 7.4072,-2.7168 0,-0.0531 0.109,0.1031 c 0.072,0.102 0.267,0.2731 0.58,0.5129 0.314,0.2379 0.581,0.3762 0.803,0.4102 0.036,0 0.091,0.0168 0.165,0.0508 l 0.166,0 c 0.036,0 0.092,0.0172 0.165,0.0511 l 0.166,0 0.223,0.102 c -0.15,-0.2379 -0.352,-0.5629 -0.61,-0.9738 -0.146,-0.2051 -0.322,-0.5211 -0.524,-0.9481 -0.204,-0.4281 -0.507,-1.0859 -0.912,-1.9742 l -0.111,-14.4598 c 0.036,-0.1371 0.064,-0.223 0.083,-0.257 0.017,-0.034 0.045,-0.0851 0.083,-0.1531 l 0,-0.1551 c 0,-0.034 0.018,-0.0859 0.054,-0.1539 l 0,-0.102 c 0.073,-0.1019 0.203,-0.2742 0.387,-0.5128 0.037,-0.034 0.221,-0.1723 0.554,-0.409 0,-0.0703 0.037,-0.1032 0.109,-0.1032 l 0.057,0 c 0,-0.0359 0.016,-0.0511 0.054,-0.0511 l 0.994,0.6672 0.829,-0.6672 -4.809,-3.898073 -0.331,0 c -0.627,0 -1.16,0.23906 -1.603,0.71914 -0.552,0.6832 -0.904,1.280863 -1.05,1.794923 -0.112,0.23711 -0.232,0.63121 -0.36,1.17811 -0.129,0.5469 -0.193,0.8731 -0.193,0.975 l 0,0.359 c -0.039,0 -0.055,0.034 -0.055,0.1012 l 0,0.2578 c -0.039,0.034 -0.054,0.0851 -0.054,0.1539 l 0,0.307 -7.2973,-5.846073 c -1.325,0.68437 -2.4043,1.63437 -3.2324,2.847263 -0.8282,1.21291 -1.2442,2.48711 -1.2442,3.81991 l 0,0.2559 c 0,0.034 0.0188,0.0851 0.0567,0.1543 l 0,0.5129 c 0,0.0328 0.0175,0.0839 0.0547,0.1531 l 0,0.1027 c 0,0.0352 0.1464,0.5641 0.4433,1.5903 0.8086,2.7679 2.375,5.0238 4.6965,6.7687 l -2.707,7.1781 c 0.0359,-0.1019 0.0918,-0.1531 0.166,-0.1531 l 0.3308,0 c 0,-0.034 0.0364,-0.0519 0.1114,-0.0519 l 0.7722,0 c 0.1125,0 0.2036,0.008 0.2778,0.0261 0.073,0.016 0.1465,0.0418 0.2207,0.0758 0.0371,0 0.073,0 0.1101,0 0.7742,0.1051 1.6387,0.3672 2.5977,0.7859 0.8469,0.384 1.6035,0.8903 2.2668,1.5192 l 0,0.1058" /><path
       inkscape:connector-curvature="0"
       id="path7275"
       style="fill:#100f0d;fill-opacity:1;fill-rule:nonzero;stroke:none"
       d="m 142.11646,132.78007 1.602,0 c -1.032,-0.8551 -1.713,-1.675 -2.045,-2.4629 -0.368,-0.9223 -0.644,-1.8949 -0.829,-2.9223 l 0,-22.766 2.986,-2.1027 0.993,0.7179 0.83,-0.8718 -5.251,-4.307063 c -1.105,1.02695 -2.175,1.86289 -3.205,2.514063 -1.181,0.7508 -2.432,1.3668 -3.759,1.8457 1.438,0.8543 2.155,2.0152 2.155,3.4859 l 0,22.5622 c -0.405,1.3671 -1.198,2.4949 -2.377,3.3839 l 0.331,0.1032 c 0.112,-0.1032 0.249,-0.1551 0.416,-0.1551 0.166,0 0.387,-0.05 0.663,-0.1531 0.276,-0.102 0.478,-0.1797 0.608,-0.2309 0.128,-0.05 0.349,-0.1531 0.662,-0.3059 0.313,-0.1543 0.71,-0.4371 1.188,-0.8472 l 0.167,-0.1528 c 0,-0.1722 0.091,-0.257 0.276,-0.257 0,-0.0691 0.037,-0.1031 0.11,-0.1031 0.775,0.8211 1.437,1.4191 1.991,1.7949 0.699,0.5461 1.529,0.9223 2.488,1.127 l 0,0.1031" /><path
       inkscape:connector-curvature="0"
       id="path7277"
       style="fill:#100f0d;fill-opacity:1;fill-rule:nonzero;stroke:none"
       d="m 183.73346,126.78127 0,-11.2301 c 0,-1.3332 -0.388,-2.5301 -1.162,-3.5891 -0.479,-0.718 -1.346,-1.7269 -2.598,-3.0262 -0.075,-0.0687 -0.147,-0.1457 -0.221,-0.2308 -0.073,-0.0852 -0.165,-0.1949 -0.276,-0.3328 l -0.554,-0.5133 c -0.257,-0.1719 -0.571,-0.4789 -0.939,-0.9231 0.517,-0.4789 1.113,-0.9828 1.796,-1.5117 0.681,-0.532 1.482,-1.0871 2.405,-1.6672 1.289,-0.6839 2.56,-1.0257 3.814,-1.0257 l -0.112,25.7418 -2.153,-1.6918 0,0 z m 16.083,3.3839 0.11,0 c 0.037,0 0.074,0.0168 0.112,0.0508 l 0.221,0 0.054,0.0512 0.055,0 -5.139,-4.8723 -7.738,2.4102 0,-25.0738 c 0.147,-0.1372 0.313,-0.2063 0.498,-0.2063 l 0.276,0 c 0.073,-0.034 0.184,-0.0508 0.332,-0.0508 l 0.278,0 c 0.037,-0.034 0.126,-0.05 0.276,-0.05 l 0.497,0 c 3.795,0 7.719,1.6231 11.773,4.8719 l -0.442,-1.6418 c -3.171,-4.75117 -7.314,-7.350003 -12.436,-7.793363 l -6.632,0.2043 c -4.089,0.68399 -7.369,2.564843 -9.838,5.641063 -2.359,2.9058 -3.538,6.3589 -3.538,10.3578 l 0,0.2039 c 0,0.0679 0.018,0.1191 0.055,0.1543 l 0,0.4109 c 0,0.0688 0.018,0.1188 0.055,0.1539 l 0,0.1031 1.604,5.6399 c 2.357,4.341 5.6,7.384 9.727,9.1281 l 0.773,0.102 c -0.037,-0.102 -0.129,-0.2219 -0.276,-0.3602 -0.147,-0.1348 -0.277,-0.2219 -0.387,-0.2551 -0.59,-0.4797 -1.18,-1.0179 -1.769,-1.6156 -0.591,-0.598 -1.198,-1.2391 -1.824,-1.9223 -1.143,-1.264 -1.935,-2.6839 -2.377,-4.2558 l -0.111,-0.5129 0,-0.257 c -0.037,-0.0692 -0.055,-0.1543 -0.055,-0.2563 -0.074,-0.3418 -0.11,-0.4957 -0.11,-0.4617 l 0,-0.2043 c -0.038,-0.0699 -0.055,-0.1539 -0.055,-0.257 -0.075,-0.2059 -0.12,-0.377 -0.139,-0.5129 -0.018,-0.1371 -0.027,-0.3598 -0.027,-0.6668 -0.036,-0.2043 -0.055,-0.393 -0.055,-0.5641 0,-0.1723 0,-0.3422 0,-0.5133 0,-1.6738 0.276,-3.3 0.829,-4.8707 0.479,-1.3691 1.346,-2.8199 2.599,-4.3582 0.036,0.0332 0.109,0.1192 0.22,0.2563 0,-0.1364 0.11,0.1008 0.331,0.7179 l 0.111,0.4098 0,14.8191 11.221,9.0239 c 3.388,-2.118 7.036,-3.1778 10.941,-3.1778 l 0,0" /><path
       inkscape:connector-curvature="0"
       id="path7279"
       style="fill:#100f0d;fill-opacity:1;fill-rule:nonzero;stroke:none"
       d="m 211.03546,119.44807 0,-14.7168 6.079,-2.4614 0,14.7672 -6.079,2.411 z m 2.432,4.5128 c 0.995,-0.7859 2.174,-1.4929 3.537,-2.125 1.363,-0.6316 2.579,-1.0828 3.649,-1.3558 l 1.823,-0.461 0,-17.655 -8.347,-4.094173 -7.074,3.377373 -2.872,0.7168 1.16,1.5851 0.331,1.6899 0,14.0742 c 1.4,0.2379 2.782,0.7418 4.145,1.509 1.363,0.7679 2.579,1.6457 3.648,2.6347 l 0,0.1039" /><path
       inkscape:connector-curvature="0"
       id="path7281"
       style="fill:#100f0d;fill-opacity:1;fill-rule:nonzero;stroke:none"
       d="m 235.90446,132.78007 1.604,0 c -1.032,-0.8551 -1.714,-1.675 -2.047,-2.4629 -0.367,-0.9223 -0.644,-1.8949 -0.829,-2.9223 l 0,-22.766 2.986,-2.1027 0.995,0.7179 0.83,-0.8718 -5.252,-4.307063 c -1.106,1.02695 -2.175,1.86289 -3.205,2.514063 -1.18,0.7508 -2.432,1.3668 -3.758,1.8457 1.437,0.8543 2.155,2.0152 2.155,3.4859 l 0,22.5622 c -0.406,1.3671 -1.198,2.4949 -2.376,3.3839 l 0.332,0.1032 c 0.11,-0.1032 0.248,-0.1551 0.413,-0.1551 0.167,0 0.387,-0.05 0.665,-0.1531 0.276,-0.102 0.478,-0.1797 0.608,-0.2309 0.128,-0.05 0.349,-0.1531 0.662,-0.3059 0.314,-0.1543 0.71,-0.4371 1.189,-0.8472 l 0.166,-0.1528 c 0,-0.1722 0.092,-0.257 0.277,-0.257 0,-0.0691 0.036,-0.1031 0.109,-0.1031 0.775,0.8211 1.438,1.4191 1.991,1.7949 0.7,0.5461 1.529,0.9223 2.488,1.127 l 0,0.1031 -0.002,0 -0.001,0" /><path
       inkscape:connector-curvature="0"
       id="path7283"
       style="fill:#100f0d;fill-opacity:1;fill-rule:nonzero;stroke:none"
       d="m 251.38046,132.78007 1.603,0 c -1.032,-0.8551 -1.713,-1.675 -2.046,-2.4629 -0.366,-0.9223 -0.644,-1.8949 -0.828,-2.9223 l 0,-22.766 2.984,-2.1027 0.994,0.7179 0.83,-0.8718 -5.25,-4.307063 c -1.105,1.02695 -2.176,1.86289 -3.206,2.514063 -1.181,0.7508 -2.432,1.3668 -3.76,1.8457 1.439,0.8543 2.157,2.0152 2.157,3.4859 l 0,22.5622 c -0.406,1.3671 -1.198,2.4949 -2.378,3.3839 l 0.333,0.1032 c 0.11,-0.1032 0.248,-0.1551 0.414,-0.1551 0.165,0 0.387,-0.05 0.664,-0.1531 0.276,-0.102 0.478,-0.1797 0.608,-0.2309 0.128,-0.05 0.349,-0.1531 0.663,-0.3059 0.313,-0.1543 0.709,-0.4371 1.188,-0.8472 l 0.166,-0.1528 c 0,-0.1722 0.092,-0.257 0.277,-0.257 0,-0.0691 0.036,-0.1031 0.111,-0.1031 0.774,0.8211 1.436,1.4191 1.989,1.7949 0.7,0.5461 1.528,0.9223 2.487,1.127 l 0,0.1043 0,-0.001" /><path
       inkscape:connector-curvature="0"
       id="path7285"
       style="fill:#100f0d;fill-opacity:1;fill-rule:nonzero;stroke:none"
       d="m 264.31246,119.44807 0,-8.05 c 0.223,0.0339 0.481,0.1699 0.775,0.4089 l 0.83,0.6161 c 0.072,0.0332 0.138,0.0761 0.193,0.1269 0.056,0.05 0.1,0.0859 0.139,0.1031 0.037,0.016 0.091,0.05 0.166,0.1032 0.073,0.05 0.119,0.0839 0.138,0.1019 0.018,0.0168 0.101,0.0758 0.249,0.1789 0.147,0.1031 0.258,0.1871 0.331,0.257 0.333,0.17 0.682,0.4008 1.05,0.6918 0.367,0.2903 0.683,0.5551 0.941,0.7954 l -4.812,4.6668 z m 2.322,4.5128 7.185,-6.8558 -9.507,-7.7238 0,-5.0641 4.589,-2.0461 3.426,2.359 0.773,-0.9738 -7.405,-5.385203 -0.221,0 c -0.186,0 -0.443,0.04414 -0.774,0.12695 -0.333,0.08516 -0.545,0.13711 -0.637,0.15391 -0.093,0.01719 -0.525,0.28125 -1.298,0.79414 -0.075,0.03398 -0.184,0.11992 -0.332,0.25586 -0.037,0.03398 -0.092,0.08516 -0.166,0.15312 -0.073,0.06797 -0.166,0.12813 -0.276,0.17891 -0.112,0.05117 -0.306,0.153133 -0.581,0.307033 -0.277,0.15508 -0.617,0.26406 -1.023,0.33203 l -0.497,0.15391 c -0.111,0 -0.25,0.0172 -0.415,0.0512 -0.166,0.0352 -0.341,0.068 -0.525,0.10195 -0.186,0.034 -0.361,0.0859 -0.527,0.15391 -0.166,0.0672 -0.525,0.13591 -1.077,0.20511 1.215,1.125 1.823,2.4558 1.823,3.991 l 0,14.2762 c 1.29,0.4437 2.598,1.075 3.925,1.8937 1.105,0.6832 2.283,1.502 3.537,2.457 l 0,0.1032 0.003,0 0,7e-4" /><path
       inkscape:connector-curvature="0"
       id="path7287"
       style="fill:#100f0d;fill-opacity:1;fill-rule:nonzero;stroke:none"
       d="m 283.87846,119.85817 0,-15.5371 3.205,-2.0512 c 1.474,1.0262 2.469,2.2391 2.985,3.641 l 0,11.8454 -6.19,2.1019 z m 6.191,-16.8191 -6.522,-7.434803 0.664,0.15391 c 0.443,0.10195 0.884,0.15273 1.327,0.15273 0.22,0.06914 0.57,0.10235 1.049,0.10235 l 0.498,0 c 2.762,0 5.693,-0.63125 8.788,-1.89531 l 0.165,0.46015 c -1.364,1.33399 -2.506,2.63399 -3.426,3.89805 -1.069,1.50312 -1.916,2.991023 -2.543,4.460923 l 0,0.102 z m -3.207,20.9218 8.456,-3.7437 0.553,0 4.035,2.6148 0,-5.3839 -4.587,0 0,-13.4872 c 0,-0.1019 0.036,-0.2558 0.11,-0.4609 0,-0.0348 0.01,-0.0848 0.028,-0.1539 0.018,-0.0668 0.064,-0.1359 0.138,-0.2039 0.148,-0.4102 0.479,-1.077 0.994,-1.99922 l 2.819,-3.845713 0,-0.20508 c 0,-0.06796 0.036,-0.13711 0.109,-0.20507 l 0,-0.20586 c 0,-0.03399 0.019,-0.06602 0.057,-0.10196 l 0,-0.25625 c -0.037,-0.03398 -0.057,-0.08476 -0.057,-0.1539 l 0,-0.20391 c -0.037,-0.03516 -0.055,-0.07695 -0.055,-0.12812 0,-0.05118 -0.027,-0.16211 -0.082,-0.33321 -0.056,-0.1707 -0.101,-0.28281 -0.138,-0.33281 -0.038,-0.05117 -0.075,-0.12812 -0.112,-0.23086 -0.037,-0.10195 -0.092,-0.18828 -0.166,-0.25625 l -0.386,-0.35898 c -0.075,-0.03399 -0.148,-0.08399 -0.222,-0.15391 l -0.165,-0.15312 -5.472,-2.870708 c -0.074,0 -0.221,0.03399 -0.442,0.101953 -0.222,0.06875 -0.387,0.119922 -0.497,0.152734 -0.296,0.103125 -0.628,0.189063 -0.995,0.257032 -0.221,0.06914 -0.534,0.154297 -0.94,0.257031 -0.183,0.03398 -0.516,0.08516 -0.994,0.153125 -1.475,0.171873 -2.506,0.257033 -3.093,0.257033 l -0.5,0 c -0.036,0 -0.571,-0.07227 -1.601,-0.215236 0.037,0 -0.332,-0.05273 -1.105,-0.159766 -0.15,-0.03516 -0.333,-0.08789 -0.553,-0.160937 -0.075,0 -0.387,-0.08828 -0.94,-0.267969 -0.111,0 -0.268,-0.03516 -0.47,-0.108203 -0.203,-0.06992 -0.544,-0.141797 -1.022,-0.214062 -0.074,0 -0.165,-0.01797 -0.276,-0.05391 l -0.332,0 c -0.038,0 -0.147,0 -0.332,0 l -0.332,0 -0.109,0.971875 5.858,6.656255 -5.417,3.583973 0,18.0207 c 3.243,0.4442 5.987,1.6051 8.236,3.4832 l 0,0.1 -10e-4,0 0,-0.001" /><path
       inkscape:connector-curvature="0"
       id="path7289"
       style="fill:#100f0d;fill-opacity:1;fill-rule:nonzero;stroke:none"
       d="m 309.68846,119.44807 0,-8.05 c 0.222,0.0339 0.479,0.1699 0.774,0.4089 l 0.83,0.6161 c 0.073,0.0332 0.136,0.0761 0.193,0.1269 0.057,0.05 0.1,0.0859 0.139,0.1031 0.035,0.016 0.091,0.05 0.165,0.1032 0.073,0.05 0.12,0.0839 0.139,0.1019 0.017,0.0168 0.101,0.0758 0.248,0.1789 0.148,0.1031 0.257,0.1871 0.333,0.257 0.331,0.17 0.681,0.4008 1.049,0.6918 0.367,0.2903 0.682,0.5551 0.94,0.7954 l -4.81,4.6668 0,0 z m 2.322,4.5128 7.185,-6.8558 -9.507,-7.7238 0,-5.0641 4.589,-2.0461 3.426,2.359 0.773,-0.9738 -7.406,-5.385203 -0.222,0 c -0.184,0 -0.442,0.04414 -0.772,0.12695 -0.331,0.08516 -0.543,0.13711 -0.635,0.15391 -0.094,0.01719 -0.526,0.28125 -1.301,0.79414 -0.073,0.03398 -0.184,0.11992 -0.331,0.25586 -0.037,0.03398 -0.093,0.08516 -0.166,0.15312 -0.074,0.06797 -0.166,0.12813 -0.277,0.17891 -0.111,0.05117 -0.304,0.153133 -0.579,0.307033 -0.277,0.15508 -0.619,0.26406 -1.024,0.33203 l -0.499,0.15391 c -0.111,0 -0.249,0.0172 -0.414,0.0512 -0.164,0.0352 -0.34,0.068 -0.523,0.10195 -0.187,0.034 -0.361,0.0859 -0.527,0.15391 -0.166,0.0672 -0.526,0.13591 -1.078,0.20511 1.217,1.125 1.825,2.4558 1.825,3.991 l 0,14.2762 c 1.289,0.4437 2.598,1.075 3.924,1.8937 1.106,0.6832 2.283,1.502 3.537,2.457 l 0,0.1039 0.002,0 0,0" /><path
       inkscape:connector-curvature="0"
       id="path7291"
       style="fill:#ffffff;fill-opacity:1;fill-rule:nonzero;stroke:none"
       d="m 155.68346,175.89607 c -0.712,0.082 -1.432,0.082 -2.143,0 -0.575,-0.066 -1.145,-0.1859 -1.697,-0.357 0.488,0.73 1.148,1.3429 1.911,1.7761 0.253,0.143 0.524,0.2688 0.813,0.2969 0.145,0.0141 0.293,0.003 0.432,-0.041 0.138,-0.0441 0.267,-0.1219 0.364,-0.2309 0.106,-0.1222 0.172,-0.2761 0.217,-0.432 0.046,-0.1562 0.075,-0.316 0.124,-0.4711 0.064,-0.2058 0.165,-0.4 0.295,-0.573 l -0.316,0.032 0,0" /><path
       sodipodi:nodetypes="cccscccssccccccccccccccccccccccccccsccccccaccsscc"
       inkscape:connector-curvature="0"
       id="path7293"
       d="m 194.22558,189.70436 c -4.63016,-0.0115 -9.68334,-1.42089 -9.84595,-4.91565 -0.0431,-2.28228 1.49247,-4.47603 4.64038,-4.7797 3.454,-0.414 6.52361,0.32861 9.57965,-0.62007 3.15541,-0.97953 6.43243,-3.10159 7.06347,-6.55518 0.37359,-2.33103 -0.64483,-4.51536 -2.55029,-6.13184 -2.47862,-1.92353 -4.79034,-2.93075 -8.96924,-3.38525 -3.17413,-0.28719 -8.68207,0.71507 -8.69678,3.89062 -0.0137,2.97141 3.38225,3.45049 5.45508,3.48048 1.5859,0.023 3.07937,-0.0727 4.03272,-0.22413 0.50988,1.19175 0.83732,3.08682 0.0937,4.50586 -0.33501,0.5852 -0.81849,1.07899 -1.3755,1.45898 -1.11199,0.7602 -2.48024,1.06132 -3.82323,1.16602 -1.16501,0.091 -2.38728,0.0369 -3.42627,-0.49951 -0.52101,-0.2679 -0.98425,-0.65598 -1.30225,-1.14697 -0.318,-0.4899 -0.48434,-1.085 -0.42334,-1.667 0.042,-0.40629 0.19745,-0.79973 0.43945,-1.12792 0.243,-0.32891 0.57469,-0.58981 0.95068,-0.75 0.37601,-0.1601 0.79425,-0.21727 1.19825,-0.16407 0.405,0.0519 0.79567,0.21609 1.11767,0.46729 0.525,0.4089 1.06133,0.803 1.61133,1.1792 0.272,0.189 0.54815,0.37342 0.84815,0.51562 0.299,0.1418 0.62554,0.23877 0.95654,0.23877 0.542,7.5e-4 1.07599,-0.26935 1.396,-0.70605 0.318,-0.4371 0.41502,-1.02942 0.24902,-1.54542 -0.857,0.0558 -1.71427,0.0743 -2.57227,0.0572 -1.51,-0.0309 -3.05243,-0.18224 -4.41943,-0.82324 -1.83,-0.8582 -3.22484,-2.60975 -3.61084,-4.59375 -0.204,-1.0461 -0.13412,-2.13716 0.15088,-3.16406 0.285,-1.027 0.78429,-1.98834 1.42529,-2.84034 1.909,-2.541 5.0125,-4.01774 8.16651,-4.41064 4.59199,-0.57111 9.44019,1.10801 12.59619,4.49121 1.578,1.6906 2.73687,3.77605 3.31787,6.01465 0.581,2.2403 0.58182,4.62972 -0.0132,6.86572 -0.5215,2.3352 -2.38932,4.41076 -3.90457,5.46005 1.04464,0.0837 2.22442,1.37505 2.22382,3.13144 -8.7e-4,2.54383 -2.36826,4.77491 -4.93156,5.82404 -2.51812,0.91038 -5.1701,1.25328 -7.64794,1.30371 z m -1.56006,-2.60449 c 1.2595,0.0195 2.51783,-0.0627 3.75732,-0.28418 1.62101,-0.2898 3.25173,-0.84673 4.44873,-1.97754 0.70326,-0.69651 0.98665,-1.39309 0.83643,-2.146 -0.10528,-0.52767 -0.44383,-1.00209 -1.11852,-1.16389 -1.10963,0.34209 -2.12229,0.51572 -3.44526,0.5888 -2.287,0.0774 -5.9934,-0.005 -7.70157,0.30525 -1.03988,0.1888 -2.22366,1.07724 -2.21204,2.0918 0.0186,1.62025 3.18653,2.54151 5.43488,2.58577 z"
       style="fill:#100f0d;fill-opacity:1;fill-rule:nonzero;stroke:none" /><path
       inkscape:connector-curvature="0"
       id="path7295"
       style="fill:#100f0d;fill-opacity:1;fill-rule:nonzero;stroke:none"
       d="m 224.29846,176.04487 c -0.482,-0.5238 -1.126,-0.9 -1.819,-1.0648 -0.692,-0.166 -1.436,-0.1211 -2.103,0.1281 -0.447,0.166 -0.865,0.4258 -1.178,0.7848 -0.315,0.359 -0.519,0.8222 -0.527,1.2992 -0.005,0.3269 0.08,0.6519 0.23,0.9418 0.149,0.2902 0.361,0.5461 0.608,0.7601 0.494,0.427 1.116,0.6821 1.742,0.8629 2.264,0.652 4.797,0.3981 6.828,-0.7968 0.751,-0.4422 1.438,-1.0161 1.918,-1.745 0.478,-0.7293 0.735,-1.623 0.606,-2.4851 -0.114,-0.7719 -0.534,-1.4852 -1.12,-2.0008 -0.586,-0.516 -1.329,-0.8383 -2.1,-0.966 -0.996,-0.166 -2.013,-0.016 -3.019,0.068 -1.007,0.0839 -2.06,0.0957 -2.98,-0.3211 -0.863,-0.3911 -1.54,-1.143 -1.919,-2.0121 -0.379,-0.8692 -0.472,-1.8461 -0.353,-2.7872 0.215,-1.7078 1.145,-3.3218 2.542,-4.3308 1.394,-1.009 3.236,-1.3879 4.907,-0.9719 1.381,0.343 2.621,1.216 3.409,2.3988 l 1.39,2.2102 c 0.045,0.1988 0.178,0.3769 0.354,0.4777 0.178,0.1012 0.399,0.1231 0.592,0.059 0.161,-0.0527 0.302,-0.1629 0.401,-0.2988 0.099,-0.1371 0.159,-0.3008 0.183,-0.468 0.047,-0.3351 -0.049,-0.6762 -0.188,-0.984 -0.1,-0.2172 -0.222,-0.4242 -0.363,-0.616 0.666,-0.002 1.329,-0.25 1.832,-0.6859 0.505,-0.4352 0.847,-1.0551 0.946,-1.7129 0.093,-0.6192 -0.023,-1.2543 -0.234,-1.8434 -0.211,-0.5886 -0.513,-1.1398 -0.808,-1.6918 -1.064,-1.9941 -2.033,-4.039 -2.904,-6.1242 0.571,0.4563 1.321,0.6801 2.048,0.6133 0.609,-0.0563 1.184,-0.3051 1.724,-0.591 0.651,-0.3449 1.272,-0.75 1.852,-1.2071 0.56,0.1911 1.063,0.545 1.431,1.0071 0.369,0.4621 0.604,1.0308 0.665,1.6187 0.064,0.6 -0.049,1.2094 -0.259,1.775 -0.211,0.5653 -0.518,1.0903 -0.852,1.5922 -0.668,1.0051 -1.46,1.9512 -1.873,3.0852 -0.321,0.8808 -0.393,1.8687 -0.098,2.759 0.148,0.4449 0.386,0.8617 0.703,1.2058 0.32,0.3442 0.72,0.6149 1.161,0.7699 0.849,0.2961 1.842,0.1352 2.553,-0.414 0.711,-0.5489 1.118,-1.4688 1.046,-2.3637 0.377,0.8367 1.048,1.5379 1.867,1.9477 0.821,0.4101 1.784,0.5273 2.68,0.325 0.794,-0.1789 1.521,-0.6008 2.11,-1.1629 0.588,-0.5621 1.038,-1.259 1.358,-2.0071 0.639,-1.4961 0.757,-3.1589 0.761,-4.7847 0.004,-1.6524 -0.108,-3.3371 -0.724,-4.8711 -0.309,-0.7672 -0.741,-1.4871 -1.312,-2.0852 -0.569,-0.5969 -1.279,-1.0687 -2.067,-1.3148 -0.81,-0.252 -1.691,-0.2621 -2.504,-0.0281 -0.815,0.2339 -1.556,0.7109 -2.106,1.3539 -0.682,-1.0047 -1.878,-1.6399 -3.093,-1.6418 -0.847,-0.001 -1.669,0.2839 -2.424,0.6668 -0.755,0.3832 -1.454,0.8632 -2.186,1.2902 -0.457,0.2668 -0.935,0.516 -1.456,0.6129 -0.259,0.0492 -0.527,0.059 -0.789,0.0129 -0.261,-0.0457 -0.512,-0.1481 -0.722,-0.3098 -0.302,-0.234 -0.5,-0.5769 -0.653,-0.9269 -0.151,-0.35 -0.266,-0.718 -0.441,-1.0571 -0.178,-0.339 -0.428,-0.6562 -0.772,-0.8211 -0.172,-0.0832 -0.365,-0.1242 -0.555,-0.107 -0.192,0.0172 -0.377,0.0949 -0.515,0.2289 -0.112,0.1102 -0.189,0.2539 -0.229,0.407 -0.041,0.1532 -0.044,0.3141 -0.023,0.4711 0.042,0.3129 0.181,0.6039 0.316,0.8899 0.39,0.8152 0.781,1.6301 1.184,2.4383 1.389,2.7839 2.922,5.5 4.151,8.357 0.166,0.3867 0.33,0.7828 0.368,1.2027 0.018,0.209 0.005,0.4231 -0.053,0.625 -0.06,0.202 -0.164,0.393 -0.315,0.5403 -0.153,0.1488 -0.35,0.25 -0.558,0.3 -0.208,0.05 -0.428,0.0488 -0.639,0.0109 -0.421,-0.0781 -0.801,-0.3031 -1.139,-0.5629 -0.977,-0.75 -1.68,-1.8102 -2.179,-2.9363 -0.306,-0.6879 -0.559,-1.4321 -1.102,-1.9528 -0.271,-0.2601 -0.617,-0.455 -0.99,-0.5019 -0.187,-0.0231 -0.379,-0.0102 -0.559,0.0469 -0.178,0.057 -0.345,0.1558 -0.475,0.2918 -0.126,0.132 -0.217,0.2972 -0.26,0.4742 -0.043,0.1769 -0.039,0.3648 0.014,0.5398 0.051,0.175 0.148,0.3352 0.279,0.461 0.133,0.1261 0.298,0.216 0.475,0.2589 -2.322,-1.1628 -5.094,-1.3937 -7.577,-0.6308 -1.639,0.5039 -3.156,1.4351 -4.292,2.7211 -1.136,1.2847 -1.88,2.9269 -2.024,4.6371 -0.127,1.5109 0.217,3.0539 0.946,4.3816 0.73,1.3293 1.842,2.4403 3.158,3.1942 2.151,1.232 4.718,1.4781 7.198,1.5152 1.222,0.0188 2.446,-0.007 3.669,-0.0773 0.19,0.207 0.328,0.4632 0.393,0.7371 0.065,0.2742 0.06,0.564 -0.018,0.8351 -0.078,0.2707 -0.226,0.5207 -0.425,0.7188 -0.199,0.198 -0.45,0.3441 -0.723,0.4191 -0.401,0.111 -0.845,0.0629 -1.215,-0.1328 -0.365,-0.198 -0.654,-0.5391 -0.787,-0.9344 l 0,0" /><path
       inkscape:connector-curvature="0"
       id="path7297"
       style="fill:none;stroke:#100f0d;stroke-width:0.1;stroke-linecap:butt;stroke-linejoin:miter;stroke-miterlimit:4;stroke-dasharray:none;stroke-opacity:1"
       d="m 224.29846,176.04487 c -0.482,-0.5238 -1.126,-0.9 -1.819,-1.0648 -0.692,-0.166 -1.436,-0.1211 -2.103,0.1281 -0.447,0.166 -0.865,0.4258 -1.178,0.7848 -0.315,0.359 -0.519,0.8222 -0.527,1.2992 -0.005,0.3269 0.08,0.6519 0.23,0.9418 0.149,0.2902 0.361,0.5461 0.608,0.7601 0.494,0.427 1.116,0.6821 1.742,0.8629 2.264,0.652 4.797,0.3981 6.828,-0.7968 0.751,-0.4422 1.438,-1.0161 1.918,-1.745 0.478,-0.7293 0.735,-1.623 0.606,-2.4851 -0.114,-0.7719 -0.534,-1.4852 -1.12,-2.0008 -0.586,-0.516 -1.329,-0.8383 -2.1,-0.966 -0.996,-0.166 -2.013,-0.016 -3.019,0.068 -1.007,0.0839 -2.06,0.0957 -2.98,-0.3211 -0.863,-0.3911 -1.54,-1.143 -1.919,-2.0121 -0.379,-0.8692 -0.472,-1.8461 -0.353,-2.7872 0.215,-1.7078 1.145,-3.3218 2.542,-4.3308 1.394,-1.009 3.236,-1.3879 4.907,-0.9719 1.381,0.343 2.621,1.216 3.409,2.3988 l 1.39,2.2102 c 0.045,0.1988 0.178,0.3769 0.354,0.4777 0.178,0.1012 0.399,0.1231 0.592,0.059 0.161,-0.0527 0.302,-0.1629 0.401,-0.2988 0.099,-0.1371 0.159,-0.3008 0.183,-0.468 0.047,-0.3351 -0.049,-0.6762 -0.188,-0.984 -0.1,-0.2172 -0.222,-0.4242 -0.363,-0.616 0.666,-0.002 1.329,-0.25 1.832,-0.6859 0.505,-0.4352 0.847,-1.0551 0.946,-1.7129 0.093,-0.6192 -0.023,-1.2543 -0.234,-1.8434 -0.211,-0.5886 -0.513,-1.1398 -0.808,-1.6918 -1.064,-1.9941 -2.033,-4.039 -2.904,-6.1242 0.571,0.4563 1.321,0.6801 2.048,0.6133 0.609,-0.0563 1.184,-0.3051 1.724,-0.591 0.651,-0.3449 1.272,-0.75 1.852,-1.2071 0.56,0.1911 1.063,0.545 1.431,1.0071 0.369,0.4621 0.604,1.0308 0.665,1.6187 0.064,0.6 -0.049,1.2094 -0.259,1.775 -0.211,0.5653 -0.518,1.0903 -0.852,1.5922 -0.668,1.0051 -1.46,1.9512 -1.873,3.0852 -0.321,0.8808 -0.393,1.8687 -0.098,2.759 0.148,0.4449 0.386,0.8617 0.703,1.2058 0.32,0.3442 0.72,0.6149 1.161,0.7699 0.849,0.2961 1.842,0.1352 2.553,-0.414 0.711,-0.5489 1.118,-1.4688 1.046,-2.3637 0.377,0.8367 1.048,1.5379 1.867,1.9477 0.821,0.4101 1.784,0.5273 2.68,0.325 0.794,-0.1789 1.521,-0.6008 2.11,-1.1629 0.588,-0.5621 1.038,-1.259 1.358,-2.0071 0.639,-1.4961 0.757,-3.1589 0.761,-4.7847 0.004,-1.6524 -0.108,-3.3371 -0.724,-4.8711 -0.309,-0.7672 -0.741,-1.4871 -1.312,-2.0852 -0.569,-0.5969 -1.279,-1.0687 -2.067,-1.3148 -0.81,-0.252 -1.691,-0.2621 -2.504,-0.0281 -0.815,0.2339 -1.556,0.7109 -2.106,1.3539 -0.682,-1.0047 -1.878,-1.6399 -3.093,-1.6418 -0.847,-0.001 -1.669,0.2839 -2.424,0.6668 -0.755,0.3832 -1.454,0.8632 -2.186,1.2902 -0.457,0.2668 -0.935,0.516 -1.456,0.6129 -0.259,0.0492 -0.527,0.059 -0.789,0.0129 -0.261,-0.0457 -0.512,-0.1481 -0.722,-0.3098 -0.302,-0.234 -0.5,-0.5769 -0.653,-0.9269 -0.151,-0.35 -0.266,-0.718 -0.441,-1.0571 -0.178,-0.339 -0.428,-0.6562 -0.772,-0.8211 -0.172,-0.0832 -0.365,-0.1242 -0.555,-0.107 -0.192,0.0172 -0.377,0.0949 -0.515,0.2289 -0.112,0.1102 -0.189,0.2539 -0.229,0.407 -0.041,0.1532 -0.044,0.3141 -0.023,0.4711 0.042,0.3129 0.181,0.6039 0.316,0.8899 0.39,0.8152 0.781,1.6301 1.184,2.4383 1.389,2.7839 2.922,5.5 4.151,8.357 0.166,0.3867 0.33,0.7828 0.368,1.2027 0.018,0.209 0.005,0.4231 -0.053,0.625 -0.06,0.202 -0.164,0.393 -0.315,0.5403 -0.153,0.1488 -0.35,0.25 -0.558,0.3 -0.208,0.05 -0.428,0.0488 -0.639,0.0109 -0.421,-0.0781 -0.801,-0.3031 -1.139,-0.5629 -0.977,-0.75 -1.68,-1.8102 -2.179,-2.9363 -0.306,-0.6879 -0.559,-1.4321 -1.102,-1.9528 -0.271,-0.2601 -0.617,-0.455 -0.99,-0.5019 -0.187,-0.0231 -0.379,-0.0102 -0.559,0.0469 -0.178,0.057 -0.345,0.1558 -0.475,0.2918 -0.126,0.132 -0.217,0.2972 -0.26,0.4742 -0.043,0.1769 -0.039,0.3648 0.014,0.5398 0.051,0.175 0.148,0.3352 0.279,0.461 0.133,0.1261 0.298,0.216 0.475,0.2589 -2.322,-1.1628 -5.094,-1.3937 -7.577,-0.6308 -1.639,0.5039 -3.156,1.4351 -4.292,2.7211 -1.136,1.2847 -1.88,2.9269 -2.024,4.6371 -0.127,1.5109 0.217,3.0539 0.946,4.3816 0.73,1.3293 1.842,2.4403 3.158,3.1942 2.151,1.232 4.718,1.4781 7.198,1.5152 1.222,0.0188 2.446,-0.007 3.669,-0.0773 0.19,0.207 0.328,0.4632 0.393,0.7371 0.065,0.2742 0.06,0.564 -0.018,0.8351 -0.078,0.2707 -0.226,0.5207 -0.425,0.7188 -0.199,0.198 -0.45,0.3441 -0.723,0.4191 -0.401,0.111 -0.845,0.0629 -1.215,-0.1328 -0.365,-0.198 -0.654,-0.5391 -0.787,-0.9344 l 0,0 z" /><path
       inkscape:connector-curvature="0"
       id="path7299"
       style="fill:#ffffff;fill-opacity:1;fill-rule:nonzero;stroke:none"
       d="m 241.90446,157.74487 c 1.026,-1.8429 1.237,-4.1226 0.567,-6.1238 -0.057,-0.1699 -0.12,-0.3391 -0.188,-0.5051 0.243,-0.289 0.566,-0.509 0.925,-0.6269 0.358,-0.1192 0.75,-0.1371 1.117,-0.0508 0.595,0.1398 1.106,0.5437 1.465,1.0418 0.358,0.498 0.573,1.0832 0.727,1.675 0.447,1.7191 0.404,3.5301 0.196,5.2941 -0.094,0.8008 -0.231,1.6258 -0.674,2.3008 -0.221,0.3371 -0.52,0.6301 -0.877,0.8133 -0.36,0.184 -0.783,0.2539 -1.175,0.1598 -0.48,-0.1141 -0.88,-0.4622 -1.15,-0.875 -0.268,-0.4129 -0.424,-0.8899 -0.554,-1.3661 -0.157,-0.5718 -0.283,-1.1519 -0.379,-1.7371 l 0,0" /><path
       inkscape:connector-curvature="0"
       id="path7301"
       style="fill:#ffffff;fill-opacity:1;fill-rule:nonzero;stroke:none"
       d="m 239.75746,159.89217 c -0.496,-0.1211 -1.039,-0.034 -1.472,0.2359 -0.435,0.27 -0.752,0.718 -0.864,1.216 -0.064,0.2899 -0.06,0.6 0.044,0.8782 0.105,0.2777 0.314,0.5207 0.587,0.6379 0.183,0.0769 0.388,0.0961 0.581,0.064 0.196,-0.0332 0.38,-0.116 0.539,-0.232 0.32,-0.2332 0.529,-0.5922 0.648,-0.968 0.188,-0.5953 0.166,-1.2531 -0.063,-1.832 l 0,0" /><path
       inkscape:connector-curvature="0"
       id="path7303"
       style="fill:#100f0d;fill-opacity:1;fill-rule:nonzero;stroke:none"
       d="m 263.71846,172.48127 c -0.106,0.3367 -0.038,0.725 0.179,1.0039 0.173,0.2211 0.427,0.3699 0.695,0.4449 0.271,0.075 0.554,0.0801 0.834,0.0789 l 9.127,-0.0109 c 0.155,-0.0719 0.281,-0.2032 0.347,-0.3598 0.065,-0.157 0.068,-0.3391 0.012,-0.4992 -0.048,-0.1301 -0.134,-0.245 -0.242,-0.3328 -0.105,-0.0891 -0.231,-0.152 -0.364,-0.1954 -0.263,-0.0847 -0.546,-0.0867 -0.822,-0.0859 -0.544,0.003 -1.089,0.016 -1.631,-0.0219 -0.178,-0.0129 -0.355,-0.0308 -0.532,-0.0558 -0.173,-0.025 -0.347,-0.0571 -0.51,-0.116 -0.163,-0.0602 -0.319,-0.1481 -0.438,-0.2743 -0.108,-0.1129 -0.184,-0.2531 -0.225,-0.4039 -0.04,-0.15 -0.046,-0.309 -0.02,-0.4621 0.053,-0.3058 0.231,-0.5828 0.465,-0.7867 0.235,-0.2043 0.524,-0.3383 0.823,-0.423 0.299,-0.084 0.609,-0.1211 0.919,-0.1461 0.863,-0.07 1.735,-0.0539 2.589,0.0789 0.777,0.1211 1.551,0.3429 2.202,0.7832 0.325,0.2199 0.616,0.4929 0.84,0.8136 0.227,0.3223 0.383,0.6934 0.441,1.0813 0.091,0.6098 -0.072,1.2418 -0.376,1.7777 -0.307,0.5371 -0.747,0.9852 -1.232,1.3692 -1.003,0.7949 -2.204,1.3289 -3.457,1.598 -1.252,0.2692 -2.553,0.275 -3.818,0.0762 -2.502,-0.3934 -4.859,-1.6 -6.675,-3.3652 -1.814,-1.7649 -3.081,-4.0758 -3.639,-6.545 -0.583,-2.5832 -0.39,-5.341 0.582,-7.8039 0.971,-2.4633 2.722,-4.6179 4.955,-6.0422 1.877,-1.1968 4.105,-1.8769 6.331,-1.7808 2.224,0.0961 4.431,0.9937 5.99,2.5847 1.419,1.4493 2.266,3.4524 2.287,5.4801 0.006,0.4781 -0.034,0.9653 -0.207,1.411 -0.172,0.4472 -0.486,0.8531 -0.921,1.055 -0.382,0.1789 -0.841,0.1852 -1.227,0.0172 -0.388,-0.1679 -0.696,-0.5082 -0.827,-0.9101 l -2.41,0.8039 c 0.143,0.6961 0.51,1.3429 1.035,1.8211 0.526,0.4781 1.205,0.7832 1.911,0.8582 0.709,0.075 1.435,-0.0801 2.068,-0.4071 0.633,-0.3281 1.172,-0.825 1.578,-1.4101 0.814,-1.1699 1.084,-2.6531 0.996,-4.0758 -0.094,-1.5293 -0.579,-3.0273 -1.359,-4.3453 -0.782,-1.318 -1.855,-2.457 -3.098,-3.3539 -2.483,-1.7942 -5.603,-2.5899 -8.668,-2.5692 -2.69,0.0184 -5.383,0.6461 -7.782,1.8633 -2.401,1.218 -4.504,3.027 -6.028,5.2457 -1.525,2.2184 -2.461,4.8442 -2.639,7.5301 -0.178,2.6859 0.412,5.4242 1.719,7.7781 1.509,2.72 3.949,4.8782 6.748,6.2371 2.799,1.359 5.943,1.9411 9.054,1.8879 2.245,-0.039 4.502,-0.407 6.563,-1.2949 1.303,-0.5609 2.535,-1.3441 3.433,-2.441 0.898,-1.0981 1.433,-2.5359 1.254,-3.943 -0.161,-1.2801 -0.901,-2.4453 -1.892,-3.2711 -0.99,-0.8261 -2.219,-1.332 -3.477,-1.6172 -1.178,-0.2679 -2.418,-0.3488 -3.592,-0.0597 -1.173,0.289 -2.275,0.9758 -2.915,2.0008 -0.685,1.1023 -0.771,2.5519 -0.222,3.7281 l -4.732,0.001 0,0" /><path
       inkscape:connector-curvature="0"
       id="path7305"
       style="fill:none;stroke:#100f0d;stroke-width:0.1;stroke-linecap:butt;stroke-linejoin:miter;stroke-miterlimit:4;stroke-dasharray:none;stroke-opacity:1"
       d="m 263.71846,172.48127 c -0.106,0.3367 -0.038,0.725 0.179,1.0039 0.173,0.2211 0.427,0.3699 0.695,0.4449 0.271,0.075 0.554,0.0801 0.834,0.0789 l 9.127,-0.0109 c 0.155,-0.0719 0.281,-0.2032 0.347,-0.3598 0.065,-0.157 0.068,-0.3391 0.012,-0.4992 -0.048,-0.1301 -0.134,-0.245 -0.242,-0.3328 -0.105,-0.0891 -0.231,-0.152 -0.364,-0.1954 -0.263,-0.0847 -0.546,-0.0867 -0.822,-0.0859 -0.544,0.003 -1.089,0.016 -1.631,-0.0219 -0.178,-0.0129 -0.355,-0.0308 -0.532,-0.0558 -0.173,-0.025 -0.347,-0.0571 -0.51,-0.116 -0.163,-0.0602 -0.319,-0.1481 -0.438,-0.2743 -0.108,-0.1129 -0.184,-0.2531 -0.225,-0.4039 -0.04,-0.15 -0.046,-0.309 -0.02,-0.4621 0.053,-0.3058 0.231,-0.5828 0.465,-0.7867 0.235,-0.2043 0.524,-0.3383 0.823,-0.423 0.299,-0.084 0.609,-0.1211 0.919,-0.1461 0.863,-0.07 1.735,-0.0539 2.589,0.0789 0.777,0.1211 1.551,0.3429 2.202,0.7832 0.325,0.2199 0.616,0.4929 0.84,0.8136 0.227,0.3223 0.383,0.6934 0.441,1.0813 0.091,0.6098 -0.072,1.2418 -0.376,1.7777 -0.307,0.5371 -0.747,0.9852 -1.232,1.3692 -1.003,0.7949 -2.204,1.3289 -3.457,1.598 -1.252,0.2692 -2.553,0.275 -3.818,0.0762 -2.502,-0.3934 -4.859,-1.6 -6.675,-3.3652 -1.814,-1.7649 -3.081,-4.0758 -3.639,-6.545 -0.583,-2.5832 -0.39,-5.341 0.582,-7.8039 0.971,-2.4633 2.722,-4.6179 4.955,-6.0422 1.877,-1.1968 4.105,-1.8769 6.331,-1.7808 2.224,0.0961 4.431,0.9937 5.99,2.5847 1.419,1.4493 2.266,3.4524 2.287,5.4801 0.006,0.4781 -0.034,0.9653 -0.207,1.411 -0.172,0.4472 -0.486,0.8531 -0.921,1.055 -0.382,0.1789 -0.841,0.1852 -1.227,0.0172 -0.388,-0.1679 -0.696,-0.5082 -0.827,-0.9101 l -2.41,0.8039 c 0.143,0.6961 0.51,1.3429 1.035,1.8211 0.526,0.4781 1.205,0.7832 1.911,0.8582 0.709,0.075 1.435,-0.0801 2.068,-0.4071 0.633,-0.3281 1.172,-0.825 1.578,-1.4101 0.814,-1.1699 1.084,-2.6531 0.996,-4.0758 -0.094,-1.5293 -0.579,-3.0273 -1.359,-4.3453 -0.782,-1.318 -1.855,-2.457 -3.098,-3.3539 -2.483,-1.7942 -5.603,-2.5899 -8.668,-2.5692 -2.69,0.0184 -5.383,0.6461 -7.782,1.8633 -2.401,1.218 -4.504,3.027 -6.028,5.2457 -1.525,2.2184 -2.461,4.8442 -2.639,7.5301 -0.178,2.6859 0.412,5.4242 1.719,7.7781 1.509,2.72 3.949,4.8782 6.748,6.2371 2.799,1.359 5.943,1.9411 9.054,1.8879 2.245,-0.039 4.502,-0.407 6.563,-1.2949 1.303,-0.5609 2.535,-1.3441 3.433,-2.441 0.898,-1.0981 1.433,-2.5359 1.254,-3.943 -0.161,-1.2801 -0.901,-2.4453 -1.892,-3.2711 -0.99,-0.8261 -2.219,-1.332 -3.477,-1.6172 -1.178,-0.2679 -2.418,-0.3488 -3.592,-0.0597 -1.173,0.289 -2.275,0.9758 -2.915,2.0008 -0.685,1.1023 -0.771,2.5519 -0.222,3.7281 l -4.732,0.001 0,0 z" /><path
       inkscape:connector-curvature="0"
       id="path7309"
       style="fill:#ffffff;fill-opacity:1;fill-rule:nonzero;stroke:none"
       d="m 304.68046,174.68915 c -0.711,0.082 -1.432,0.082 -2.143,0 -0.575,-0.066 -1.144,-0.186 -1.696,-0.3571 0.486,0.7301 1.146,1.3454 1.91,1.7762 0.253,0.1442 0.524,0.2692 0.813,0.2981 0.145,0.014 0.293,0.003 0.432,-0.0411 0.138,-0.0449 0.267,-0.123 0.363,-0.2308 0.108,-0.1223 0.172,-0.2774 0.218,-0.432 0.045,-0.1571 0.074,-0.3161 0.123,-0.4723 0.065,-0.2059 0.166,-0.4 0.295,-0.5719 l -0.315,0.0309 0,0" /><use
       x="0"
       y="0"
       xlink:href="#path7255"
       id="use4533"
       transform="translate(149.92819,-0.1345342)"
       width="100%"
       height="100%" /><use
       x="0"
       y="0"
       xlink:href="#path7291"
       id="use4535"
       transform="translate(149.92819,-0.1345342)"
       width="100%"
       height="100%" /></g></svg>