<?xml version="1.0" encoding="UTF-8" standalone="no"?>
<!-- Created with Inkscape (http://www.inkscape.org/) -->

<svg
   xmlns:dc="http://purl.org/dc/elements/1.1/"
   xmlns:cc="http://creativecommons.org/ns#"
   xmlns:rdf="http://www.w3.org/1999/02/22-rdf-syntax-ns#"
   xmlns:svg="http://www.w3.org/2000/svg"
   xmlns="http://www.w3.org/2000/svg"
   xmlns:xlink="http://www.w3.org/1999/xlink"
   xmlns:sodipodi="http://sodipodi.sourceforge.net/DTD/sodipodi-0.dtd"
   xmlns:inkscape="http://www.inkscape.org/namespaces/inkscape"
   id="svg7233"
   version="1.1"
   inkscape:version="0.91+devel+osxmenu r12848"
   xml:space="preserve"
   width="444.82666"
   height="343.73334"
   viewBox="0 0 444.82666 343.73334"
   sodipodi:docname="royal_logo_svg.svg"><metadata
     id="metadata7239"><rdf:RDF><cc:Work
         rdf:about=""><dc:format>image/svg+xml</dc:format><dc:type
           rdf:resource="http://purl.org/dc/dcmitype/StillImage" /><dc:title /></cc:Work></rdf:RDF></metadata><defs
     id="defs7237" /><sodipodi:namedview
     pagecolor="#ffffff"
     bordercolor="#666666"
     borderopacity="1"
     objecttolerance="10"
     gridtolerance="10"
     guidetolerance="10"
     inkscape:pageopacity="0"
     inkscape:pageshadow="2"
     inkscape:window-width="1680"
     inkscape:window-height="1001"
     id="namedview7235"
     showgrid="false"
     inkscape:zoom="0.68657873"
     inkscape:cx="165.06278"
     inkscape:cy="242.01744"
     inkscape:window-x="0"
     inkscape:window-y="23"
     inkscape:window-maximized="0"
     inkscape:current-layer="g7241"
     showguides="false"
     inkscape:guide-bbox="true"><sodipodi:guide
       orientation="0,1"
       position="368.85792,210.46385"
       id="guide4537" /><sodipodi:guide
       orientation="0,1"
       position="110.6015,229.07208"
       id="guide4540" /><sodipodi:guide
       orientation="0,1"
       position="110.52104,231.61464"
       id="guide4542" /></sodipodi:namedview><g
     id="g7241"
     inkscape:groupmode="layer"
     inkscape:label="ink_ext_XXXXXX"
     transform="matrix(1.3333333,0,0,-1.3333333,0,343.73333)"><path
       inkscape:connector-curvature="0"
       id="path7245"
       style="fill:#100f0d;fill-opacity:1;fill-rule:nonzero;stroke:none"
       d="m 43.808556,177.05697 c 2.6375,-0.4281 5.0664,-2.005 6.5305,-4.239 1.4644,-2.234 1.941,-5.0918 1.282,-7.6797 -0.7351,-2.8852 -2.8371,-5.3422 -5.4695,-6.734 -2.6328,-1.3922 -5.7473,-1.757 -8.684,-1.257 -2.1687,0.3687 -4.2867,1.2148 -5.9598,2.6429 -1.673,1.4278 -2.8691,3.4688 -3.05738,5.661 -0.1957,2.2711 0.69219,4.5437 2.08985,6.3469 1.39653,1.8031 3.26913,3.18 5.22543,4.3511 3.2961,1.9731 6.8878,3.4219 10.1406,5.4629 0.9637,0.6039 1.918,1.2828 2.5449,2.232 0.3418,0.5192 0.5754,1.102 0.9102,1.625 0.1671,0.2622 0.3593,0.509 0.5957,0.7122 0.2343,0.2027 0.5129,0.3609 0.8144,0.4308 0.3504,0.0809 0.7254,0.0391 1.0559,-0.1012 0.3308,-0.1398 0.6179,-0.3757 0.8328,-0.6636 0.4308,-0.575 0.5613,-1.3352 0.4785,-2.0481 -0.1301,-1.1019 -0.7383,-2.107 -1.5332,-2.8832 -0.793,-0.775 -1.7645,-1.3449 -2.7527,-1.8488 -1.6145,-0.825 -3.3059,-1.4981 -5.0442,-2.0102" /><path
       inkscape:connector-curvature="0"
       id="path7247"
       style="fill:#ffffff;fill-opacity:1;fill-rule:nonzero;stroke:none"
       d="m 38.540256,174.28907 c -2.1125,-0.7852 -4.2207,-1.8399 -5.6078,-3.6168 -0.6922,-0.8883 -1.1856,-1.9481 -1.3219,-3.066 -0.1391,-1.118 0.0945,-2.2942 0.7254,-3.2282 0.5351,-0.7929 1.3386,-1.3879 2.2297,-1.7371 0.8906,-0.35 1.8628,-0.4597 2.8171,-0.3949 1.9082,0.132 3.6985,0.9461 5.3997,1.8199 1.5886,0.8153 3.1824,1.725 4.3281,3.0961 0.5711,0.686 1.0215,1.482 1.2476,2.3469 0.2258,0.8652 0.218,1.798 -0.0847,2.6383 -0.3145,0.8718 -0.9407,1.6179 -1.7078,2.1379 -0.7688,0.5199 -1.6743,0.8199 -2.595,0.9328 -1.841,0.2242 -3.6914,-0.2828 -5.4304,-0.9289 l 0,0" /><path
       inkscape:connector-curvature="0"
       id="path7249"
       style="fill:#100f0d;fill-opacity:1;fill-rule:nonzero;stroke:none"
       d="m 53.048856,170.16017 c -0.1243,1.5449 0.341,3.1418 1.3234,4.3418 0.982,1.1992 2.4832,1.9742 4.034,2.0203 1.0871,0.0316 2.1719,-0.2864 3.1035,-0.8453 0.9324,-0.559 1.7129,-1.3539 2.3113,-2.2618 1.1946,-1.816 1.643,-4.03 1.75,-6.2019 0.1098,-2.2371 -0.1375,-4.559 -1.2195,-6.5211 -0.541,-0.9801 -1.2891,-1.8551 -2.2148,-2.4859 -0.925,-0.6313 -2.0313,-1.0122 -3.1504,-1.0153 -1.4278,-0.005 -2.8282,0.609 -3.8621,1.5942 -1.0344,0.9847 -1.7075,2.3179 -1.9856,3.7187 -0.073,0.3723 -0.1211,0.7613 -0.0227,1.1274 0.0493,0.1828 0.1348,0.3578 0.2598,0.5 0.1262,0.1418 0.2934,0.25 0.4777,0.2918 0.1653,0.0378 0.3411,0.023 0.4993,-0.034 0.159,-0.0571 0.3035,-0.1539 0.4215,-0.275 0.2343,-0.2418 0.3644,-0.57 0.4296,-0.902 0.0637,-0.332 0.0696,-0.6711 0.0871,-1.009 0.0188,-0.3371 0.0516,-0.6789 0.1708,-0.9949 0.1332,-0.3539 0.371,-0.6652 0.671,-0.8949 0.3008,-0.2293 0.6602,-0.3781 1.0332,-0.4383 0.7461,-0.1187 1.5262,0.1223 2.1309,0.5762 0.6047,0.4539 1.041,1.1051 1.3184,1.809 0.2761,0.7039 0.4004,1.4578 0.4582,2.2109 0.0664,0.8898 0.0418,1.784 -0.0102,2.6738 -0.0496,0.8762 -0.125,1.7543 -0.3113,2.6114 -0.1453,0.6687 -0.3645,1.3277 -0.7141,1.9168 -0.3511,0.5878 -0.8406,1.1039 -1.448,1.4179 -0.6074,0.3153 -1.3399,0.4153 -1.9903,0.2039 -0.3253,-0.1047 -0.6281,-0.2867 -0.8664,-0.5316 -0.239,-0.2453 -0.4148,-0.5531 -0.4937,-0.8863 -0.0735,-0.311 -0.0625,-0.636 -0.0344,-0.9539 0.0274,-0.3188 0.0723,-0.6372 0.0645,-0.9571 -0.0059,-0.3199 -0.0664,-0.6461 -0.2356,-0.9179 -0.084,-0.136 -0.1949,-0.2559 -0.3277,-0.3438 -0.1328,-0.0891 -0.2895,-0.1453 -0.4485,-0.1531 -0.1867,-0.0102 -0.3718,0.0461 -0.53,0.1449 -0.1567,0.098 -0.2864,0.2379 -0.3852,0.3961 -0.198,0.318 -0.2637,0.6969 -0.2937,1.068 l 0,0" /><path
       style="fill:#100f0d;fill-opacity:1;fill-rule:nonzero;stroke:none"
       d="m 123.36523,94.1875 c -0.38826,0.008 -0.77865,0.06186 -1.15625,0.150391 -0.7568,0.178666 -1.47464,0.492935 -2.1621,0.855468 -1.59228,0.838534 -3.05042,1.951411 -4.20508,3.330079 -1.15627,1.378533 -2.00271,3.029502 -2.35938,4.792972 -0.2048,1.00933 -0.22534,2.29933 -0.10547,3.32226 -2.25557,1.19796 -3.33854,3.17409 -3.35351,5.03711 0.01,1.09919 0.58883,2.14997 1.05664,2.99805 0.47643,0.11685 1.79787,0.1312 2.74051,0.11066 1.42616,-0.0311 4.12706,-0.36149 5.7673,0.22138 0.68853,0.1828 1.35549,0.48182 1.91016,0.92969 0.55626,0.4464 0.99602,1.04767 1.19922,1.73047 0.21773,0.7344 0.15171,1.53995 -0.12696,2.25195 -0.27866,0.712 -0.7613,1.33434 -1.3457,1.83008 -1.16467,0.99226 -2.67837,1.46716 -4.16797,1.8125 -4.78547,1.112 -9.78555,1.14805 -14.64648,0.41992 -1.62094,-0.24427 -3.285152,-0.59482 -4.613285,-1.55469 -0.664133,-0.48013 -1.230178,-1.11102 -1.570313,-1.85742 -0.338533,-0.7452 -0.43831,-1.60849 -0.214843,-2.39648 0.214133,-0.74695 0.710211,-1.39271 1.330078,-1.85938 0.6188,-0.46667 1.356614,-0.75983 2.113281,-0.92383 1.515602,-0.3308 3.726812,-0.16406 5.277342,-0.16406 1.69792,-9.3e-4 3.09036,-0.32791 3.78516,-0.50391 0.0678,-0.18874 0.59634,-1.68834 0.58594,-3.03125 -0.0186,-1.46033 -0.88113,-3.33017 -2.37891,-4.35156 -1.41224,-0.96305 -3.03547,-1.44446 -4.75947,-1.58046 -1.49466,-0.1188 -3.011651,-0.0694 -4.345918,0.61868 -1.521073,0.8317 -2.41315,2.12493 -2.406331,3.71373 0.0075,1.74737 1.623698,2.62751 2.937336,2.62857 0.522536,4.2e-4 1.405456,-0.28664 1.818523,-0.60903 0.66827,-0.53068 1.35713,-1.03608 2.05859,-1.51368 0.35054,-0.2376 0.70793,-0.4683 1.0918,-0.64843 0.3844,-0.17974 0.79919,-0.30672 1.22266,-0.32032 0.61293,-0.0197 1.39174,0.0715 1.84961,0.48243 0.50272,0.48898 0.65804,1.56968 0.49855,2.45465 -0.9255,0.46585 -2.68906,0.2604 -4.67824,0.20159 -1.533,-0.0453 -3.092765,0.19011 -4.529298,0.73438 -1.428133,0.54267 -2.678511,1.52103 -3.589844,2.74609 -0.911467,1.22547 -1.488891,2.68829 -1.71289,4.19922 -0.454135,3.05987 0.573559,6.26638 2.568359,8.62891 1.868266,2.20933 4.50781,3.6873 7.296873,4.45703 2.78907,0.76933 5.72782,0.86543 8.61328,0.63477 3.79574,-0.30267 7.64188,-1.20675 10.77735,-3.36914 1.56613,-1.08135 2.9339,-2.47187 3.89843,-4.11133 0.96507,-1.64014 1.5202,-3.53586 1.48633,-5.43946 -0.0324,-1.7948 -0.59281,-3.57876 -1.59375,-5.06836 -1.00106,-1.48906 -2.43789,-2.68324 -4.08789,-3.39257 0.82294,-0.29747 1.53425,-0.8885 1.97852,-1.64063 0.58333,-0.99067 0.68331,-2.25177 0.27343,-3.32617 -1.29773,-2.70403 -4.64754,-3.3838 -6.86914,-2.39844 0.69733,-2.3256 2.59345,-4.12312 4.91211,-4.8418 1.02347,-0.31613 2.10905,-0.40981 3.12305,-0.757808 0.5084,-0.173333 0.99776,-0.413059 1.41016,-0.755859 0.41413,-0.341067 0.74577,-0.790021 0.89843,-1.304687 0.10774,-0.373467 0.12108,-0.771144 0.043,-1.152344 -0.0771,-0.381867 -0.24345,-0.743174 -0.47265,-1.056641 -0.45734,-0.628133 -1.16277,-1.052234 -1.91797,-1.240234 -0.376,-0.094 -0.76408,-0.131047 -1.15235,-0.123047 z m -5.58789,14.05859 c 1.73102,-0.0135 2.52064,0.78321 2.51563,1.67579 -0.002,0.28039 -0.0763,0.57838 -0.25586,0.80078 -0.31069,0.38616 -0.71762,0.51175 -1.13086,0.50976 -0.70002,-0.004 -1.45052,-0.31614 -1.90625,-0.88281 -0.3916,-0.48653 -0.58924,-1.18175 -0.53711,-1.80469 0.24731,-0.14608 0.88465,-0.29549 1.31445,-0.29883 z m -3.75976,1.25196 c 0.0991,0.548 0.26755,1.0818 0.50195,1.58593 0.20053,0.43067 0.44762,0.8392 0.73828,1.2168 -0.73469,0.11578 -1.87591,0.24904 -2.7201,-0.0246 -0.49118,-0.5674 -0.27649,-1.2472 -0.0553,-1.54373 0.402,-0.52813 0.93422,-0.95464 1.53516,-1.23437 z"
       transform="matrix(0.75000002,0,0,-0.75000002,0,257.8)"
       id="path7251"
       inkscape:connector-curvature="0"
       sodipodi:nodetypes="scccccccscccccccccccccccsccssccccccccccccccccccccccccccccsscccccscccccccc" /><path
       style="fill:#100f0d;fill-opacity:1;fill-rule:nonzero;stroke:none"
       d="m 151.54492,98.972656 c -2.4124,2.316134 -4.11285,5.363484 -4.81445,8.632814 l -4.48828,3.42969 c -0.0609,-1.4536 -0.69247,-2.87515 -1.73047,-3.89649 -0.94627,-0.93173 -2.23104,-1.52464 -3.55664,-1.58984 -1.1572,-0.0572 -2.31963,0.28479 -3.29883,0.90039 -0.98014,0.61613 -1.78474,1.49609 -2.36914,2.49609 -0.70827,1.2052 -1.1061,2.59082 -1.13477,3.98828 -0.0172,0.77867 0.08,1.56621 0.35352,2.29688 0.2724,0.7292 0.72597,1.40118 1.3457,1.87305 0.61974,0.4724 1.41061,0.73592 2.18555,0.66406 0.38813,-0.036 0.76858,-0.15618 1.10351,-0.35352 0.33696,-0.19746 0.626,-0.47686 0.82813,-0.80859 0.36973,-0.60267 0.44078,-1.3463 0.37305,-2.04883 -0.0677,-0.70267 -0.26457,-1.38492 -0.39844,-2.07812 -0.13387,-0.6932 -0.20416,-1.41788 -0.0156,-2.09961 0.0928,-0.3396 0.25074,-0.6644 0.48047,-0.9336 0.2292,-0.26773 0.52866,-0.47706 0.86719,-0.57812 0.3396,-0.10134 0.71118,-0.0909 1.05078,0.0117 0.34014,0.10253 0.64976,0.29409 0.91016,0.53515 0.53386,0.49587 0.85549,1.21434 0.87109,1.94141 0.0156,0.72653 -0.27511,1.45581 -0.78711,1.97461 -1.11826,1.41613 -2.18752,2.87115 -3.20312,4.36328 -1.90107,2.79067 -3.61462,5.70494 -5.46875,8.52734 -0.25427,0.38707 -0.51081,0.77261 -0.70508,1.19141 -0.19533,0.41973 -0.32717,0.87536 -0.3125,1.33789 0.0156,0.46253 0.1865,0.93191 0.52344,1.24805 0.16986,0.1584 0.37556,0.27629 0.60156,0.33203 0.22453,0.0547 0.46444,0.0469 0.68164,-0.0332 0.21253,-0.0771 0.39682,-0.22135 0.55469,-0.38282 0.1572,-0.1624 0.29132,-0.34442 0.43359,-0.52148 0.14,-0.1776 0.29004,-0.3494 0.4707,-0.48633 0.17974,-0.1376 0.39159,-0.23471 0.61719,-0.24805 0.2416,-0.0147 0.48205,0.0706 0.67578,0.21485 0.19427,0.14213 0.34215,0.33926 0.45508,0.55273 0.2204,0.42813 0.29488,0.91513 0.43555,1.375 0.34893,1.12133 1.11609,2.09815 2.10156,2.73828 0.98533,0.64014 2.17419,0.94669 3.34766,0.91016 1.43746,-0.0437 2.85439,-0.60278 3.93359,-1.55078 1.08133,-0.94947 1.81781,-2.27882 2.04688,-3.69922 0.20053,1.21613 0.76569,2.3693 1.60156,3.27344 0.836,0.9052 1.94334,1.55729 3.13867,1.85156 1.56093,0.38547 3.24024,0.15797 4.70117,-0.50977 1.46094,-0.66813 2.70782,-1.75649 3.67969,-3.03515 2.0768,-2.73494 2.8834,-6.41827 2.05273,-9.75 -0.7552,-3.02667 -2.8193,-5.67365 -5.49023,-7.28711 -2.67027,-1.6136 -5.90893,-2.21222 -9.00586,-1.82422 -0.91147,0.11347 -1.81083,0.30798 -2.6875,0.58398 2.07667,-1.48533 4.53964,-2.42641 7.07617,-2.70507 4.21347,-0.46416 8.49695,0.90661 12.02735,3.25195 2.268,1.5068 4.28408,3.42765 5.71875,5.74219 1.43333,2.3136 2.26406,5.03062 2.16406,7.75195 -0.0975,2.17976 -0.62011,4.54421 -3.63672,4.72656 -1.56183,0.0244 -2.47504,-1.50603 -2.61523,-1.95703 l -2.81446,0.8125 c 0.68566,2.34339 2.55766,4.37227 5.62305,4.38867 1.90667,-0.024 3.85929,-1.00473 5.14062,-2.41406 1.28267,-1.40933 2.08175,-3.20022 2.59375,-5.03516 1,-3.57706 0.96625,-7.43609 -0.0937,-10.99609 -1.06,-3.55987 -3.55299,-7.05799 -6.34765,-9.50586 2.06774,-1.18817 2.72575,-2.95547 2.73242,-4.68164 0.005,-1.29685 -0.40429,-2.622657 -1.12695,-3.722657 -0.72134,-1.1 -1.73925,-1.995573 -2.89258,-2.628906 -1.44417,-0.790083 -3.47778,-1.100691 -5.67337,-1.111374 -4.17135,0.01555 -8.29421,2.174601 -10.83062,4.554753 z m 13.02042,0.08569 c -1.46443,0.795555 -2.06191,2.409284 -2.08954,3.562704 -0.0323,1.34691 0.53796,2.02438 0.53796,2.02438 0,0 -1.38518,-0.22333 -1.98251,-0.29 -3.6136,-0.39747 -8.23463,0.23682 -11.18151,1.61052 0.25271,-0.96113 2.04749,-3.22461 3.59966,-4.23725 2.75656,-1.798374 6.18701,-2.751111 9.46294,-2.819159 0.63539,-0.0132 1.39259,0.08229 1.653,0.148805 z m 2.8864,0.784091 c 1.55258,0.153025 2.38949,1.455073 2.37978,2.641503 -0.0136,1.66524 -1.33327,2.8557 -2.71178,2.82894 -1.58676,-0.0116 -2.51534,-1.42308 -2.46811,-2.67845 0.0598,-1.58922 1.04498,-2.964981 2.80011,-2.791993 z m -19.00838,13.956393 c 0.26328,0.009 0.52701,0.0282 0.78906,0.0586 2.09627,0.24267 4.1195,1.19191 5.58203,2.71485 1.02707,1.0708 1.7878,2.47121 1.8086,3.95507 0.0156,1.02547 -0.32429,2.04406 -0.91016,2.88672 -0.58493,0.8412 -1.40923,1.50779 -2.33203,1.95313 -0.92347,0.44533 -1.96429,0.67711 -2.98242,0.57031 -1.02094,-0.1052 -2.015,-0.56057 -2.69727,-1.32617 -0.64586,-0.724 -0.9811,-1.67013 -1.2207,-2.61133 -0.10947,-0.4308 -0.2046,-0.87653 -0.44727,-1.25 -0.1224,-0.18653 -0.27839,-0.35089 -0.47265,-0.46289 -0.19107,-0.11187 -0.41632,-0.16774 -0.63672,-0.13867 -0.25107,0.0344 -0.47929,0.1802 -0.64063,0.375 -0.16253,0.1948 -0.26435,0.4347 -0.32422,0.68164 -0.11986,0.4932 -0.0817,1.01083 -0.17187,1.50976 -0.11987,0.68134 -0.47189,1.30766 -0.94336,1.81446 -0.46867,0.50773 -1.04975,0.90213 -1.66602,1.21679 -2.25,1.14787 -5.0163,1.22672 -7.32617,0.20899 0.9896,-1.84374 2.10771,-3.61864 3.34571,-5.30664 1.61813,-2.20667 3.49379,-4.31167 5.91406,-5.5918 1.6324,-0.86322 3.48907,-1.31996 5.33203,-1.25781 z"
       transform="matrix(0.75000002,0,0,-0.75000002,0,257.8)"
       id="path7253"
       inkscape:connector-curvature="0"
       sodipodi:nodetypes="cccccccccccccsscccccccccccccccccccccccccccccccccccccccccccscccccccscccascsscssccccccccccccccccccsccc" /><path
       inkscape:connector-curvature="0"
       id="path7255"
       style="fill:#100f0d;fill-opacity:1;fill-rule:nonzero;stroke:none"
       d="m 147.48646,175.29727 c -0.323,0.409 -0.697,0.7789 -1.105,1.1039 -0.867,0.6937 -1.901,1.1918 -2.999,1.357 -0.951,0.1438 -1.934,0.0328 -2.846,-0.2742 -0.912,-0.3078 -1.754,-0.809 -2.489,-1.4309 -1.129,-0.9558 -2.007,-2.1929 -2.613,-3.5429 -0.605,-1.35 -0.944,-2.8121 -1.08,-4.286 -0.207,-2.264 0.08,-4.616 1.133,-6.632 0.525,-1.0082 1.238,-1.9223 2.116,-2.6449 0.879,-0.7231 1.922,-1.25 3.033,-1.4883 1.552,-0.332 3.224,-0.0801 4.608,0.6961 1.383,0.7762 2.472,2.068 3,3.5648 0.357,-1.1539 1.056,-2.2008 1.985,-2.975 0.93,-0.7726 2.086,-1.2707 3.285,-1.4129 1.09,-0.1289 2.208,0.0313 3.231,0.4313 1.02,0.4 1.945,1.0359 2.708,1.825 1.524,1.5777 2.373,3.7359 2.585,5.9187 0.263,2.7192 -0.446,5.5481 -2.083,7.734 -0.404,0.5371 -0.859,1.0352 -1.358,1.4832 0.361,0.4778 0.564,1.0719 0.571,1.6699 0.008,0.5981 -0.18,1.1969 -0.528,1.684 -0.401,0.5621 -1.005,0.9629 -1.658,1.1871 -0.653,0.2231 -1.356,0.275 -2.047,0.2258 -1.043,-0.0738 -2.069,-0.382 -2.972,-0.9117 -0.9,-0.5301 -1.672,-1.2832 -2.205,-2.182 -0.174,-0.2953 -0.325,-0.6082 -0.405,-0.941 -0.078,-0.334 -0.084,-0.6903 0.026,-1.0161 0.159,-0.4679 0.549,-0.8351 1,-1.0359 0.452,-0.2012 0.959,-0.248 1.453,-0.2113 0.985,0.073 1.927,0.464 2.914,0.5211 1.262,0.0718 2.552,-0.4461 3.393,-1.391 0.843,-0.9442 1.208,-2.2989 0.932,-3.5329 -0.277,-1.2371 -1.165,-2.2902 -2.269,-2.916 -1.102,-0.6261 -2.398,-0.8543 -3.667,-0.809 -0.855,0.0297 -1.723,0.186 -2.479,0.5891 -0.757,0.4027 -1.395,1.0789 -1.623,1.9047 -0.111,0.3961 -0.127,0.8191 -0.281,1.2012 -0.077,0.191 -0.19,0.3711 -0.348,0.5019 -0.159,0.1309 -0.365,0.2102 -0.57,0.191 -0.139,-0.014 -0.272,-0.0711 -0.382,-0.1539 -0.113,-0.0832 -0.203,-0.191 -0.278,-0.309 -0.146,-0.2351 -0.225,-0.507 -0.319,-0.7691 -0.556,-1.5512 -1.76,-2.8762 -3.286,-3.4918 -0.766,-0.3082 -1.601,-0.4402 -2.422,-0.3703 -0.819,0.0711 -1.623,0.3441 -2.311,0.8 -1.01,0.6711 -1.746,1.7312 -2.061,2.9031 -0.316,1.1711 -0.22,2.4418 0.229,3.568 0.545,1.364 1.604,2.5101 2.905,3.1879 0.887,0.4633 1.897,0.714 2.895,0.6261 0.996,-0.0878 1.976,-0.5332 2.629,-1.2898 0.274,-0.3152 0.489,-0.6812 0.792,-0.9684 0.151,-0.1437 0.324,-0.2679 0.521,-0.3429 0.193,-0.075 0.412,-0.0989 0.614,-0.0457 0.239,0.0629 0.444,0.2328 0.57,0.4457 0.127,0.2133 0.176,0.4679 0.162,0.7152 -0.029,0.5008 -0.299,0.9488 -0.606,1.3391" /><path
       inkscape:connector-curvature="0"
       id="path7291"
       style="fill:#ffffff;fill-opacity:1;fill-rule:nonzero;stroke:none"
       d="m 155.68346,175.89607 c -0.712,0.082 -1.432,0.082 -2.143,0 -0.575,-0.066 -1.145,-0.1859 -1.697,-0.357 0.488,0.73 1.148,1.3429 1.911,1.7761 0.253,0.143 0.524,0.2688 0.813,0.2969 0.145,0.0141 0.293,0.003 0.432,-0.041 0.138,-0.0441 0.267,-0.1219 0.364,-0.2309 0.106,-0.1222 0.172,-0.2761 0.217,-0.432 0.046,-0.1562 0.075,-0.316 0.124,-0.4711 0.064,-0.2058 0.165,-0.4 0.295,-0.573 l -0.316,0.032 0,0" /><path
       sodipodi:nodetypes="cccscccssccccccccccccccccccccccccccsccccccaccsscc"
       inkscape:connector-curvature="0"
       id="path7293"
       d="m 194.22558,189.70436 c -4.63016,-0.0115 -9.68334,-1.42089 -9.84595,-4.91565 -0.0431,-2.28228 1.49247,-4.47603 4.64038,-4.7797 3.454,-0.414 6.52361,0.32861 9.57965,-0.62007 3.15541,-0.97953 6.43243,-3.10159 7.06347,-6.55518 0.37359,-2.33103 -0.64483,-4.51536 -2.55029,-6.13184 -2.47862,-1.92353 -4.79034,-2.93075 -8.96924,-3.38525 -3.17413,-0.28719 -8.68207,0.71507 -8.69678,3.89062 -0.0137,2.97141 3.38225,3.45049 5.45508,3.48048 1.5859,0.023 3.07937,-0.0727 4.03272,-0.22413 0.50988,1.19175 0.83732,3.08682 0.0937,4.50586 -0.33501,0.5852 -0.81849,1.07899 -1.3755,1.45898 -1.11199,0.7602 -2.48024,1.06132 -3.82323,1.16602 -1.16501,0.091 -2.38728,0.0369 -3.42627,-0.49951 -0.52101,-0.2679 -0.98425,-0.65598 -1.30225,-1.14697 -0.318,-0.4899 -0.48434,-1.085 -0.42334,-1.667 0.042,-0.40629 0.19745,-0.79973 0.43945,-1.12792 0.243,-0.32891 0.57469,-0.58981 0.95068,-0.75 0.37601,-0.1601 0.79425,-0.21727 1.19825,-0.16407 0.405,0.0519 0.79567,0.21609 1.11767,0.46729 0.525,0.4089 1.06133,0.803 1.61133,1.1792 0.272,0.189 0.54815,0.37342 0.84815,0.51562 0.299,0.1418 0.62554,0.23877 0.95654,0.23877 0.542,7.5e-4 1.07599,-0.26935 1.396,-0.70605 0.318,-0.4371 0.41502,-1.02942 0.24902,-1.54542 -0.857,0.0558 -1.71427,0.0743 -2.57227,0.0572 -1.51,-0.0309 -3.05243,-0.18224 -4.41943,-0.82324 -1.83,-0.8582 -3.22484,-2.60975 -3.61084,-4.59375 -0.204,-1.0461 -0.13412,-2.13716 0.15088,-3.16406 0.285,-1.027 0.78429,-1.98834 1.42529,-2.84034 1.909,-2.541 5.0125,-4.01774 8.16651,-4.41064 4.59199,-0.57111 9.44019,1.10801 12.59619,4.49121 1.578,1.6906 2.73687,3.77605 3.31787,6.01465 0.581,2.2403 0.58182,4.62972 -0.0132,6.86572 -0.5215,2.3352 -2.38932,4.41076 -3.90457,5.46005 1.04464,0.0837 2.22442,1.37505 2.22382,3.13144 -8.7e-4,2.54383 -2.36826,4.77491 -4.93156,5.82404 -2.51812,0.91038 -5.1701,1.25328 -7.64794,1.30371 z m -1.56006,-2.60449 c 1.2595,0.0195 2.51783,-0.0627 3.75732,-0.28418 1.62101,-0.2898 3.25173,-0.84673 4.44873,-1.97754 0.70326,-0.69651 0.98665,-1.39309 0.83643,-2.146 -0.10528,-0.52767 -0.44383,-1.00209 -1.11852,-1.16389 -1.10963,0.34209 -2.12229,0.51572 -3.44526,0.5888 -2.287,0.0774 -5.9934,-0.005 -7.70157,0.30525 -1.03988,0.1888 -2.22366,1.07724 -2.21204,2.0918 0.0186,1.62025 3.18653,2.54151 5.43488,2.58577 z"
       style="fill:#100f0d;fill-opacity:1;fill-rule:nonzero;stroke:none" /><path
       inkscape:connector-curvature="0"
       id="path7295"
       style="fill:#100f0d;fill-opacity:1;fill-rule:nonzero;stroke:none"
       d="m 224.29846,176.04487 c -0.482,-0.5238 -1.126,-0.9 -1.819,-1.0648 -0.692,-0.166 -1.436,-0.1211 -2.103,0.1281 -0.447,0.166 -0.865,0.4258 -1.178,0.7848 -0.315,0.359 -0.519,0.8222 -0.527,1.2992 -0.005,0.3269 0.08,0.6519 0.23,0.9418 0.149,0.2902 0.361,0.5461 0.608,0.7601 0.494,0.427 1.116,0.6821 1.742,0.8629 2.264,0.652 4.797,0.3981 6.828,-0.7968 0.751,-0.4422 1.438,-1.0161 1.918,-1.745 0.478,-0.7293 0.735,-1.623 0.606,-2.4851 -0.114,-0.7719 -0.534,-1.4852 -1.12,-2.0008 -0.586,-0.516 -1.329,-0.8383 -2.1,-0.966 -0.996,-0.166 -2.013,-0.016 -3.019,0.068 -1.007,0.0839 -2.06,0.0957 -2.98,-0.3211 -0.863,-0.3911 -1.54,-1.143 -1.919,-2.0121 -0.379,-0.8692 -0.472,-1.8461 -0.353,-2.7872 0.215,-1.7078 1.145,-3.3218 2.542,-4.3308 1.394,-1.009 3.236,-1.3879 4.907,-0.9719 1.381,0.343 2.621,1.216 3.409,2.3988 l 1.39,2.2102 c 0.045,0.1988 0.178,0.3769 0.354,0.4777 0.178,0.1012 0.399,0.1231 0.592,0.059 0.161,-0.0527 0.302,-0.1629 0.401,-0.2988 0.099,-0.1371 0.159,-0.3008 0.183,-0.468 0.047,-0.3351 -0.049,-0.6762 -0.188,-0.984 -0.1,-0.2172 -0.222,-0.4242 -0.363,-0.616 0.666,-0.002 1.329,-0.25 1.832,-0.6859 0.505,-0.4352 0.847,-1.0551 0.946,-1.7129 0.093,-0.6192 -0.023,-1.2543 -0.234,-1.8434 -0.211,-0.5886 -0.513,-1.1398 -0.808,-1.6918 -1.064,-1.9941 -2.033,-4.039 -2.904,-6.1242 0.571,0.4563 1.321,0.6801 2.048,0.6133 0.609,-0.0563 1.184,-0.3051 1.724,-0.591 0.651,-0.3449 1.272,-0.75 1.852,-1.2071 0.56,0.1911 1.063,0.545 1.431,1.0071 0.369,0.4621 0.604,1.0308 0.665,1.6187 0.064,0.6 -0.049,1.2094 -0.259,1.775 -0.211,0.5653 -0.518,1.0903 -0.852,1.5922 -0.668,1.0051 -1.46,1.9512 -1.873,3.0852 -0.321,0.8808 -0.393,1.8687 -0.098,2.759 0.148,0.4449 0.386,0.8617 0.703,1.2058 0.32,0.3442 0.72,0.6149 1.161,0.7699 0.849,0.2961 1.842,0.1352 2.553,-0.414 0.711,-0.5489 1.118,-1.4688 1.046,-2.3637 0.377,0.8367 1.048,1.5379 1.867,1.9477 0.821,0.4101 1.784,0.5273 2.68,0.325 0.794,-0.1789 1.521,-0.6008 2.11,-1.1629 0.588,-0.5621 1.038,-1.259 1.358,-2.0071 0.639,-1.4961 0.757,-3.1589 0.761,-4.7847 0.004,-1.6524 -0.108,-3.3371 -0.724,-4.8711 -0.309,-0.7672 -0.741,-1.4871 -1.312,-2.0852 -0.569,-0.5969 -1.279,-1.0687 -2.067,-1.3148 -0.81,-0.252 -1.691,-0.2621 -2.504,-0.0281 -0.815,0.2339 -1.556,0.7109 -2.106,1.3539 -0.682,-1.0047 -1.878,-1.6399 -3.093,-1.6418 -0.847,-0.001 -1.669,0.2839 -2.424,0.6668 -0.755,0.3832 -1.454,0.8632 -2.186,1.2902 -0.457,0.2668 -0.935,0.516 -1.456,0.6129 -0.259,0.0492 -0.527,0.059 -0.789,0.0129 -0.261,-0.0457 -0.512,-0.1481 -0.722,-0.3098 -0.302,-0.234 -0.5,-0.5769 -0.653,-0.9269 -0.151,-0.35 -0.266,-0.718 -0.441,-1.0571 -0.178,-0.339 -0.428,-0.6562 -0.772,-0.8211 -0.172,-0.0832 -0.365,-0.1242 -0.555,-0.107 -0.192,0.0172 -0.377,0.0949 -0.515,0.2289 -0.112,0.1102 -0.189,0.2539 -0.229,0.407 -0.041,0.1532 -0.044,0.3141 -0.023,0.4711 0.042,0.3129 0.181,0.6039 0.316,0.8899 0.39,0.8152 0.781,1.6301 1.184,2.4383 1.389,2.7839 2.922,5.5 4.151,8.357 0.166,0.3867 0.33,0.7828 0.368,1.2027 0.018,0.209 0.005,0.4231 -0.053,0.625 -0.06,0.202 -0.164,0.393 -0.315,0.5403 -0.153,0.1488 -0.35,0.25 -0.558,0.3 -0.208,0.05 -0.428,0.0488 -0.639,0.0109 -0.421,-0.0781 -0.801,-0.3031 -1.139,-0.5629 -0.977,-0.75 -1.68,-1.8102 -2.179,-2.9363 -0.306,-0.6879 -0.559,-1.4321 -1.102,-1.9528 -0.271,-0.2601 -0.617,-0.455 -0.99,-0.5019 -0.187,-0.0231 -0.379,-0.0102 -0.559,0.0469 -0.178,0.057 -0.345,0.1558 -0.475,0.2918 -0.126,0.132 -0.217,0.2972 -0.26,0.4742 -0.043,0.1769 -0.039,0.3648 0.014,0.5398 0.051,0.175 0.148,0.3352 0.279,0.461 0.133,0.1261 0.298,0.216 0.475,0.2589 -2.322,-1.1628 -5.094,-1.3937 -7.577,-0.6308 -1.639,0.5039 -3.156,1.4351 -4.292,2.7211 -1.136,1.2847 -1.88,2.9269 -2.024,4.6371 -0.127,1.5109 0.217,3.0539 0.946,4.3816 0.73,1.3293 1.842,2.4403 3.158,3.1942 2.151,1.232 4.718,1.4781 7.198,1.5152 1.222,0.0188 2.446,-0.007 3.669,-0.0773 0.19,0.207 0.328,0.4632 0.393,0.7371 0.065,0.2742 0.06,0.564 -0.018,0.8351 -0.078,0.2707 -0.226,0.5207 -0.425,0.7188 -0.199,0.198 -0.45,0.3441 -0.723,0.4191 -0.401,0.111 -0.845,0.0629 -1.215,-0.1328 -0.365,-0.198 -0.654,-0.5391 -0.787,-0.9344 l 0,0" /><path
       inkscape:connector-curvature="0"
       id="path7297"
       style="fill:none;stroke:#100f0d;stroke-width:0.1;stroke-linecap:butt;stroke-linejoin:miter;stroke-miterlimit:4;stroke-dasharray:none;stroke-opacity:1"
       d="m 224.29846,176.04487 c -0.482,-0.5238 -1.126,-0.9 -1.819,-1.0648 -0.692,-0.166 -1.436,-0.1211 -2.103,0.1281 -0.447,0.166 -0.865,0.4258 -1.178,0.7848 -0.315,0.359 -0.519,0.8222 -0.527,1.2992 -0.005,0.3269 0.08,0.6519 0.23,0.9418 0.149,0.2902 0.361,0.5461 0.608,0.7601 0.494,0.427 1.116,0.6821 1.742,0.8629 2.264,0.652 4.797,0.3981 6.828,-0.7968 0.751,-0.4422 1.438,-1.0161 1.918,-1.745 0.478,-0.7293 0.735,-1.623 0.606,-2.4851 -0.114,-0.7719 -0.534,-1.4852 -1.12,-2.0008 -0.586,-0.516 -1.329,-0.8383 -2.1,-0.966 -0.996,-0.166 -2.013,-0.016 -3.019,0.068 -1.007,0.0839 -2.06,0.0957 -2.98,-0.3211 -0.863,-0.3911 -1.54,-1.143 -1.919,-2.0121 -0.379,-0.8692 -0.472,-1.8461 -0.353,-2.7872 0.215,-1.7078 1.145,-3.3218 2.542,-4.3308 1.394,-1.009 3.236,-1.3879 4.907,-0.9719 1.381,0.343 2.621,1.216 3.409,2.3988 l 1.39,2.2102 c 0.045,0.1988 0.178,0.3769 0.354,0.4777 0.178,0.1012 0.399,0.1231 0.592,0.059 0.161,-0.0527 0.302,-0.1629 0.401,-0.2988 0.099,-0.1371 0.159,-0.3008 0.183,-0.468 0.047,-0.3351 -0.049,-0.6762 -0.188,-0.984 -0.1,-0.2172 -0.222,-0.4242 -0.363,-0.616 0.666,-0.002 1.329,-0.25 1.832,-0.6859 0.505,-0.4352 0.847,-1.0551 0.946,-1.7129 0.093,-0.6192 -0.023,-1.2543 -0.234,-1.8434 -0.211,-0.5886 -0.513,-1.1398 -0.808,-1.6918 -1.064,-1.9941 -2.033,-4.039 -2.904,-6.1242 0.571,0.4563 1.321,0.6801 2.048,0.6133 0.609,-0.0563 1.184,-0.3051 1.724,-0.591 0.651,-0.3449 1.272,-0.75 1.852,-1.2071 0.56,0.1911 1.063,0.545 1.431,1.0071 0.369,0.4621 0.604,1.0308 0.665,1.6187 0.064,0.6 -0.049,1.2094 -0.259,1.775 -0.211,0.5653 -0.518,1.0903 -0.852,1.5922 -0.668,1.0051 -1.46,1.9512 -1.873,3.0852 -0.321,0.8808 -0.393,1.8687 -0.098,2.759 0.148,0.4449 0.386,0.8617 0.703,1.2058 0.32,0.3442 0.72,0.6149 1.161,0.7699 0.849,0.2961 1.842,0.1352 2.553,-0.414 0.711,-0.5489 1.118,-1.4688 1.046,-2.3637 0.377,0.8367 1.048,1.5379 1.867,1.9477 0.821,0.4101 1.784,0.5273 2.68,0.325 0.794,-0.1789 1.521,-0.6008 2.11,-1.1629 0.588,-0.5621 1.038,-1.259 1.358,-2.0071 0.639,-1.4961 0.757,-3.1589 0.761,-4.7847 0.004,-1.6524 -0.108,-3.3371 -0.724,-4.8711 -0.309,-0.7672 -0.741,-1.4871 -1.312,-2.0852 -0.569,-0.5969 -1.279,-1.0687 -2.067,-1.3148 -0.81,-0.252 -1.691,-0.2621 -2.504,-0.0281 -0.815,0.2339 -1.556,0.7109 -2.106,1.3539 -0.682,-1.0047 -1.878,-1.6399 -3.093,-1.6418 -0.847,-0.001 -1.669,0.2839 -2.424,0.6668 -0.755,0.3832 -1.454,0.8632 -2.186,1.2902 -0.457,0.2668 -0.935,0.516 -1.456,0.6129 -0.259,0.0492 -0.527,0.059 -0.789,0.0129 -0.261,-0.0457 -0.512,-0.1481 -0.722,-0.3098 -0.302,-0.234 -0.5,-0.5769 -0.653,-0.9269 -0.151,-0.35 -0.266,-0.718 -0.441,-1.0571 -0.178,-0.339 -0.428,-0.6562 -0.772,-0.8211 -0.172,-0.0832 -0.365,-0.1242 -0.555,-0.107 -0.192,0.0172 -0.377,0.0949 -0.515,0.2289 -0.112,0.1102 -0.189,0.2539 -0.229,0.407 -0.041,0.1532 -0.044,0.3141 -0.023,0.4711 0.042,0.3129 0.181,0.6039 0.316,0.8899 0.39,0.8152 0.781,1.6301 1.184,2.4383 1.389,2.7839 2.922,5.5 4.151,8.357 0.166,0.3867 0.33,0.7828 0.368,1.2027 0.018,0.209 0.005,0.4231 -0.053,0.625 -0.06,0.202 -0.164,0.393 -0.315,0.5403 -0.153,0.1488 -0.35,0.25 -0.558,0.3 -0.208,0.05 -0.428,0.0488 -0.639,0.0109 -0.421,-0.0781 -0.801,-0.3031 -1.139,-0.5629 -0.977,-0.75 -1.68,-1.8102 -2.179,-2.9363 -0.306,-0.6879 -0.559,-1.4321 -1.102,-1.9528 -0.271,-0.2601 -0.617,-0.455 -0.99,-0.5019 -0.187,-0.0231 -0.379,-0.0102 -0.559,0.0469 -0.178,0.057 -0.345,0.1558 -0.475,0.2918 -0.126,0.132 -0.217,0.2972 -0.26,0.4742 -0.043,0.1769 -0.039,0.3648 0.014,0.5398 0.051,0.175 0.148,0.3352 0.279,0.461 0.133,0.1261 0.298,0.216 0.475,0.2589 -2.322,-1.1628 -5.094,-1.3937 -7.577,-0.6308 -1.639,0.5039 -3.156,1.4351 -4.292,2.7211 -1.136,1.2847 -1.88,2.9269 -2.024,4.6371 -0.127,1.5109 0.217,3.0539 0.946,4.3816 0.73,1.3293 1.842,2.4403 3.158,3.1942 2.151,1.232 4.718,1.4781 7.198,1.5152 1.222,0.0188 2.446,-0.007 3.669,-0.0773 0.19,0.207 0.328,0.4632 0.393,0.7371 0.065,0.2742 0.06,0.564 -0.018,0.8351 -0.078,0.2707 -0.226,0.5207 -0.425,0.7188 -0.199,0.198 -0.45,0.3441 -0.723,0.4191 -0.401,0.111 -0.845,0.0629 -1.215,-0.1328 -0.365,-0.198 -0.654,-0.5391 -0.787,-0.9344 l 0,0 z" /><path
       inkscape:connector-curvature="0"
       id="path7299"
       style="fill:#ffffff;fill-opacity:1;fill-rule:nonzero;stroke:none"
       d="m 241.90446,157.74487 c 1.026,-1.8429 1.237,-4.1226 0.567,-6.1238 -0.057,-0.1699 -0.12,-0.3391 -0.188,-0.5051 0.243,-0.289 0.566,-0.509 0.925,-0.6269 0.358,-0.1192 0.75,-0.1371 1.117,-0.0508 0.595,0.1398 1.106,0.5437 1.465,1.0418 0.358,0.498 0.573,1.0832 0.727,1.675 0.447,1.7191 0.404,3.5301 0.196,5.2941 -0.094,0.8008 -0.231,1.6258 -0.674,2.3008 -0.221,0.3371 -0.52,0.6301 -0.877,0.8133 -0.36,0.184 -0.783,0.2539 -1.175,0.1598 -0.48,-0.1141 -0.88,-0.4622 -1.15,-0.875 -0.268,-0.4129 -0.424,-0.8899 -0.554,-1.3661 -0.157,-0.5718 -0.283,-1.1519 -0.379,-1.7371 l 0,0" /><path
       inkscape:connector-curvature="0"
       id="path7301"
       style="fill:#ffffff;fill-opacity:1;fill-rule:nonzero;stroke:none"
       d="m 239.75746,159.89217 c -0.496,-0.1211 -1.039,-0.034 -1.472,0.2359 -0.435,0.27 -0.752,0.718 -0.864,1.216 -0.064,0.2899 -0.06,0.6 0.044,0.8782 0.105,0.2777 0.314,0.5207 0.587,0.6379 0.183,0.0769 0.388,0.0961 0.581,0.064 0.196,-0.0332 0.38,-0.116 0.539,-0.232 0.32,-0.2332 0.529,-0.5922 0.648,-0.968 0.188,-0.5953 0.166,-1.2531 -0.063,-1.832 l 0,0" /><path
       inkscape:connector-curvature="0"
       id="path7303"
       style="fill:#100f0d;fill-opacity:1;fill-rule:nonzero;stroke:none"
       d="m 263.71846,172.48127 c -0.106,0.3367 -0.038,0.725 0.179,1.0039 0.173,0.2211 0.427,0.3699 0.695,0.4449 0.271,0.075 0.554,0.0801 0.834,0.0789 l 9.127,-0.0109 c 0.155,-0.0719 0.281,-0.2032 0.347,-0.3598 0.065,-0.157 0.068,-0.3391 0.012,-0.4992 -0.048,-0.1301 -0.134,-0.245 -0.242,-0.3328 -0.105,-0.0891 -0.231,-0.152 -0.364,-0.1954 -0.263,-0.0847 -0.546,-0.0867 -0.822,-0.0859 -0.544,0.003 -1.089,0.016 -1.631,-0.0219 -0.178,-0.0129 -0.355,-0.0308 -0.532,-0.0558 -0.173,-0.025 -0.347,-0.0571 -0.51,-0.116 -0.163,-0.0602 -0.319,-0.1481 -0.438,-0.2743 -0.108,-0.1129 -0.184,-0.2531 -0.225,-0.4039 -0.04,-0.15 -0.046,-0.309 -0.02,-0.4621 0.053,-0.3058 0.231,-0.5828 0.465,-0.7867 0.235,-0.2043 0.524,-0.3383 0.823,-0.423 0.299,-0.084 0.609,-0.1211 0.919,-0.1461 0.863,-0.07 1.735,-0.0539 2.589,0.0789 0.777,0.1211 1.551,0.3429 2.202,0.7832 0.325,0.2199 0.616,0.4929 0.84,0.8136 0.227,0.3223 0.383,0.6934 0.441,1.0813 0.091,0.6098 -0.072,1.2418 -0.376,1.7777 -0.307,0.5371 -0.747,0.9852 -1.232,1.3692 -1.003,0.7949 -2.204,1.3289 -3.457,1.598 -1.252,0.2692 -2.553,0.275 -3.818,0.0762 -2.502,-0.3934 -4.859,-1.6 -6.675,-3.3652 -1.814,-1.7649 -3.081,-4.0758 -3.639,-6.545 -0.583,-2.5832 -0.39,-5.341 0.582,-7.8039 0.971,-2.4633 2.722,-4.6179 4.955,-6.0422 1.877,-1.1968 4.105,-1.8769 6.331,-1.7808 2.224,0.0961 4.431,0.9937 5.99,2.5847 1.419,1.4493 2.266,3.4524 2.287,5.4801 0.006,0.4781 -0.034,0.9653 -0.207,1.411 -0.172,0.4472 -0.486,0.8531 -0.921,1.055 -0.382,0.1789 -0.841,0.1852 -1.227,0.0172 -0.388,-0.1679 -0.696,-0.5082 -0.827,-0.9101 l -2.41,0.8039 c 0.143,0.6961 0.51,1.3429 1.035,1.8211 0.526,0.4781 1.205,0.7832 1.911,0.8582 0.709,0.075 1.435,-0.0801 2.068,-0.4071 0.633,-0.3281 1.172,-0.825 1.578,-1.4101 0.814,-1.1699 1.084,-2.6531 0.996,-4.0758 -0.094,-1.5293 -0.579,-3.0273 -1.359,-4.3453 -0.782,-1.318 -1.855,-2.457 -3.098,-3.3539 -2.483,-1.7942 -5.603,-2.5899 -8.668,-2.5692 -2.69,0.0184 -5.383,0.6461 -7.782,1.8633 -2.401,1.218 -4.504,3.027 -6.028,5.2457 -1.525,2.2184 -2.461,4.8442 -2.639,7.5301 -0.178,2.6859 0.412,5.4242 1.719,7.7781 1.509,2.72 3.949,4.8782 6.748,6.2371 2.799,1.359 5.943,1.9411 9.054,1.8879 2.245,-0.039 4.502,-0.407 6.563,-1.2949 1.303,-0.5609 2.535,-1.3441 3.433,-2.441 0.898,-1.0981 1.433,-2.5359 1.254,-3.943 -0.161,-1.2801 -0.901,-2.4453 -1.892,-3.2711 -0.99,-0.8261 -2.219,-1.332 -3.477,-1.6172 -1.178,-0.2679 -2.418,-0.3488 -3.592,-0.0597 -1.173,0.289 -2.275,0.9758 -2.915,2.0008 -0.685,1.1023 -0.771,2.5519 -0.222,3.7281 l -4.732,0.001 0,0" /><path
       inkscape:connector-curvature="0"
       id="path7305"
       style="fill:none;stroke:#100f0d;stroke-width:0.1;stroke-linecap:butt;stroke-linejoin:miter;stroke-miterlimit:4;stroke-dasharray:none;stroke-opacity:1"
       d="m 263.71846,172.48127 c -0.106,0.3367 -0.038,0.725 0.179,1.0039 0.173,0.2211 0.427,0.3699 0.695,0.4449 0.271,0.075 0.554,0.0801 0.834,0.0789 l 9.127,-0.0109 c 0.155,-0.0719 0.281,-0.2032 0.347,-0.3598 0.065,-0.157 0.068,-0.3391 0.012,-0.4992 -0.048,-0.1301 -0.134,-0.245 -0.242,-0.3328 -0.105,-0.0891 -0.231,-0.152 -0.364,-0.1954 -0.263,-0.0847 -0.546,-0.0867 -0.822,-0.0859 -0.544,0.003 -1.089,0.016 -1.631,-0.0219 -0.178,-0.0129 -0.355,-0.0308 -0.532,-0.0558 -0.173,-0.025 -0.347,-0.0571 -0.51,-0.116 -0.163,-0.0602 -0.319,-0.1481 -0.438,-0.2743 -0.108,-0.1129 -0.184,-0.2531 -0.225,-0.4039 -0.04,-0.15 -0.046,-0.309 -0.02,-0.4621 0.053,-0.3058 0.231,-0.5828 0.465,-0.7867 0.235,-0.2043 0.524,-0.3383 0.823,-0.423 0.299,-0.084 0.609,-0.1211 0.919,-0.1461 0.863,-0.07 1.735,-0.0539 2.589,0.0789 0.777,0.1211 1.551,0.3429 2.202,0.7832 0.325,0.2199 0.616,0.4929 0.84,0.8136 0.227,0.3223 0.383,0.6934 0.441,1.0813 0.091,0.6098 -0.072,1.2418 -0.376,1.7777 -0.307,0.5371 -0.747,0.9852 -1.232,1.3692 -1.003,0.7949 -2.204,1.3289 -3.457,1.598 -1.252,0.2692 -2.553,0.275 -3.818,0.0762 -2.502,-0.3934 -4.859,-1.6 -6.675,-3.3652 -1.814,-1.7649 -3.081,-4.0758 -3.639,-6.545 -0.583,-2.5832 -0.39,-5.341 0.582,-7.8039 0.971,-2.4633 2.722,-4.6179 4.955,-6.0422 1.877,-1.1968 4.105,-1.8769 6.331,-1.7808 2.224,0.0961 4.431,0.9937 5.99,2.5847 1.419,1.4493 2.266,3.4524 2.287,5.4801 0.006,0.4781 -0.034,0.9653 -0.207,1.411 -0.172,0.4472 -0.486,0.8531 -0.921,1.055 -0.382,0.1789 -0.841,0.1852 -1.227,0.0172 -0.388,-0.1679 -0.696,-0.5082 -0.827,-0.9101 l -2.41,0.8039 c 0.143,0.6961 0.51,1.3429 1.035,1.8211 0.526,0.4781 1.205,0.7832 1.911,0.8582 0.709,0.075 1.435,-0.0801 2.068,-0.4071 0.633,-0.3281 1.172,-0.825 1.578,-1.4101 0.814,-1.1699 1.084,-2.6531 0.996,-4.0758 -0.094,-1.5293 -0.579,-3.0273 -1.359,-4.3453 -0.782,-1.318 -1.855,-2.457 -3.098,-3.3539 -2.483,-1.7942 -5.603,-2.5899 -8.668,-2.5692 -2.69,0.0184 -5.383,0.6461 -7.782,1.8633 -2.401,1.218 -4.504,3.027 -6.028,5.2457 -1.525,2.2184 -2.461,4.8442 -2.639,7.5301 -0.178,2.6859 0.412,5.4242 1.719,7.7781 1.509,2.72 3.949,4.8782 6.748,6.2371 2.799,1.359 5.943,1.9411 9.054,1.8879 2.245,-0.039 4.502,-0.407 6.563,-1.2949 1.303,-0.5609 2.535,-1.3441 3.433,-2.441 0.898,-1.0981 1.433,-2.5359 1.254,-3.943 -0.161,-1.2801 -0.901,-2.4453 -1.892,-3.2711 -0.99,-0.8261 -2.219,-1.332 -3.477,-1.6172 -1.178,-0.2679 -2.418,-0.3488 -3.592,-0.0597 -1.173,0.289 -2.275,0.9758 -2.915,2.0008 -0.685,1.1023 -0.771,2.5519 -0.222,3.7281 l -4.732,0.001 0,0 z" /><path
       inkscape:connector-curvature="0"
       id="path7309"
       style="fill:#ffffff;fill-opacity:1;fill-rule:nonzero;stroke:none"
       d="m 304.68046,174.68915 c -0.711,0.082 -1.432,0.082 -2.143,0 -0.575,-0.066 -1.144,-0.186 -1.696,-0.3571 0.486,0.7301 1.146,1.3454 1.91,1.7762 0.253,0.1442 0.524,0.2692 0.813,0.2981 0.145,0.014 0.293,0.003 0.432,-0.0411 0.138,-0.0449 0.267,-0.123 0.363,-0.2308 0.108,-0.1223 0.172,-0.2774 0.218,-0.432 0.045,-0.1571 0.074,-0.3161 0.123,-0.4723 0.065,-0.2059 0.166,-0.4 0.295,-0.5719 l -0.315,0.0309 0,0" /><use
       x="0"
       y="0"
       xlink:href="#path7255"
       id="use4533"
       transform="translate(149.92819,-0.1345342)"
       width="100%"
       height="100%" /><use
       x="0"
       y="0"
       xlink:href="#path7291"
       id="use4535"
       transform="translate(149.92819,-0.1345342)"
       width="100%"
       height="100%" /><text
       xml:space="preserve"
       style="font-style:normal;font-variant:normal;font-weight:bold;font-stretch:normal;font-size:50.3846283px;line-height:125%;font-family:Alegreya;-inkscape-font-specification:'Alegreya Bold';letter-spacing:0px;word-spacing:0px;fill:#000000;fill-opacity:1;stroke:none;stroke-width:1px;stroke-linecap:butt;stroke-linejoin:miter;stroke-opacity:1"
       x="28.618279"
       y="-89.151871"
       id="text4521"
       sodipodi:linespacing="125%"
       transform="scale(1,-1)"><tspan
         sodipodi:role="line"
         id="tspan4523"
         x="28.618279"
         y="-89.151871">Royal College</tspan></text>
</g></svg>