<?xml version="1.0" encoding="UTF-8" standalone="no"?>
<!-- Created with Inkscape (http://www.inkscape.org/) -->

<svg
   xmlns:dc="http://purl.org/dc/elements/1.1/"
   xmlns:cc="http://creativecommons.org/ns#"
   xmlns:rdf="http://www.w3.org/1999/02/22-rdf-syntax-ns#"
   xmlns:svg="http://www.w3.org/2000/svg"
   xmlns="http://www.w3.org/2000/svg"
   xmlns:xlink="http://www.w3.org/1999/xlink"
   xmlns:sodipodi="http://sodipodi.sourceforge.net/DTD/sodipodi-0.dtd"
   xmlns:inkscape="http://www.inkscape.org/namespaces/inkscape"
   id="svg7233"
   version="1.1"
   inkscape:version="0.91+devel r"
   xml:space="preserve"
   width="444.82666"
   height="343.73334"
   viewBox="0 0 444.82666 343.73334"
   sodipodi:docname="royal_logo_svg.svg"><metadata
     id="metadata7239"><rdf:RDF><cc:Work
         rdf:about=""><dc:format>image/svg+xml</dc:format><dc:type
           rdf:resource="http://purl.org/dc/dcmitype/StillImage" /><dc:title /></cc:Work></rdf:RDF></metadata><defs
     id="defs7237"><inkscape:path-effect
       effect="spiro"
       id="path-effect6121"
       is_visible="true" /><filter
       style="color-interpolation-filters:sRGB;"
       inkscape:label="Blur"
       id="filter6029"><feGaussianBlur
         stdDeviation="3.4671 2.67"
         result="blur"
         id="feGaussianBlur6031" /></filter><filter
       style="color-interpolation-filters:sRGB;"
       inkscape:label="Blur"
       id="filter6033"><feGaussianBlur
         stdDeviation="3.4671 2.67"
         result="blur"
         id="feGaussianBlur6035" /></filter><filter
       style="color-interpolation-filters:sRGB;"
       inkscape:label="Blur"
       id="filter6037"><feGaussianBlur
         stdDeviation="3.4671 2.67"
         result="blur"
         id="feGaussianBlur6039" /></filter><filter
       style="color-interpolation-filters:sRGB;"
       inkscape:label="Blur"
       id="filter6041"><feGaussianBlur
         stdDeviation="3.4671 2.67"
         result="blur"
         id="feGaussianBlur6043" /></filter><filter
       style="color-interpolation-filters:sRGB;"
       inkscape:label="Blur"
       id="filter6045"><feGaussianBlur
         stdDeviation="3.4671 2.67"
         result="blur"
         id="feGaussianBlur6047" /></filter><filter
       style="color-interpolation-filters:sRGB;"
       inkscape:label="Blur"
       id="filter6049"><feGaussianBlur
         stdDeviation="3.4671 2.67"
         result="blur"
         id="feGaussianBlur6051" /></filter><filter
       style="color-interpolation-filters:sRGB;"
       inkscape:label="Blur"
       id="filter6053"><feGaussianBlur
         stdDeviation="3.4671 2.67"
         result="blur"
         id="feGaussianBlur6055" /></filter><filter
       style="color-interpolation-filters:sRGB;"
       inkscape:label="Blur"
       id="filter6057"><feGaussianBlur
         stdDeviation="3.4671 2.67"
         result="blur"
         id="feGaussianBlur6059" /></filter><filter
       style="color-interpolation-filters:sRGB;"
       inkscape:label="Blur"
       id="filter6061"><feGaussianBlur
         stdDeviation="3.4671 2.67"
         result="blur"
         id="feGaussianBlur6063" /></filter><filter
       style="color-interpolation-filters:sRGB;"
       inkscape:label="Blur"
       id="filter6065"><feGaussianBlur
         stdDeviation="3.4671 2.67"
         result="blur"
         id="feGaussianBlur6067" /></filter><filter
       style="color-interpolation-filters:sRGB;"
       inkscape:label="Blur"
       id="filter6069"><feGaussianBlur
         stdDeviation="3.4671 2.67"
         result="blur"
         id="feGaussianBlur6071" /></filter><filter
       style="color-interpolation-filters:sRGB;"
       inkscape:label="Blur"
       id="filter6073"><feGaussianBlur
         stdDeviation="3.4671 2.67"
         result="blur"
         id="feGaussianBlur6075" /></filter><filter
       style="color-interpolation-filters:sRGB;"
       inkscape:label="Blur"
       id="filter6077"><feGaussianBlur
         stdDeviation="3.4671 2.67"
         result="blur"
         id="feGaussianBlur6079" /></filter><filter
       style="color-interpolation-filters:sRGB;"
       inkscape:label="Blur"
       id="filter6081"><feGaussianBlur
         stdDeviation="3.4671 2.67"
         result="blur"
         id="feGaussianBlur6083" /></filter><filter
       style="color-interpolation-filters:sRGB;"
       inkscape:label="Blur"
       id="filter6085"><feGaussianBlur
         stdDeviation="3.4671 2.67"
         result="blur"
         id="feGaussianBlur6087" /></filter><filter
       style="color-interpolation-filters:sRGB;"
       inkscape:label="Blur"
       id="filter6089"><feGaussianBlur
         stdDeviation="3.4671 2.67"
         result="blur"
         id="feGaussianBlur6091" /></filter><filter
       style="color-interpolation-filters:sRGB;"
       inkscape:label="Blur"
       id="filter6093"><feGaussianBlur
         stdDeviation="3.4671 2.67"
         result="blur"
         id="feGaussianBlur6095" /></filter><filter
       style="color-interpolation-filters:sRGB;"
       inkscape:label="Blur"
       id="filter6097"><feGaussianBlur
         stdDeviation="3.4671 2.67"
         result="blur"
         id="feGaussianBlur6099" /></filter><filter
       style="color-interpolation-filters:sRGB;"
       inkscape:label="Blur"
       id="filter6101"><feGaussianBlur
         stdDeviation="3.4671 2.67"
         result="blur"
         id="feGaussianBlur6103" /></filter><filter
       style="color-interpolation-filters:sRGB;"
       inkscape:label="Blur"
       id="filter6105"><feGaussianBlur
         stdDeviation="3.4671 2.67"
         result="blur"
         id="feGaussianBlur6107" /></filter><filter
       style="color-interpolation-filters:sRGB;"
       inkscape:label="Blur"
       id="filter6109"><feGaussianBlur
         stdDeviation="3.4671 2.67"
         result="blur"
         id="feGaussianBlur6111" /></filter><filter
       style="color-interpolation-filters:sRGB;"
       inkscape:label="Blur"
       id="filter6113"><feGaussianBlur
         stdDeviation="3.4671 2.67"
         result="blur"
         id="feGaussianBlur6115" /></filter><filter
       style="color-interpolation-filters:sRGB;"
       inkscape:label="Blur"
       id="filter6117"><feGaussianBlur
         stdDeviation="3.4671 2.67"
         result="blur"
         id="feGaussianBlur6119" /></filter><filter
       style="color-interpolation-filters:sRGB;"
       inkscape:label="Blur"
       id="filter6121"><feGaussianBlur
         stdDeviation="3.4671 2.67"
         result="blur"
         id="feGaussianBlur6123" /></filter><filter
       style="color-interpolation-filters:sRGB;"
       inkscape:label="Blur"
       id="filter6125"><feGaussianBlur
         stdDeviation="3.4671 2.67"
         result="blur"
         id="feGaussianBlur6127" /></filter></defs><sodipodi:namedview
     pagecolor="#ffffff"
     bordercolor="#666666"
     borderopacity="1"
     objecttolerance="10"
     gridtolerance="10"
     guidetolerance="10"
     inkscape:pageopacity="0"
     inkscape:pageshadow="2"
     inkscape:window-width="2500"
     inkscape:window-height="1538"
     id="namedview7235"
     showgrid="false"
     inkscape:zoom="2.4241755"
     inkscape:cx="215.32529"
     inkscape:cy="163.18708"
     inkscape:window-x="0"
     inkscape:window-y="24"
     inkscape:window-maximized="1"
     inkscape:current-layer="g7241"
     showguides="false"
     inkscape:guide-bbox="true"><sodipodi:guide
       orientation="0,1"
       position="371.67278,186.04265"
       id="guide4537" /><sodipodi:guide
       orientation="0,1"
       position="270.19497,156.75434"
       id="guide5843" /><sodipodi:guide
       orientation="0,1"
       position="176.90975,200.53661"
       id="guide5845" /><sodipodi:guide
       orientation="0,1"
       position="305.54487,145.55312"
       id="guide5847" /><sodipodi:guide
       orientation="0,1"
       position="47.107873,184.49368"
       id="guide6544" /><sodipodi:guide
       orientation="0,1"
       position="193.46785,165.88115"
       id="guide4516" /><sodipodi:guide
       orientation="1,0"
       position="373.65439,120.46781"
       id="guide4542" /><sodipodi:guide
       orientation="0,1"
       position="383.71769,98.736934"
       id="guide4544" /><sodipodi:guide
       orientation="0,1"
       position="692.19414,18.975525"
       id="guide4588" /><sodipodi:guide
       orientation="1,0"
       position="656.71816,89.927487"
       id="guide4590" /><sodipodi:guide
       orientation="0,1"
       position="152.62922,77.964656"
       id="guide4640" /><sodipodi:guide
       orientation="0,1"
       position="169.74844,72.808263"
       id="guide4642" /><sodipodi:guide
       orientation="0,1"
       position="172.32664,64.661163"
       id="guide4674" /><sodipodi:guide
       orientation="0,1"
       position="299.12769,72.2661"
       id="guide5887" /><sodipodi:guide
       orientation="0,1"
       position="122.21794,92.90314"
       id="guide5889" /><sodipodi:guide
       orientation="0,1"
       position="104.67477,91.654876"
       id="guide5891" /><sodipodi:guide
       orientation="0,1"
       position="890.82006,53.087508"
       id="guide4573" /><sodipodi:guide
       orientation="0,1"
       position="504.62302,98.736934"
       id="guide4575" /><sodipodi:guide
       orientation="0,1"
       position="503.47016,102.92159"
       id="guide4577" /><sodipodi:guide
       orientation="0,1"
       position="689.30654,107.45922"
       id="guide4579" /></sodipodi:namedview><g
     id="g7241"
     inkscape:groupmode="layer"
     inkscape:label="ink_ext_XXXXXX"
     transform="matrix(1.3333333,0,0,-1.3333333,0,343.73333)"><path
       inkscape:connector-curvature="0"
       id="path7309-4-0-8"
       style="fill:#ffffff;fill-opacity:1;fill-rule:nonzero;stroke:none"
       d="m 295.40843,119.72504 c -0.711,0.082 -1.43201,0.082 -2.14301,0 -0.57499,-0.066 -1.14399,-0.186 -1.69599,-0.3571 0.486,0.7301 1.146,1.3454 1.91,1.7762 0.253,0.1442 0.52399,0.2692 0.813,0.2981 0.145,0.014 0.29299,0.003 0.432,-0.0411 0.138,-0.0449 0.267,-0.123 0.363,-0.2308 0.108,-0.1223 0.172,-0.2774 0.21799,-0.432 0.045,-0.1571 0.074,-0.3161 0.123,-0.4723 0.065,-0.2059 0.16601,-0.4 0.29501,-0.5719 l -0.315,0.0309 0,0" /><path
       style="font-style:normal;font-variant:normal;font-weight:bold;font-stretch:normal;font-size:medium;line-height:125%;font-family:Neuton;-inkscape-font-specification:'Neuton Bold';letter-spacing:0px;word-spacing:0px;fill:#000000;fill-opacity:1;stroke:none;stroke-width:1px;stroke-linecap:butt;stroke-linejoin:miter;stroke-opacity:1"
       sodipodi:nodetypes="ccsascccccccsasccccsscccccc"
       inkscape:connector-curvature="0"
       id="path4549"
       d="m -699.10849,-777.51869 0.29942,-11.5364 c 0,0 1.80002,-1.2476 4.21984,-0.7817 3.79403,0.7305 4.86903,3.38114 4.96717,5.96732 0.0911,2.4001 -0.93145,4.64286 -4.17685,5.87139 -1.60188,0.60639 -5.30958,0.47939 -5.30958,0.47939 z m -11.00595,-27.46204 0.42689,2.38065 c 3.41468,-0.46413 4.46153,0.0375 4.70809,1.64169 l 0.0773,23.44677 c -1.19756,-0.0969 -4.12403,-0.002 -5.93221,0.7685 l 1.11759,1.57375 c 5.02094,-0.79449 9.83803,0.40911 13.85243,0.40911 4.03028,0 6.56025,-0.25876 8.95564,-2.18313 1.98255,-1.59272 3.42612,-4.5701 3.36185,-6.8486 -0.17323,-6.14066 -4.49332,-7.62348 -8.36112,-8.20548 0,0 4.22094,0.40485 5.90066,-3.17935 2.89116,-5.76588 4.0698,-8.40266 6.58055,-7.97583 l 1.30861,-2.20787 c -2.32921,-1.27823 -8.3705,-0.39201 -10.4396,1.85417 -1.70507,1.85099 -2.48265,4.08374 -2.83696,6.16992 -0.50961,3.00066 -1.28163,4.69533 -3.76538,4.92646 -1.65015,0.30376 -2.77455,0.45086 -3.59902,0.87037 l -0.0499,-10.84536 3.92714,-0.96671 -0.26182,-1.62908 z" /><rect
       style="opacity:0.53699999;fill:#ffff00;fill-opacity:1;stroke:none;stroke-opacity:1"
       id="rect4742"
       width="18.157679"
       height="1.7501376"
       x="1567.0531"
       y="-350.1954" /><use
       x="0"
       y="0"
       xlink:href="#path7309-4-0-8"
       id="use4791"
       transform="translate(6.187671,-330.27204)"
       width="100%"
       height="100%" /><path
       sodipodi:nodetypes="ccccccccccccccccccccccccccccccccccccc"
       id="use6167"
       d="m 49.587902,187.64202 c -0.0896,-0.005 -0.179,-0.0179 -0.2666,-0.0381 -0.3015,-0.0699 -0.58015,-0.22796 -0.81445,-0.43066 -0.2364,-0.2032 -0.42909,-0.44972 -0.59619,-0.71192 -0.3348,-0.52299 -0.56787,-1.10677 -0.90967,-1.62597 -0.6269,-0.9492 -1.5822,-1.62706 -2.5459,-2.23096 -3.2528,-2.041 -6.84355,-3.49076 -10.13965,-5.46386 -1.9563,-1.17111 -3.82857,-2.54749 -5.2251,-4.35059 -1.39766,-1.8032 -2.28603,-4.07607 -2.09033,-6.34717 0.18828,-2.1922 1.38413,-4.23236 3.05713,-5.66016 1.6731,-1.42809 3.79175,-2.27534 5.96045,-2.64404 2.9367,-0.5 6.05079,-0.13537 8.68359,1.25684 2.6324,1.39179 4.73463,3.85015 5.46973,6.73535 0.659,2.5879 0.18266,5.44471 -1.28174,7.67871 -1.4641,2.234 -3.89424,3.81115 -6.53174,4.23925 1.7383,0.5121 3.43043,1.18477 5.04493,2.00977 0.9882,0.5039 1.95944,1.07363 2.75244,1.84864 0.7949,0.7762 1.40359,1.78237 1.53369,2.88427 0.0828,0.7129 -0.0482,1.47285 -0.47901,2.04786 -0.2149,0.28789 -0.50123,0.52377 -0.83203,0.66357 -0.24787,0.10522 -0.52076,0.15495 -0.78955,0.13916 z m -7.75781,-11.38183 c 0.23018,-0.006 0.45982,-0.0217 0.68994,-0.0498 0.9207,-0.1129 1.8269,-0.41321 2.5957,-0.93311 0.7671,-0.51999 1.39205,-1.26687 1.70655,-2.13867 0.3027,-0.8403 0.31076,-1.77298 0.085,-2.63818 -0.2261,-0.8649 -0.67548,-1.66068 -1.24659,-2.34668 -1.1457,-1.3711 -2.74001,-2.28138 -4.32861,-3.09668 -1.7012,-0.8738 -3.49121,-1.68733 -5.39941,-1.81933 -0.9543,-0.0648 -1.9263,0.0455 -2.8169,0.3955 -0.8911,0.3492 -1.69585,0.94441 -2.23095,1.73731 -0.6309,0.934 -0.8642,2.10905 -0.7251,3.22705 0.1363,1.1179 0.63055,2.17761 1.32275,3.06591 1.3871,1.7769 3.49493,2.8315 5.60742,3.61671 1.52163,0.56533 3.12896,1.02429 4.74024,0.97998 z"
       style="fill:#100f0d;fill-opacity:1;fill-rule:nonzero;stroke:none"
       inkscape:connector-curvature="0" /><path
       sodipodi:nodetypes="cccccccccccccccccccccscccccccccccccccccc"
       d="m 51.598242,171.15196 c -0.12429,1.5449 0.34101,3.1418 1.32341,4.3418 0.982,1.1992 2.4832,1.9742 4.03399,2.0203 1.08711,0.0316 2.17191,-0.2864 3.10351,-0.8453 0.9324,-0.559 1.7129,-1.3539 2.31129,-2.2618 1.1946,-1.816 1.64301,-4.03 1.75001,-6.2019 0.1098,-2.2371 -0.13751,-4.55899 -1.2195,-6.52109 -0.54101,-0.9801 -1.2891,-1.8551 -2.2148,-2.4859 -0.925,-0.6313 -2.0313,-1.0122 -3.1504,-1.0153 -1.4278,-0.005 -2.8282,0.609 -3.86211,1.5942 -1.0344,0.9847 -1.70749,2.3179 -1.98559,3.7187 -0.073,0.3723 -0.1211,0.7613 -0.0227,1.1274 0.0493,0.18279 0.13481,0.35779 0.2598,0.49999 0.12621,0.1418 0.2934,0.25 0.47771,0.2918 0.1653,0.0378 0.3411,0.023 0.4993,-0.034 0.159,-0.0571 0.3035,-0.1539 0.4215,-0.275 0.2343,-0.2418 0.3644,-0.57 0.4296,-0.902 0.0637,-0.332 0.0696,-0.6711 0.0871,-1.009 0.0188,-0.3371 0.0516,-0.6789 0.1708,-0.9949 0.1332,-0.3539 0.371,-0.6652 0.671,-0.8949 0.3008,-0.2293 0.6602,-0.3781 1.0332,-0.4383 0.7461,-0.1187 1.5262,0.1223 2.1309,0.5762 0.6047,0.4539 1.041,1.1051 1.3184,1.809 0.2761,0.7039 0.4004,1.4578 0.4582,2.2109 0.0664,0.8898 0.0418,1.784 -0.0102,2.6738 -0.0496,0.8762 -0.125,1.7543 -0.3113,2.6114 -0.1453,0.6687 -0.3645,1.3277 -0.7141,1.9168 -0.3511,0.5878 -0.8406,1.1039 -1.448,1.4179 -0.6074,0.3153 -1.3399,0.4153 -1.9903,0.2039 -0.3253,-0.1047 -0.6281,-0.2867 -0.8664,-0.5316 -0.239,-0.2453 -0.4148,-0.5531 -0.4937,-0.8863 -0.0735,-0.311 -0.0625,-0.636 -0.0344,-0.9539 0.0274,-0.3188 0.0723,-0.6372 0.0645,-0.9571 -0.006,-0.3199 -0.0664,-0.6461 -0.2356,-0.9179 -0.084,-0.136 -0.1949,-0.2559 -0.3277,-0.3438 -0.1328,-0.0891 -0.2895,-0.1453 -0.4485,-0.1531 -0.1867,-0.0102 -0.3718,0.0461 -0.53,0.1449 -0.1567,0.098 -0.2864,0.2379 -0.3852,0.3961 -0.198,0.318 -0.2637,0.6969 -0.2937,1.068 l 0,0"
       style="fill:#100f0d;fill-opacity:1;fill-rule:nonzero;stroke:none"
       id="use6169"
       inkscape:connector-curvature="0" /><path
       sodipodi:nodetypes="ccccccccscccccccccccccccccccccccccccccccccsccccccccccccccccccsccccccccccccccc"
       inkscape:connector-curvature="0"
       id="use6171"
       d="m 90.95543,187.79319 c -0.29123,0.004 -0.58521,-0.0267 -0.87049,-0.0835 -0.57179,-0.11481 -1.11781,-0.33225 -1.64228,-0.58662 -1.21472,-0.58833 -2.33581,-1.38567 -3.23615,-2.38991 -0.901528,-1.00411 -1.577688,-2.22024 -1.889588,-3.53309 -0.17901,-0.75139 -0.32363,-1.71457 -0.25961,-2.48437 -1.78157,-0.91632 -2.48606,-2.29813 -2.54433,-3.69422 -0.0198,-0.8242 0.38705,-1.62644 0.71629,-2.27396 0.35417,-0.0996 1.3441,-0.14425 2.0512,-0.15268 1.0698,-0.0127 3.102888,0.16721 4.317648,-0.31113 0.51149,-0.15442 1.00386,-0.3954 1.40831,-0.74513 0.40569,-0.34866 0.72013,-0.81047 0.8552,-1.32741 0.14465,-0.55599 0.0748,-1.15814 -0.15204,-1.68479 -0.22687,-0.52666 -0.60436,-0.98096 -1.05494,-1.33779 -0.89807,-0.71435 -2.04469,-1.03207 -3.16998,-1.25332 -3.615168,-0.71263 -7.364008,-0.61333 -10.989248,0.0552 -1.20884,0.22406 -2.44743,0.52886 -3.41872,1.2819 -0.48569,0.37667 -0.89404,0.86388 -1.13014,1.43195 -0.23494,0.56714 -0.28792,1.21676 -0.10051,1.80177 0.129,0.39875 0.36827,0.75179 0.66837,1.04449 0.0439,0.038 0.0838,0.0799 0.12996,0.1158 0.45203,0.35214 1.00539,0.60116 1.58866,0.77896 0.088,0.0209 0.17563,0.0438 0.26438,0.0599 0.0816,0.015 0.13344,0.0386 0.20708,0.0561 0.76223,0.18083 1.5422,0.26687 2.19372,0.29248 1.58484,0.0624 3.07986,0.003 4.03667,-0.12433 0.48015,1.20403 0.76046,3.10596 -0.0181,4.5061 -0.34943,0.5767 -0.84551,1.05926 -1.41177,1.42531 -1.13053,0.73236 -2.50572,0.9994 -3.85089,1.07075 -1.16691,0.062 -2.38737,-0.0221 -3.41272,-0.58411 -0.51421,-0.28076 -0.96814,-0.68072 -1.27385,-1.17945 -0.30575,-0.49764 -0.45733,-1.09674 -0.38191,-1.67705 0.0521,-0.40512 0.21797,-0.79442 0.46803,-1.1165 0.25109,-0.32278 0.58941,-0.57512 0.96927,-0.72593 0.37987,-0.15072 0.79917,-0.19753 1.20172,-0.13425 0.4036,0.0619 0.79001,0.23566 1.10567,0.49478 0.51469,0.4218 1.04101,0.82918 1.58151,1.2189 0.26723,0.19569 0.53807,0.38656 0.83445,0.53617 0.29539,0.14916 0.62038,0.25433 0.95128,0.26254 0.54182,0.0142 1.0815,-0.24335 1.41225,-0.67197 0.32874,-0.42907 0.44134,-1.01846 0.28819,-1.53841 -0.8581,0.0349 -1.71515,0.0327 -2.57245,-0.006 -1.50877,-0.0684 -3.29553,-0.46748 -4.41851,-1.04377 -1.75224,-0.89921 -3.11811,-2.55074 -3.5133,-4.7505 -0.39518,-2.19975 0.29415,-4.62923 1.72972,-6.45052 1.34459,-1.70325 3.28579,-2.87779 5.35696,-3.52521 2.07119,-0.64714 4.27157,-0.79339 6.44026,-0.69339 2.85283,0.13098 5.758628,0.7115 8.163518,2.25316 1.20125,0.771 2.26163,1.77875 3.02604,2.98326 0.76482,1.20503 1.22882,2.61198 1.25152,4.03973 0.0211,1.34615 -0.35395,2.69752 -1.06659,3.83937 -0.71276,1.14146 -1.7596,2.0729 -2.97848,2.64627 1.32685,0.54737 1.78376,1.3869 1.89165,2.54131 0.0293,2.24798 -2.66514,3.56331 -5.14013,3.01784 0.58144,1.7256 2.02175,3.10334 3.77792,3.58347 0.77515,0.21111 1.59125,0.25391 2.36011,0.48914 0.38546,0.11709 0.75832,0.28441 1.0761,0.53095 0.31904,0.2452 0.57897,0.57334 0.70641,0.95527 0.0902,0.27722 0.11023,0.57497 0.0613,0.86268 -0.0481,0.28819 -0.16373,0.56322 -0.32761,0.80397 -0.32694,0.48239 -0.84499,0.8181 -1.40632,0.9781 -0.27947,0.08 -0.56943,0.11755 -0.86066,0.12136 z m -4.54368,-10.39681 c 1.29786,-0.0336 1.86962,-0.65073 1.8433,-1.31966 -0.008,-0.21014 -0.0718,-0.43162 -0.21201,-0.59379 -0.24263,-0.28161 -0.55083,-0.36547 -0.86053,-0.35354 -0.52463,0.0207 -1.07929,0.27362 -1.40658,0.70989 -0.28124,0.37459 -0.41183,0.9007 -0.35701,1.36633 0.18906,0.10325 0.67058,0.19913 0.99283,0.19077 z m -2.849858,-0.84345 c 0.0604,-0.41326 0.17323,-0.81766 0.33619,-1.20146 0.13944,-0.32789 0.31432,-0.64034 0.52266,-0.93072 -0.55363,-0.0682 -1.4129,-0.14019 -2.03878,0.0862 -0.35384,0.43771 -0.0547,1.07411 0.11856,1.29079 0.31467,0.38572 0.60387,0.5606 1.06139,0.7551 z"
       style="fill:#100f0d;fill-opacity:1;fill-rule:nonzero;stroke:none" /><path
       sodipodi:nodetypes="cccccccccccccsscccccccccccccccccccccccccccccccccccccccccccscccccccccaacscssccscsccccccccccccscccc"
       inkscape:connector-curvature="0"
       id="use6173"
       d="m 111.69564,184.57973 c -1.8263,-1.71921 -3.12408,-3.99205 -3.67439,-6.43875 l -3.39139,-2.53901 c -0.0354,1.09058 -0.49807,2.16137 -1.26902,2.93501 -0.70278,0.70575 -1.66194,1.1599 -2.6556,1.21858 -0.86743,0.0514 -1.74174,-0.19645 -2.48065,-0.6509 -0.73961,-0.45484 -1.34953,-1.10884 -1.79519,-1.85448 -0.54008,-0.89863 -0.84867,-1.93486 -0.88049,-2.98269 -0.0187,-0.58384 0.0484,-1.17519 0.24817,-1.72519 0.19891,-0.54888 0.53411,-1.0562 0.99539,-1.41466 0.4613,-0.35885 1.05248,-0.56232 1.63419,-0.51415 0.29134,0.0241 0.57756,0.11145 0.8302,0.25698 0.25417,0.1456 0.473,0.353 0.62703,0.6003 0.28174,0.44924 0.34051,1.00641 0.2949,1.53379 -0.0456,0.52747 -0.18819,1.04059 -0.28347,1.56145 -0.0953,0.52087 -0.14264,1.06487 0.004,1.57475 0.0721,0.25401 0.19296,0.49643 0.36723,0.69662 0.17387,0.1991 0.4,0.35387 0.65464,0.42717 0.25542,0.0735 0.53401,0.0629 0.78793,-0.0168 0.25434,-0.0794 0.48512,-0.22535 0.67865,-0.40806 0.3967,-0.37583 0.63261,-0.91703 0.63894,-1.46243 0.006,-0.54497 -0.21708,-1.08976 -0.60489,-1.47506 -0.8491,-1.05379 -1.66173,-2.13712 -2.43441,-3.24865 -1.44634,-2.07887 -2.75296,-4.25181 -4.16434,-6.35481 -0.19355,-0.28841 -0.38878,-0.57566 -0.53758,-0.88831 -0.14958,-0.31333 -0.25182,-0.65407 -0.24423,-1.00106 0.008,-0.34699 0.13298,-0.70028 0.38334,-0.93986 0.12621,-0.12004 0.27962,-0.20998 0.4487,-0.25345 0.16799,-0.0427 0.34796,-0.0386 0.51145,0.0199 0.15996,0.0562 0.29924,0.16308 0.41882,0.28301 0.1191,0.12063 0.22103,0.25615 0.32903,0.38788 0.1063,0.13216 0.2201,0.2599 0.3566,0.36126 0.13581,0.10187 0.29541,0.17313 0.4647,0.18148 0.1813,0.009 0.361,-0.0566 0.50522,-0.16613 0.14465,-0.10803 0.2541,-0.25696 0.33721,-0.41789 0.16213,-0.32271 0.21439,-0.68849 0.3165,-1.03441 0.2534,-0.84354 0.82153,-1.58178 1.55587,-2.06913 0.73423,-0.48735 1.62356,-0.72604 2.50389,-0.7073 1.07838,0.0221 2.14515,0.43099 2.96152,1.13398 0.81796,0.70409 1.3801,1.69561 1.56238,2.75917 0.14142,-0.91354 0.55676,-1.78254 1.17695,-2.46679 0.62029,-0.68504 1.44595,-1.18226 2.34022,-1.41178 1.16779,-0.30061 2.42889,-0.1424 3.52947,0.3476 1.10059,0.49029 2.04373,1.29731 2.78204,2.24908 1.57773,2.03578 2.20984,4.79217 1.61147,7.29698 -0.54402,2.27547 -2.07249,4.27585 -4.06367,5.5056 -1.99069,1.22986 -4.41514,1.70272 -6.7406,1.4346 -0.6844,-0.0784 -1.36033,-0.2176 -2.01984,-0.41812 1.56839,1.09861 3.42247,1.7862 5.32684,1.97646 3.16338,0.31699 6.36571,-0.74266 8.99606,-2.52766 1.6898,-1.14679 3.18759,-2.60223 4.24647,-4.34865 1.05785,-1.7457 1.66081,-3.7895 1.56574,-5.82965 -0.0892,-1.63402 -0.49934,-3.47583 -2.76304,-3.59031 -1.17149,-0.007 -1.67945,0.80816 -2.00651,1.56002 l -2.0564,-0.58916 c 0.49692,-1.76252 1.88588,-3.29793 4.18468,-3.33286 1.43011,0.004 2.90175,0.72501 3.87311,1.7725 0.97236,1.04748 1.58486,2.38467 1.98239,3.75704 0.77639,2.67526 0.77957,5.56965 0.0109,8.24735 -0.76869,2.6776 -2.61251,5.31947 -4.69032,7.17591 1.5595,0.87582 2.06602,2.19637 2.08378,3.49089 0.0136,0.97255 -0.28385,1.96988 -0.81769,2.80017 -0.53285,0.83029 -1.28965,1.50945 -2.14992,1.99294 -1.07723,0.60321 -2.60009,0.85116 -4.2466,0.87538 -3.12849,0.0191 -6.23644,-1.56963 -8.15622,-3.33592 z m 8.59719,-4.31558 c 0,0 -1.07503,0.15421 -1.52253,0.20865 -2.70712,0.32476 -6.17741,-0.1168 -8.39761,-1.12527 0.19662,0.71895 1.55357,2.41236 2.7309,3.1512 2.28089,1.43139 4.81222,2.32022 7.79829,2.10913 0,0 -1.24706,-0.65302 -1.26847,-2.61189 -0.0108,-1.0186 0.65942,-1.73182 0.65942,-1.73182 z m 3.21691,3.52836 c 1.12272,-0.0228 1.89073,-1.04877 1.87427,-1.98114 -0.0223,-1.24877 -0.82004,-1.95021 -1.85367,-1.91996 -1.22423,0.004 -2.05094,1.085 -2.00626,2.02614 -0.008,0.76959 0.55058,1.90404 1.98566,1.87496 z m -17.50102,-17.28408 c -0.28547,-1.54666 -1.27431,-3.27877 -3.94562,-3.16311 -1.33169,0.0577 -2.51904,1.7402 -3.83606,1.12928 0.75578,1.37544 1.60743,2.69829 2.54834,3.95508 1.22983,1.64298 2.65204,3.20781 4.47663,4.14998 1.2306,0.63534 2.62641,0.96416 4.00811,0.90395 l 0,-4e-5 c 0.19738,-0.009 0.39503,-0.0251 0.59134,-0.0497 1.57033,-0.19747 3.08067,-0.92431 4.16627,-2.07726 0.76236,-0.81065 1.32253,-1.86652 1.32719,-2.97951 0.004,-0.76917 -0.25831,-1.53058 -0.70391,-2.15821 -0.44489,-0.62655 -1.068,-1.12038 -1.76336,-1.44756 -0.69586,-0.32717 -1.47815,-0.49331 -2.24092,-0.40569 -0.76489,0.0864 -1.50703,0.43529 -2.01306,1.01449 -0.47903,0.54775 -0.56354,0.8879 -0.74436,1.59351 -0.0958,0.37379 -0.15481,0.6926 -0.24225,1.04702 l -1.59126,-0.8171 c 0,0 0.0143,-0.43286 -0.037,-0.6951 z"
       style="fill:#100f0d;fill-opacity:1;fill-rule:nonzero;stroke:none" /><path
       sodipodi:nodetypes="cscccscccccccssccccsccccccccccccccccccccccccccc"
       inkscape:connector-curvature="0"
       id="use6175"
       d="m 153.38408,180.27418 c -2.4147,-0.0126 -4.321,-1.021 -5.3101,-3.05273 -0.9374,-1.92554 -0.1597,-3.73535 -0.1597,-3.73535 1.5572,0.57144 3.2767,0.76674 4.585,0.85839 1.4671,0.0581 2.7288,-0.41301 3.5698,-1.35791 0.843,-0.9442 1.2571,-2.68666 0.9317,-3.85988 -0.6724,-2.42376 -3.2812,-3.89318 -5.6338,-4.05323 -0.069,-0.004 -0.1413,7.5e-4 -0.211,-10e-4 0.01,0.009 0.023,0.0177 0.031,0.0263 -1.9099,-0.10755 -2.8995,0.41101 -3.7795,1.4209 -0.4695,0.55599 -0.8297,1.22699 -0.9982,1.93563 -0.089,0.37541 -0.166,0.68094 -0.2472,1.16251 l -1.5912,-0.72261 c 0,0 -0.016,-0.49372 -0.06,-0.73783 -0.3783,-2.13441 -2.9655,-3.36642 -4.7707,-3.47315 -1.0256,-0.0607 -2.2005,0.31017 -2.9736,0.81155 -1.01,0.6711 -1.74604,1.72995 -2.06104,2.90185 -0.31601,1.1711 -0.0838,2.77031 0.36524,3.89651 0.545,1.364 1.467,2.51116 2.7681,3.18897 0.887,0.46329 1.5529,0.69189 2.5404,0.68017 1.6437,-0.0195 2.9998,-0.87664 3.776,-2.31348 l 1.7021,0.74609 c -0.8004,2.45146 -3.0958,3.68347 -5.438,3.64437 -3.3889,-0.0685 -5.82602,-2.38154 -7.05564,-5.06575 -0.605,-1.35 -0.94359,-2.81223 -1.07959,-4.28613 -0.207,-2.264 0.0793,-4.61535 1.13233,-6.63135 0.525,-1.0082 1.23868,-1.9229 2.1167,-2.64551 0.879,-0.72309 1.9227,-1.24999 3.0337,-1.48828 1.552,-0.33201 3.2229,-0.0804 4.6069,0.6958 1.383,0.7762 2.472,2.06862 3,3.56543 0.357,-1.15391 1.0559,-2.2009 1.9849,-2.97509 0.93,-0.77261 2.0866,-1.27138 3.2856,-1.41358 1.09,-0.1289 2.2085,0.0321 3.2315,0.43213 1.02,0.4 1.944,1.03609 2.707,1.8252 1.524,1.5777 2.3734,3.73517 2.5854,5.91796 0.263,2.7192 -0.4459,5.54848 -2.083,7.73438 -0.404,0.53709 -1.2681,1.29324 -1.5483,1.42675 0.5251,0.34107 0.7547,1.1276 0.7617,1.72559 -0.1054,1.86251 -1.9303,3.17115 -3.7148,3.2168 z m -0.8863,-2.05371 c 0.8341,-0.0378 1.0493,-0.55057 0.9331,-1.0957 -0.1497,-0.70257 0.078,-0.87159 0.078,-0.87159 -0.8,0.13384 -1.3699,0.0335 -2.0376,-0.0424 -0.5749,-0.066 -1.1457,-0.18484 -1.6977,-0.35595 0.023,1.26809 1.2198,2.23977 2.7246,2.36572 z"
       style="fill:#100f0d;fill-opacity:1;fill-rule:nonzero;stroke:none" /><path
       style="fill:#100f0d;fill-opacity:1;fill-rule:nonzero;stroke:none"
       d="m 177.39318,185.22056 c -0.043,-2.28228 0.8251,-3.27267 2.8169,-3.96796 1.9755,-0.6896 4.5202,-0.5077 8.9149,-0.83474 4.0286,-0.29981 7.2074,-2.69146 8.5344,-5.88132 0.8903,-2.14015 0.439,-4.90697 -1.2377,-6.84284 -2.0922,-2.41553 -5.7786,-3.20633 -8.9692,-3.38524 -3.1357,-0.17583 -8.6821,0.71506 -8.6968,3.89061 -0.014,2.97141 3.3822,3.45049 5.4551,3.48048 1.5859,0.023 3.0793,-0.0727 4.0327,-0.22413 0.5099,1.19175 0.8373,3.08682 0.094,4.50586 -0.335,0.5852 -0.8185,1.07899 -1.3755,1.45898 -1.112,0.7602 -2.4803,1.06132 -3.8232,1.16602 -1.1651,0.091 -2.3873,0.0369 -3.4263,-0.49951 -0.521,-0.2679 -0.9843,-0.65598 -1.3023,-1.14697 -0.318,-0.4899 -0.4843,-1.085 -0.4233,-1.667 0.042,-0.40629 0.1974,-0.79973 0.4394,-1.12792 0.243,-0.32891 0.5747,-0.58981 0.9507,-0.75 0.376,-0.1601 0.7943,-0.21727 1.1983,-0.16407 0.405,0.0519 0.7956,0.21609 1.1176,0.46729 0.525,0.4089 1.0614,0.803 1.6114,1.1792 0.272,0.189 0.5481,0.37342 0.8481,0.51562 0.299,0.1418 0.6256,0.23877 0.9566,0.23877 0.542,7.5e-4 1.076,-0.26935 1.396,-0.70605 0.318,-0.4371 0.415,-1.02942 0.249,-1.54542 -0.857,0.0558 -1.7143,0.0743 -2.5723,0.0572 -1.51,-0.0309 -3.0524,-0.18224 -4.4194,-0.82324 -1.83,-0.8582 -3.2249,-2.60975 -3.6109,-4.59375 -0.204,-1.0461 -0.1341,-2.13716 0.1509,-3.16406 0.285,-1.027 0.7843,-1.98834 1.4253,-2.84034 1.909,-2.541 5.0125,-4.01774 8.1665,-4.41064 4.592,-0.57111 9.4402,1.10801 12.5962,4.49121 1.578,1.6906 2.8963,3.7641 3.3179,6.01465 0.459,2.45055 0.053,5.1515 -0.9977,7.41264 -0.7911,1.70326 -2.2666,3.12687 -3.7819,4.17616 0.5491,0.11213 2.7149,1.11108 2.7266,3.34415 0.024,4.50309 -5.1355,7.74964 -11.2045,7.87951 -6.1868,0.13238 -10.9946,-2.20839 -11.1572,-5.70315 z m 19.1206,-2.81739 c 0.011,-0.88196 -0.9648,-1.73416 -2.1679,-1.30301 -1.4234,0.63175 -2.8212,1.20019 -5.4026,1.29919 -4.1891,0.16063 -10.5898,-0.19939 -9.1114,2.70819 1.0071,1.98074 6.03856,2.2909 10.26686,1.55835 3.7152,-0.64363 6.38794,-2.17243 6.41504,-4.26272 z"
       id="use6177"
       inkscape:connector-curvature="0"
       sodipodi:nodetypes="sssasssscccccccccccccccccccccccaacsscscssssc" /><path
       sodipodi:nodetypes="cccccccccccccccccsscccccasccccccccccacc"
       inkscape:connector-curvature="0"
       id="use6179"
       d="m 213.92228,179.43737 c -0.521,-0.2679 -0.9842,-0.65598 -1.3022,-1.14697 -0.318,-0.4899 -0.4844,-1.08499 -0.4234,-1.66699 0.042,-0.40629 0.1975,-0.79974 0.4395,-1.12793 0.243,-0.32891 0.5747,-0.58981 0.9506,-0.75 0.3761,-0.1601 0.7943,-0.21726 1.1983,-0.16406 0.405,0.0519 0.7957,0.21608 1.1177,0.46728 0.525,0.4089 1.0613,0.803 1.6113,1.1792 0.272,0.189 0.5481,0.37342 0.8481,0.51562 0.299,0.14181 0.6256,0.23877 0.9566,0.23877 0.542,7.5e-4 1.076,-0.26935 1.396,-0.70605 0.318,-0.4371 0.6277,-1.3218 0.4617,-1.8378 -0.857,0.0558 -3.847,0.10159 -5.9818,-0.0759 -2.1349,-0.1775 -4.5109,-0.45736 -6.5236,-1.61013 -1.316,-0.7539 -2.4282,-1.86405 -3.1582,-3.19335 -0.729,-1.32771 -1.0733,-2.87046 -0.9463,-4.38135 0.144,-1.71021 0.8885,-3.35299 2.0245,-4.6377 1.136,-1.28599 4.5473,-2.98743 7.1086,-2.99514 2.2752,-0.007 5.7374,0.76405 7.232,2.10705 1.0924,0.98162 1.2659,1.28124 2.3249,2.1156 0.338,0.2598 0.7187,0.48587 1.1397,0.56397 0.211,0.0379 -1.2323,0.38636 -1.0243,0.33636 0,0 1.0032,-0.2036 0.5419,0.26447 0.141,0.19179 1.1527,1.4422 1.2527,1.6594 0.3461,0.71474 0.3833,1.25944 -2e-4,1.6568 -0.2287,0.23687 -0.7577,0.22396 -0.9871,0.0351 -0.3275,-0.26968 -1.1698,-1.7741 -1.7446,-2.68799 -0.788,-1.18281 -2.0277,-2.05495 -3.4087,-2.39794 -1.671,-0.41601 -3.5132,-0.0378 -4.9072,0.97119 -1.397,1.00899 -2.3265,2.62227 -2.5415,4.33008 -0.119,0.94108 -0.026,1.9184 0.353,2.78759 1.1975,2.2739 3.7845,2.86243 5.9649,3.18018 2.1084,0.3001 3.5079,0.18193 4.2612,0.11133 0.1753,-0.0208 0.3595,-0.0406 0.5098,-0.0644 0.5098,1.19175 0.6246,3.37921 -0.119,4.79824 -0.335,0.58521 -0.8185,1.079 -1.3755,1.45899 -1.112,0.7602 -2.4947,1.06536 -3.8232,1.16601 -1.1509,0.0872 -2.4367,-0.004 -3.4263,-0.49955 z"
       style="fill:#100f0d;fill-opacity:1;fill-rule:nonzero;stroke:none" /><path
       sodipodi:nodetypes="cccccccccccccccccccccccccccccccccccccccccccccccccsccccccccccccc"
       d="m 255.00208,173.47306 c -0.106,0.3367 -0.038,0.725 0.179,1.0039 0.173,0.2211 0.427,0.3699 0.695,0.4449 0.271,0.075 0.554,0.0801 0.834,0.0789 l 9.127,-0.0109 c 0.155,-0.0719 0.281,-0.2032 0.347,-0.3598 0.065,-0.157 0.068,-0.3391 0.012,-0.4992 -0.048,-0.1301 -0.134,-0.245 -0.242,-0.3328 -0.105,-0.0891 -0.231,-0.152 -0.364,-0.1954 -0.263,-0.0847 -0.546,-0.0867 -0.822,-0.0859 -0.544,0.003 -1.089,0.016 -1.631,-0.0219 -0.178,-0.0129 -0.355,-0.0308 -0.532,-0.0558 -0.173,-0.025 -0.347,-0.0571 -0.51,-0.116 -0.163,-0.0602 -0.319,-0.1481 -0.438,-0.2743 -0.108,-0.1129 -0.184,-0.2531 -0.225,-0.4039 -0.04,-0.15 -0.046,-0.309 -0.02,-0.4621 0.053,-0.3058 0.231,-0.5828 0.465,-0.7867 0.235,-0.2043 0.524,-0.3383 0.823,-0.423 0.299,-0.084 0.609,-0.1211 0.919,-0.1461 0.863,-0.07 1.735,-0.0539 2.589,0.0789 0.777,0.1211 1.551,0.3429 2.202,0.7832 0.325,0.2199 0.616,0.4929 0.84,0.8136 0.227,0.3223 0.383,0.6934 0.441,1.0813 0.091,0.6098 -0.072,1.2418 -0.376,1.7777 -0.307,0.5371 -0.747,0.9852 -1.232,1.3692 -1.003,0.7949 -2.204,1.3289 -3.457,1.598 -1.252,0.2692 -2.553,0.275 -3.818,0.0762 -2.502,-0.3934 -4.859,-1.6 -6.675,-3.3652 -1.814,-1.7649 -3.081,-4.0758 -3.639,-6.545 -0.583,-2.5832 -0.39,-5.341 0.582,-7.8039 0.971,-2.4633 2.722,-4.6179 4.955,-6.0422 1.877,-1.1968 4.105,-1.8769 6.331,-1.7808 2.224,0.0961 4.431,0.9937 5.99,2.5847 1.419,1.4493 2.266,3.4524 2.287,5.4801 0.01,0.4781 -0.034,0.9653 -0.207,1.411 -0.172,0.4472 -0.486,0.8531 -0.921,1.055 -0.382,0.1789 -0.841,0.1852 -1.227,0.0172 -0.388,-0.1679 -0.696,-0.5082 -0.827,-0.9101 l -2.41,0.8039 c 0.143,0.6961 0.51,1.3429 1.035,1.82109 0.526,0.47811 1.205,0.78321 1.911,0.85821 0.709,0.075 1.435,-0.0801 2.068,-0.4071 0.633,-0.32811 1.172,-0.825 1.578,-1.41009 0.814,-1.16991 1.084,-2.65311 0.996,-4.07581 -0.094,-1.5293 -0.579,-3.0273 -1.359,-4.34529 -0.782,-1.31801 -1.855,-2.457 -3.098,-3.35391 -2.483,-1.7942 -5.603,-2.5899 -8.668,-2.5692 -2.69,0.0184 -5.383,0.6461 -7.782,1.8633 -2.401,1.218 -4.504,3.027 -6.028,5.2457 -1.525,2.2184 -2.461,4.8442 -2.639,7.53011 -0.178,2.68588 0.412,5.42418 1.719,7.77808 1.509,2.72001 3.949,4.8782 6.748,6.2371 2.799,1.359 5.943,1.9411 9.054,1.8879 2.245,-0.039 4.502,-0.407 6.563,-1.2949 1.303,-0.5609 2.535,-1.3441 3.433,-2.441 0.898,-1.0981 1.433,-2.53588 1.254,-3.943 -0.161,-1.2801 -0.901,-2.4453 -1.892,-3.2711 -0.99,-0.8261 -2.219,-1.332 -3.477,-1.6172 -1.178,-0.2679 -2.418,-0.3488 -3.592,-0.0597 -1.173,0.289 -2.275,0.9758 -2.915,2.0008 -0.685,1.1023 -0.771,2.5519 -0.222,3.7281 l -4.732,9.8e-4 0,0"
       style="fill:#100f0d;fill-opacity:1;fill-rule:nonzero;stroke:none"
       id="use6181"
       inkscape:connector-curvature="0" /><path
       sodipodi:nodetypes="sscccssscsssscsscssscsc"
       inkscape:connector-curvature="0"
       id="use6185"
       d="m 224.40418,162.23197 c 0.8642,0.0179 1.385,-0.9938 1.1437,-2.62668 -0.5587,-3.78044 -3.192,-7.1022 -4.3234,-8.46164 l 1.0777,-0.80055 c 0.2606,0.28375 0.9334,1.12727 1.0914,1.27678 0.1578,0.1631 0.7622,0.72555 2.2496,0.701 1.8348,-0.0303 2.7422,-2.40248 5.0603,-2.41727 2.2745,-0.0145 4.0622,1.24423 4.0415,4.93108 -0.01,1.46711 -0.6107,3.14125 -1.8789,4.00122 1.9669,3.17799 -0.1048,5.20949 -1.6977,5.24457 -1.9791,0.0436 -2.8788,-1.52383 -2.8233,-2.74028 0.1061,-2.32287 3.4906,-3.97794 3.4654,-6.46444 -0.011,-1.04359 -0.6381,-1.97448 -1.5874,-2.01678 -1.6237,-0.0724 -3.5235,1.69347 -5.4262,0.69846 0.6597,0.87326 1.8737,3.07365 2.3047,5.36982 0.6534,3.48016 -0.2918,5.29538 -2.3666,5.21253 -0.8361,-0.0334 -1.2744,-0.74542 -2.816,-1.51984 -1.4411,-1.07137 -1.0597,-1.10552 -0.9528,-2.42398 0.082,-1.01609 1.2523,-1.07941 1.6813,-0.6862 0.7492,0.6867 0.6149,2.69854 1.7567,2.7222 z m 7.5084,-2.86769 c -2.1687,0.9868 -2.5423,3.20231 -0.7903,3.20627 1.3769,0.003 1.7524,-2.21282 0.7903,-3.20627 z"
       style="fill:#100f0d;fill-opacity:1;fill-rule:nonzero;stroke:none" /><path
       sodipodi:nodetypes="cccccccccccccccccccccccccccccc"
       d="m 233.04118,161.74863 c 0.6923,0.80029 1.7311,1.3015 2.7903,1.30436 0.7425,9.8e-4 1.4769,-0.23553 2.1024,-0.63415 0.626,-0.39869 1.144,-0.95558 1.5357,-1.58622 0.7817,-1.2614 1.0469,-2.78062 1.0799,-4.26484 0.034,-1.52875 -0.1779,-3.10879 -0.9526,-4.42789 -0.3873,-0.6589 -0.914,-1.24227 -1.5574,-1.65568 -0.6429,-0.41376 -1.4049,-0.65331 -2.1687,-0.63477 -0.9746,0.0233 -1.9189,0.46779 -2.6064,1.15922 -0.6877,0.69111 -1.1225,1.61338 -1.2865,2.57451 -0.043,0.25542 -0.069,0.52179 0.01,0.76982 0.037,0.12385 0.099,0.2417 0.1866,0.33643 0.089,0.0944 0.2048,0.16519 0.3314,0.19034 0.1135,0.0227 0.2332,0.009 0.3401,-0.0324 0.1074,-0.0419 0.2043,-0.11057 0.2826,-0.19546 0.1554,-0.16933 0.2382,-0.39572 0.2765,-0.6235 0.037,-0.22774 0.035,-0.45927 0.041,-0.6902 0.01,-0.23041 0.023,-0.46429 0.098,-0.68214 0.084,-0.24399 0.2409,-0.46082 0.4414,-0.62312 0.2011,-0.16204 0.4436,-0.27021 0.6971,-0.31818 0.507,-0.0948 1.0438,0.0553 1.4649,0.35392 0.421,0.29862 0.7308,0.73497 0.9331,1.21026 0.2014,0.47528 0.3001,0.98749 0.3535,1.50038 0.062,0.60604 0.061,1.21676 0.041,1.82499 -0.018,0.5989 -0.053,1.19954 -0.1643,1.78791 -0.087,0.45906 -0.2243,0.91284 -0.452,1.32133 -0.2288,0.40763 -0.5533,0.76888 -0.962,0.99437 -0.4087,0.22638 -0.9068,0.30815 -1.3546,0.17587 -0.5526,-0.10417 -1.0527,-0.68682 -1.2198,-0.84955 -0.1677,-0.163 -0.4323,0.21497 -0.4923,-0.011"
       style="fill:#100f0d;fill-opacity:1;fill-rule:nonzero;stroke:none"
       id="use6187"
       inkscape:connector-curvature="0" /><path
       sodipodi:nodetypes="cscccscccccccssccccsccccccccccccccccccccccccccc"
       inkscape:connector-curvature="0"
       id="use6189"
       d="m 297.38408,180.27418 c -2.4147,-0.0126 -4.321,-1.021 -5.3101,-3.05273 -0.9374,-1.92554 -0.1597,-3.73535 -0.1596,-3.73535 1.5571,0.57144 3.2766,0.76674 4.5849,0.85839 1.4671,0.0581 2.7288,-0.41301 3.5698,-1.35791 0.843,-0.9442 1.2571,-2.68666 0.9317,-3.85988 -0.6724,-2.42376 -3.2812,-3.89318 -5.6338,-4.05323 -0.069,-0.004 -0.1413,7.5e-4 -0.211,-10e-4 0.01,0.009 0.023,0.0177 0.031,0.0263 -1.9099,-0.10755 -2.8995,0.41101 -3.7795,1.4209 -0.4695,0.55599 -0.8297,1.22699 -0.9982,1.93563 -0.089,0.37541 -0.166,0.68094 -0.2472,1.16251 l -1.5912,-0.72261 c 0,0 -0.016,-0.49372 -0.06,-0.73783 -0.3783,-2.13441 -2.9655,-3.36642 -4.7707,-3.47315 -1.0256,-0.0607 -2.2005,0.31017 -2.9736,0.81155 -1.01,0.6711 -1.746,1.72995 -2.061,2.90185 -0.316,1.1711 -0.084,2.77031 0.3652,3.89651 0.545,1.364 1.4671,2.51116 2.7681,3.18897 0.887,0.46329 1.5529,0.69189 2.5405,0.68017 1.6437,-0.0195 2.9997,-0.87664 3.7759,-2.31348 l 1.7021,0.74609 c -0.8004,2.45146 -3.0958,3.68347 -5.438,3.64437 -3.3889,-0.0685 -5.826,-2.38154 -7.0556,-5.06575 -0.605,-1.35 -0.9436,-2.81223 -1.0796,-4.28613 -0.207,-2.264 0.079,-4.61535 1.1323,-6.63135 0.525,-1.0082 1.2387,-1.9229 2.1167,-2.64551 0.879,-0.72309 1.9227,-1.24999 3.0337,-1.48828 1.552,-0.33201 3.2229,-0.0804 4.6069,0.6958 1.383,0.7762 2.472,2.06862 3,3.56543 0.357,-1.15391 1.0559,-2.2009 1.9849,-2.97509 0.93,-0.77261 2.0866,-1.27138 3.2856,-1.41358 1.09,-0.1289 2.2085,0.0321 3.2315,0.43213 1.02,0.4 1.944,1.03609 2.707,1.8252 1.524,1.5777 2.3734,3.73517 2.5854,5.91796 0.263,2.7192 -0.4459,5.54848 -2.0829,7.73438 -0.404,0.53709 -1.2682,1.29324 -1.5484,1.42675 0.5251,0.34107 0.7547,1.1276 0.7617,1.72559 -0.1054,1.86251 -1.9303,3.17115 -3.7148,3.2168 z m -0.8863,-2.05371 c 0.8341,-0.0378 1.0493,-0.55057 0.9331,-1.0957 -0.1497,-0.70257 0.078,-0.87159 0.078,-0.87159 -0.8,0.13384 -1.3699,0.0335 -2.0376,-0.0424 -0.5749,-0.066 -1.1457,-0.18484 -1.6977,-0.35595 0.023,1.26809 1.2198,2.23977 2.7246,2.36572 z"
       style="fill:#100f0d;fill-opacity:1;fill-rule:nonzero;stroke:none" /><path
       style="font-style:normal;font-variant:normal;font-weight:bold;font-stretch:normal;font-size:medium;line-height:125%;font-family:Neuton;-inkscape-font-specification:'Neuton Bold';letter-spacing:0px;word-spacing:0px;fill:#000000;fill-opacity:1;stroke:none;stroke-width:1px;stroke-linecap:butt;stroke-linejoin:miter;stroke-opacity:1"
       inkscape:connector-curvature="0"
       id="use6191"
       d="m 72.195872,126.72536 c -2.57209,-0.94795 -3.24339,-3.82355 -3.24339,-7.91729 0.13361,-3.69856 0.35635,-11.3697 5.32405,-10.97181 4.33459,0.4949 4.42299,7.50645 4.11886,10.45411 -0.29503,3.09279 -1.81489,10.05094 -6.19952,8.43499 z m -8.87226,-13.71874 c -0.41255,1.31698 -0.61882,2.80057 -0.61882,4.45076 0,1.65018 0.32528,3.2131 0.97583,4.68875 0.65055,1.47565 1.50738,2.68949 2.57049,3.64152 2.23727,1.9834 4.86328,2.9751 7.87805,2.9751 3.01477,0 5.41072,-0.95997 7.18785,-2.8799 1.77712,-1.90406 2.66568,-4.60942 2.66568,-8.11607 0,-3.49078 -1.00757,-6.31514 -3.0227,-8.47308 -1.99927,-2.15794 -4.57768,-3.23691 -7.73525,-3.23691 -5.18857,0 -8.48895,2.31661 -9.90113,6.94983 z"
       sodipodi:nodetypes="scccscsscscscsc" /><path
       sodipodi:nodetypes="ccsascccccccccccccsccccc"
       inkscape:connector-curvature="0"
       id="use6193"
       d="m 40.028112,133.97784 0.33926,-10.14156 c 0,0 2.85278,-1.18654 5.17964,-0.92027 2.82737,0.32354 4.77031,2.94602 4.75559,5.32604 -0.0175,2.82368 -1.26808,5.73732 -5.71981,6.24861 -1.61723,0.18574 -4.55468,-0.51282 -4.55468,-0.51282 z m -10.40539,-26.9016 0.40572,1.56647 c 3.24532,-0.44111 4.24025,0.73171 4.47458,2.25638 l 0.0735,22.51589 c -1.13816,-0.0921 -3.84213,-0.002 -5.56063,0.73039 l 0.98481,1.26365 c 4.77192,-0.75507 10.71805,0.77167 14.53334,0.77167 5.61598,-0.005 11.50851,-1.72365 11.41319,-7.26501 -0.16463,-5.83609 -7.40068,-7.71608 -10.45787,-7.5731 0,0 7.37043,-2.77267 8.96684,-6.17911 1.76332,-2.96408 1.70909,-7.82436 5.28525,-4.48023 l 1.00068,-1.99286 c -2.54183,-1.98053 -5.08995,-2.172 -7.5076,-1.29576 -6.05329,2.19393 -5.09597,12.56668 -12.81965,14.56317 l -0.009,-12.68527 3.61634,-0.64805 -0.24883,-1.54828 z"
       style="font-style:normal;font-variant:normal;font-weight:bold;font-stretch:normal;font-size:50.3653717px;line-height:125%;font-family:Neuton;-inkscape-font-specification:'Neuton Bold';letter-spacing:0px;word-spacing:0px;fill:#000000;fill-opacity:1;stroke:none;stroke-width:1px;stroke-linecap:butt;stroke-linejoin:miter;stroke-opacity:1" /><path
       style="font-style:normal;font-variant:normal;font-weight:normal;font-stretch:normal;font-size:medium;line-height:125%;font-family:'Old Standard TT';-inkscape-font-specification:'Old Standard TT';letter-spacing:0px;word-spacing:0px;fill:#000000;fill-opacity:1;stroke:none;stroke-width:1.33333325px;stroke-linecap:butt;stroke-linejoin:miter;stroke-opacity:1"
       d="M 113.87891 172.60352 L 112.41016 174.08203 C 113.28173 174.45347 114.34362 174.70003 115.4082 174.85742 C 115.74148 175.10459 115.99243 175.38185 116.15625 175.69141 L 126.10742 200.36523 L 124.67578 203.67188 C 123.73798 207.28887 120.35128 208.28865 118.33008 207.93945 C 116.00864 207.5384 116.74642 203.91264 113.86523 203.91797 C 112.60448 203.92022 111.08036 204.89497 111.06836 207.24023 C 111.05161 210.4081 114.56347 211.99885 117.59766 212.03125 C 120.08112 212.36374 124.77557 210.99672 127.16406 205.5293 L 141.30273 177.51953 C 142.18944 175.27266 143.72014 174.15039 145.89258 174.15039 L 147.42188 174.15039 L 147.42188 172.7793 L 137.31836 172.7793 L 137.31836 174.15039 C 137.77271 174.33082 138.38598 175.56266 138.82422 175.7793 L 131.37695 191.12695 L 123.85156 174.70898 C 124.55709 174.64193 124.76834 174.57529 124.67383 174.39648 C 124.99396 174.38986 125.34366 174.3612 125.99805 174.15039 L 125.99805 172.7793 L 123.48047 173.12695 C 118.72553 173.16369 117.92176 173.88713 113.87891 172.60352 z "
       transform="matrix(0.75000002,0,0,-0.75000002,0,257.8)"
       id="use6195" /><path
       inkscape:connector-curvature="0"
       id="use6199"
       style="font-style:normal;font-variant:normal;font-weight:normal;font-stretch:normal;font-size:medium;line-height:125%;font-family:'Old Standard TT';-inkscape-font-specification:'Old Standard TT';letter-spacing:0px;word-spacing:0px;fill:#000000;fill-opacity:1;stroke:none;stroke-width:1px;stroke-linecap:butt;stroke-linejoin:miter;stroke-opacity:1"
       d="m 115.42663,112.5048 c 0,-2.39373 1.27284,-3.00775 2.49309,-3.00775 4.78719,0.20705 5.19921,4.84739 5.18519,8.47339 -3.6669,-1.02371 -7.56004,-1.22583 -7.67828,-5.46564 z m -5.02479,-0.0957 c 0.0946,1.707 0.80148,3.24141 2.06361,4.27237 3.63072,2.59821 8.63135,3.28156 10.71681,3.50523 l -0.15469,3.74453 c -0.11632,2.81554 -1.92757,2.71191 -3.72677,2.74245 -1.83672,0.0312 -4.76365,-0.69266 -4.01867,-2.29074 0.90119,-0.57894 1.83074,-0.90501 1.82725,-2.11105 0,-1.18172 -0.77606,-1.77257 -2.32819,-1.77257 -3.88176,0.64043 -3.1842,5.3574 -0.41085,6.90848 1.51684,0.96961 3.22769,1.45442 5.13256,1.45442 2.32819,0 4.3389,-0.53026 6.03213,-1.59077 1.69321,-1.03021 2.55101,-2.65131 2.53981,-4.86321 l -0.0547,-10.79799 c -0.008,-1.515 0.43772,-2.24563 1.53093,-2.27253 1.11104,-0.0274 1.83063,0.94075 1.01025,2.41207 l 1.99157,1.03915 c 1.36729,-3.70105 -0.80941,-5.74299 -3.63144,-5.74299 -2.99841,0 -5.35134,1.9193 -5.42982,3.43349 -1.23147,-2.07775 -4.12494,-3.4098 -6.21108,-3.43347 -1.86959,0 -3.49227,0.3939 -4.86802,1.1817 -1.34047,0.78781 -2.0107,2.18162 -2.0107,4.18145 z"
       sodipodi:nodetypes="cccccccssccccscsssccsccccc" /><path
       style="font-style:normal;font-variant:normal;font-weight:bold;font-stretch:normal;font-size:medium;line-height:125%;font-family:Neuton;-inkscape-font-specification:'Neuton Bold';letter-spacing:0px;word-spacing:0px;fill:#000000;fill-opacity:1;stroke:none;stroke-width:1px;stroke-linecap:butt;stroke-linejoin:miter;stroke-opacity:1"
       inkscape:connector-curvature="0"
       id="use6201"
       d="m 199.77318,126.33863 c -2.6752,-0.59788 -3.4754,-3.35947 -3.4754,-7.45321 0.1336,-3.69856 0.5111,-11.44705 5.4788,-11.04916 4.3345,0.49491 3.7268,7.19707 3.4227,10.14473 -0.295,3.09279 -0.9641,9.35483 -5.4261,8.35764 z m -8.9496,-13.332 c -0.4125,1.31698 -0.6188,2.80056 -0.6188,4.45075 0,1.65019 0.3253,3.2131 0.9758,4.68875 0.6506,1.47565 1.5074,2.68949 2.5705,3.64152 2.2373,1.9834 4.8633,2.9751 7.8781,2.9751 3.0147,0 5.4107,-0.95996 7.1878,-2.87989 1.7772,-1.90407 2.6657,-4.60942 2.6657,-8.11607 0,-3.49078 -1.0076,-6.31514 -3.0227,-8.47308 -1.9993,-2.15794 -4.5777,-3.23691 -7.7352,-3.23691 -5.1886,0 -8.489,2.31661 -9.9012,6.94983 z"
       sodipodi:nodetypes="scccscsscscscsc" /><path
       sodipodi:nodetypes="ccccsccsccsss"
       inkscape:connector-curvature="0"
       id="use6203"
       d="m 246.78338,119.15863 8.3782,-0.0469 c 0.2396,4.39125 -0.811,7.59336 -3.881,7.6052 -4.6917,-0.0477 -4.4877,-6.47945 -4.4972,-7.55828 z m 4.7358,8.98166 c 5.088,-0.0763 9.5624,-4.54065 8.4829,-10.94518 l -13.2347,0.0387 c -0.098,-2.97782 0.7842,-7.06525 4.6549,-7.59345 2.9794,-0.40657 6.5753,1.07051 6.3695,3.51045 l 1.9515,-0.19223 c 0.07,-3.19119 -3.4966,-5.53992 -8.4274,-5.47615 -7.0944,0.0917 -10.7837,5.97458 -10.5464,10.94503 0.3556,7.4473 5.921,9.78524 10.7497,9.71286 z"
       style="font-style:normal;font-variant:normal;font-weight:normal;font-stretch:normal;font-size:medium;line-height:125%;font-family:'Old Standard TT';-inkscape-font-specification:'Old Standard TT';letter-spacing:0px;word-spacing:0px;fill:#000000;fill-opacity:1;stroke:none;stroke-width:1px;stroke-linecap:butt;stroke-linejoin:miter;stroke-opacity:1" /><path
       sodipodi:nodetypes="sscsccscsccsscscsscccccsccccccsscc"
       inkscape:connector-curvature="0"
       id="use6205"
       d="m 273.68588,126.18552 c 2.7676,-0.11177 4.4141,-2.09897 4.4327,-5.93262 0.014,-2.87797 -0.5666,-6.70135 -4.2555,-6.78808 -4.0653,-0.0956 -4.9785,4.16577 -5.0053,6.74706 -0.024,2.34326 1.1508,5.82312 4.2598,5.97071 0.1943,0.009 0.3838,0.0104 0.5683,0.003 z m 6.5136,-24.2305 c 0.062,-2.82039 -3.73,-3.45799 -7.3864,-3.46566 -4.0659,-0.009 -8.7008,3.46482 -4.2332,6.2702 l -1.3503,1.67631 c -1.8526,-0.76476 -3.26414,-2.53345 -3.23554,-4.82262 0.049,-3.91394 5.65297,-4.99662 8.54784,-5.01907 7.24624,-0.0562 10.5997,1.94697 10.7585,6.46484 0.073,3.7847 -4.0023,4.7712 -8.9744,4.95362 -2.3967,0.0879 -6.132,-0.52748 -6.6825,1.76573 -0.2194,1.34405 1.8599,1.46197 3.1875,1.55507 2.8405,0.1992 4.0587,0.11892 5.9575,0.75293 3.9655,1.32408 5.4945,3.78917 5.6543,6.87598 0.084,1.61855 -0.3643,3.71085 -1.0371,4.79296 0.1,1.1037 1.7613,2.32123 2.5166,1.77539 1.1437,-0.82654 -0.05,-2.00825 1.8193,-2.76562 1.2058,-0.32812 2.1487,0.41212 2.1445,1.979 -0.027,1.91003 -2.3201,3.0346 -3.7953,3.02051 -2.6241,-0.025 -3.7412,-1.23572 -4.2701,-2.45068 -2.0962,1.9239 -4.542,2.57348 -7.0415,2.49316 l 0,3e-5 c -4.663,-0.0977 -8.6613,-3.64846 -8.7744,-8.03027 -0.01,-2.4332 1.1607,-5.33183 3.2607,-6.53174 0.6168,-0.24037 0.8001,-0.53016 0.1099,-0.61084 -1.8096,-0.48317 -3.7462,-1.73799 -3.7515,-3.81041 -0.01,-2.47384 2.0278,-5.13303 10.5361,-4.89717 3.6687,0.1017 5.8826,0.13626 6.0395,-1.97166 z"
       style="font-style:normal;font-variant:normal;font-weight:normal;font-stretch:normal;font-size:medium;line-height:125%;font-family:'Old Standard TT';-inkscape-font-specification:'Old Standard TT';letter-spacing:0px;word-spacing:0px;fill:#000000;fill-opacity:1;stroke:none;stroke-width:1px;stroke-linecap:butt;stroke-linejoin:miter;stroke-opacity:1" /><path
       style="font-style:normal;font-variant:normal;font-weight:normal;font-stretch:normal;font-size:medium;line-height:125%;font-family:'Old Standard TT';-inkscape-font-specification:'Old Standard TT';letter-spacing:0px;word-spacing:0px;fill:#000000;fill-opacity:1;stroke:none;stroke-width:1px;stroke-linecap:butt;stroke-linejoin:miter;stroke-opacity:1"
       d="m 161.52398,121.56436 c -0.052,4.70329 1.7904,9.70349 5.8042,12.41525 3.4024,2.39772 9.0076,3.31552 12.6903,1.22976 1.1951,-0.48828 2.1086,-1.59772 3.3913,-1.82968 0.8831,0.0518 0.9266,0.77728 1.269,1.41644 l 1.559,0.39285 0,-10.3808 c -0.5583,0.0484 -1.3462,-0.007 -1.3462,-0.007 -0.314,4.03985 -1.374,8.7356 -8.64,8.41546 -4.3161,-0.19018 -7.3717,-5.50772 -7.6807,-9.59215 -0.4059,-5.36657 1.619,-13.72466 8.0812,-13.97783 3.1335,-0.12276 8.2044,1.88908 6.3692,6.36646 l 3.1705,0.84303 c 1.3221,-4.97047 -1.9593,-10.08714 -10.313,-10.15817 -8.0413,-0.0684 -14.2909,5.85869 -14.3548,14.86637 z"
       id="use6207"
       inkscape:connector-curvature="0"
       sodipodi:nodetypes="ccccccccsasccscc" /><path
       sodipodi:nodetypes="ccccccccccc"
       inkscape:connector-curvature="0"
       id="use6209"
       d="m 134.90783,107.31615 0.40575,1.56647 c 3.2453,-0.44111 4.2402,0.73171 4.4745,2.25638 l 0.073,22.51589 c -1.1381,-0.0921 -3.8421,-0.002 -5.56058,0.73038 l 0.98481,1.26365 c 8.49537,-0.5837 10.48317,2.07384 10.46527,-1.95792 l -0.06,-24.17857 3.6163,-0.64805 -0.2488,-1.54828 z"
       style="font-style:normal;font-variant:normal;font-weight:bold;font-stretch:normal;font-size:50.3653717px;line-height:125%;font-family:Neuton;-inkscape-font-specification:'Neuton Bold';letter-spacing:0px;word-spacing:0px;fill:#000000;fill-opacity:1;stroke:none;stroke-width:1px;stroke-linecap:butt;stroke-linejoin:miter;stroke-opacity:1" /><path
       sodipodi:nodetypes="ccccccccccc"
       inkscape:connector-curvature="0"
       id="use6211"
       d="m 212.90788,107.31615 0.4057,1.56647 c 3.2453,-0.44111 4.2402,0.73171 4.4746,2.25638 l 0.073,22.51589 c -1.1381,-0.0921 -3.8421,-0.002 -5.5606,0.73038 l 0.9848,1.26365 c 8.4954,-0.5837 10.4832,2.07384 10.4653,-1.95792 l -0.06,-24.17857 3.6163,-0.64805 -0.2488,-1.54828 z"
       style="font-style:normal;font-variant:normal;font-weight:bold;font-stretch:normal;font-size:50.3653717px;line-height:125%;font-family:Neuton;-inkscape-font-specification:'Neuton Bold';letter-spacing:0px;word-spacing:0px;fill:#000000;fill-opacity:1;stroke:none;stroke-width:1px;stroke-linecap:butt;stroke-linejoin:miter;stroke-opacity:1" /><path
       sodipodi:nodetypes="ccccccccccc"
       inkscape:connector-curvature="0"
       id="use6213"
       d="m 226.40788,107.31615 0.4057,1.56647 c 3.2453,-0.44111 4.2402,0.73171 4.4746,2.25638 l 0.073,22.51589 c -1.1381,-0.0921 -3.8421,-0.002 -5.5606,0.73038 l 0.9848,1.26365 c 8.4954,-0.5837 10.4832,2.07384 10.4653,-1.95792 l -0.06,-24.17857 3.6163,-0.64805 -0.2488,-1.54828 z"
       style="font-style:normal;font-variant:normal;font-weight:bold;font-stretch:normal;font-size:50.3653717px;line-height:125%;font-family:Neuton;-inkscape-font-specification:'Neuton Bold';letter-spacing:0px;word-spacing:0px;fill:#000000;fill-opacity:1;stroke:none;stroke-width:1px;stroke-linecap:butt;stroke-linejoin:miter;stroke-opacity:1" /><path
       sodipodi:nodetypes="ccccsccsccsss"
       inkscape:connector-curvature="0"
       id="use6215"
       d="m 293.28338,119.15863 8.3782,-0.0469 c 0.2396,4.39125 -0.811,7.59336 -3.881,7.6052 -4.6917,-0.0477 -4.4877,-6.47945 -4.4972,-7.55828 z m 4.7358,8.98166 c 5.088,-0.0763 9.5624,-4.54065 8.4829,-10.94518 l -13.2347,0.0387 c -0.098,-2.97782 0.7842,-7.06525 4.6549,-7.59345 2.9794,-0.40657 6.5753,1.07051 6.3695,3.51045 l 1.9516,-0.19223 c 0.07,-3.19119 -3.4967,-5.53992 -8.4275,-5.47615 -7.0944,0.0917 -10.7837,5.97459 -10.5464,10.94503 0.3556,7.4473 5.921,9.78524 10.7497,9.71286 z"
       style="font-style:normal;font-variant:normal;font-weight:normal;font-stretch:normal;font-size:medium;line-height:125%;font-family:'Old Standard TT';-inkscape-font-specification:'Old Standard TT';letter-spacing:0px;word-spacing:0px;fill:#000000;fill-opacity:1;stroke:none;stroke-width:1px;stroke-linecap:butt;stroke-linejoin:miter;stroke-opacity:1" /></g></svg>