<?xml version="1.0" encoding="UTF-8" standalone="no"?>
<!-- Created with Inkscape (http://www.inkscape.org/) -->

<svg
   xmlns:dc="http://purl.org/dc/elements/1.1/"
   xmlns:cc="http://creativecommons.org/ns#"
   xmlns:rdf="http://www.w3.org/1999/02/22-rdf-syntax-ns#"
   xmlns:svg="http://www.w3.org/2000/svg"
   xmlns="http://www.w3.org/2000/svg"
   xmlns:sodipodi="http://sodipodi.sourceforge.net/DTD/sodipodi-0.dtd"
   xmlns:inkscape="http://www.inkscape.org/namespaces/inkscape"
   id="svg7233"
   version="1.1"
   inkscape:version="0.91+devel+osxmenu r12848"
   xml:space="preserve"
   width="444.82666"
   height="343.73334"
   viewBox="0 0 444.82666 343.73334"
   sodipodi:docname="royal_logo_svg.svg"><metadata
     id="metadata7239"><rdf:RDF><cc:Work
         rdf:about=""><dc:format>image/svg+xml</dc:format><dc:type
           rdf:resource="http://purl.org/dc/dcmitype/StillImage" /><dc:title /></cc:Work></rdf:RDF></metadata><defs
     id="defs7237" /><sodipodi:namedview
     pagecolor="#ffffff"
     bordercolor="#666666"
     borderopacity="1"
     objecttolerance="10"
     gridtolerance="10"
     guidetolerance="10"
     inkscape:pageopacity="0"
     inkscape:pageshadow="2"
     inkscape:window-width="1680"
     inkscape:window-height="1001"
     id="namedview7235"
     showgrid="false"
     inkscape:zoom="1.7141509"
     inkscape:cx="254.912"
     inkscape:cy="160.8507"
     inkscape:window-x="0"
     inkscape:window-y="23"
     inkscape:window-maximized="0"
     inkscape:current-layer="g7241"
     showguides="false"
     inkscape:guide-bbox="true"><sodipodi:guide
       orientation="0,1"
       position="368.85792,210.46385"
       id="guide4537" /><sodipodi:guide
       orientation="0,1"
       position="110.6015,229.07208"
       id="guide4540" /><sodipodi:guide
       orientation="0,1"
       position="110.52104,231.61464"
       id="guide4542" /><sodipodi:guide
       orientation="0,1"
       position="291.10623,79.922954"
       id="guide5325" /><sodipodi:guide
       orientation="0,1"
       position="260.47882,40.544856"
       id="guide5327" /><sodipodi:guide
       orientation="0,1"
       position="299.27354,29.460651"
       id="guide5329" /></sodipodi:namedview><g
     id="g7241"
     inkscape:groupmode="layer"
     inkscape:label="ink_ext_XXXXXX"
     transform="matrix(1.3333333,0,0,-1.3333333,0,343.73333)"><path
       inkscape:connector-curvature="0"
       style="fill:#100f0d;fill-opacity:1;fill-rule:nonzero;stroke:none"
       d="m 45.916416,69.952359 c -0.0896,-0.005 -0.179,-0.0179 -0.2666,-0.0381 -0.3015,-0.0699 -0.58015,-0.22796 -0.81445,-0.43066 -0.2364,-0.2032 -0.42909,-0.44972 -0.59619,-0.71192 -0.3348,-0.52299 -0.56787,-1.10677 -0.90967,-1.62597 -0.6269,-0.9492 -1.5822,-1.62706 -2.5459,-2.23096 -3.2528,-2.041 -6.84355,-3.49076 -10.13965,-5.46386 -1.9563,-1.17111 -3.82857,-2.54749 -5.2251,-4.35059 -1.39766,-1.8032 -2.28603,-4.07607 -2.09033,-6.34717 0.18828,-2.1922 1.38413,-4.23236 3.05713,-5.66016 1.6731,-1.42809 3.79175,-2.27534 5.96045,-2.64404 2.9367,-0.5 6.05079,-0.13537 8.68359,1.25684 2.6324,1.39179 4.73463,3.85015 5.46973,6.73535 0.659,2.5879 0.18266,5.44471 -1.28174,7.67871 -1.4641,2.234 -3.89424,3.81115 -6.53174,4.23925 1.7383,0.5121 3.43043,1.18477 5.04493,2.00977 0.9882,0.5039 1.95944,1.07363 2.75244,1.84864 0.7949,0.7762 1.40359,1.78237 1.53369,2.88427 0.0828,0.7129 -0.0482,1.47285 -0.47901,2.04786 -0.2149,0.28789 -0.50123,0.52377 -0.83203,0.66357 -0.24787,0.10522 -0.52076,0.15495 -0.78955,0.13916 z m -7.75781,-11.38183 c 0.23018,-0.006 0.45982,-0.0217 0.68994,-0.0498 0.9207,-0.1129 1.8269,-0.41321 2.5957,-0.93311 0.7671,-0.51999 1.39205,-1.26687 1.70655,-2.13867 0.3027,-0.8403 0.31076,-1.77298 0.085,-2.63818 -0.2261,-0.8649 -0.67548,-1.66068 -1.24659,-2.34668 -1.1457,-1.3711 -2.74001,-2.28138 -4.32861,-3.09668 -1.7012,-0.8738 -3.49121,-1.68733 -5.39941,-1.81933 -0.9543,-0.0648 -1.9263,0.0455 -2.8169,0.3955 -0.8911,0.3492 -1.69585,0.94441 -2.23095,1.73731 -0.6309,0.934 -0.8642,2.10905 -0.7251,3.22705 0.1363,1.1179 0.63055,2.17761 1.32275,3.06591 1.3871,1.7769 3.49492,2.8315 5.60742,3.61671 1.52163,0.56533 3.12896,1.02429 4.74024,0.97998 z"
       id="path7245-7-2-5" /><path
       inkscape:connector-curvature="0"
       id="path7249-9-2-8"
       style="fill:#100f0d;fill-opacity:1;fill-rule:nonzero;stroke:none"
       d="m 47.926756,53.462299 c -0.12429,1.5449 0.34101,3.1418 1.32341,4.3418 0.982,1.1992 2.4832,1.9742 4.03399,2.0203 1.08711,0.0316 2.17191,-0.2864 3.10351,-0.8453 0.9324,-0.559 1.7129,-1.3539 2.31129,-2.2618 1.1946,-1.816 1.64301,-4.03 1.75001,-6.2019 0.1098,-2.2371 -0.13751,-4.55899 -1.2195,-6.52109 -0.54101,-0.9801 -1.2891,-1.8551 -2.2148,-2.4859 -0.925,-0.6313 -2.0313,-1.0122 -3.1504,-1.0153 -1.4278,-0.005 -2.8282,0.609 -3.86211,1.5942 -1.0344,0.9847 -1.70749,2.3179 -1.98559,3.7187 -0.073,0.3723 -0.1211,0.7613 -0.0227,1.1274 0.0493,0.18279 0.1348,0.35779 0.2598,0.49999 0.1262,0.1418 0.2934,0.25 0.4777,0.2918 0.1653,0.0378 0.3411,0.023 0.4993,-0.034 0.159,-0.0571 0.3035,-0.1539 0.4215,-0.275 0.2343,-0.2418 0.3644,-0.57 0.4296,-0.902 0.0637,-0.332 0.0696,-0.6711 0.0871,-1.009 0.0188,-0.3371 0.0516,-0.6789 0.1708,-0.9949 0.1332,-0.3539 0.371,-0.6652 0.671,-0.8949 0.3008,-0.2293 0.6602,-0.3781 1.0332,-0.4383 0.7461,-0.1187 1.5262,0.1223 2.1309,0.5762 0.6047,0.4539 1.041,1.1051 1.3184,1.809 0.2761,0.7039 0.4004,1.4578 0.4582,2.2109 0.0664,0.8898 0.0418,1.784 -0.0102,2.6738 -0.0496,0.8762 -0.125,1.7543 -0.3113,2.6114 -0.1453,0.6687 -0.3645,1.3277 -0.7141,1.9168 -0.3511,0.5878 -0.8406,1.1039 -1.448,1.4179 -0.6074,0.3153 -1.3399,0.4153 -1.9903,0.2039 -0.3253,-0.1047 -0.6281,-0.2867 -0.8664,-0.5316 -0.239,-0.2453 -0.4148,-0.5531 -0.4937,-0.8863 -0.0735,-0.311 -0.0625,-0.636 -0.0344,-0.9539 0.0274,-0.3188 0.0723,-0.6372 0.0645,-0.9571 -0.006,-0.3199 -0.0664,-0.6461 -0.2356,-0.9179 -0.084,-0.136 -0.1949,-0.2559 -0.3277,-0.3438 -0.1328,-0.0891 -0.2895,-0.1453 -0.4485,-0.1531 -0.1867,-0.0102 -0.3718,0.0461 -0.53,0.1449 -0.1567,0.098 -0.2864,0.2379 -0.3852,0.3961 -0.198,0.318 -0.2637,0.6969 -0.2937,1.068 l 0,0" /><path
       style="fill:#100f0d;fill-opacity:1;fill-rule:nonzero;stroke:none"
       d="m 87.402256,70.462129 c -0.29119,-0.006 -0.58398,-0.0464 -0.86718,-0.11279 -0.5676,-0.134 -1.10599,-0.36971 -1.62159,-0.6416 -1.19421,-0.62891 -2.28781,-1.46356 -3.15381,-2.49756 -0.8672,-1.0339 -1.50202,-2.27212 -1.76952,-3.59473 -0.1536,-0.75699 -0.16901,-1.7245 -0.0791,-2.4917 -1.69168,-0.89847 -2.50392,-2.38057 -2.51514,-3.77783 0.008,-0.8244 0.44162,-1.61248 0.79248,-2.24854 0.35732,-0.0876 1.3482,-0.0989 2.05518,-0.0835 1.06962,0.0233 3.0955,0.27162 4.32568,-0.16553 0.5164,-0.1371 1.01661,-0.36136 1.43261,-0.69727 0.4172,-0.3348 0.74702,-0.78575 0.89942,-1.29785 0.1633,-0.5508 0.11379,-1.15496 -0.0952,-1.68896 -0.209,-0.534 -0.57098,-1.00076 -1.00928,-1.37256 -0.8735,-0.7442 -2.00877,-1.10036 -3.12597,-1.35938 -3.58911,-0.834 -7.33917,-0.86103 -10.98487,-0.31494 -1.2157,0.18321 -2.46386,0.44612 -3.45996,1.16602 -0.4981,0.3601 -0.92263,0.83327 -1.17773,1.39307 -0.25391,0.5589 -0.32874,1.20637 -0.16114,1.79736 0.11549,0.40287 0.34273,0.76377 0.63281,1.06641 0.0426,0.0395 0.0811,0.0827 0.12598,0.12011 0.43991,0.36717 0.98457,0.63469 1.56152,0.83203 0.0872,0.0239 0.17406,0.0497 0.26221,0.0688 0.0811,0.0177 0.13207,0.0431 0.20508,0.063 0.7557,0.2064 1.53233,0.31867 2.18262,0.36621 1.58184,0.11571 3.078,0.10711 4.03857,0.0117 0.43932,1.21952 0.65541,3.12981 -0.16992,4.50293 -0.36866,0.56461 -0.88071,1.03018 -1.45898,1.37695 -1.15455,0.69387 -2.53796,0.91444 -3.88477,0.94044 -1.16834,0.0227 -2.38527,-0.10248 -3.39111,-0.69873 -0.50446,-0.29792 -0.94466,-0.71294 -1.2334,-1.22169 -0.28881,-0.50765 -0.42013,-1.11152 -0.3252,-1.68896 0.0657,-0.40314 0.2446,-0.78663 0.50537,-1.1001 0.26182,-0.31414 0.60845,-0.55494 0.99317,-0.69287 0.38473,-0.13784 0.80537,-0.1705 1.20556,-0.0937 0.40128,0.0755 0.78162,0.26214 1.08838,0.53174 0.50019,0.4389 1.01249,0.86378 1.53955,1.27148 0.26049,0.20458 0.52475,0.40446 0.81592,0.56397 0.2902,0.15903 0.61146,0.27508 0.9419,0.29443 0.54103,0.0324 1.08908,-0.20678 1.43408,-0.62402 0.34301,-0.41775 0.47539,-1.00301 0.33984,-1.52783 -0.85879,0.006 -1.71527,-0.0251 -2.5708,-0.0923 -1.50561,-0.11915 -3.08649,-0.35945 -4.38084,-1.192 -1.65643,-1.06545 -3.03043,-2.65432 -3.3513,-4.86614 -0.32086,-2.21182 0.44991,-4.6167 1.94601,-6.3886 1.4012,-1.657 3.38086,-2.76548 5.47266,-3.34277 2.09181,-0.57701 4.29587,-0.64907 6.45996,-0.47608 2.8468,0.227 5.7314,0.90507 8.083,2.52686 1.1746,0.81102 2.20043,1.85391 2.92383,3.08349 0.7238,1.23011 1.14015,2.65189 1.11475,4.07959 -0.0243,1.3461 -0.44461,2.68407 -1.19531,3.80127 -0.7508,1.1168 -1.82842,2.01245 -3.06592,2.54444 0.6172,0.22311 1.15068,0.66636 1.48388,1.23047 0.4375,0.74299 0.51249,1.68883 0.20508,2.49463 -0.9733,2.02803 -3.48565,2.53785 -5.15185,1.79883 0.52299,1.7442 1.94508,3.09233 3.68408,3.63134 0.7676,0.2371 1.58179,0.30736 2.34229,0.56836 0.3813,0.13 0.74831,0.30979 1.05761,0.56689 0.3106,0.25581 0.55933,0.59252 0.67383,0.97852 0.0808,0.2801 0.0908,0.57836 0.0322,0.86426 -0.0578,0.2864 -0.1826,0.55738 -0.3545,0.79248 -0.343,0.4711 -0.87207,0.78917 -1.43847,0.93017 -0.282,0.0705 -0.57306,0.0983 -0.86426,0.0923 z m -4.19091,-10.54395 c 1.29826,0.0101 1.89048,-0.58739 1.88671,-1.25683 -9.8e-4,-0.21029 -0.0572,-0.43379 -0.19189,-0.60059 -0.23301,-0.28962 -0.53821,-0.38382 -0.84814,-0.38232 -0.52502,0.003 -1.08789,0.23711 -1.42969,0.66211 -0.2937,0.3649 -0.44193,0.88631 -0.40283,1.35352 0.18548,0.10956 0.66349,0.22161 0.98584,0.22411 z m -2.81983,-0.93896 c 0.0743,-0.411 0.20067,-0.81137 0.37647,-1.18946 0.1504,-0.32301 0.33571,-0.62939 0.55371,-0.91259 -0.55102,-0.0868 -1.40738,-0.1877 -2.04053,0.0175 -0.36838,0.42555 -0.20691,0.93631 -0.041,1.1587 0.3015,0.3961 0.70066,0.71598 1.15137,0.92578 z"
       id="path7251-7-8-9"
       inkscape:connector-curvature="0"
       sodipodi:nodetypes="ccccccccscccccccccccccccccccccccccccccccccscccccccccccccccccccsccccccccccccccc" /><path
       style="fill:#100f0d;fill-opacity:1;fill-rule:nonzero;stroke:none"
       d="m 108.53659,66.872639 c -1.8093,-1.7371 -3.08464,-4.02261 -3.61084,-6.47461 l -3.36621,-2.57227 c -0.0457,1.0902 -0.51935,2.15636 -1.29785,2.92237 -0.709703,0.6988 -1.673274,1.14348 -2.667474,1.19238 -0.8679,0.0429 -1.73972,-0.21359 -2.47412,-0.67529 -0.7351,-0.4621 -1.33855,-1.12207 -1.77685,-1.87207 -0.53121,-0.9039 -0.82958,-1.94312 -0.85108,-2.99121 -0.0129,-0.584 0.06,-1.17466 0.26514,-1.72266 0.2043,-0.5469 0.54448,-1.05089 1.00927,-1.40479 0.46481,-0.3543 1.05796,-0.55194 1.63917,-0.49804 0.29109,0.027 0.57643,0.11713 0.82763,0.26514 0.25272,0.14809 0.4695,0.35764 0.62109,0.60644 0.2773,0.452 0.33059,1.00972 0.27979,1.53662 -0.0508,0.527 -0.19843,1.03869 -0.29883,1.55859 -0.1004,0.5199 -0.15312,1.06341 -0.0117,1.57471 0.0696,0.2547 0.18806,0.4983 0.36035,0.7002 0.1719,0.2008 0.3965,0.35779 0.6504,0.43359 0.25469,0.076 0.53338,0.0682 0.78807,-0.009 0.255101,-0.0769 0.487321,-0.22056 0.682621,-0.40136 0.40039,-0.3719 0.64162,-0.91075 0.65332,-1.45606 0.0117,-0.54489 -0.20634,-1.09185 -0.59034,-1.48095 -0.838681,-1.0621 -1.640621,-2.15337 -2.402321,-3.27246 -1.4258,-2.09301 -2.71097,-4.27871 -4.10157,-6.3955 -0.1907,-0.2903 -0.3831,-0.57946 -0.52881,-0.89356 -0.14649,-0.31479 -0.24537,-0.65652 -0.23437,-1.00341 0.0117,-0.3469 0.13987,-0.69894 0.39258,-0.93604 0.12739,-0.1188 0.28167,-0.20722 0.45117,-0.24902 0.1684,-0.041 0.34833,-0.0352 0.51123,0.0249 0.1594,0.0578 0.29762,0.16601 0.41602,0.28711 0.1179,0.1218 0.21849,0.25832 0.32519,0.39111 0.105,0.1332 0.21753,0.26205 0.35303,0.36475 0.1348,0.1032 0.29369,0.17603 0.46289,0.18604 0.1812,0.011 0.36154,-0.053 0.50683,-0.16114 0.14571,-0.1066 0.25662,-0.25445 0.34131,-0.41455 0.1653,-0.3211 0.22116,-0.68635 0.32667,-1.03125 0.26169,-0.841 0.83706,-1.57361 1.57616,-2.05371 0.739,-0.4801 1.630631,-0.71002 2.510744,-0.68262 1.07809,0.0328 2.14079,0.45209 2.95019,1.16309 0.811,0.7121 1.36336,1.70911 1.53516,2.77441 0.1504,-0.9121 0.57427,-1.77697 1.20117,-2.45508 0.627,-0.6789 1.45751,-1.16797 2.354,-1.38867 1.1707,-0.2891 2.43018,-0.11848 3.52588,0.38233 1.09571,0.5011 2.03087,1.31737 2.75977,2.27636 1.5576,2.05121 2.16255,4.81369 1.53955,7.31249 -0.5664,2.27 -2.11448,4.25524 -4.11768,5.46533 -2.0027,1.2102 -4.43169,1.65917 -6.75439,1.36817 -0.6836,-0.0851 -1.35812,-0.23099 -2.01563,-0.43799 1.55751,1.114 3.40473,1.81981 5.30713,2.02881 3.1601,0.34812 6.37271,-0.67996 9.02051,-2.43897 1.701,-1.1301 3.21306,-2.57073 4.28907,-4.30664 1.07499,-1.7352 1.69805,-3.77296 1.62305,-5.81395 -0.0731,-1.63482 -0.46509,-3.48058 -2.72755,-3.61734 -1.17137,-0.0183 -1.68732,0.79159 -2.02177,1.54019 l -2.0505,-0.60937 c 0.51425,-1.75755 1.91825,-3.27921 4.21729,-3.29151 1.43,0.018 2.89447,0.75355 3.85547,1.81055 0.962,1.057 1.56131,2.40016 1.94531,3.77637 0.75,2.68278 0.72469,5.57706 -0.0703,8.24706 -0.795,2.6699 -2.66474,5.29349 -4.76073,7.12939 1.5508,0.89113 2.0443,2.2166 2.04931,3.51123 0.004,0.97264 -0.30322,1.96699 -0.84522,2.79199 -0.541,0.825 -1.30444,1.49668 -2.16943,1.97168 -1.08312,0.59257 -2.60834,0.82552 -4.25502,0.83353 -3.12852,-0.0117 -6.22067,-1.63095 -8.12298,-3.41606 z m 8.63925,-4.230726 c 0,0 -1.0765,0.143616 -1.5245,0.193646 -2.7102,0.2981 -6.17597,-0.17762 -8.38613,-1.20789 0.18953,0.72085 1.52974,2.42754 2.69974,3.17794 2.26668,1.45377 4.78914,2.36748 7.77715,2.1858 0,0 -1.24057,-0.665269 -1.2427,-2.624248 -10e-4,-1.018659 0.67644,-1.725248 0.67644,-1.725248 z m 3.18201,3.559856 c 1.12289,-0.0117 1.90097,-1.0301 1.89369,-1.96259 -0.01,-1.24893 -0.8008,-1.958192 -1.83468,-1.938122 -1.22421,-0.008 -2.06152,1.064762 -2.0261,2.006292 -0.0155,0.76949 0.5318,1.90937 1.96709,1.89442 z m -14.14743,-10.44873 c 0.19746,-0.007 0.39526,-0.0212 0.5918,-0.0439 1.5722,-0.182 3.08962,-0.89393 4.18652,-2.03614 0.7703,-0.8031 1.34085,-1.85341 1.35645,-2.9663 0.0117,-0.7691 -0.24322,-1.53305 -0.68262,-2.16504 -0.4387,-0.6309 -1.05692,-1.13084 -1.74902,-1.46485 -0.69261,-0.334 -1.47322,-0.50783 -2.23682,-0.42773 -0.7657,0.0789 -1.51125,0.42043 -2.02295,0.99463 -0.4844,0.543 -0.73583,1.25259 -0.91553,1.95849 -0.0821,0.3231 -0.15345,0.6574 -0.33545,0.9375 -0.0918,0.1399 -0.20879,0.26317 -0.35449,0.34717 -0.1433,0.0839 -0.31224,0.12581 -0.47754,0.104 -0.1883,-0.0258 -0.35947,-0.13515 -0.48047,-0.28125 -0.1219,-0.1461 -0.19826,-0.32602 -0.24317,-0.51123 -0.0899,-0.3699 -0.0613,-0.75812 -0.1289,-1.13232 -0.0899,-0.511 -0.35392,-0.98074 -0.70752,-1.36084 -0.3515,-0.3808 -0.78731,-0.6766 -1.24951,-0.91259 -1.687503,-0.86091 -3.762224,-0.92004 -5.494624,-0.15675 0.7422,1.38281 1.58078,2.71398 2.50928,3.97998 1.213591,1.65501 2.620334,3.23376 4.435544,4.19385 1.2243,0.64742 2.6168,0.98997 3.99902,0.94336 z"
       id="path7253-9-0-8"
       inkscape:connector-curvature="0"
       sodipodi:nodetypes="cccccccccccccsscccccccccccccccccccccccccccccccccccccccccccscccccccccaacscssccscccccccccccccccscccccc" /><path
       inkscape:connector-curvature="0"
       style="fill:#100f0d;fill-opacity:1;fill-rule:nonzero;stroke:none"
       d="m 150.33341,62.809779 c -0.17328,9.8e-4 -0.34727,-0.004 -0.52002,-0.0161 -1.043,-0.0738 -2.06917,-0.3829 -2.97217,-0.9126 -0.9,-0.5301 -1.67159,-1.28235 -2.20459,-2.18115 -0.174,-0.29531 -0.32576,-0.6091 -0.40576,-0.9419 -0.078,-0.33399 -0.0836,-0.68934 0.0264,-1.01514 0.159,-0.46789 0.54949,-0.83631 1.0005,-1.0371 0.45199,-0.20121 0.95912,-0.24764 1.45312,-0.21094 0.985,0.073 1.92657,0.46438 2.91357,0.52148 1.262,0.0718 2.55158,-0.4467 3.39258,-1.3916 0.843,-0.9442 1.20764,-2.29774 0.93164,-3.53174 -0.277,-1.2371 -1.16358,-2.2907 -2.26758,-2.9165 -1.10199,-0.6261 -2.41682,-0.762085 -3.66797,-0.8086 -1.19847,-0.04456 -2.54913,-0.131697 -3.56135,0.511524 -0.65446,0.41588 -1.04934,1.118381 -1.27734,1.944181 -0.9116,2.25222 -2.09187,0.493852 -1.94384,-0.537959 -0.556,-1.5512 -1.2569,-1.639056 -2.78289,-2.254656 -0.76601,-0.3082 -1.60185,-0.44051 -2.42286,-0.37061 -0.819,0.0711 -1.62206,0.34538 -2.31006,0.80127 -1.01,0.6711 -1.74603,1.72996 -2.06103,2.90186 -0.316,1.1711 -0.22049,2.44216 0.22851,3.56836 0.54501,1.364 1.60379,2.51117 2.90479,3.18897 0.887,0.46329 1.90848,0.637203 2.896,0.62548 1.64369,-0.01951 2.6442,-0.821947 3.4204,-2.25879 l 1.86621,0.77346 c -0.35846,1.144198 -0.98606,1.783208 -1.71093,2.44188 -0.867,0.69371 -1.90053,1.19271 -2.99853,1.35792 -0.951,0.14379 -1.93419,0.0316 -2.84619,-0.2754 -0.912,-0.3078 -1.75377,-0.80778 -2.48877,-1.42968 -1.12901,-0.9558 -2.00729,-2.19346 -2.61329,-3.54346 -0.605,-1.35 -0.94359,-2.81223 -1.07959,-4.28613 -0.207,-2.264 0.0793,-4.61535 1.13232,-6.63135 0.525,-1.0082 1.2387,-1.9229 2.11671,-2.64551 0.879,-0.72309 1.92269,-1.24998 3.03369,-1.48827 1.55199,-0.33201 3.22293,-0.0804 4.60693,0.69579 1.383,0.7762 2.472,2.06863 3,3.56544 0.357,-1.15391 1.05587,-2.2009 1.98486,-2.9751 0.93,-0.7726 2.08665,-1.27138 3.28565,-1.41358 1.09,-0.1289 2.20845,0.0321 3.23145,0.43213 1.02,0.4 1.94403,1.0361 2.70702,1.8252 1.524,1.5777 2.37345,3.73517 2.58546,5.91796 0.26299,2.7192 -0.44601,5.54848 -2.08302,7.73438 -0.40399,0.5371 -0.8589,1.03442 -1.3579,1.48242 0.361,0.4778 0.56428,1.07193 0.57129,1.66992 0.008,0.59811 -0.18081,1.19748 -0.52881,1.68457 -0.401,0.5621 -1.0052,0.96233 -1.65821,1.18652 -0.48975,0.16733 -1.00652,0.23887 -1.52637,0.24317 z m -0.66943,-1.89404 c 0.0725,-0.007 0.14437,-0.0205 0.21386,-0.0425 0.138,-0.0441 0.26628,-0.12244 0.36329,-0.23144 0.10599,-0.12221 0.17179,-0.27623 0.21679,-0.43213 0.046,-0.1562 0.0755,-0.31512 0.12451,-0.47022 0.064,-0.2058 0.16444,-0.39975 0.29443,-0.57275 l -0.31494,0.0308 c -0.71199,0.082 -1.43206,0.082 -2.14306,0 -0.575,-0.066 -1.14575,-0.18485 -1.69775,-0.35596 0.48799,0.73 1.14861,1.34219 1.91162,1.77539 0.253,0.143 0.52399,0.26926 0.81298,0.29736 0.0725,0.007 0.14577,0.008 0.21827,9.8e-4 z"
       id="path7255-7-8-3"
       sodipodi:nodetypes="ccccccccccccaaccccccccscccccccccccccccccccccccccccccccccccccc" /><path
       sodipodi:nodetypes="cssaccsscccccccccccccccccccccccaacsscscssss"
       inkscape:connector-curvature="0"
       id="path7293-4-1-4"
       d="m 178.96221,67.530899 c -0.0431,-2.28228 0.82514,-3.27267 2.81696,-3.96796 1.97551,-0.6896 4.52022,-0.5077 8.91487,-0.83474 4.0286,-0.29981 7.20737,-2.69146 8.53439,-5.88132 0.89031,-2.14015 0.66777,-5.22636 -1.23769,-6.84284 -2.28527,-2.03954 -4.79034,-2.93075 -8.96924,-3.38524 -3.17413,-0.28719 -8.68207,0.71506 -8.69678,3.89061 -0.0137,2.97141 3.38225,3.45049 5.45508,3.48048 1.5859,0.023 3.07937,-0.0727 4.03272,-0.22413 0.50988,1.19175 0.83732,3.08682 0.0937,4.50586 -0.33501,0.5852 -0.81849,1.07899 -1.3755,1.45898 -1.11199,0.7602 -2.48024,1.06132 -3.82323,1.16602 -1.16501,0.091 -2.38728,0.0369 -3.42627,-0.49951 -0.52101,-0.2679 -0.98425,-0.65598 -1.30225,-1.14697 -0.318,-0.4899 -0.48434,-1.085 -0.42334,-1.667 0.042,-0.40629 0.19745,-0.79973 0.43945,-1.12792 0.243,-0.32891 0.57469,-0.58981 0.95068,-0.75 0.37601,-0.1601 0.79425,-0.21727 1.19825,-0.16407 0.405,0.0519 0.79567,0.21609 1.11767,0.46729 0.525,0.4089 1.06133,0.803 1.61133,1.1792 0.272,0.189 0.54815,0.37342 0.84815,0.51562 0.299,0.1418 0.62554,0.23877 0.95654,0.23877 0.542,7.5e-4 1.07599,-0.26935 1.396,-0.70605 0.318,-0.4371 0.41502,-1.02942 0.24902,-1.54542 -0.857,0.0558 -1.71427,0.0743 -2.57227,0.0572 -1.51,-0.0309 -3.05243,-0.18224 -4.41943,-0.82324 -1.83,-0.8582 -3.22484,-2.60975 -3.61084,-4.59375 -0.204,-1.0461 -0.13412,-2.13716 0.15088,-3.16406 0.285,-1.027 0.78429,-1.98834 1.42529,-2.84034 1.909,-2.541 5.0125,-4.01774 8.16651,-4.41064 4.59199,-0.57111 9.44018,1.10801 12.59618,4.49121 1.578,1.6906 2.89635,3.7641 3.31788,6.01465 0.45899,2.45055 0.0682,5.15879 -0.99765,7.41264 -0.83944,1.77511 -2.49871,3.26223 -4.01397,4.31152 0.62648,0.0154 3.04358,1.16908 3.05529,3.20879 0.0259,4.50308 -5.23218,7.749641 -11.30115,7.879511 -6.18675,0.13238 -10.99462,-2.20839 -11.15723,-5.703151 z m 19.12066,-2.81739 c 0.0114,-0.88196 -0.96486,-1.73416 -2.16792,-1.30301 -1.42343,0.63175 -2.86979,1.20019 -5.45126,1.29919 -4.18905,0.16063 -10.54118,-0.19939 -9.06277,2.70819 1.00714,1.98074 6.12057,1.880707 10.34893,1.148163 3.71515,-0.643633 6.30587,-1.762243 6.33302,-3.852533 z"
       style="fill:#100f0d;fill-opacity:1;fill-rule:nonzero;stroke:none" /><path
       style="fill:#100f0d;fill-opacity:1;fill-rule:nonzero;stroke:none"
       d="m 216.33506,62.950894 c -0.52102,-0.2679 -0.98425,-0.65598 -1.30225,-1.146975 -0.318,-0.4899 -0.48435,-1.084988 -0.42334,-1.666988 0.042,-0.40629 0.19745,-0.79974 0.43945,-1.127932 0.243,-0.328913 0.57469,-0.589808 0.95068,-0.75 0.37602,-0.160103 0.79425,-0.21726 1.19825,-0.164063 0.405,0.0519 0.79567,0.216083 1.11767,0.467288 0.525,0.4089 1.06133,0.802995 1.61133,1.179195 0.272,0.189 0.54815,0.373425 0.84815,0.515625 0.299,0.141802 0.62554,0.23877 0.95654,0.23877 0.542,7.5e-4 1.07599,-0.269355 1.396,-0.70605 0.318,-0.4371 0.62772,-1.321808 0.46172,-1.837808 -0.857,0.0558 -3.847,0.101595 -5.98183,-0.07591 -2.13483,-0.177495 -4.51088,-0.457358 -6.52355,-1.610123 -1.31598,-0.7539 -2.42821,-1.864058 -3.15819,-3.193358 -0.729,-1.327702 -1.0733,-2.870452 -0.94629,-4.38135 0.144,-1.710202 0.88843,-3.352987 2.02441,-4.637692 1.136,-1.285995 2.65299,-2.217795 4.29199,-2.721683 2.37675,-0.73026 5.01471,-0.540022 7.27295,0.496583 -0.0599,-0.03742 -0.11991,-0.0757 -0.17139,-0.124515 -0.131,-0.125798 -0.22731,-0.28497 -0.27831,-0.45996 -0.053,-0.174998 -0.0577,-0.36363 -0.0146,-0.540525 0.043,-0.177 0.13474,-0.342608 0.26074,-0.474608 0.12999,-0.136005 0.29662,-0.23451 0.47461,-0.29151 0.18,-0.05708 0.37255,-0.06997 0.55957,-0.04687 0.37299,0.04687 0.71775,0.242348 0.98877,0.502448 0.543,0.520695 0.79702,1.264732 1.10303,1.952632 0.49899,1.126103 1.20122,2.185545 2.17822,2.935545 0.33799,0.2598 0.71864,0.485865 1.13965,0.56397 0.21099,0.03787 0.43067,0.03825 0.63867,-0.0117 0.20799,-0.05003 0.4051,-0.151492 0.5581,-0.300292 0.15101,-0.1473 0.25494,-0.337065 0.31494,-0.539063 0.058,-0.2019 0.0707,-0.41649 0.0527,-0.625485 -0.038,-0.419902 -0.20168,-0.81594 -0.36768,-1.20264 -1.229,-2.856997 -2.76236,-5.573032 -4.15136,-8.356935 -0.40299,-0.8082 -0.7936,-1.623765 -1.1836,-2.438963 -0.135,-0.286012 -0.2744,-0.576262 -0.3164,-0.889162 -0.021,-0.156998 -0.0175,-0.318465 0.0234,-0.471675 0.04,-0.15309 0.1165,-0.29703 0.22851,-0.407228 0.138,-0.134002 0.32362,-0.211327 0.51562,-0.228517 0.19001,-0.01717 0.38317,0.0237 0.55518,0.106935 0.34399,0.164902 0.59399,0.482775 0.77197,0.821775 0.17502,0.33909 0.28992,0.706155 0.44092,1.05615 0.153,0.350002 0.35131,0.693247 0.65332,0.927247 0.21,0.1617 0.46117,0.264848 0.72217,0.310553 0.262,0.04613 0.52907,0.036 0.78808,-0.0132 0.52099,-0.0969 0.99905,-0.34698 1.45606,-0.61377 0.732,-0.427013 1.43056,-0.905865 2.18555,-1.289063 0.755,-0.382905 1.57732,-0.66897 2.42431,-0.667972 1.215,0.0023 2.41176,0.637395 3.09375,1.642095 0.54999,-0.643005 1.28997,-1.11963 2.10498,-1.353518 0.813,-0.234 1.69489,-0.224137 2.50489,0.02782 0.78799,0.246098 1.4979,0.71853 2.06689,1.315425 0.57101,0.598103 1.00203,1.317285 1.31103,2.084475 0.61601,1.533998 0.7291,3.218206 0.7251,4.870606 -0.004,1.625805 -0.12272,3.289545 -0.76172,4.785645 -0.31999,0.74811 -0.7699,1.44474 -1.3579,2.006835 -0.58901,0.562102 -1.31539,0.984195 -2.10938,1.163085 -0.89601,0.202305 -1.85966,0.0849 -2.68066,-0.325193 -0.819,-0.4098 -1.48922,-1.111545 -1.86621,-1.948245 0.072,0.8949 -0.3349,1.815368 -1.0459,2.364263 -0.711,0.549195 -1.70423,0.710647 -2.55323,0.414547 -0.441,-0.15501 -0.84161,-0.426307 -1.16162,-0.770505 -0.31701,-0.3441 -0.55511,-0.760665 -0.70312,-1.205565 -0.295,-0.890302 -0.22291,-1.878967 0.0981,-2.759767 0.41299,-1.134 1.20553,-2.079855 1.87354,-3.08496 0.33399,-0.501893 0.64008,-1.02699 0.85107,-1.592288 0.21,-0.565597 0.32329,-1.173922 0.25928,-1.773923 -0.061,-0.587895 -0.29604,-1.156552 -0.66504,-1.618657 -0.36801,-0.462098 -0.87115,-0.816713 -1.43116,-1.007813 -0.57999,0.457103 -1.20056,0.862133 -1.85156,1.207035 -0.54,0.2859 -1.11511,0.535493 -1.72411,0.591795 -0.72699,0.06683 -1.47685,-0.15747 -2.04786,-0.61377 0.87101,2.085203 1.8408,4.130416 2.90478,6.124516 0.29502,0.552 0.59613,1.103295 0.80714,1.691895 0.21099,0.589095 0.32737,1.223557 0.23437,1.842772 -0.099,0.657795 -0.44128,1.277198 -0.94629,1.7124 -0.50299,0.4359 -1.16652,0.685013 -1.83252,0.687015 0.141,0.191798 0.26328,0.398033 0.36328,0.615233 0.13899,0.3078 0.23597,0.649275 0.18897,0.984375 -0.024,0.16719 -0.0841,0.330187 -0.1831,0.467287 -0.099,0.1359 -0.24036,0.246113 -0.40137,0.298823 -0.19299,0.06412 -0.41379,0.0426 -0.5918,-0.05858 -0.17599,-0.1008 -0.30949,-0.278753 -0.35449,-0.47754 l -1.39014,-2.210453 c -0.78798,-1.18281 -2.0277,-2.054947 -3.40869,-2.397945 -1.671,-0.416002 -3.51324,-0.0378 -4.90723,0.97119 -1.397,1.008998 -2.3265,2.62227 -2.54151,4.33008 -0.11901,0.941085 -0.0259,1.918403 0.35304,2.787593 1.19751,2.273902 3.78445,2.862435 5.96484,3.18018 2.10849,0.300105 3.50794,0.181935 4.26123,0.11133 0.17533,-0.02085 0.35952,-0.04057 0.50977,-0.06442 0.50988,1.19175 0.62466,3.379208 -0.11895,4.798245 -0.33501,0.585203 -0.81849,1.078995 -1.3755,1.45899 -1.11198,0.7602 -2.49468,1.065353 -3.82323,1.16601 -1.15086,0.0872 -2.43669,-0.0037 -3.42624,-0.499552 z m 16.88115,-16.716218 c 0.0983,0.01042 0.19794,0.0082 0.29444,-0.0088 0.196,-0.03323 0.38006,-0.115433 0.53906,-0.231443 0.32001,-0.23319 0.52845,-0.592477 0.64746,-0.968265 0.18799,-0.595312 0.16601,-1.252155 -0.063,-1.831057 -0.496,-0.121095 -1.03769,-0.03412 -1.4707,0.235845 -0.435,0.27 -0.75227,0.717817 -0.86426,1.215817 -0.064,0.289898 -0.0601,0.599243 0.044,0.87744 0.105,0.277703 0.31294,0.521483 0.58594,0.638678 0.0915,0.03847 0.18886,0.06135 0.28711,0.07177 z m 5.94727,-1.16895 c 0.30123,0.0114 0.60597,-0.0627 0.87597,-0.200678 0.357,-0.183195 0.65645,-0.47589 0.87745,-0.812992 0.44299,-0.675 0.57982,-1.500465 0.67382,-2.30127 0.20801,-1.764 0.25071,-3.574853 -0.19628,-5.293943 -0.15401,-0.59181 -0.36857,-1.176315 -0.72657,-1.674315 -0.359,-0.49809 -0.86984,-0.90171 -1.46484,-1.041503 -0.36701,-0.0863 -0.75968,-0.06938 -1.11767,0.0498 -0.35901,0.1179 -0.68133,0.337943 -0.92433,0.626955 0.068,0.16599 0.1305,0.335468 0.1875,0.505373 0.67002,2.001195 0.45911,4.281608 -0.56689,6.124508 0.096,0.585202 0.2224,1.165507 0.37939,1.737307 0.13002,0.476198 0.28573,0.952335 0.55371,1.365233 0.27,0.4128 0.66991,0.760425 1.14991,0.874515 0.098,0.02363 0.19844,0.0372 0.29883,0.04103 z"
       id="path7295-1-1-5"
       inkscape:connector-curvature="0"
       sodipodi:nodetypes="ccccccccccccccccccccccccccccccccccccccccccccccccccccccccccccccccccccccccccccccccccccccccccccccacccccccccccccccccccccccccccc" /><path
       inkscape:connector-curvature="0"
       id="path7303-3-6-1"
       style="fill:#100f0d;fill-opacity:1;fill-rule:nonzero;stroke:none"
       d="m 258.59636,55.783399 c -0.106,0.3367 -0.038,0.725 0.179,1.0039 0.173,0.2211 0.427,0.3699 0.695,0.4449 0.271,0.075 0.554,0.0801 0.834,0.0789 l 9.127,-0.0109 c 0.155,-0.0719 0.281,-0.2032 0.347,-0.3598 0.065,-0.157 0.068,-0.3391 0.012,-0.4992 -0.048,-0.1301 -0.134,-0.245 -0.242,-0.3328 -0.105,-0.0891 -0.231,-0.152 -0.364,-0.1954 -0.263,-0.0847 -0.546,-0.0867 -0.822,-0.0859 -0.544,0.003 -1.089,0.016 -1.631,-0.0219 -0.178,-0.0129 -0.355,-0.0308 -0.532,-0.0558 -0.173,-0.025 -0.347,-0.0571 -0.51,-0.116 -0.163,-0.0602 -0.319,-0.1481 -0.438,-0.2743 -0.108,-0.1129 -0.184,-0.2531 -0.225,-0.4039 -0.04,-0.15 -0.046,-0.309 -0.02,-0.4621 0.053,-0.3058 0.231,-0.5828 0.465,-0.7867 0.235,-0.2043 0.524,-0.3383 0.823,-0.423 0.299,-0.084 0.609,-0.1211 0.919,-0.1461 0.863,-0.07 1.735,-0.0539 2.589,0.0789 0.777,0.1211 1.551,0.3429 2.202,0.7832 0.325,0.2199 0.616,0.4929 0.84,0.8136 0.227,0.3223 0.383,0.6934 0.441,1.0813 0.091,0.6098 -0.072,1.2418 -0.376,1.7777 -0.307,0.5371 -0.747,0.9852 -1.232,1.3692 -1.003,0.7949 -2.204,1.3289 -3.457,1.598 -1.252,0.2692 -2.553,0.275 -3.818,0.0762 -2.502,-0.3934 -4.859,-1.6 -6.675,-3.3652 -1.814,-1.7649 -3.081,-4.0758 -3.639,-6.545 -0.583,-2.5832 -0.39,-5.341 0.582,-7.8039 0.971,-2.4633 2.722,-4.6179 4.955,-6.0422 1.877,-1.1968 4.105,-1.8769 6.331,-1.7808 2.224,0.0961 4.431,0.9937 5.99,2.5847 1.419,1.4493 2.266,3.4524 2.287,5.4801 0.006,0.4781 -0.034,0.9653 -0.207,1.411 -0.172,0.4472 -0.486,0.8531 -0.921,1.055 -0.382,0.1789 -0.841,0.1852 -1.227,0.0172 -0.388,-0.1679 -0.696,-0.5082 -0.827,-0.9101 l -2.41,0.8039 c 0.143,0.6961 0.51,1.3429 1.035,1.82109 0.526,0.47811 1.205,0.78321 1.911,0.85821 0.709,0.075 1.435,-0.0801 2.068,-0.4071 0.633,-0.32811 1.172,-0.825 1.578,-1.41009 0.814,-1.16991 1.084,-2.65311 0.996,-4.07581 -0.094,-1.5293 -0.579,-3.0273 -1.359,-4.34529 -0.782,-1.31801 -1.855,-2.457 -3.098,-3.35391 -2.483,-1.7942 -5.603,-2.5899 -8.668,-2.5692 -2.69,0.0184 -5.383,0.6461 -7.782,1.8633 -2.401,1.218 -4.504,3.027 -6.028,5.2457 -1.525,2.2184 -2.461,4.8442 -2.639,7.53011 -0.178,2.68588 0.412,5.42418 1.719,7.77808 1.509,2.72001 3.949,4.8782 6.748,6.2371 2.799,1.359 5.943,1.9411 9.054,1.8879 2.245,-0.039 4.502,-0.407 6.563,-1.2949 1.303,-0.5609 2.535,-1.3441 3.433,-2.441 0.898,-1.0981 1.433,-2.53588 1.254,-3.943 -0.161,-1.2801 -0.901,-2.4453 -1.892,-3.2711 -0.99,-0.8261 -2.219,-1.332 -3.477,-1.6172 -1.178,-0.2679 -2.418,-0.3488 -3.592,-0.0597 -1.173,0.289 -2.275,0.9758 -2.915,2.0008 -0.685,1.1023 -0.771,2.5519 -0.222,3.7281 l -4.732,9.8e-4 0,0" /><path
       inkscape:connector-curvature="0"
       id="path7305-8-2-4"
       style="fill:none;stroke:#100f0d;stroke-width:0.09999999;stroke-linecap:butt;stroke-linejoin:miter;stroke-miterlimit:4;stroke-dasharray:none;stroke-opacity:1"
       d="m 258.59636,55.783399 c -0.106,0.3367 -0.038,0.725 0.179,1.0039 0.173,0.2211 0.427,0.3699 0.695,0.4449 0.271,0.075 0.554,0.0801 0.834,0.0789 l 9.127,-0.0109 c 0.155,-0.0719 0.281,-0.2032 0.347,-0.3598 0.065,-0.157 0.068,-0.3391 0.012,-0.4992 -0.048,-0.1301 -0.134,-0.245 -0.242,-0.3328 -0.105,-0.0891 -0.231,-0.152 -0.364,-0.1954 -0.263,-0.0847 -0.546,-0.0867 -0.822,-0.0859 -0.544,0.003 -1.089,0.016 -1.631,-0.0219 -0.178,-0.0129 -0.355,-0.0308 -0.532,-0.0558 -0.173,-0.025 -0.347,-0.0571 -0.51,-0.116 -0.163,-0.0602 -0.319,-0.1481 -0.438,-0.2743 -0.108,-0.1129 -0.184,-0.2531 -0.225,-0.4039 -0.04,-0.15 -0.046,-0.309 -0.02,-0.4621 0.053,-0.3058 0.231,-0.5828 0.465,-0.7867 0.235,-0.2043 0.524,-0.3383 0.823,-0.423 0.299,-0.084 0.609,-0.1211 0.919,-0.1461 0.863,-0.07 1.735,-0.0539 2.589,0.0789 0.777,0.1211 1.551,0.3429 2.202,0.7832 0.325,0.2199 0.616,0.4929 0.84,0.8136 0.227,0.3223 0.383,0.6934 0.441,1.0813 0.091,0.6098 -0.072,1.2418 -0.376,1.7777 -0.307,0.5371 -0.747,0.9852 -1.232,1.3692 -1.003,0.7949 -2.204,1.3289 -3.457,1.598 -1.252,0.2692 -2.553,0.275 -3.818,0.0762 -2.502,-0.3934 -4.859,-1.6 -6.675,-3.3652 -1.814,-1.7649 -3.081,-4.0758 -3.639,-6.545 -0.583,-2.5832 -0.39,-5.341 0.582,-7.8039 0.971,-2.4633 2.722,-4.6179 4.955,-6.0422 1.877,-1.1968 4.105,-1.8769 6.331,-1.7808 2.224,0.0961 4.431,0.9937 5.99,2.5847 1.419,1.4493 2.266,3.4524 2.287,5.4801 0.006,0.4781 -0.034,0.9653 -0.207,1.411 -0.172,0.4472 -0.486,0.8531 -0.921,1.055 -0.382,0.1789 -0.841,0.1852 -1.227,0.0172 -0.388,-0.1679 -0.696,-0.5082 -0.827,-0.9101 l -2.41,0.8039 c 0.143,0.6961 0.51,1.3429 1.035,1.82109 0.526,0.47811 1.205,0.78321 1.911,0.85821 0.709,0.075 1.435,-0.0801 2.068,-0.4071 0.633,-0.32811 1.172,-0.825 1.578,-1.41009 0.814,-1.16991 1.084,-2.65311 0.996,-4.07581 -0.094,-1.5293 -0.579,-3.0273 -1.359,-4.34529 -0.782,-1.31801 -1.855,-2.457 -3.098,-3.35391 -2.483,-1.7942 -5.603,-2.5899 -8.668,-2.5692 -2.69,0.0184 -5.383,0.6461 -7.782,1.8633 -2.401,1.218 -4.504,3.027 -6.028,5.2457 -1.525,2.2184 -2.461,4.8442 -2.639,7.53011 -0.178,2.68588 0.412,5.42418 1.719,7.77808 1.509,2.72001 3.949,4.8782 6.748,6.2371 2.799,1.359 5.943,1.9411 9.054,1.8879 2.245,-0.039 4.502,-0.407 6.563,-1.2949 1.303,-0.5609 2.535,-1.3441 3.433,-2.441 0.898,-1.0981 1.433,-2.53588 1.254,-3.943 -0.161,-1.2801 -0.901,-2.4453 -1.892,-3.2711 -0.99,-0.8261 -2.219,-1.332 -3.477,-1.6172 -1.178,-0.2679 -2.418,-0.3488 -3.592,-0.0597 -1.173,0.289 -2.275,0.9758 -2.915,2.0008 -0.685,1.1023 -0.771,2.5519 -0.222,3.7281 l -4.732,9.8e-4 0,0 z" /><path
       inkscape:connector-curvature="0"
       id="path7309-4-0-8"
       style="fill:#ffffff;fill-opacity:1;fill-rule:nonzero;stroke:none"
       d="m 299.55836,57.991279 c -0.711,0.082 -1.43201,0.082 -2.14301,0 -0.57499,-0.066 -1.14399,-0.186 -1.69599,-0.3571 0.486,0.7301 1.146,1.3454 1.91,1.7762 0.253,0.1442 0.52399,0.2692 0.813,0.2981 0.145,0.014 0.29299,0.003 0.432,-0.0411 0.138,-0.0449 0.267,-0.123 0.363,-0.2308 0.108,-0.1223 0.172,-0.2774 0.21799,-0.432 0.045,-0.1571 0.074,-0.3161 0.123,-0.4723 0.065,-0.2059 0.16601,-0.4 0.29501,-0.5719 l -0.315,0.0309 0,0" /><path
       id="path4661-1-4"
       d="m 300.33341,62.809779 c -0.17328,9.8e-4 -0.34727,-0.004 -0.52002,-0.0161 -1.043,-0.0738 -2.06918,-0.3829 -2.97218,-0.9126 -0.9,-0.5301 -1.67158,-1.28235 -2.20458,-2.18115 -0.174,-0.29531 -0.32577,-0.6091 -0.40576,-0.9419 -0.078,-0.33399 -0.0836,-0.68934 0.0264,-1.01514 0.159,-0.46789 0.54948,-0.83631 1.00048,-1.0371 0.452,-0.20121 0.95913,-0.24764 1.45313,-0.21094 0.985,0.073 1.92657,0.46438 2.91357,0.52148 1.26201,0.0718 2.55159,-0.4467 3.39258,-1.3916 0.843,-0.9442 1.20765,-2.29774 0.93165,-3.53174 -0.27701,-1.2371 -1.16358,-2.2907 -2.26758,-2.9165 -1.10201,-0.6261 -2.39898,-0.8539 -3.66798,-0.8086 -0.855,0.0297 -1.72251,0.18577 -2.47851,0.58887 -0.75701,0.4027 -1.39505,1.0785 -1.62305,1.9043 -0.111,0.3961 -0.12724,0.81907 -0.28125,1.20117 -0.077,0.191 -0.19063,0.37165 -0.34863,0.50245 -0.159,0.13089 -0.36483,0.20962 -0.56983,0.19042 -0.13899,-0.014 -0.27086,-0.071 -0.38085,-0.15381 -0.113,-0.0832 -0.20333,-0.19108 -0.27833,-0.30907 -0.14599,-0.23511 -0.22533,-0.50695 -0.31933,-0.76905 -0.55601,-1.5512 -1.75965,-2.87659 -3.28564,-3.49219 -0.76601,-0.3082 -1.60185,-0.44051 -2.42285,-0.37061 -0.819,0.0711 -1.62207,0.34538 -2.31006,0.80127 -1.01001,0.6711 -1.74604,1.72996 -2.06104,2.90186 -0.316,1.1711 -0.22049,2.44216 0.22852,3.56836 0.545,1.364 1.60378,2.51117 2.90478,3.18897 0.887,0.46329 1.898,0.71338 2.896,0.62548 0.996,-0.0878 1.97493,-0.53392 2.62793,-1.29052 0.274,-0.31521 0.48948,-0.68106 0.79248,-0.96827 0.151,-0.14369 0.32448,-0.26777 0.52149,-0.34277 0.19299,-0.075 0.41176,-0.0986 0.61375,-0.0454 0.23901,0.0629 0.44384,0.23241 0.56984,0.44532 0.12699,0.2133 0.17512,0.46901 0.16113,0.71631 -0.029,0.50079 -0.29798,0.94856 -0.60498,1.33886 -0.323,0.409 -0.69797,0.77803 -1.10597,1.10302 -0.86699,0.69371 -1.90052,1.19271 -2.99852,1.35792 -0.951,0.14379 -1.93419,0.0316 -2.84619,-0.2754 -0.912,-0.3078 -1.75377,-0.80778 -2.48877,-1.42968 -1.12901,-0.9558 -2.00729,-2.19346 -2.61329,-3.54346 -0.605,-1.35 -0.94359,-2.81223 -1.07958,-4.28613 -0.207,-2.264 0.0793,-4.61535 1.13232,-6.63135 0.525,-1.00819 1.2387,-1.9229 2.1167,-2.6455 0.879,-0.7231 1.92269,-1.24998 3.03369,-1.48828 1.552,-0.332 3.22294,-0.0804 4.60693,0.6958 1.383,0.7762 2.472,2.06863 3,3.56543 0.357,-1.1539 1.05586,-2.2009 1.98486,-2.9751 0.93,-0.7726 2.08665,-1.27138 3.28564,-1.41358 1.09001,-0.12889 2.20845,0.0321 3.23145,0.43213 1.02,0.40001 1.94403,1.0361 2.70704,1.8252 1.524,1.5777 2.37345,3.73517 2.58544,5.91796 0.263,2.7192 -0.44601,5.54848 -2.083,7.73438 -0.404,0.53711 -0.85892,1.03442 -1.35791,1.48242 0.36099,0.4778 0.56429,1.07193 0.57129,1.66992 0.008,0.59811 -0.18081,1.19748 -0.52881,1.68457 -0.40101,0.5621 -1.00521,0.96233 -1.6582,1.18652 -0.48975,0.16733 -1.00653,0.23887 -1.52637,0.24317 z m -0.66944,-1.89404 c 0.0725,-0.007 0.14438,-0.0205 0.21387,-0.0425 0.138,-0.0441 0.26628,-0.12245 0.36329,-0.23145 0.10599,-0.1222 0.17179,-0.27623 0.21679,-0.43212 0.046,-0.15621 0.0755,-0.31512 0.1245,-0.47022 0.064,-0.2058 0.16445,-0.39975 0.29444,-0.57276 l -0.31494,0.0308 c -0.71199,0.082 -1.43207,0.082 -2.14307,0 -0.57499,-0.066 -1.14574,-0.18486 -1.69774,-0.35596 0.48799,0.73 1.14861,1.34219 1.91161,1.77539 0.25301,0.143 0.524,0.26926 0.81299,0.29736 0.0725,0.007 0.14577,0.008 0.21826,9.8e-4 z"
       style="fill:#100f0d;fill-opacity:1;fill-rule:nonzero;stroke:none"
       inkscape:connector-curvature="0" /><path
       style="fill:#100f0d;fill-opacity:1;fill-rule:nonzero;stroke:none"
       d="m 146.04689,48.191779 c -0.7657,0.0789 -1.51125,0.42043 -2.02295,0.99463 -0.4844,0.543 -0.73583,1.25259 -0.91553,1.95849 -0.0821,0.3231 -0.15345,0.6574 -0.33545,0.9375 -0.0918,0.1399 -0.20879,0.26317 -0.35449,0.34717 -0.1433,0.0839 -0.31224,0.12581 -0.47754,0.104 -0.1883,-0.0258 -0.35947,-0.13515 -0.48047,-0.28125 -0.1219,-0.1461 -0.19826,-0.32602 -0.24317,-0.51123 -0.0899,-0.3699 -0.0613,-0.75812 -0.1289,-1.13232 -0.0899,-0.511 -0.35392,-0.98074 -0.70752,-1.36084 -0.3515,-0.3808 -1.15648,-0.868021 -1.61868,-1.104011 -7.16557,-6.487125 19.46324,-1.076209 7.2847,0.04786 z"
       id="path7253-9-0-8-7"
       inkscape:connector-curvature="0"
       sodipodi:nodetypes="cccccccccscc" /></g></svg>