<?xml version="1.0" encoding="UTF-8" standalone="no"?>
<!-- Created with Inkscape (http://www.inkscape.org/) -->

<svg
   xmlns:dc="http://purl.org/dc/elements/1.1/"
   xmlns:cc="http://creativecommons.org/ns#"
   xmlns:rdf="http://www.w3.org/1999/02/22-rdf-syntax-ns#"
   xmlns:svg="http://www.w3.org/2000/svg"
   xmlns="http://www.w3.org/2000/svg"
   xmlns:xlink="http://www.w3.org/1999/xlink"
   xmlns:sodipodi="http://sodipodi.sourceforge.net/DTD/sodipodi-0.dtd"
   xmlns:inkscape="http://www.inkscape.org/namespaces/inkscape"
   id="svg7233"
   version="1.1"
   inkscape:version="0.91+devel+osxmenu r12848"
   xml:space="preserve"
   width="444.82666"
   height="343.73334"
   viewBox="0 0 444.82666 343.73334"
   sodipodi:docname="royal_logo_svg.svg"><metadata
     id="metadata7239"><rdf:RDF><cc:Work
         rdf:about=""><dc:format>image/svg+xml</dc:format><dc:type
           rdf:resource="http://purl.org/dc/dcmitype/StillImage" /><dc:title /></cc:Work></rdf:RDF></metadata><defs
     id="defs7237" /><sodipodi:namedview
     pagecolor="#ffffff"
     bordercolor="#666666"
     borderopacity="1"
     objecttolerance="10"
     gridtolerance="10"
     guidetolerance="10"
     inkscape:pageopacity="0"
     inkscape:pageshadow="2"
     inkscape:window-width="1680"
     inkscape:window-height="1001"
     id="namedview7235"
     showgrid="false"
     inkscape:zoom="10.98526"
     inkscape:cx="297.76622"
     inkscape:cy="229.53186"
     inkscape:window-x="0"
     inkscape:window-y="23"
     inkscape:window-maximized="0"
     inkscape:current-layer="g7241"
     showguides="false"
     inkscape:guide-bbox="true"><sodipodi:guide
       orientation="0,1"
       position="368.85792,210.46385"
       id="guide4537" /><sodipodi:guide
       orientation="0,1"
       position="110.6015,229.07208"
       id="guide4540" /><sodipodi:guide
       orientation="0,1"
       position="110.52104,231.61464"
       id="guide4542" /></sodipodi:namedview><g
     id="g7241"
     inkscape:groupmode="layer"
     inkscape:label="ink_ext_XXXXXX"
     transform="matrix(1.3333333,0,0,-1.3333333,0,343.73333)"><path
       inkscape:connector-curvature="0"
       id="path7245"
       style="fill:#100f0d;fill-opacity:1;fill-rule:nonzero;stroke:none"
       d="m 43.808556,177.05697 c 2.6375,-0.4281 5.0664,-2.005 6.5305,-4.239 1.4644,-2.234 1.941,-5.0918 1.282,-7.6797 -0.7351,-2.8852 -2.8371,-5.3422 -5.4695,-6.734 -2.6328,-1.3922 -5.7473,-1.757 -8.684,-1.257 -2.1687,0.3687 -4.2867,1.2148 -5.9598,2.6429 -1.673,1.4278 -2.8691,3.4688 -3.05738,5.661 -0.1957,2.2711 0.69219,4.5437 2.08985,6.3469 1.39653,1.8031 3.26913,3.18 5.22543,4.3511 3.2961,1.9731 6.8878,3.4219 10.1406,5.4629 0.9637,0.6039 1.918,1.2828 2.5449,2.232 0.3418,0.5192 0.5754,1.102 0.9102,1.625 0.1671,0.2622 0.3593,0.509 0.5957,0.7122 0.2343,0.2027 0.5129,0.3609 0.8144,0.4308 0.3504,0.0809 0.7254,0.0391 1.0559,-0.1012 0.3308,-0.1398 0.6179,-0.3757 0.8328,-0.6636 0.4308,-0.575 0.5613,-1.3352 0.4785,-2.0481 -0.1301,-1.1019 -0.7383,-2.107 -1.5332,-2.8832 -0.793,-0.775 -1.7645,-1.3449 -2.7527,-1.8488 -1.6145,-0.825 -3.3059,-1.4981 -5.0442,-2.0102" /><path
       inkscape:connector-curvature="0"
       id="path7247"
       style="fill:#ffffff;fill-opacity:1;fill-rule:nonzero;stroke:none"
       d="m 38.540256,174.28907 c -2.1125,-0.7852 -4.2207,-1.8399 -5.6078,-3.6168 -0.6922,-0.8883 -1.1856,-1.9481 -1.3219,-3.066 -0.1391,-1.118 0.0945,-2.2942 0.7254,-3.2282 0.5351,-0.7929 1.3386,-1.3879 2.2297,-1.7371 0.8906,-0.35 1.8628,-0.4597 2.8171,-0.3949 1.9082,0.132 3.6985,0.9461 5.3997,1.8199 1.5886,0.8153 3.1824,1.725 4.3281,3.0961 0.5711,0.686 1.0215,1.482 1.2476,2.3469 0.2258,0.8652 0.218,1.798 -0.0847,2.6383 -0.3145,0.8718 -0.9407,1.6179 -1.7078,2.1379 -0.7688,0.5199 -1.6743,0.8199 -2.595,0.9328 -1.841,0.2242 -3.6914,-0.2828 -5.4304,-0.9289 l 0,0" /><path
       inkscape:connector-curvature="0"
       id="path7249"
       style="fill:#100f0d;fill-opacity:1;fill-rule:nonzero;stroke:none"
       d="m 53.048856,170.16017 c -0.1243,1.5449 0.341,3.1418 1.3234,4.3418 0.982,1.1992 2.4832,1.9742 4.034,2.0203 1.0871,0.0316 2.1719,-0.2864 3.1035,-0.8453 0.9324,-0.559 1.7129,-1.3539 2.3113,-2.2618 1.1946,-1.816 1.643,-4.03 1.75,-6.2019 0.1098,-2.2371 -0.1375,-4.559 -1.2195,-6.5211 -0.541,-0.9801 -1.2891,-1.8551 -2.2148,-2.4859 -0.925,-0.6313 -2.0313,-1.0122 -3.1504,-1.0153 -1.4278,-0.005 -2.8282,0.609 -3.8621,1.5942 -1.0344,0.9847 -1.7075,2.3179 -1.9856,3.7187 -0.073,0.3723 -0.1211,0.7613 -0.0227,1.1274 0.0493,0.1828 0.1348,0.3578 0.2598,0.5 0.1262,0.1418 0.2934,0.25 0.4777,0.2918 0.1653,0.0378 0.3411,0.023 0.4993,-0.034 0.159,-0.0571 0.3035,-0.1539 0.4215,-0.275 0.2343,-0.2418 0.3644,-0.57 0.4296,-0.902 0.0637,-0.332 0.0696,-0.6711 0.0871,-1.009 0.0188,-0.3371 0.0516,-0.6789 0.1708,-0.9949 0.1332,-0.3539 0.371,-0.6652 0.671,-0.8949 0.3008,-0.2293 0.6602,-0.3781 1.0332,-0.4383 0.7461,-0.1187 1.5262,0.1223 2.1309,0.5762 0.6047,0.4539 1.041,1.1051 1.3184,1.809 0.2761,0.7039 0.4004,1.4578 0.4582,2.2109 0.0664,0.8898 0.0418,1.784 -0.0102,2.6738 -0.0496,0.8762 -0.125,1.7543 -0.3113,2.6114 -0.1453,0.6687 -0.3645,1.3277 -0.7141,1.9168 -0.3511,0.5878 -0.8406,1.1039 -1.448,1.4179 -0.6074,0.3153 -1.3399,0.4153 -1.9903,0.2039 -0.3253,-0.1047 -0.6281,-0.2867 -0.8664,-0.5316 -0.239,-0.2453 -0.4148,-0.5531 -0.4937,-0.8863 -0.0735,-0.311 -0.0625,-0.636 -0.0344,-0.9539 0.0274,-0.3188 0.0723,-0.6372 0.0645,-0.9571 -0.0059,-0.3199 -0.0664,-0.6461 -0.2356,-0.9179 -0.084,-0.136 -0.1949,-0.2559 -0.3277,-0.3438 -0.1328,-0.0891 -0.2895,-0.1453 -0.4485,-0.1531 -0.1867,-0.0102 -0.3718,0.0461 -0.53,0.1449 -0.1567,0.098 -0.2864,0.2379 -0.3852,0.3961 -0.198,0.318 -0.2637,0.6969 -0.2937,1.068 l 0,0" /><path
       style="fill:#100f0d;fill-opacity:1;fill-rule:nonzero;stroke:none"
       d="m 123.36523,94.1875 c -0.38826,0.008 -0.77865,0.06186 -1.15625,0.150391 -0.7568,0.178666 -1.47464,0.492935 -2.1621,0.855468 -1.59228,0.838534 -3.05042,1.951411 -4.20508,3.330079 -1.15627,1.378533 -2.00271,3.029502 -2.35938,4.792972 -0.2048,1.00933 -0.22534,2.29933 -0.10547,3.32226 -2.25557,1.19796 -3.33854,3.17409 -3.35351,5.03711 0.01,1.09919 0.58883,2.14997 1.05664,2.99805 0.47643,0.11685 1.79787,0.1312 2.74051,0.11066 1.42616,-0.0311 4.12706,-0.36149 5.7673,0.22138 0.68853,0.1828 1.35549,0.48182 1.91016,0.92969 0.55626,0.4464 0.99602,1.04767 1.19922,1.73047 0.21773,0.7344 0.15171,1.53995 -0.12696,2.25195 -0.27866,0.712 -0.7613,1.33434 -1.3457,1.83008 -1.16467,0.99226 -2.67837,1.46716 -4.16797,1.8125 -4.78547,1.112 -9.78555,1.14805 -14.64648,0.41992 -1.62094,-0.24427 -3.285152,-0.59482 -4.613285,-1.55469 -0.664133,-0.48013 -1.230178,-1.11102 -1.570313,-1.85742 -0.338533,-0.7452 -0.43831,-1.60849 -0.214843,-2.39648 0.214133,-0.74695 0.710211,-1.39271 1.330078,-1.85938 0.6188,-0.46667 1.356614,-0.75983 2.113281,-0.92383 1.515602,-0.3308 3.726812,-0.16406 5.277342,-0.16406 1.69792,-9.3e-4 3.09036,-0.32791 3.78516,-0.50391 0.0678,-0.18874 0.59634,-1.68834 0.58594,-3.03125 -0.0186,-1.46033 -0.88113,-3.33017 -2.37891,-4.35156 -1.41224,-0.96305 -3.03547,-1.44446 -4.75947,-1.58046 -1.49466,-0.1188 -3.011651,-0.0694 -4.345918,0.61868 -1.521073,0.8317 -2.41315,2.12493 -2.406331,3.71373 0.0075,1.74737 1.623698,2.62751 2.937336,2.62857 0.522536,4.2e-4 1.405456,-0.28664 1.818523,-0.60903 0.66827,-0.53068 1.35713,-1.03608 2.05859,-1.51368 0.35054,-0.2376 0.70793,-0.4683 1.0918,-0.64843 0.3844,-0.17974 0.79919,-0.30672 1.22266,-0.32032 0.61293,-0.0197 1.39174,0.0715 1.84961,0.48243 0.50272,0.48898 0.65804,1.56968 0.49855,2.45465 -0.9255,0.46585 -2.68906,0.2604 -4.67824,0.20159 -1.533,-0.0453 -3.092765,0.19011 -4.529298,0.73438 -1.428133,0.54267 -2.678511,1.52103 -3.589844,2.74609 -0.911467,1.22547 -1.488891,2.68829 -1.71289,4.19922 -0.454135,3.05987 0.573559,6.26638 2.568359,8.62891 1.868266,2.20933 4.50781,3.6873 7.296873,4.45703 2.78907,0.76933 5.72782,0.86543 8.61328,0.63477 3.79574,-0.30267 7.64188,-1.20675 10.77735,-3.36914 1.56613,-1.08135 2.9339,-2.47187 3.89843,-4.11133 0.96507,-1.64014 1.5202,-3.53586 1.48633,-5.43946 -0.0324,-1.7948 -0.59281,-3.57876 -1.59375,-5.06836 -1.00106,-1.48906 -2.43789,-2.68324 -4.08789,-3.39257 0.82294,-0.29747 1.53425,-0.8885 1.97852,-1.64063 0.58333,-0.99067 0.68331,-2.25177 0.27343,-3.32617 -1.29773,-2.70403 -4.64754,-3.3838 -6.86914,-2.39844 0.69733,-2.3256 2.59345,-4.12312 4.91211,-4.8418 1.02347,-0.31613 2.10905,-0.40981 3.12305,-0.757808 0.5084,-0.173333 0.99776,-0.413059 1.41016,-0.755859 0.41413,-0.341067 0.74577,-0.790021 0.89843,-1.304687 0.10774,-0.373467 0.12108,-0.771144 0.043,-1.152344 -0.0771,-0.381867 -0.24345,-0.743174 -0.47265,-1.056641 -0.45734,-0.628133 -1.16277,-1.052234 -1.91797,-1.240234 -0.376,-0.094 -0.76408,-0.131047 -1.15235,-0.123047 z m -5.58789,14.05859 c 1.73102,-0.0135 2.52064,0.78321 2.51563,1.67579 -0.002,0.28039 -0.0763,0.57838 -0.25586,0.80078 -0.31069,0.38616 -0.71762,0.51175 -1.13086,0.50976 -0.70002,-0.004 -1.45052,-0.31614 -1.90625,-0.88281 -0.3916,-0.48653 -0.58924,-1.18175 -0.53711,-1.80469 0.24731,-0.14608 0.88465,-0.29549 1.31445,-0.29883 z m -3.75976,1.25196 c 0.0991,0.548 0.26755,1.0818 0.50195,1.58593 0.20053,0.43067 0.44762,0.8392 0.73828,1.2168 -0.73469,0.11578 -1.87591,0.24904 -2.7201,-0.0246 -0.49118,-0.5674 -0.27649,-1.2472 -0.0553,-1.54373 0.402,-0.52813 0.93422,-0.95464 1.53516,-1.23437 z"
       transform="matrix(0.75000002,0,0,-0.75000002,0,257.8)"
       id="path7251"
       inkscape:connector-curvature="0"
       sodipodi:nodetypes="scccccccscccccccccccccccsccssccccccccccccccccccccccccccccsscccccscccccccc" /><path
       style="fill:#100f0d;fill-opacity:1;fill-rule:nonzero;stroke:none"
       d="m 151.54492,98.972656 c -2.4124,2.316134 -4.11285,5.363484 -4.81445,8.632814 l -4.48828,3.42969 c -0.0609,-1.4536 -0.69247,-2.87515 -1.73047,-3.89649 -0.94627,-0.93173 -2.23104,-1.52464 -3.55664,-1.58984 -1.1572,-0.0572 -2.31963,0.28479 -3.29883,0.90039 -0.98014,0.61613 -1.78474,1.49609 -2.36914,2.49609 -0.70827,1.2052 -1.1061,2.59082 -1.13477,3.98828 -0.0172,0.77867 0.08,1.56621 0.35352,2.29688 0.2724,0.7292 0.72597,1.40118 1.3457,1.87305 0.61974,0.4724 1.41061,0.73592 2.18555,0.66406 0.38813,-0.036 0.76858,-0.15618 1.10351,-0.35352 0.33696,-0.19746 0.626,-0.47686 0.82813,-0.80859 0.36973,-0.60267 0.44078,-1.3463 0.37305,-2.04883 -0.0677,-0.70267 -0.26457,-1.38492 -0.39844,-2.07812 -0.13387,-0.6932 -0.20416,-1.41788 -0.0156,-2.09961 0.0928,-0.3396 0.25074,-0.6644 0.48047,-0.9336 0.2292,-0.26773 0.52866,-0.47706 0.86719,-0.57812 0.3396,-0.10134 0.71118,-0.0909 1.05078,0.0117 0.34014,0.10253 0.64976,0.29409 0.91016,0.53515 0.53386,0.49587 0.85549,1.21434 0.87109,1.94141 0.0156,0.72653 -0.27511,1.45581 -0.78711,1.97461 -1.11826,1.41613 -2.18752,2.87115 -3.20312,4.36328 -1.90107,2.79067 -3.61462,5.70494 -5.46875,8.52734 -0.25427,0.38707 -0.51081,0.77261 -0.70508,1.19141 -0.19533,0.41973 -0.32717,0.87536 -0.3125,1.33789 0.0156,0.46253 0.1865,0.93191 0.52344,1.24805 0.16986,0.1584 0.37556,0.27629 0.60156,0.33203 0.22453,0.0547 0.46444,0.0469 0.68164,-0.0332 0.21253,-0.0771 0.39682,-0.22135 0.55469,-0.38282 0.1572,-0.1624 0.29132,-0.34442 0.43359,-0.52148 0.14,-0.1776 0.29004,-0.3494 0.4707,-0.48633 0.17974,-0.1376 0.39159,-0.23471 0.61719,-0.24805 0.2416,-0.0147 0.48205,0.0706 0.67578,0.21485 0.19427,0.14213 0.34215,0.33926 0.45508,0.55273 0.2204,0.42813 0.29488,0.91513 0.43555,1.375 0.34893,1.12133 1.11609,2.09815 2.10156,2.73828 0.98533,0.64014 2.17419,0.94669 3.34766,0.91016 1.43746,-0.0437 2.85439,-0.60278 3.93359,-1.55078 1.08133,-0.94947 1.81781,-2.27882 2.04688,-3.69922 0.20053,1.21613 0.76569,2.3693 1.60156,3.27344 0.836,0.9052 1.94334,1.55729 3.13867,1.85156 1.56093,0.38547 3.24024,0.15797 4.70117,-0.50977 1.46094,-0.66813 2.70782,-1.75649 3.67969,-3.03515 2.0768,-2.73494 2.8834,-6.41827 2.05273,-9.75 -0.7552,-3.02667 -2.8193,-5.67365 -5.49023,-7.28711 -2.67027,-1.6136 -5.90893,-2.21222 -9.00586,-1.82422 -0.91147,0.11347 -1.81083,0.30798 -2.6875,0.58398 2.07667,-1.48533 4.53964,-2.42641 7.07617,-2.70507 4.21347,-0.46416 8.49695,0.90661 12.02735,3.25195 2.268,1.5068 4.28408,3.42765 5.71875,5.74219 1.43333,2.3136 2.26406,5.03062 2.16406,7.75195 -0.0975,2.17976 -0.62011,4.54421 -3.63672,4.72656 -1.56183,0.0244 -2.47504,-1.50603 -2.61523,-1.95703 l -2.81446,0.8125 c 0.68566,2.34339 2.55766,4.37227 5.62305,4.38867 1.90667,-0.024 3.85929,-1.00473 5.14062,-2.41406 1.28267,-1.40933 2.08175,-3.20022 2.59375,-5.03516 1,-3.57706 0.96625,-7.43609 -0.0937,-10.99609 -1.06,-3.55987 -3.55299,-7.05799 -6.34765,-9.50586 2.06774,-1.18817 2.72575,-2.95547 2.73242,-4.68164 0.005,-1.29685 -0.40429,-2.622657 -1.12695,-3.722657 -0.72134,-1.1 -1.73925,-1.995573 -2.89258,-2.628906 -1.44417,-0.790083 -3.47778,-1.100691 -5.67337,-1.111374 -4.17135,0.01555 -8.29421,2.174601 -10.83062,4.554753 z m 13.02042,0.08569 c -1.46443,0.795555 -2.06191,2.409284 -2.08954,3.562704 -0.0323,1.34691 0.53796,2.02438 0.53796,2.02438 0,0 -1.38518,-0.22333 -1.98251,-0.29 -3.6136,-0.39747 -8.23463,0.23682 -11.18151,1.61052 0.25271,-0.96113 2.04749,-3.22461 3.59966,-4.23725 2.75656,-1.798374 6.18701,-2.751111 9.46294,-2.819159 0.63539,-0.0132 1.39259,0.08229 1.653,0.148805 z m 3.01157,0.840986 c 1.55258,0.153028 2.26432,1.341288 2.25461,2.584608 -0.013,1.66524 -1.33327,2.8557 -2.71178,2.82894 -1.58676,-0.0116 -2.51534,-1.42308 -2.46811,-2.67845 0.0598,-1.58922 1.17015,-2.908086 2.92528,-2.735098 z m -19.13355,13.899498 c 0.26328,0.009 0.52701,0.0282 0.78906,0.0586 2.09627,0.24267 4.1195,1.19191 5.58203,2.71485 1.02707,1.0708 1.7878,2.47121 1.8086,3.95507 0.0156,1.02547 -0.32429,2.04406 -0.91016,2.88672 -0.58493,0.8412 -1.40923,1.50779 -2.33203,1.95313 -0.92347,0.44533 -1.96429,0.67711 -2.98242,0.57031 -1.02094,-0.1052 -2.015,-0.56057 -2.69727,-1.32617 -0.64586,-0.724 -0.9811,-1.67013 -1.2207,-2.61133 -0.10947,-0.4308 -0.2046,-0.87653 -0.44727,-1.25 -0.1224,-0.18653 -0.27839,-0.35089 -0.47265,-0.46289 -0.19107,-0.11187 -0.41632,-0.16774 -0.63672,-0.13867 -0.25107,0.0344 -0.47929,0.1802 -0.64063,0.375 -0.16253,0.1948 -0.26435,0.4347 -0.32422,0.68164 -0.11986,0.4932 -0.0817,1.01083 -0.17187,1.50976 -0.11987,0.68134 -0.47189,1.30766 -0.94336,1.81446 -0.46867,0.50773 -1.04975,0.90213 -1.66602,1.21679 -2.25,1.14787 -5.0163,1.22672 -7.32617,0.20899 0.9896,-1.84374 2.10771,-3.61864 3.34571,-5.30664 1.61813,-2.20667 3.49379,-4.31167 5.91406,-5.5918 1.6324,-0.86322 3.48907,-1.31996 5.33203,-1.25781 z"
       transform="matrix(0.75000002,0,0,-0.75000002,0,257.8)"
       id="path7253"
       inkscape:connector-curvature="0"
       sodipodi:nodetypes="cccccccccccccsscccccccccccccccccccccccccccccccccccccccccccscccccccscccascsscssccccccccccccccccccsccc" /><path
       inkscape:connector-curvature="0"
       id="path7255"
       style="fill:#100f0d;fill-opacity:1;fill-rule:nonzero;stroke:none"
       d="m 147.48646,175.29727 c -0.323,0.409 -0.697,0.7789 -1.105,1.1039 -0.867,0.6937 -1.901,1.1918 -2.999,1.357 -0.951,0.1438 -1.934,0.0328 -2.846,-0.2742 -0.912,-0.3078 -1.754,-0.809 -2.489,-1.4309 -1.129,-0.9558 -2.007,-2.1929 -2.613,-3.5429 -0.605,-1.35 -0.944,-2.8121 -1.08,-4.286 -0.207,-2.264 0.08,-4.616 1.133,-6.632 0.525,-1.0082 1.238,-1.9223 2.116,-2.6449 0.879,-0.7231 1.922,-1.25 3.033,-1.4883 1.552,-0.332 3.224,-0.0801 4.608,0.6961 1.383,0.7762 2.472,2.068 3,3.5648 0.357,-1.1539 1.056,-2.2008 1.985,-2.975 0.93,-0.7726 2.086,-1.2707 3.285,-1.4129 1.09,-0.1289 2.208,0.0313 3.231,0.4313 1.02,0.4 1.945,1.0359 2.708,1.825 1.524,1.5777 2.373,3.7359 2.585,5.9187 0.263,2.7192 -0.446,5.5481 -2.083,7.734 -0.404,0.5371 -0.859,1.0352 -1.358,1.4832 0.361,0.4778 0.564,1.0719 0.571,1.6699 0.008,0.5981 -0.18,1.1969 -0.528,1.684 -0.401,0.5621 -1.005,0.9629 -1.658,1.1871 -0.653,0.2231 -1.356,0.275 -2.047,0.2258 -1.043,-0.0738 -2.069,-0.382 -2.972,-0.9117 -0.9,-0.5301 -1.672,-1.2832 -2.205,-2.182 -0.174,-0.2953 -0.325,-0.6082 -0.405,-0.941 -0.078,-0.334 -0.084,-0.6903 0.026,-1.0161 0.159,-0.4679 0.549,-0.8351 1,-1.0359 0.452,-0.2012 0.959,-0.248 1.453,-0.2113 0.985,0.073 1.927,0.464 2.914,0.5211 1.262,0.0718 2.552,-0.4461 3.393,-1.391 0.843,-0.9442 1.208,-2.2989 0.932,-3.5329 -0.277,-1.2371 -1.165,-2.2902 -2.269,-2.916 -1.102,-0.6261 -2.398,-0.8543 -3.667,-0.809 -0.855,0.0297 -1.723,0.186 -2.479,0.5891 -0.757,0.4027 -1.395,1.0789 -1.623,1.9047 -0.111,0.3961 -0.127,0.8191 -0.281,1.2012 -0.077,0.191 -0.19,0.3711 -0.348,0.5019 -0.159,0.1309 -0.365,0.2102 -0.57,0.191 -0.139,-0.014 -0.272,-0.0711 -0.382,-0.1539 -0.113,-0.0832 -0.203,-0.191 -0.278,-0.309 -0.146,-0.2351 -0.225,-0.507 -0.319,-0.7691 -0.556,-1.5512 -1.76,-2.8762 -3.286,-3.4918 -0.766,-0.3082 -1.601,-0.4402 -2.422,-0.3703 -0.819,0.0711 -1.623,0.3441 -2.311,0.8 -1.01,0.6711 -1.746,1.7312 -2.061,2.9031 -0.316,1.1711 -0.22,2.4418 0.229,3.568 0.545,1.364 1.604,2.5101 2.905,3.1879 0.887,0.4633 1.897,0.714 2.895,0.6261 0.996,-0.0878 1.976,-0.5332 2.629,-1.2898 0.274,-0.3152 0.489,-0.6812 0.792,-0.9684 0.151,-0.1437 0.324,-0.2679 0.521,-0.3429 0.193,-0.075 0.412,-0.0989 0.614,-0.0457 0.239,0.0629 0.444,0.2328 0.57,0.4457 0.127,0.2133 0.176,0.4679 0.162,0.7152 -0.029,0.5008 -0.299,0.9488 -0.606,1.3391" /><path
       inkscape:connector-curvature="0"
       id="path7291"
       style="fill:#ffffff;fill-opacity:1;fill-rule:nonzero;stroke:none"
       d="m 155.68346,175.89607 c -0.712,0.082 -1.432,0.082 -2.143,0 -0.575,-0.066 -1.145,-0.1859 -1.697,-0.357 0.488,0.73 1.148,1.3429 1.911,1.7761 0.253,0.143 0.524,0.2688 0.813,0.2969 0.145,0.0141 0.293,0.003 0.432,-0.041 0.138,-0.0441 0.267,-0.1219 0.364,-0.2309 0.106,-0.1222 0.172,-0.2761 0.217,-0.432 0.046,-0.1562 0.075,-0.316 0.124,-0.4711 0.064,-0.2058 0.165,-0.4 0.295,-0.573 l -0.316,0.032 0,0" /><path
       sodipodi:nodetypes="cccscccssccccccccccccccccccccccccccsccccccaccsscc"
       inkscape:connector-curvature="0"
       id="path7293"
       d="m 194.22558,189.70436 c -4.63016,-0.0115 -9.68334,-1.42089 -9.84595,-4.91565 -0.0431,-2.28228 1.49247,-4.47603 4.64038,-4.7797 3.454,-0.414 6.52361,0.32861 9.57965,-0.62007 3.15541,-0.97953 6.43243,-3.10159 7.06347,-6.55518 0.37359,-2.33103 -0.64483,-4.51536 -2.55029,-6.13184 -2.47862,-1.92353 -4.79034,-2.93075 -8.96924,-3.38525 -3.17413,-0.28719 -8.68207,0.71507 -8.69678,3.89062 -0.0137,2.97141 3.38225,3.45049 5.45508,3.48048 1.5859,0.023 3.07937,-0.0727 4.03272,-0.22413 0.50988,1.19175 0.83732,3.08682 0.0937,4.50586 -0.33501,0.5852 -0.81849,1.07899 -1.3755,1.45898 -1.11199,0.7602 -2.48024,1.06132 -3.82323,1.16602 -1.16501,0.091 -2.38728,0.0369 -3.42627,-0.49951 -0.52101,-0.2679 -0.98425,-0.65598 -1.30225,-1.14697 -0.318,-0.4899 -0.48434,-1.085 -0.42334,-1.667 0.042,-0.40629 0.19745,-0.79973 0.43945,-1.12792 0.243,-0.32891 0.57469,-0.58981 0.95068,-0.75 0.37601,-0.1601 0.79425,-0.21727 1.19825,-0.16407 0.405,0.0519 0.79567,0.21609 1.11767,0.46729 0.525,0.4089 1.06133,0.803 1.61133,1.1792 0.272,0.189 0.54815,0.37342 0.84815,0.51562 0.299,0.1418 0.62554,0.23877 0.95654,0.23877 0.542,7.5e-4 1.07599,-0.26935 1.396,-0.70605 0.318,-0.4371 0.41502,-1.02942 0.24902,-1.54542 -0.857,0.0558 -1.71427,0.0743 -2.57227,0.0572 -1.51,-0.0309 -3.05243,-0.18224 -4.41943,-0.82324 -1.83,-0.8582 -3.22484,-2.60975 -3.61084,-4.59375 -0.204,-1.0461 -0.13412,-2.13716 0.15088,-3.16406 0.285,-1.027 0.78429,-1.98834 1.42529,-2.84034 1.909,-2.541 5.0125,-4.01774 8.16651,-4.41064 4.59199,-0.57111 9.44019,1.10801 12.59619,4.49121 1.578,1.6906 2.73687,3.77605 3.31787,6.01465 0.581,2.2403 0.58182,4.62972 -0.0132,6.86572 -0.5215,2.3352 -2.38932,4.41076 -3.90457,5.46005 1.04464,0.0837 2.22442,1.37505 2.22382,3.13144 -8.7e-4,2.54383 -2.36826,4.77491 -4.93156,5.82404 -2.51812,0.91038 -5.1701,1.25328 -7.64794,1.30371 z m -1.56006,-2.60449 c 1.2595,0.0195 2.51783,-0.0627 3.75732,-0.28418 1.62101,-0.2898 3.25173,-0.84673 4.44873,-1.97754 0.70326,-0.69651 0.98665,-1.39309 0.83643,-2.146 -0.10528,-0.52767 -0.44383,-1.00209 -1.11852,-1.16389 -1.10963,0.34209 -2.12229,0.51572 -3.44526,0.5888 -2.287,0.0774 -5.9934,-0.005 -7.70157,0.30525 -1.03988,0.1888 -2.22366,1.07724 -2.21204,2.0918 0.0186,1.62025 3.18653,2.54151 5.43488,2.58577 z"
       style="fill:#100f0d;fill-opacity:1;fill-rule:nonzero;stroke:none" /><path
       style="fill:#100f0d;fill-opacity:1;fill-rule:nonzero;stroke:none"
       d="M 298.54492 103.60156 C 295.88295 103.60446 291.58517 104.69219 291.5625 107.47656 C 291.54837 109.21526 293.50134 110.73595 295.73047 110.61328 C 297.69463 110.50524 298.4351 109.69429 298.85547 109.17969 C 299.40634 108.50535 299.55667 108.00085 300.14648 107.74414 C 300.92654 107.40463 301.9264 107.4292 302.69727 107.78906 C 303.44072 108.13613 304.29655 108.83032 304.31055 109.64844 C 304.32085 110.25246 303.98368 110.83177 303.34375 111.18164 C 301.71308 111.08804 299.50238 111.06868 297.87305 111.09375 C 294.56638 111.14322 291.14339 111.47257 288.27539 113.11523 C 286.52072 114.12043 285.03779 115.60065 284.06445 117.37305 C 283.09245 119.14331 282.6334 121.20031 282.80273 123.21484 C 282.99473 125.49511 283.98729 127.6855 285.50195 129.39844 C 287.01662 131.1131 289.03928 132.35548 291.22461 133.02734 C 294.39362 134.00102 297.91091 133.74737 300.92188 132.36523 C 300.84199 132.41501 300.762 132.46617 300.69336 132.53125 C 300.51869 132.69898 300.39027 132.9112 300.32227 133.14453 C 300.2516 133.37786 300.2454 133.62937 300.30273 133.86523 C 300.36007 134.10123 300.48239 134.32205 300.65039 134.49805 C 300.82372 134.67938 301.04587 134.81072 301.2832 134.88672 C 301.5232 134.96285 301.77996 134.98002 302.0293 134.94922 C 302.52663 134.88669 302.98632 134.6261 303.34766 134.2793 C 304.07166 133.58503 304.41036 132.59298 304.81836 131.67578 C 305.48369 130.17431 306.41999 128.76172 307.72266 127.76172 C 308.17332 127.41532 308.68085 127.1139 309.24219 127.00977 C 309.52352 126.95923 309.81642 126.95872 310.09375 127.02539 C 310.37108 127.09206 310.63389 127.22738 310.83789 127.42578 C 311.03922 127.62218 311.17781 127.8752 311.25781 128.14453 C 311.33515 128.41373 311.35213 128.69985 311.32812 128.97852 C 311.27746 129.53838 311.05922 130.06643 310.83789 130.58203 C 309.19922 134.39136 307.15473 138.01274 305.30273 141.72461 C 304.7654 142.80221 304.24461 143.88963 303.72461 144.97656 C 303.54461 145.3579 303.35873 145.74491 303.30273 146.16211 C 303.27473 146.37144 303.27932 146.58675 303.33398 146.79102 C 303.38732 146.99515 303.48934 147.18705 303.63867 147.33398 C 303.82267 147.51265 304.07017 147.61574 304.32617 147.63867 C 304.57951 147.66161 304.83707 147.60703 305.06641 147.49609 C 305.52507 147.27623 305.85837 146.85239 306.0957 146.40039 C 306.32904 145.94826 306.48226 145.45885 306.68359 144.99219 C 306.88759 144.52552 307.15202 144.06786 307.55469 143.75586 C 307.83469 143.54026 308.16958 143.40273 308.51758 143.3418 C 308.86691 143.28033 309.22303 143.29377 309.56836 143.35938 C 310.26303 143.48857 310.90043 143.822 311.50977 144.17773 C 312.48577 144.74707 313.41716 145.38555 314.42383 145.89648 C 315.43049 146.40702 316.52692 146.78844 317.65625 146.78711 C 319.27625 146.78458 320.87192 145.93726 321.78125 144.59766 C 322.51458 145.45499 323.50122 146.09048 324.58789 146.40234 C 325.67189 146.71434 326.84773 146.70123 327.92773 146.36523 C 328.9784 146.0371 329.92493 145.40719 330.68359 144.61133 C 331.44493 143.81386 332.01964 142.85496 332.43164 141.83203 C 333.25297 139.7867 333.40377 137.54109 333.39844 135.33789 C 333.3931 133.17016 333.23481 130.95183 332.38281 128.95703 C 331.95615 127.95956 331.35627 127.03072 330.57227 126.28125 C 329.78693 125.53178 328.81843 124.969 327.75977 124.73047 C 326.5651 124.46074 325.28021 124.61726 324.18555 125.16406 C 323.09355 125.71046 322.19993 126.64612 321.69727 127.76172 C 321.79327 126.56852 321.25073 125.34124 320.30273 124.60938 C 319.35473 123.8771 318.03044 123.66184 316.89844 124.05664 C 316.31044 124.26331 315.77628 124.62505 315.34961 125.08398 C 314.92694 125.54278 314.60944 126.09821 314.41211 126.69141 C 314.01878 127.87847 314.11497 129.19669 314.54297 130.37109 C 315.09364 131.88309 316.15035 133.14423 317.04102 134.48438 C 317.48635 135.15357 317.89445 135.85369 318.17578 136.60742 C 318.45578 137.36156 318.60682 138.17266 318.52148 138.97266 C 318.44015 139.75652 318.12677 140.51473 317.63477 141.13086 C 317.1441 141.74699 316.47323 142.21981 315.72656 142.47461 C 314.95323 141.86514 314.12581 141.3251 313.25781 140.86523 C 312.53781 140.48403 311.77098 140.15124 310.95898 140.07617 C 309.98965 139.98711 308.98985 140.28613 308.22852 140.89453 C 309.38985 138.11426 310.6829 135.38732 312.10156 132.72852 C 312.4949 131.99252 312.8964 131.25746 313.17773 130.47266 C 313.45907 129.68719 313.61423 128.84123 313.49023 128.01562 C 313.35823 127.13856 312.90185 126.31269 312.22852 125.73242 C 311.55785 125.15122 310.67316 124.81907 309.78516 124.81641 C 309.97316 124.56067 310.1362 124.28569 310.26953 123.99609 C 310.45486 123.58569 310.58415 123.13039 310.52148 122.68359 C 310.48948 122.46066 310.40934 122.24335 310.27734 122.06055 C 310.14534 121.87935 309.95685 121.73238 309.74219 121.66211 C 309.48485 121.57664 309.19047 121.6053 308.95312 121.74023 C 308.71846 121.87463 308.54047 122.11189 308.48047 122.37695 L 306.62695 125.32422 C 305.57629 126.90129 303.92336 128.06415 302.08203 128.52148 C 299.85403 129.07615 297.39773 128.5719 295.53906 127.22656 C 293.6764 125.88123 292.43706 123.7302 292.15039 121.45312 C 291.99172 120.19833 292.11576 118.89526 292.62109 117.73633 C 293.12643 116.57753 294.02902 115.5742 295.17969 115.05273 C 296.40635 114.497 297.80968 114.51313 299.15234 114.625 C 300.49368 114.737 301.84973 114.93618 303.17773 114.71484 C 304.20573 114.54458 305.19718 114.11573 305.97852 113.42773 C 306.75985 112.74027 307.3167 111.05604 307.35938 109.74609 C 307.38545 108.94569 307.3014 108.41967 306.66406 107.44727 C 306.02406 106.4754 305.1068 105.70874 304.10547 105.11914 C 302.75147 104.32254 301.02191 103.5989 298.54492 103.60156 z M 317.78516 126.49023 C 317.91616 126.47637 318.04907 126.48055 318.17773 126.50195 C 318.43907 126.54622 318.68448 126.65588 318.89648 126.81055 C 319.32315 127.12148 319.6011 127.6005 319.75977 128.10156 C 320.01043 128.8953 319.98111 129.7711 319.67578 130.54297 C 319.01445 130.70444 318.29218 130.58838 317.71484 130.22852 C 317.13484 129.86852 316.71183 129.27142 316.5625 128.60742 C 316.47717 128.22089 316.48243 127.80843 316.62109 127.4375 C 316.76109 127.06723 317.03834 126.7422 317.40234 126.58594 C 317.52434 126.53467 317.65416 126.5041 317.78516 126.49023 z M 325.71484 128.04883 C 326.11647 128.03361 326.52281 128.13241 326.88281 128.31641 C 327.35881 128.56067 327.75807 128.95092 328.05273 129.40039 C 328.6434 130.30039 328.82584 131.40102 328.95117 132.46875 C 329.22851 134.82075 329.28545 137.23521 328.68945 139.52734 C 328.48412 140.31641 328.19804 141.09577 327.7207 141.75977 C 327.24204 142.4239 326.56091 142.96204 325.76758 143.14844 C 325.27824 143.2635 324.75468 143.24096 324.27734 143.08203 C 323.79868 142.92483 323.36892 142.63143 323.04492 142.24609 C 323.13559 142.02476 323.21892 141.7988 323.29492 141.57227 C 324.18826 138.904 323.90706 135.86345 322.53906 133.40625 C 322.66706 132.62598 322.83559 131.85224 323.04492 131.08984 C 323.21826 130.45491 323.42587 129.82006 323.7832 129.26953 C 324.1432 128.71913 324.67641 128.25565 325.31641 128.10352 C 325.44707 128.07215 325.58097 128.0539 325.71484 128.04883 z "
       transform="matrix(0.75000002,0,0,-0.75000002,0,257.8)"
       id="path7295" /><path
       inkscape:connector-curvature="0"
       id="path7303"
       style="fill:#100f0d;fill-opacity:1;fill-rule:nonzero;stroke:none"
       d="m 263.71846,172.48127 c -0.106,0.3367 -0.038,0.725 0.179,1.0039 0.173,0.2211 0.427,0.3699 0.695,0.4449 0.271,0.075 0.554,0.0801 0.834,0.0789 l 9.127,-0.0109 c 0.155,-0.0719 0.281,-0.2032 0.347,-0.3598 0.065,-0.157 0.068,-0.3391 0.012,-0.4992 -0.048,-0.1301 -0.134,-0.245 -0.242,-0.3328 -0.105,-0.0891 -0.231,-0.152 -0.364,-0.1954 -0.263,-0.0847 -0.546,-0.0867 -0.822,-0.0859 -0.544,0.003 -1.089,0.016 -1.631,-0.0219 -0.178,-0.0129 -0.355,-0.0308 -0.532,-0.0558 -0.173,-0.025 -0.347,-0.0571 -0.51,-0.116 -0.163,-0.0602 -0.319,-0.1481 -0.438,-0.2743 -0.108,-0.1129 -0.184,-0.2531 -0.225,-0.4039 -0.04,-0.15 -0.046,-0.309 -0.02,-0.4621 0.053,-0.3058 0.231,-0.5828 0.465,-0.7867 0.235,-0.2043 0.524,-0.3383 0.823,-0.423 0.299,-0.084 0.609,-0.1211 0.919,-0.1461 0.863,-0.07 1.735,-0.0539 2.589,0.0789 0.777,0.1211 1.551,0.3429 2.202,0.7832 0.325,0.2199 0.616,0.4929 0.84,0.8136 0.227,0.3223 0.383,0.6934 0.441,1.0813 0.091,0.6098 -0.072,1.2418 -0.376,1.7777 -0.307,0.5371 -0.747,0.9852 -1.232,1.3692 -1.003,0.7949 -2.204,1.3289 -3.457,1.598 -1.252,0.2692 -2.553,0.275 -3.818,0.0762 -2.502,-0.3934 -4.859,-1.6 -6.675,-3.3652 -1.814,-1.7649 -3.081,-4.0758 -3.639,-6.545 -0.583,-2.5832 -0.39,-5.341 0.582,-7.8039 0.971,-2.4633 2.722,-4.6179 4.955,-6.0422 1.877,-1.1968 4.105,-1.8769 6.331,-1.7808 2.224,0.0961 4.431,0.9937 5.99,2.5847 1.419,1.4493 2.266,3.4524 2.287,5.4801 0.006,0.4781 -0.034,0.9653 -0.207,1.411 -0.172,0.4472 -0.486,0.8531 -0.921,1.055 -0.382,0.1789 -0.841,0.1852 -1.227,0.0172 -0.388,-0.1679 -0.696,-0.5082 -0.827,-0.9101 l -2.41,0.8039 c 0.143,0.6961 0.51,1.3429 1.035,1.8211 0.526,0.4781 1.205,0.7832 1.911,0.8582 0.709,0.075 1.435,-0.0801 2.068,-0.4071 0.633,-0.3281 1.172,-0.825 1.578,-1.4101 0.814,-1.1699 1.084,-2.6531 0.996,-4.0758 -0.094,-1.5293 -0.579,-3.0273 -1.359,-4.3453 -0.782,-1.318 -1.855,-2.457 -3.098,-3.3539 -2.483,-1.7942 -5.603,-2.5899 -8.668,-2.5692 -2.69,0.0184 -5.383,0.6461 -7.782,1.8633 -2.401,1.218 -4.504,3.027 -6.028,5.2457 -1.525,2.2184 -2.461,4.8442 -2.639,7.5301 -0.178,2.6859 0.412,5.4242 1.719,7.7781 1.509,2.72 3.949,4.8782 6.748,6.2371 2.799,1.359 5.943,1.9411 9.054,1.8879 2.245,-0.039 4.502,-0.407 6.563,-1.2949 1.303,-0.5609 2.535,-1.3441 3.433,-2.441 0.898,-1.0981 1.433,-2.5359 1.254,-3.943 -0.161,-1.2801 -0.901,-2.4453 -1.892,-3.2711 -0.99,-0.8261 -2.219,-1.332 -3.477,-1.6172 -1.178,-0.2679 -2.418,-0.3488 -3.592,-0.0597 -1.173,0.289 -2.275,0.9758 -2.915,2.0008 -0.685,1.1023 -0.771,2.5519 -0.222,3.7281 l -4.732,0.001 0,0" /><path
       inkscape:connector-curvature="0"
       id="path7305"
       style="fill:none;stroke:#100f0d;stroke-width:0.1;stroke-linecap:butt;stroke-linejoin:miter;stroke-miterlimit:4;stroke-dasharray:none;stroke-opacity:1"
       d="m 263.71846,172.48127 c -0.106,0.3367 -0.038,0.725 0.179,1.0039 0.173,0.2211 0.427,0.3699 0.695,0.4449 0.271,0.075 0.554,0.0801 0.834,0.0789 l 9.127,-0.0109 c 0.155,-0.0719 0.281,-0.2032 0.347,-0.3598 0.065,-0.157 0.068,-0.3391 0.012,-0.4992 -0.048,-0.1301 -0.134,-0.245 -0.242,-0.3328 -0.105,-0.0891 -0.231,-0.152 -0.364,-0.1954 -0.263,-0.0847 -0.546,-0.0867 -0.822,-0.0859 -0.544,0.003 -1.089,0.016 -1.631,-0.0219 -0.178,-0.0129 -0.355,-0.0308 -0.532,-0.0558 -0.173,-0.025 -0.347,-0.0571 -0.51,-0.116 -0.163,-0.0602 -0.319,-0.1481 -0.438,-0.2743 -0.108,-0.1129 -0.184,-0.2531 -0.225,-0.4039 -0.04,-0.15 -0.046,-0.309 -0.02,-0.4621 0.053,-0.3058 0.231,-0.5828 0.465,-0.7867 0.235,-0.2043 0.524,-0.3383 0.823,-0.423 0.299,-0.084 0.609,-0.1211 0.919,-0.1461 0.863,-0.07 1.735,-0.0539 2.589,0.0789 0.777,0.1211 1.551,0.3429 2.202,0.7832 0.325,0.2199 0.616,0.4929 0.84,0.8136 0.227,0.3223 0.383,0.6934 0.441,1.0813 0.091,0.6098 -0.072,1.2418 -0.376,1.7777 -0.307,0.5371 -0.747,0.9852 -1.232,1.3692 -1.003,0.7949 -2.204,1.3289 -3.457,1.598 -1.252,0.2692 -2.553,0.275 -3.818,0.0762 -2.502,-0.3934 -4.859,-1.6 -6.675,-3.3652 -1.814,-1.7649 -3.081,-4.0758 -3.639,-6.545 -0.583,-2.5832 -0.39,-5.341 0.582,-7.8039 0.971,-2.4633 2.722,-4.6179 4.955,-6.0422 1.877,-1.1968 4.105,-1.8769 6.331,-1.7808 2.224,0.0961 4.431,0.9937 5.99,2.5847 1.419,1.4493 2.266,3.4524 2.287,5.4801 0.006,0.4781 -0.034,0.9653 -0.207,1.411 -0.172,0.4472 -0.486,0.8531 -0.921,1.055 -0.382,0.1789 -0.841,0.1852 -1.227,0.0172 -0.388,-0.1679 -0.696,-0.5082 -0.827,-0.9101 l -2.41,0.8039 c 0.143,0.6961 0.51,1.3429 1.035,1.8211 0.526,0.4781 1.205,0.7832 1.911,0.8582 0.709,0.075 1.435,-0.0801 2.068,-0.4071 0.633,-0.3281 1.172,-0.825 1.578,-1.4101 0.814,-1.1699 1.084,-2.6531 0.996,-4.0758 -0.094,-1.5293 -0.579,-3.0273 -1.359,-4.3453 -0.782,-1.318 -1.855,-2.457 -3.098,-3.3539 -2.483,-1.7942 -5.603,-2.5899 -8.668,-2.5692 -2.69,0.0184 -5.383,0.6461 -7.782,1.8633 -2.401,1.218 -4.504,3.027 -6.028,5.2457 -1.525,2.2184 -2.461,4.8442 -2.639,7.5301 -0.178,2.6859 0.412,5.4242 1.719,7.7781 1.509,2.72 3.949,4.8782 6.748,6.2371 2.799,1.359 5.943,1.9411 9.054,1.8879 2.245,-0.039 4.502,-0.407 6.563,-1.2949 1.303,-0.5609 2.535,-1.3441 3.433,-2.441 0.898,-1.0981 1.433,-2.5359 1.254,-3.943 -0.161,-1.2801 -0.901,-2.4453 -1.892,-3.2711 -0.99,-0.8261 -2.219,-1.332 -3.477,-1.6172 -1.178,-0.2679 -2.418,-0.3488 -3.592,-0.0597 -1.173,0.289 -2.275,0.9758 -2.915,2.0008 -0.685,1.1023 -0.771,2.5519 -0.222,3.7281 l -4.732,0.001 0,0 z" /><path
       inkscape:connector-curvature="0"
       id="path7309"
       style="fill:#ffffff;fill-opacity:1;fill-rule:nonzero;stroke:none"
       d="m 304.68046,174.68915 c -0.711,0.082 -1.432,0.082 -2.143,0 -0.575,-0.066 -1.144,-0.186 -1.696,-0.3571 0.486,0.7301 1.146,1.3454 1.91,1.7762 0.253,0.1442 0.524,0.2692 0.813,0.2981 0.145,0.014 0.293,0.003 0.432,-0.0411 0.138,-0.0449 0.267,-0.123 0.363,-0.2308 0.108,-0.1223 0.172,-0.2774 0.218,-0.432 0.045,-0.1571 0.074,-0.3161 0.123,-0.4723 0.065,-0.2059 0.166,-0.4 0.295,-0.5719 l -0.315,0.0309 0,0" /><use
       x="0"
       y="0"
       xlink:href="#path7255"
       id="use4533"
       transform="translate(149.92819,-0.1345342)"
       width="100%"
       height="100%" /><use
       x="0"
       y="0"
       xlink:href="#path7291"
       id="use4535"
       transform="translate(149.92819,-0.1345342)"
       width="100%"
       height="100%" /><text
       xml:space="preserve"
       style="font-style:normal;font-variant:normal;font-weight:bold;font-stretch:normal;font-size:50.3846283px;line-height:125%;font-family:Alegreya;-inkscape-font-specification:'Alegreya Bold';letter-spacing:0px;word-spacing:0px;fill:#000000;fill-opacity:1;stroke:none;stroke-width:1px;stroke-linecap:butt;stroke-linejoin:miter;stroke-opacity:1"
       x="28.618279"
       y="-89.151871"
       id="text4521"
       sodipodi:linespacing="125%"
       transform="scale(1,-1)"><tspan
         sodipodi:role="line"
         id="tspan4523"
         x="28.618279"
         y="-89.151871">Royal College</tspan></text>
<path
       style="fill:#100f0d;fill-opacity:1;fill-rule:nonzero;stroke:none"
       d="m 241.6837,183.03404 c -1.2157,0.18321 -2.46386,0.44612 -3.45996,1.16602 -0.4981,0.3601 -0.92264,0.83327 -1.17774,1.39307 -0.2539,0.5589 -0.32873,1.20636 -0.16113,1.79736 0.1606,0.56021 0.53266,1.04453 0.99756,1.39453 0.4641,0.35 1.01746,0.56987 1.58496,0.69287 1.1367,0.2481 2.79511,0.12305 3.95801,0.12305 1.27344,7e-4 2.31777,0.24593 2.83887,0.37793 0.0509,0.14156 0.44725,1.26626 0.43945,2.27344 -0.014,1.09525 -0.66085,2.49763 -1.78418,3.26367 -1.05918,0.72229 -2.2766,1.08334 -3.5696,1.18534 -1.121,0.0891 -2.25874,0.0521 -3.25944,-0.46401 -1.14081,-0.62377 -1.80987,-1.59369 -1.80475,-2.78529 0.006,-1.31053 1.21777,-1.97064 2.203,-1.97143 0.3919,-3.2e-4 1.05409,0.21498 1.36389,0.45677 0.50121,0.39801 1.01785,0.77706 1.54395,1.13526 0.2629,0.1782 0.53094,0.35123 0.81885,0.48632 0.2883,0.13481 0.59939,0.23004 0.91699,0.24024 0.4597,0.0148 1.04381,-0.0536 1.38721,-0.36182 0.37704,-0.36673 0.49353,-1.17726 0.37391,-1.84099 -0.69412,-0.34938 -2.01679,-0.1953 -3.50868,-0.15119 -1.14975,0.034 -2.31957,-0.14258 -3.39697,-0.55078 -1.0711,-0.40701 -2.00889,-1.14078 -2.69239,-2.05957 -0.6836,-0.9191 -1.11666,-2.01622 -1.28466,-3.14942 -0.3406,-2.2949 0.43017,-4.69978 1.92627,-6.47168 1.4012,-1.657 3.38085,-2.76547 5.47265,-3.34277 0.10202,1.46658 0.25091,4.51948 0.27393,7.16308 z"
       id="path7251-3"
       inkscape:connector-curvature="0"
       sodipodi:nodetypes="cccccccccsccssccccccccccccc" /></g></svg>