<?xml version="1.0" encoding="UTF-8" standalone="no"?>
<!-- Created with Inkscape (http://www.inkscape.org/) -->

<svg
   xmlns:dc="http://purl.org/dc/elements/1.1/"
   xmlns:cc="http://creativecommons.org/ns#"
   xmlns:rdf="http://www.w3.org/1999/02/22-rdf-syntax-ns#"
   xmlns:svg="http://www.w3.org/2000/svg"
   xmlns="http://www.w3.org/2000/svg"
   xmlns:xlink="http://www.w3.org/1999/xlink"
   xmlns:sodipodi="http://sodipodi.sourceforge.net/DTD/sodipodi-0.dtd"
   xmlns:inkscape="http://www.inkscape.org/namespaces/inkscape"
   id="svg7233"
   version="1.1"
   inkscape:version="0.91+devel+osxmenu r12855"
   xml:space="preserve"
   width="444.82666"
   height="343.73334"
   viewBox="0 0 444.82666 343.73334"
   sodipodi:docname="royal_logo_svg.svg"><metadata
     id="metadata7239"><rdf:RDF><cc:Work
         rdf:about=""><dc:format>image/svg+xml</dc:format><dc:type
           rdf:resource="http://purl.org/dc/dcmitype/StillImage" /><dc:title /></cc:Work></rdf:RDF></metadata><defs
     id="defs7237"><inkscape:path-effect
       effect="spiro"
       id="path-effect6121"
       is_visible="true" /></defs><sodipodi:namedview
     pagecolor="#ffffff"
     bordercolor="#666666"
     borderopacity="1"
     objecttolerance="10"
     gridtolerance="10"
     guidetolerance="10"
     inkscape:pageopacity="0"
     inkscape:pageshadow="2"
     inkscape:window-width="1680"
     inkscape:window-height="1001"
     id="namedview7235"
     showgrid="false"
     inkscape:zoom="13.713207"
     inkscape:cx="862.86887"
     inkscape:cy="80.326464"
     inkscape:window-x="0"
     inkscape:window-y="23"
     inkscape:window-maximized="0"
     inkscape:current-layer="text6139"
     showguides="false"
     inkscape:guide-bbox="true"><sodipodi:guide
       orientation="0,1"
       position="371.67278,186.04265"
       id="guide4537" /><sodipodi:guide
       orientation="0,1"
       position="270.19497,156.75434"
       id="guide5843" /><sodipodi:guide
       orientation="0,1"
       position="176.90975,200.53661"
       id="guide5845" /><sodipodi:guide
       orientation="0,1"
       position="305.54487,145.55312"
       id="guide5847" /><sodipodi:guide
       orientation="0,1"
       position="47.107873,184.49368"
       id="guide6544" /><sodipodi:guide
       orientation="0,1"
       position="193.46785,165.88115"
       id="guide4516" /><sodipodi:guide
       orientation="1,0"
       position="373.65439,120.46781"
       id="guide4542" /><sodipodi:guide
       orientation="0,1"
       position="383.71769,98.736934"
       id="guide4544" /><sodipodi:guide
       orientation="0,1"
       position="692.19414,18.975525"
       id="guide4588" /><sodipodi:guide
       orientation="1,0"
       position="656.71816,89.927487"
       id="guide4590" /><sodipodi:guide
       orientation="0,1"
       position="152.62922,77.964656"
       id="guide4640" /><sodipodi:guide
       orientation="0,1"
       position="169.74844,72.808263"
       id="guide4642" /><sodipodi:guide
       orientation="0,1"
       position="172.32664,64.661163"
       id="guide4674" /><sodipodi:guide
       orientation="0,1"
       position="299.12769,72.2661"
       id="guide5887" /><sodipodi:guide
       orientation="0,1"
       position="122.21794,92.90314"
       id="guide5889" /><sodipodi:guide
       orientation="0,1"
       position="104.67477,91.654876"
       id="guide5891" /><sodipodi:guide
       orientation="0,1"
       position="890.82006,53.087508"
       id="guide4573" /><sodipodi:guide
       orientation="0,1"
       position="504.62302,98.736934"
       id="guide4575" /><sodipodi:guide
       orientation="0,1"
       position="503.47016,102.92159"
       id="guide4577" /><sodipodi:guide
       orientation="0,1"
       position="689.30654,107.45922"
       id="guide4579" /></sodipodi:namedview><g
     id="g7241"
     inkscape:groupmode="layer"
     inkscape:label="ink_ext_XXXXXX"
     transform="matrix(1.3333333,0,0,-1.3333333,0,343.73333)"><path
       inkscape:connector-curvature="0"
       id="path7309-4-0-8"
       style="fill:#ffffff;fill-opacity:1;fill-rule:nonzero;stroke:none"
       d="m 295.40843,134.72504 c -0.711,0.082 -1.43201,0.082 -2.14301,0 -0.57499,-0.066 -1.14399,-0.186 -1.69599,-0.3571 0.486,0.7301 1.146,1.3454 1.91,1.7762 0.253,0.1442 0.52399,0.2692 0.813,0.2981 0.145,0.014 0.29299,0.003 0.432,-0.0411 0.138,-0.0449 0.267,-0.123 0.363,-0.2308 0.108,-0.1223 0.172,-0.2774 0.21799,-0.432 0.045,-0.1571 0.074,-0.3161 0.123,-0.4723 0.065,-0.2059 0.16601,-0.4 0.29501,-0.5719 l -0.315,0.0309 0,0" /><path
       inkscape:connector-curvature="0"
       style="fill:#100f0d;fill-opacity:1;fill-rule:nonzero;stroke:none"
       d="m 377.7816,77.087102 c -0.0896,-0.005 -0.179,-0.0179 -0.2666,-0.0381 -0.3015,-0.0699 -0.58015,-0.22796 -0.81445,-0.43066 -0.2364,-0.2032 -0.42909,-0.44972 -0.59619,-0.71192 -0.3348,-0.52299 -0.56787,-1.10677 -0.90967,-1.62597 -0.6269,-0.9492 -1.5822,-1.62706 -2.5459,-2.23096 -3.2528,-2.041 -6.84355,-3.49076 -10.13965,-5.46386 -1.9563,-1.17111 -3.82857,-2.54749 -5.2251,-4.35059 -1.39766,-1.8032 -2.28603,-4.07607 -2.09033,-6.34717 0.18828,-2.1922 1.38413,-4.23236 3.05713,-5.66016 1.6731,-1.42809 3.79175,-2.27534 5.96045,-2.64404 2.9367,-0.5 6.05079,-0.13537 8.68359,1.25684 2.6324,1.39179 4.73463,3.85015 5.46973,6.73535 0.659,2.5879 0.18266,5.44471 -1.28174,7.67871 -1.4641,2.234 -3.89424,3.81115 -6.53174,4.23925 1.7383,0.5121 3.43043,1.18477 5.04493,2.00977 0.9882,0.5039 1.95944,1.07363 2.75244,1.84864 0.7949,0.7762 1.40359,1.78237 1.53369,2.88427 0.0828,0.7129 -0.0482,1.47285 -0.47901,2.04786 -0.2149,0.28789 -0.50123,0.52377 -0.83203,0.66357 -0.24787,0.10522 -0.52076,0.15495 -0.78955,0.13916 z m -7.75781,-11.38183 c 0.23018,-0.006 0.45982,-0.0217 0.68994,-0.0498 0.9207,-0.1129 1.8269,-0.41321 2.5957,-0.93311 0.7671,-0.51999 1.39205,-1.26687 1.70655,-2.13867 0.3027,-0.8403 0.31076,-1.77298 0.085,-2.63818 -0.2261,-0.8649 -0.67548,-1.66068 -1.24659,-2.34668 -1.1457,-1.3711 -2.74001,-2.28138 -4.32861,-3.09668 -1.7012,-0.8738 -3.49121,-1.68733 -5.39941,-1.81933 -0.9543,-0.0648 -1.9263,0.0455 -2.8169,0.3955 -0.8911,0.3492 -1.69585,0.94441 -2.23095,1.73731 -0.6309,0.934 -0.8642,2.10905 -0.7251,3.22705 0.1363,1.1179 0.63055,2.17761 1.32275,3.06591 1.3871,1.7769 3.49493,2.8315 5.60742,3.61671 1.52163,0.56533 3.12896,1.02429 4.74024,0.97998 z"
       id="path7245-7-2-5-6"
       sodipodi:nodetypes="ccccccccccccccccccccccccccccccccccccc" /><path
       inkscape:connector-curvature="0"
       id="path7249-9-2-8-2"
       style="fill:#100f0d;fill-opacity:1;fill-rule:nonzero;stroke:none"
       d="m 379.79194,60.597042 c -0.12429,1.5449 0.34101,3.1418 1.32341,4.3418 0.982,1.1992 2.4832,1.9742 4.03399,2.0203 1.08711,0.0316 2.17191,-0.2864 3.10351,-0.8453 0.9324,-0.559 1.7129,-1.3539 2.31129,-2.2618 1.1946,-1.816 1.64301,-4.03 1.75001,-6.2019 0.1098,-2.2371 -0.13751,-4.55899 -1.2195,-6.52109 -0.54101,-0.9801 -1.2891,-1.8551 -2.2148,-2.4859 -0.925,-0.6313 -2.0313,-1.0122 -3.1504,-1.0153 -1.4278,-0.005 -2.8282,0.609 -3.86211,1.5942 -1.0344,0.9847 -1.70749,2.3179 -1.98559,3.7187 -0.073,0.3723 -0.1211,0.7613 -0.0227,1.1274 0.0493,0.18279 0.13481,0.35779 0.2598,0.49999 0.12621,0.1418 0.2934,0.25 0.47771,0.2918 0.1653,0.0378 0.3411,0.023 0.4993,-0.034 0.159,-0.0571 0.3035,-0.1539 0.4215,-0.275 0.2343,-0.2418 0.3644,-0.57 0.4296,-0.902 0.0637,-0.332 0.0696,-0.6711 0.0871,-1.009 0.0188,-0.3371 0.0516,-0.6789 0.1708,-0.9949 0.1332,-0.3539 0.371,-0.6652 0.671,-0.8949 0.3008,-0.2293 0.6602,-0.3781 1.0332,-0.4383 0.7461,-0.1187 1.5262,0.1223 2.1309,0.5762 0.6047,0.4539 1.041,1.1051 1.3184,1.809 0.2761,0.7039 0.4004,1.4578 0.4582,2.2109 0.0664,0.8898 0.0418,1.784 -0.0102,2.6738 -0.0496,0.8762 -0.125,1.7543 -0.3113,2.6114 -0.1453,0.6687 -0.3645,1.3277 -0.7141,1.9168 -0.3511,0.5878 -0.8406,1.1039 -1.448,1.4179 -0.6074,0.3153 -1.3399,0.4153 -1.9903,0.2039 -0.3253,-0.1047 -0.6281,-0.2867 -0.8664,-0.5316 -0.239,-0.2453 -0.4148,-0.5531 -0.4937,-0.8863 -0.0735,-0.311 -0.0625,-0.636 -0.0344,-0.9539 0.0274,-0.3188 0.0723,-0.6372 0.0645,-0.9571 -0.006,-0.3199 -0.0664,-0.6461 -0.2356,-0.9179 -0.084,-0.136 -0.1949,-0.2559 -0.3277,-0.3438 -0.1328,-0.0891 -0.2895,-0.1453 -0.4485,-0.1531 -0.1867,-0.0102 -0.3718,0.0461 -0.53,0.1449 -0.1567,0.098 -0.2864,0.2379 -0.3852,0.3961 -0.198,0.318 -0.2637,0.6969 -0.2937,1.068 l 0,0"
       sodipodi:nodetypes="cccccccccccccccccccccscccccccccccccccccc" /><path
       style="fill:#100f0d;fill-opacity:1;fill-rule:nonzero;stroke:none"
       d="m 419.14913,77.238272 c -0.29123,0.004 -0.58521,-0.0267 -0.87049,-0.0835 -0.57179,-0.11481 -1.11781,-0.33225 -1.64228,-0.58662 -1.21472,-0.58833 -2.33581,-1.38567 -3.23615,-2.38991 -0.90153,-1.00411 -1.57769,-2.22024 -1.88959,-3.53309 -0.17901,-0.75139 -0.32363,-1.71457 -0.25961,-2.48437 -1.78157,-0.91632 -2.48606,-2.29813 -2.54433,-3.69422 -0.0198,-0.8242 0.38705,-1.62644 0.71629,-2.27396 0.35417,-0.0996 1.3441,-0.14425 2.0512,-0.15268 1.0698,-0.0127 3.10289,0.16721 4.31765,-0.31113 0.51149,-0.15442 1.00386,-0.3954 1.40831,-0.74513 0.40569,-0.34866 0.72013,-0.81047 0.8552,-1.32741 0.14465,-0.55599 0.0748,-1.15814 -0.15204,-1.68479 -0.22687,-0.52666 -0.60436,-0.98096 -1.05494,-1.33779 -0.89807,-0.71435 -2.04469,-1.03207 -3.16998,-1.25332 -3.61517,-0.71263 -7.36401,-0.61333 -10.98925,0.0552 -1.20884,0.22406 -2.44743,0.52886 -3.41872,1.2819 -0.48569,0.37667 -0.89404,0.86388 -1.13014,1.43195 -0.23494,0.56714 -0.28792,1.21676 -0.10051,1.80177 0.129,0.39875 0.36827,0.75179 0.66837,1.04449 0.0439,0.038 0.0838,0.0799 0.12996,0.1158 0.45203,0.35214 1.00539,0.60116 1.58866,0.77896 0.088,0.0209 0.17563,0.0438 0.26438,0.0599 0.0816,0.015 0.13344,0.0386 0.20708,0.0561 0.76223,0.18083 1.5422,0.26687 2.19372,0.29248 1.58484,0.0624 3.07986,0.003 4.03667,-0.12433 0.48015,1.20403 0.76046,3.10596 -0.0181,4.5061 -0.34943,0.5767 -0.84551,1.05926 -1.41177,1.42531 -1.13053,0.73236 -2.50572,0.9994 -3.85089,1.07075 -1.16691,0.062 -2.38737,-0.0221 -3.41272,-0.58411 -0.51421,-0.28076 -0.96814,-0.68072 -1.27385,-1.17945 -0.30575,-0.49764 -0.45733,-1.09674 -0.38191,-1.67705 0.0521,-0.40512 0.21797,-0.79442 0.46803,-1.1165 0.25109,-0.32278 0.58941,-0.57512 0.96927,-0.72593 0.37987,-0.15072 0.79917,-0.19753 1.20172,-0.13425 0.4036,0.0619 0.79001,0.23566 1.10567,0.49478 0.51469,0.4218 1.04101,0.82918 1.58151,1.2189 0.26723,0.19569 0.53807,0.38656 0.83445,0.53617 0.29539,0.14916 0.62038,0.25433 0.95128,0.26254 0.54182,0.0142 1.0815,-0.24335 1.41225,-0.67197 0.32874,-0.42907 0.44134,-1.01846 0.28819,-1.53841 -0.8581,0.0349 -1.71515,0.0327 -2.57245,-0.006 -1.50877,-0.0684 -3.29553,-0.46748 -4.41851,-1.04377 -1.75224,-0.89921 -3.11811,-2.55074 -3.5133,-4.7505 -0.39518,-2.19975 0.29415,-4.62923 1.72972,-6.45052 1.34459,-1.70325 3.28579,-2.87779 5.35696,-3.52521 2.07119,-0.64714 4.27157,-0.79339 6.44026,-0.69339 2.85283,0.13098 5.75863,0.7115 8.16352,2.25316 1.20125,0.771 2.26163,1.77875 3.02604,2.98326 0.76482,1.20503 1.22882,2.61198 1.25152,4.03973 0.0211,1.34615 -0.35395,2.69752 -1.06659,3.83937 -0.71276,1.14146 -1.7596,2.0729 -2.97848,2.64627 1.32685,0.54737 1.78376,1.3869 1.89165,2.54131 0.0293,2.24798 -2.66514,3.56331 -5.14013,3.01784 0.58144,1.7256 2.02175,3.10334 3.77792,3.58347 0.77515,0.21111 1.59125,0.25391 2.36011,0.48914 0.38546,0.11709 0.75832,0.28441 1.0761,0.53095 0.31904,0.2452 0.57897,0.57334 0.70641,0.95527 0.0902,0.27722 0.11023,0.57497 0.0613,0.86268 -0.0481,0.28819 -0.16373,0.56322 -0.32761,0.80397 -0.32694,0.48239 -0.84499,0.8181 -1.40632,0.9781 -0.27947,0.08 -0.56943,0.11755 -0.86066,0.12136 z m -4.54368,-10.39681 c 1.29786,-0.0336 1.86962,-0.65073 1.8433,-1.31966 -0.008,-0.21014 -0.0718,-0.43162 -0.21201,-0.59379 -0.24263,-0.28161 -0.55083,-0.36547 -0.86053,-0.35354 -0.52463,0.0207 -1.07929,0.27362 -1.40658,0.70989 -0.28124,0.37459 -0.41183,0.9007 -0.35701,1.36633 0.18906,0.10325 0.67058,0.19913 0.99283,0.19077 z m -2.84986,-0.84345 c 0.0604,-0.41326 0.17323,-0.81766 0.33619,-1.20146 0.13944,-0.32789 0.31432,-0.64034 0.52266,-0.93072 -0.55363,-0.0682 -1.4129,-0.14019 -2.03878,0.0862 -0.35384,0.43771 -0.0547,1.07411 0.11856,1.29079 0.31467,0.38572 0.60387,0.5606 1.06139,0.7551 z"
       id="path7251-7-8-9-4"
       inkscape:connector-curvature="0"
       sodipodi:nodetypes="ccccccccscccccccccccccccccccccccccccccccccsccccccccccccccccccsccccccccccccccc" /><path
       style="fill:#100f0d;fill-opacity:1;fill-rule:nonzero;stroke:none"
       d="m 439.88934,74.024812 c -1.8263,-1.71921 -3.12408,-3.99205 -3.67439,-6.43875 l -3.39139,-2.53901 c -0.0354,1.09058 -0.49807,2.16137 -1.26902,2.93501 -0.70278,0.70575 -1.66194,1.1599 -2.6556,1.21858 -0.86743,0.0514 -1.74174,-0.19645 -2.48065,-0.6509 -0.73961,-0.45484 -1.34953,-1.10884 -1.79519,-1.85448 -0.54008,-0.89863 -0.84867,-1.93486 -0.88049,-2.98269 -0.0187,-0.58384 0.0484,-1.17519 0.24817,-1.72519 0.19891,-0.54888 0.53411,-1.0562 0.99539,-1.41466 0.4613,-0.35885 1.05248,-0.56232 1.63419,-0.51415 0.29134,0.0241 0.57756,0.11145 0.8302,0.25698 0.25417,0.1456 0.473,0.353 0.62703,0.6003 0.28174,0.44924 0.34051,1.00641 0.2949,1.53379 -0.0456,0.52747 -0.18819,1.04059 -0.28347,1.56145 -0.0953,0.52087 -0.14264,1.06487 0.004,1.57475 0.0721,0.25401 0.19296,0.49643 0.36723,0.69662 0.17387,0.1991 0.4,0.35387 0.65464,0.42717 0.25542,0.0735 0.53401,0.0629 0.78793,-0.0168 0.25434,-0.0794 0.48512,-0.22535 0.67865,-0.40806 0.3967,-0.37583 0.63261,-0.91703 0.63894,-1.46243 0.006,-0.54497 -0.21708,-1.08976 -0.60489,-1.47506 -0.8491,-1.05379 -1.66173,-2.13712 -2.43441,-3.24865 -1.44634,-2.07887 -2.75296,-4.25181 -4.16434,-6.35481 -0.19355,-0.28841 -0.38878,-0.57566 -0.53758,-0.88831 -0.14958,-0.31333 -0.25182,-0.65407 -0.24423,-1.00106 0.008,-0.34699 0.13298,-0.70028 0.38334,-0.93986 0.12621,-0.12004 0.27962,-0.20998 0.4487,-0.25345 0.16799,-0.0427 0.34796,-0.0386 0.51145,0.0199 0.15996,0.0562 0.29924,0.16308 0.41882,0.28301 0.1191,0.12063 0.22103,0.25615 0.32903,0.38788 0.1063,0.13216 0.2201,0.2599 0.3566,0.36126 0.13581,0.10187 0.29541,0.17313 0.4647,0.18148 0.1813,0.009 0.361,-0.0566 0.50522,-0.16613 0.14465,-0.10803 0.2541,-0.25696 0.33721,-0.41789 0.16213,-0.32271 0.21439,-0.68849 0.3165,-1.03441 0.2534,-0.84354 0.82153,-1.58178 1.55587,-2.06913 0.73423,-0.48735 1.62356,-0.72604 2.50389,-0.7073 1.07838,0.0221 2.14515,0.43099 2.96152,1.13398 0.81796,0.70409 1.3801,1.69561 1.56238,2.75917 0.14142,-0.91354 0.55676,-1.78254 1.17695,-2.46679 0.62029,-0.68504 1.44595,-1.18226 2.34022,-1.41178 1.16779,-0.30061 2.42889,-0.1424 3.52947,0.3476 1.10059,0.49029 2.04373,1.29731 2.78204,2.24908 1.57773,2.03578 2.20984,4.79217 1.61147,7.29698 -0.54402,2.27547 -2.07249,4.27585 -4.06367,5.5056 -1.99069,1.22986 -4.41514,1.70272 -6.7406,1.4346 -0.6844,-0.0784 -1.36033,-0.2176 -2.01984,-0.41812 1.56839,1.09861 3.42247,1.7862 5.32684,1.97646 3.16338,0.31699 6.36571,-0.74266 8.99606,-2.52766 1.6898,-1.14679 3.18759,-2.60223 4.24647,-4.34865 1.05785,-1.7457 1.66081,-3.7895 1.56574,-5.82965 -0.0892,-1.63402 -0.49934,-3.47583 -2.76304,-3.59031 -1.17149,-0.007 -1.67945,0.80816 -2.00651,1.56002 l -2.0564,-0.58916 c 0.49692,-1.76252 1.88588,-3.29793 4.18468,-3.33286 1.43011,0.004 2.90175,0.72501 3.87311,1.7725 0.97236,1.04748 1.58486,2.38467 1.98239,3.75704 0.77639,2.67526 0.77957,5.56965 0.0109,8.24735 -0.76869,2.6776 -2.61251,5.31947 -4.69032,7.17591 1.5595,0.87582 2.06602,2.19637 2.08378,3.49089 0.0136,0.97255 -0.28385,1.96988 -0.81769,2.80017 -0.53285,0.83029 -1.28965,1.50945 -2.14992,1.99294 -1.07723,0.60321 -2.60009,0.85116 -4.2466,0.87538 -3.12849,0.0191 -6.23644,-1.56963 -8.15622,-3.33592 z m 8.59719,-4.31558 c 0,0 -1.07503,0.15421 -1.52253,0.20865 -2.70712,0.32476 -6.17741,-0.1168 -8.39761,-1.12527 0.19662,0.71895 1.55357,2.41236 2.7309,3.1512 2.28089,1.43139 4.81222,2.32022 7.79829,2.10913 0,0 -1.24706,-0.65302 -1.26847,-2.61189 -0.0108,-1.0186 0.65942,-1.73182 0.65942,-1.73182 z m 3.21691,3.52836 c 1.12272,-0.0228 1.89073,-1.04877 1.87427,-1.98114 -0.0223,-1.24877 -0.82004,-1.95021 -1.85367,-1.91996 -1.22423,0.004 -2.05094,1.085 -2.00626,2.02614 -0.008,0.76959 0.55058,1.90404 1.98566,1.87496 z m -17.50102,-17.28408 c -0.28547,-1.54666 -1.27431,-3.27877 -3.94562,-3.16311 -1.33169,0.0577 -2.51904,1.7402 -3.83606,1.12928 0.75578,1.37544 1.60743,2.69829 2.54834,3.95508 1.22983,1.64298 2.65204,3.20781 4.47663,4.14998 1.2306,0.63534 2.62641,0.96416 4.00811,0.90395 l 0,-4e-5 c 0.19738,-0.009 0.39503,-0.0251 0.59134,-0.0497 1.57033,-0.19747 3.08067,-0.92431 4.16627,-2.07726 0.76236,-0.81065 1.32253,-1.86652 1.32719,-2.97951 0.004,-0.76917 -0.25831,-1.53058 -0.70391,-2.15821 -0.44489,-0.62655 -1.068,-1.12038 -1.76336,-1.44756 -0.69586,-0.32717 -1.47815,-0.49331 -2.24092,-0.40569 -0.76489,0.0864 -1.50703,0.43529 -2.01306,1.01449 -0.47903,0.54775 -0.56354,0.8879 -0.74436,1.59351 -0.0958,0.37379 -0.15481,0.6926 -0.24225,1.04702 l -1.59126,-0.8171 c 0,0 0.0143,-0.43286 -0.037,-0.6951 z"
       id="path7253-9-0-8-4"
       inkscape:connector-curvature="0"
       sodipodi:nodetypes="cccccccccccccsscccccccccccccccccccccccccccccccccccccccccccscccccccccaacscssccscsccccccccccccscccc" /><path
       style="fill:#100f0d;fill-opacity:1;fill-rule:nonzero;stroke:none"
       d="m 481.57775,69.719262 c -2.41472,-0.0126 -4.32097,-1.021 -5.31006,-3.05273 -0.93739,-1.92554 -0.15967,-3.73535 -0.15966,-3.73535 1.55715,0.57144 3.27666,0.76674 4.58496,0.85839 1.46709,0.0581 2.72882,-0.41301 3.56982,-1.35791 0.843,-0.9442 1.25709,-2.68666 0.93164,-3.85988 -0.67234,-2.42376 -3.28113,-3.89318 -5.63379,-4.05323 -0.0689,-0.004 -0.14129,7.5e-4 -0.21094,-10e-4 0.008,0.009 0.0227,0.0177 0.0308,0.0263 -1.9099,-0.10755 -2.8995,0.41101 -3.77958,1.4209 -0.46944,0.55599 -0.82962,1.22699 -0.99814,1.93563 -0.0893,0.37541 -0.16604,0.68094 -0.24726,1.16251 l -1.59112,-0.72261 c 0,0 -0.0163,-0.49372 -0.0595,-0.73783 -0.37839,-2.13441 -2.96555,-3.36642 -4.77071,-3.47315 -1.02567,-0.0607 -2.2005,0.31017 -2.97364,0.81155 -1.01,0.6711 -1.74603,1.72995 -2.06103,2.90185 -0.31601,1.1711 -0.0838,2.77031 0.36524,3.89651 0.54501,1.364 1.46705,2.51116 2.76806,3.18897 0.887,0.46329 1.55298,0.69189 2.54049,0.68017 1.6437,-0.0195 2.99971,-0.87664 3.77592,-2.31348 l 1.70213,0.74609 c -0.80041,2.45146 -3.09578,3.68347 -5.43796,3.64437 -3.38891,-0.0685 -5.82606,-2.38154 -7.05568,-5.06575 -0.605,-1.35 -0.94359,-2.81223 -1.07959,-4.28613 -0.207,-2.264 0.0793,-4.61535 1.13233,-6.63135 0.525,-1.0082 1.23868,-1.9229 2.11669,-2.64551 0.879,-0.72309 1.92269,-1.24999 3.03369,-1.48828 1.55199,-0.33201 3.22294,-0.0804 4.60694,0.6958 1.383,0.7762 2.472,2.06862 3,3.56543 0.357,-1.15391 1.05587,-2.2009 1.98486,-2.97509 0.93,-0.77261 2.08665,-1.27138 3.28565,-1.41358 1.09,-0.1289 2.20844,0.0321 3.23144,0.43213 1.02,0.4 1.94405,1.03609 2.70704,1.8252 1.52399,1.5777 2.37343,3.73517 2.58544,5.91796 0.26299,2.7192 -0.44599,5.54848 -2.083,7.73438 -0.404,0.53709 -1.26812,1.29324 -1.54835,1.42675 0.52508,0.34107 0.75471,1.1276 0.76172,1.72559 -0.10545,1.86251 -1.93034,3.17115 -3.71484,3.2168 z m -0.88623,-2.05371 c 0.83406,-0.0378 1.04926,-0.55057 0.9331,-1.0957 -0.14971,-0.70257 0.0776,-0.87159 0.0776,-0.87159 -0.79999,0.13384 -1.36996,0.0335 -2.0376,-0.0424 -0.57499,-0.066 -1.14575,-0.18484 -1.69775,-0.35595 0.023,1.26809 1.21982,2.23977 2.72461,2.36572 z"
       id="path7255-7-8-3-3"
       inkscape:connector-curvature="0"
       sodipodi:nodetypes="cscccscccccccssccccsccccccccccccccccccccccccccc" /><path
       sodipodi:nodetypes="cssasssscccccccccccccccccccccccaacsscscssss"
       inkscape:connector-curvature="0"
       id="path7293-4-1-4-4"
       d="m 505.58685,74.665642 c -0.0431,-2.28228 0.82514,-3.27267 2.81696,-3.96796 1.97551,-0.6896 4.52022,-0.5077 8.91487,-0.83474 4.0286,-0.29981 7.20737,-2.69146 8.53439,-5.88132 0.89031,-2.14015 0.43903,-4.90697 -1.23769,-6.84284 -2.09216,-2.41553 -5.77865,-3.20633 -8.96924,-3.38524 -3.1357,-0.17583 -8.68207,0.71506 -8.69678,3.89061 -0.0137,2.97141 3.38225,3.45049 5.45508,3.48048 1.5859,0.023 3.07937,-0.0727 4.03272,-0.22413 0.50988,1.19175 0.83732,3.08682 0.0937,4.50586 -0.33501,0.5852 -0.81849,1.07899 -1.3755,1.45898 -1.11199,0.7602 -2.48024,1.06132 -3.82323,1.16602 -1.16501,0.091 -2.38728,0.0369 -3.42627,-0.49951 -0.52101,-0.2679 -0.98425,-0.65598 -1.30225,-1.14697 -0.318,-0.4899 -0.48434,-1.085 -0.42334,-1.667 0.042,-0.40629 0.19745,-0.79973 0.43945,-1.12792 0.243,-0.32891 0.57469,-0.58981 0.95068,-0.75 0.37601,-0.1601 0.79425,-0.21727 1.19825,-0.16407 0.405,0.0519 0.79567,0.21609 1.11767,0.46729 0.525,0.4089 1.06133,0.803 1.61133,1.1792 0.272,0.189 0.54815,0.37342 0.84815,0.51562 0.299,0.1418 0.62554,0.23877 0.95654,0.23877 0.542,7.5e-4 1.07599,-0.26935 1.396,-0.70605 0.318,-0.4371 0.41502,-1.02942 0.24902,-1.54542 -0.857,0.0558 -1.71427,0.0743 -2.57227,0.0572 -1.51,-0.0309 -3.05243,-0.18224 -4.41943,-0.82324 -1.83,-0.8582 -3.22484,-2.60975 -3.61084,-4.59375 -0.204,-1.0461 -0.13412,-2.13716 0.15088,-3.16406 0.285,-1.027 0.78429,-1.98834 1.42529,-2.84034 1.909,-2.541 5.0125,-4.01774 8.16651,-4.41064 4.59199,-0.57111 9.44018,1.10801 12.59618,4.49121 1.578,1.6906 2.89635,3.7641 3.31788,6.01465 0.45899,2.45055 0.0526,5.1515 -0.99765,7.41264 -0.79116,1.70326 -2.26667,3.12687 -3.78193,4.17616 0.54913,0.11213 2.71486,1.11108 2.72657,3.34415 0.0236,4.50309 -5.1355,7.74964 -11.20447,7.87951 -6.18675,0.13238 -10.99462,-2.20839 -11.15723,-5.70315 z m 19.12066,-2.81739 c 0.0114,-0.88196 -0.96486,-1.73416 -2.16792,-1.30301 -1.42343,0.63175 -2.82117,1.20019 -5.40264,1.29919 -4.18905,0.16063 -10.5898,-0.19939 -9.11139,2.70819 1.00714,1.98074 6.12057,1.88071 10.34893,1.14816 3.71515,-0.64363 6.30587,-1.76224 6.33302,-3.85253 z"
       style="fill:#100f0d;fill-opacity:1;fill-rule:nonzero;stroke:none" /><path
       style="fill:#100f0d;fill-opacity:1;fill-rule:nonzero;stroke:none"
       d="m 542.11598,68.882452 c -0.52102,-0.2679 -0.98425,-0.65598 -1.30225,-1.14697 -0.318,-0.4899 -0.48435,-1.08499 -0.42334,-1.66699 0.042,-0.40629 0.19745,-0.79974 0.43945,-1.12793 0.243,-0.32891 0.57469,-0.58981 0.95068,-0.75 0.37602,-0.1601 0.79425,-0.21726 1.19825,-0.16406 0.405,0.0519 0.79567,0.21608 1.11767,0.46728 0.525,0.4089 1.06133,0.803 1.61133,1.1792 0.272,0.189 0.54815,0.37342 0.84815,0.51562 0.299,0.14181 0.62554,0.23877 0.95654,0.23877 0.542,7.5e-4 1.07599,-0.26935 1.396,-0.70605 0.318,-0.4371 0.62772,-1.3218 0.46172,-1.8378 -0.857,0.0558 -3.847,0.10159 -5.98183,-0.0759 -2.13483,-0.1775 -4.51088,-0.45736 -6.52355,-1.61013 -1.31598,-0.7539 -2.42821,-1.86405 -3.15819,-3.19335 -0.729,-1.32771 -1.0733,-2.87046 -0.94629,-4.38135 0.144,-1.71021 0.88843,-3.35299 2.02441,-4.6377 1.136,-1.28599 4.54733,-2.98743 7.10862,-2.99514 2.27527,-0.007 5.73747,0.76405 7.23202,2.10705 1.0924,0.98162 1.26586,1.28124 2.32494,2.1156 0.33799,0.2598 0.71864,0.48587 1.13965,0.56397 0.21099,0.0379 -1.23227,0.38636 -1.02427,0.33636 0,0 1.00316,-0.2036 0.54187,0.26447 0.141,0.19179 1.15276,1.4422 1.25276,1.6594 0.34604,0.71474 0.38326,1.25944 -2.8e-4,1.6568 -0.22864,0.23687 -0.75763,0.22396 -0.98702,0.0351 -0.32752,-0.26968 -1.16989,-1.7741 -1.74463,-2.68799 -0.78798,-1.18281 -2.0277,-2.05495 -3.40869,-2.39794 -1.671,-0.41601 -3.51324,-0.0378 -4.90723,0.97119 -1.397,1.00899 -2.3265,2.62227 -2.54151,4.33008 -0.11901,0.94108 -0.0259,1.9184 0.35304,2.78759 1.19751,2.2739 3.78445,2.86243 5.96484,3.18018 2.10849,0.3001 3.50794,0.18193 4.26123,0.11133 0.17533,-0.0208 0.35952,-0.0406 0.50977,-0.0644 0.50988,1.19175 0.62466,3.37921 -0.11895,4.79824 -0.33501,0.58521 -0.81849,1.079 -1.3755,1.45899 -1.11198,0.7602 -2.49468,1.06536 -3.82323,1.16601 -1.15086,0.0872 -2.43669,-0.004 -3.42624,-0.49955 z"
       id="path7295-1-1-5-23"
       inkscape:connector-curvature="0"
       sodipodi:nodetypes="cccccccccccccccccsscccccasccccccccccacc" /><path
       inkscape:connector-curvature="0"
       id="path7303-3-6-1-8"
       style="fill:#100f0d;fill-opacity:1;fill-rule:nonzero;stroke:none"
       d="m 583.1958,62.918142 c -0.106,0.3367 -0.038,0.725 0.179,1.0039 0.173,0.2211 0.427,0.3699 0.695,0.4449 0.271,0.075 0.554,0.0801 0.834,0.0789 l 9.127,-0.0109 c 0.155,-0.0719 0.281,-0.2032 0.347,-0.3598 0.065,-0.157 0.068,-0.3391 0.012,-0.4992 -0.048,-0.1301 -0.134,-0.245 -0.242,-0.3328 -0.105,-0.0891 -0.231,-0.152 -0.364,-0.1954 -0.263,-0.0847 -0.546,-0.0867 -0.822,-0.0859 -0.544,0.003 -1.089,0.016 -1.631,-0.0219 -0.178,-0.0129 -0.355,-0.0308 -0.532,-0.0558 -0.173,-0.025 -0.347,-0.0571 -0.51,-0.116 -0.163,-0.0602 -0.319,-0.1481 -0.438,-0.2743 -0.108,-0.1129 -0.184,-0.2531 -0.225,-0.4039 -0.04,-0.15 -0.046,-0.309 -0.02,-0.4621 0.053,-0.3058 0.231,-0.5828 0.465,-0.7867 0.23501,-0.2043 0.52401,-0.3383 0.82301,-0.423 0.29899,-0.084 0.609,-0.1211 0.919,-0.1461 0.863,-0.07 1.73499,-0.0539 2.589,0.0789 0.777,0.1211 1.551,0.3429 2.202,0.7832 0.32499,0.2199 0.61599,0.4929 0.84,0.8136 0.227,0.3223 0.383,0.6934 0.441,1.0813 0.091,0.6098 -0.072,1.2418 -0.376,1.7777 -0.30701,0.5371 -0.747,0.9852 -1.232,1.3692 -1.003,0.7949 -2.20401,1.3289 -3.457,1.598 -1.25201,0.2692 -2.553,0.275 -3.818,0.0762 -2.502,-0.3934 -4.85901,-1.6 -6.675,-3.3652 -1.81401,-1.7649 -3.081,-4.0758 -3.639,-6.545 -0.583,-2.5832 -0.39,-5.341 0.582,-7.8039 0.971,-2.4633 2.72199,-4.6179 4.955,-6.0422 1.87699,-1.1968 4.105,-1.8769 6.331,-1.7808 2.22399,0.0961 4.431,0.9937 5.99,2.5847 1.419,1.4493 2.266,3.4524 2.287,5.4801 0.006,0.4781 -0.034,0.9653 -0.207,1.411 -0.172,0.4472 -0.486,0.8531 -0.921,1.055 -0.382,0.1789 -0.841,0.1852 -1.227,0.0172 -0.388,-0.1679 -0.696,-0.5082 -0.82701,-0.9101 l -2.40999,0.8039 c 0.143,0.6961 0.51,1.3429 1.035,1.82109 0.52599,0.47811 1.205,0.78321 1.911,0.85821 0.70899,0.075 1.43499,-0.0801 2.06799,-0.4071 0.633,-0.32811 1.17201,-0.825 1.578,-1.41009 0.81401,-1.16991 1.08401,-2.65311 0.996,-4.07581 -0.094,-1.5293 -0.579,-3.0273 -1.359,-4.34529 -0.78199,-1.31801 -1.85499,-2.457 -3.09799,-3.35391 -2.483,-1.7942 -5.603,-2.5899 -8.66801,-2.5692 -2.68999,0.0184 -5.38299,0.6461 -7.782,1.8633 -2.40099,1.218 -4.50399,3.027 -6.02799,5.2457 -1.525,2.2184 -2.461,4.8442 -2.63901,7.53011 -0.17799,2.68588 0.41201,5.42418 1.719,7.77808 1.509,2.72001 3.94901,4.8782 6.74801,6.2371 2.799,1.359 5.943,1.9411 9.054,1.8879 2.245,-0.039 4.50199,-0.407 6.56299,-1.2949 1.30301,-0.5609 2.535,-1.3441 3.43301,-2.441 0.898,-1.0981 1.43299,-2.53588 1.254,-3.943 -0.161,-1.2801 -0.90101,-2.4453 -1.892,-3.2711 -0.99,-0.8261 -2.21901,-1.332 -3.477,-1.6172 -1.17801,-0.2679 -2.418,-0.3488 -3.592,-0.0597 -1.173,0.289 -2.27501,0.9758 -2.915,2.0008 -0.685,1.1023 -0.771,2.5519 -0.222,3.7281 l -4.732,9.8e-4 0,0"
       sodipodi:nodetypes="cccccccccccccccccccccccccccccccccccccccccccccccccsccccccccccccc" /><path
       inkscape:connector-curvature="0"
       id="path7309-4-0-8-3"
       style="fill:#ffffff;fill-opacity:1;fill-rule:nonzero;stroke:none"
       d="m 624.59532,65.126022 c -0.711,0.082 -1.43201,0.082 -2.14301,0 -0.57499,-0.066 -1.14399,-0.186 -1.69599,-0.3571 0.486,0.7301 1.146,1.3454 1.91,1.7762 0.253,0.1442 0.52399,0.2692 0.813,0.2981 0.145,0.014 0.29299,0.003 0.432,-0.0411 0.138,-0.0449 0.267,-0.123 0.363,-0.2308 0.108,-0.1223 0.172,-0.2774 0.21799,-0.432 0.045,-0.1571 0.074,-0.3161 0.123,-0.4723 0.065,-0.2059 0.16601,-0.4 0.29501,-0.5719 l -0.315,0.0309 0,0"
       sodipodi:nodetypes="cccccccccccc" /><path
       style="fill:#100f0d;fill-opacity:1;fill-rule:nonzero;stroke:none"
       d="m 552.59792,51.677052 c 0.86414,0.0179 1.38501,-0.9938 1.14369,-2.62668 -0.55869,-3.78044 -3.19201,-7.1022 -4.3234,-8.46164 l 1.0777,-0.80055 c 0.26055,0.28375 0.93338,1.12727 1.09136,1.27678 0.15783,0.1631 0.76221,0.72555 2.2496,0.701 1.83476,-0.0303 2.74224,-2.40248 5.06032,-2.41727 2.27445,-0.0145 4.06219,1.24423 4.04144,4.93108 -0.008,1.46711 -0.6107,3.14125 -1.87881,4.00122 1.9669,3.17799 -0.10482,5.20949 -1.69772,5.24457 -1.97908,0.0436 -2.87887,-1.52383 -2.82332,-2.74028 0.10607,-2.32287 3.49059,-3.97794 3.46535,-6.46444 -0.0106,-1.04359 -0.63803,-1.97448 -1.58736,-2.01678 -1.62365,-0.0724 -3.52347,1.69347 -5.42624,0.69846 0.6597,0.87326 1.87371,3.07365 2.30479,5.36982 0.65336,3.48016 -0.29184,5.29538 -2.36664,5.21253 -0.8361,-0.0334 -1.2744,-0.74542 -2.81601,-1.51984 -1.44107,-1.07137 -1.05965,-1.10552 -0.95279,-2.42398 0.0824,-1.01609 1.2523,-1.07941 1.68132,-0.6862 0.74922,0.6867 0.61483,2.69854 1.75672,2.7222 z m 7.5084,-2.86769 c -2.16871,0.9868 -2.54235,3.20231 -0.79035,3.20627 1.37687,0.003 1.75243,-2.21282 0.79035,-3.20627 z"
       id="path7295-1-1-5-2-7"
       inkscape:connector-curvature="0"
       sodipodi:nodetypes="sscccssscsssscsscssscsc" /><path
       inkscape:connector-curvature="0"
       id="path7249-9-2-8-6-4"
       style="fill:#100f0d;fill-opacity:1;fill-rule:nonzero;stroke:none"
       d="m 561.23486,51.193712 c 0.69229,0.80029 1.7311,1.3015 2.79031,1.30436 0.74249,9.8e-4 1.47695,-0.23553 2.10242,-0.63415 0.62602,-0.39869 1.14402,-0.95558 1.53565,-1.58622 0.78175,-1.2614 1.04694,-2.78062 1.07989,-4.26484 0.0337,-1.52875 -0.17787,-3.10879 -0.95257,-4.42789 -0.38731,-0.6589 -0.91399,-1.24227 -1.55737,-1.65568 -0.64294,-0.41376 -1.40496,-0.65331 -2.16876,-0.63477 -0.9745,0.0233 -1.9189,0.46779 -2.60633,1.15922 -0.68777,0.69111 -1.12252,1.61338 -1.28648,2.57451 -0.0429,0.25542 -0.0686,0.52179 0.005,0.76982 0.037,0.12385 0.0987,0.2417 0.18654,0.33643 0.0888,0.0944 0.20485,0.16519 0.3314,0.19034 0.11347,0.0227 0.23319,0.009 0.34012,-0.0324 0.10739,-0.0419 0.20428,-0.11057 0.28259,-0.19546 0.15544,-0.16933 0.23817,-0.39572 0.27654,-0.6235 0.0374,-0.22774 0.035,-0.45927 0.0409,-0.6902 0.007,-0.23041 0.0227,-0.46429 0.0983,-0.68214 0.0843,-0.24399 0.24091,-0.46082 0.4414,-0.62312 0.20106,-0.16204 0.4436,-0.27021 0.69704,-0.31818 0.50699,-0.0948 1.04383,0.0553 1.46489,0.35392 0.42105,0.29862 0.73083,0.73497 0.93312,1.21026 0.20141,0.47528 0.30015,0.98749 0.35349,1.50038 0.0617,0.60604 0.0614,1.21676 0.0413,1.82499 -0.0178,0.5989 -0.0529,1.19954 -0.16428,1.78791 -0.0868,0.45906 -0.22426,0.91284 -0.45198,1.32133 -0.22878,0.40763 -0.55332,0.76888 -0.96204,0.99437 -0.40872,0.22638 -0.90678,0.30815 -1.35455,0.17587 -0.55265,-0.10417 -1.0527,-0.68682 -1.21985,-0.84955 -0.16765,-0.163 -0.4323,0.21497 -0.49229,-0.011"
       sodipodi:nodetypes="cccccccccccccccccccccccccccccc" /><use
       x="0"
       y="0"
       xlink:href="#path7255-7-8-3-3"
       id="use4716"
       transform="translate(144,-1.7375e-6)"
       width="100%"
       height="100%" /><g
       transform="matrix(0.96780809,0,0,-0.96780809,408.03869,235.41331)"
       style="font-style:normal;font-variant:normal;font-weight:bold;font-stretch:normal;font-size:50.3653717px;line-height:125%;font-family:Neuton;-inkscape-font-specification:'Neuton Bold';letter-spacing:0px;word-spacing:0px;fill:#000000;fill-opacity:1;stroke:none;stroke-width:1px;stroke-linecap:butt;stroke-linejoin:miter;stroke-opacity:1"
       id="text6139"><path
         d="m 263.00986,164.41393 0.30938,12.4396 c 1.33832,0.30813 1.81428,0.80789 4.3602,0.84766 2.84133,0.0444 5.0851,-3.90565 5.13239,-6.72523 0.0416,-2.48138 -0.96243,-4.7973 -4.31578,-6.06669 -1.65517,-0.62656 -5.48619,-0.49534 -5.48619,-0.49534 z m -11.37204,28.3755 0.44109,-2.45983 c 3.52826,0.47956 4.60993,-0.0387 4.86469,-1.6963 l 0.0799,-24.22667 c -1.23739,0.10014 -4.2612,0.002 -6.12953,-0.79407 l 1.15477,-1.62609 c 5.18795,0.82091 10.16527,-0.42272 14.3132,-0.42272 4.16433,0 6.99101,1.00974 9.25352,2.25575 2.26251,1.22963 3.39376,3.29539 3.39376,6.1973 0,1.85263 -0.68039,3.56591 -2.04118,5.13983 -1.34439,1.57392 -4.81611,3.02602 -6.71793,3.69822 0,0 4.56114,0.10115 6.29673,3.80457 2.33735,4.98746 2.50483,7.05318 5.10886,7.18572 0.6558,0.36069 4.67422,-0.77001 4.62913,0.88588 l -0.39969,2.33782 c -2.5197,0.0775 -8.30985,-0.51741 -11.12592,-2.25492 -2.213,-1.36541 -3.41289,-3.76748 -3.77898,-5.92306 -0.52656,-3.10047 -1.32426,-4.85151 -3.89063,-5.09032 -1.70504,-0.31387 -2.86684,-0.46586 -3.71873,-0.89932 l -0.0516,11.2061 4.05776,0.99887 -0.27052,1.68326 z"
         id="path4549"
         inkscape:connector-curvature="0"
         sodipodi:nodetypes="ccsascccccccscsccscccsscccccc" /><path
         d="m 310.37032,173.85323 q -4.15613,0 -4.15613,6.34486 0,6.00056 2.26251,8.36143 1.22962,1.30341 3.17242,1.30341 1.94281,0 2.92651,-1.54933 0.9837,-1.57392 0.9837,-3.68887 0,-2.13954 -0.14756,-3.49213 -0.12296,-1.35259 -0.49185,-2.70517 -0.34429,-1.37718 -0.90992,-2.36088 -1.27881,-2.21332 -3.63968,-2.21332 z m -9.8124,12.4192 q -0.6394,-2.04118 -0.6394,-4.5988 0,-2.55761 1.00829,-4.84471 1.00829,-2.2871 2.65599,-3.76265 3.46753,-3.07406 8.1401,-3.07406 4.67257,0 7.42693,2.97569 2.75435,2.9511 2.75435,8.38603 0,5.41034 -3.12324,8.75492 -3.09865,3.34458 -7.99255,3.34458 -8.04174,0 -10.23047,-7.181 z"
         id="path4551"
         inkscape:connector-curvature="0" /><path
         d="m 322.88788,198.69162 q 0,-2.31169 1.72148,-3.9102 1.91821,1.69688 4.59879,1.69688 2.68058,0 3.86101,-2.58221 l 0.39348,-0.88533 -7.32855,-18.19842 -3.09865,-1.20504 0.44266,-2.90191 11.97653,0 -0.36888,2.85273 -2.65599,1.15585 4.2545,11.38631 4.5496,-11.21417 -3.04946,-1.32799 0.51644,-2.85273 9.36973,0 -0.29511,2.85273 -2.43465,1.25422 -8.04174,18.81323 q -2.04118,4.77094 -4.18072,6.63997 -2.13955,1.89362 -5.50871,1.89362 -1.86903,0 -3.29539,-1.05748 -1.42637,-1.03288 -1.42637,-2.41006 z"
         id="path4553"
         inkscape:connector-curvature="0" /><path
         d="m 354.36624,186.71509 q 0,0.90992 0.61481,1.6231 0.63941,0.71318 1.9674,0.71318 1.35258,0 2.90191,-1.45095 l 0,-4.96768 q -5.48412,0.90992 -5.48412,4.08235 z m -5.80382,1.69688 q 0,-3.19702 2.90191,-5.43494 2.9265,-2.2625 8.38603,-2.45924 l 0,-1.84444 q 0,-2.23791 -0.95911,-3.73805 -0.9591,-1.50014 -2.50843,-1.50014 -1.52473,0 -1.9428,1.08207 -0.41807,1.08206 -0.664,4.20531 -3.29539,0 -4.13153,-1.35259 -0.39348,-0.61481 -0.39348,-1.72147 0,-1.13125 1.59851,-2.48384 1.59851,-1.37718 3.93479,-2.23791 2.36088,-0.86074 4.45124,-0.86074 6.39404,0 6.39404,7.54989 l 0,8.58277 q 0,1.00829 0.0738,1.22962 0.0984,0.19674 0.19674,0.49185 0.12296,0.29511 0.27051,0.39348 0.17215,0.0984 0.41808,0.27052 0.39348,0.27051 1.37717,0.44266 l 0.95911,0.17215 -0.46726,3.14783 q -1.54932,0.95911 -3.68887,0.95911 -2.11495,0 -2.97568,-0.86074 -0.86074,-0.88532 -1.25422,-2.72976 l -0.29511,-0.0738 q -0.59022,1.37718 -2.43465,2.55762 -1.81985,1.18044 -4.13154,1.18044 -2.2871,0 -3.71346,-1.27881 -1.40177,-1.3034 -1.40177,-3.68887 z"
         id="path4555"
         inkscape:connector-curvature="0" /><path
         d="m 369.73653,192.78943 0.31971,-3.14784 3.73805,-1.10666 0,-21.46922 -3.98398,-1.91821 0.56563,-3.04947 8.33684,-0.59022 1.0083,0.9837 0,26.04342 3.88561,1.13126 -0.31971,3.12324 -13.55045,0 z"
         id="path4557"
         inkscape:connector-curvature="0" /><path
         d="m 397.00957,178.37824 q 0,-4.8939 2.45925,-9.05002 2.90191,-4.84472 8.36144,-6.71375 3.07406,-1.05747 6.27108,-1.05747 3.19702,0 5.92678,0.66399 2.72976,0.63941 4.2299,1.79525 l -0.73777,9.29596 -3.19702,-0.44267 -1.27881,-5.5579 q -0.86073,-1.08207 -2.45924,-1.72147 -1.57392,-0.6394 -3.39377,-0.6394 -4.00857,0 -6.36944,2.90191 -2.33629,2.87732 -2.33629,8.58277 0,5.68086 3.00028,9.07462 3.02488,3.39376 7.74663,3.39376 4.72175,0 8.82869,-3.02487 l 1.18044,2.5822 q -1.64769,1.94281 -5.01686,3.46754 -3.34458,1.50014 -7.27937,1.50014 -7.23019,0 -11.58305,-3.98398 -4.35287,-3.98398 -4.35287,-11.06661 z"
         id="path4559"
         inkscape:connector-curvature="0" /><path
         d="m 436.7756,173.85323 q -4.15613,0 -4.15613,6.34486 0,6.00056 2.26251,8.36143 1.22962,1.30341 3.17243,1.30341 1.9428,0 2.9265,-1.54933 0.9837,-1.57392 0.9837,-3.68887 0,-2.13954 -0.14756,-3.49213 -0.12296,-1.35259 -0.49185,-2.70517 -0.34429,-1.37718 -0.90992,-2.36088 -1.27881,-2.21332 -3.63968,-2.21332 z m -9.8124,12.4192 q -0.6394,-2.04118 -0.6394,-4.5988 0,-2.55761 1.00829,-4.84471 1.00829,-2.2871 2.65599,-3.76265 3.46753,-3.07406 8.1401,-3.07406 4.67257,0 7.42693,2.97569 2.75435,2.9511 2.75435,8.38603 0,5.41034 -3.12324,8.75492 -3.09865,3.34458 -7.99255,3.34458 -8.04174,0 -10.23047,-7.181 z"
         id="path4561"
         inkscape:connector-curvature="0" /><path
         d="m 449.31775,192.78943 0.3197,-3.14784 3.73806,-1.10666 0,-21.46922 -3.98398,-1.91821 0.56562,-3.04947 8.33685,-0.59022 1.00829,0.9837 0,26.04342 3.88561,1.13126 -0.3197,3.12324 -13.55045,0 z"
         id="path4563"
         inkscape:connector-curvature="0" /><path
         d="m 463.48302,192.78943 0.3197,-3.14784 3.73805,-1.10666 0,-21.46922 -3.98398,-1.91821 0.56563,-3.04947 8.33685,-0.59022 1.00829,0.9837 0,26.04342 3.88561,1.13126 -0.3197,3.12324 -13.55045,0 z"
         id="path4565"
         inkscape:connector-curvature="0" /><path
         d="m 490.48554,177.78802 q 0,-3.98398 -2.72977,-3.98398 -1.42636,0 -2.41006,1.72148 -0.9591,1.69688 -1.03288,4.62338 l 6.02515,-0.59022 q 0.14756,-0.59022 0.14756,-1.77066 z m -12.32083,4.45124 q 0,-2.68058 0.95911,-5.01686 0.9837,-2.33629 2.58221,-3.86102 3.36916,-3.29539 7.57448,-3.29539 3.36916,0 5.38575,2.2871 2.01658,2.2871 2.01658,6.17271 0,1.84443 -0.46726,3.78724 l -11.80438,0.24592 q 0.14755,2.80354 1.84443,4.67257 1.72148,1.86903 4.84472,1.86903 3.14783,0 5.65627,-1.37718 l 0.49185,2.2871 q -1.50015,1.77066 -4.03317,2.65599 -2.50843,0.86073 -5.16442,0.86073 -4.27909,0 -7.08263,-2.95109 -2.80354,-2.9511 -2.80354,-8.33685 z"
         id="path4567"
         inkscape:connector-curvature="0" /><path
         d="m 508.26589,172.67279 q -2.80354,0 -2.80354,4.72175 0,3.41836 2.43465,4.77094 0.46726,0.24593 0.71318,0.24593 1.69688,0 2.38547,-1.00829 0.71318,-1.03289 0.71318,-3.5905 0,-1.42637 -0.56562,-2.70517 -1.08207,-2.43466 -2.87732,-2.43466 z m -4.59879,22.42833 q 0,3.66428 5.18901,3.66428 5.2136,0 5.2136,-3.46754 0,-1.45096 -1.13125,-2.01658 -1.10666,-0.56563 -3.86102,-0.56563 l -4.54961,0 q -0.0246,0.0738 -0.24592,0.41807 -0.61481,0.88533 -0.61481,1.9674 z m -2.43466,6.04975 q -1.42636,-0.59022 -2.2871,-1.77066 -0.86073,-1.15585 -0.86073,-2.58221 0,-1.42636 1.18044,-2.6068 1.20503,-1.18044 2.72976,-1.69688 l 0,-0.29511 q -2.33628,-1.13125 -2.33628,-3.56591 0,-1.22962 1.42636,-2.50843 1.42636,-1.27881 3.02487,-1.74606 l -0.0246,-0.29511 q -1.27881,-0.44267 -2.65599,-2.26251 -1.37718,-1.81984 -1.37718,-3.9348 0,-3.04946 2.55762,-5.38575 2.58221,-2.33628 6.2219,-2.33628 3.63968,0 6.02515,1.54932 l 5.5333,-0.59021 0.61482,0.71318 -1.03289,3.73805 -0.61481,0.0492 -2.63139,-0.83615 -0.0492,0.24593 q 0.44267,1.22962 0.44267,2.33628 0,2.31169 -1.27881,4.10694 -2.55762,3.51673 -7.37774,3.51673 -0.73778,0 -1.91821,-0.22134 -0.93452,0.9837 -0.93452,1.69688 0,1.50015 3.44295,1.50015 l 3.34457,0 q 3.71347,0 5.63168,1.22962 1.9428,1.22962 1.9428,4.42664 0,3.22162 -3.68887,5.92679 -3.68887,2.72976 -9.00084,2.72976 -3.39376,0 -6.04975,-1.13125 z"
         id="path4569"
         inkscape:connector-curvature="0" /><path
         d="m 534.16176,177.78802 q 0,-3.98398 -2.72976,-3.98398 -1.42637,0 -2.41006,1.72148 -0.95911,1.69688 -1.03289,4.62338 l 6.02516,-0.59022 q 0.14755,-0.59022 0.14755,-1.77066 z m -12.32082,4.45124 q 0,-2.68058 0.9591,-5.01686 0.9837,-2.33629 2.58221,-3.86102 3.36917,-3.29539 7.57448,-3.29539 3.36917,0 5.38575,2.2871 2.01658,2.2871 2.01658,6.17271 0,1.84443 -0.46725,3.78724 l -11.80439,0.24592 q 0.14756,2.80354 1.84444,4.67257 1.72147,1.86903 4.84471,1.86903 3.14784,0 5.65627,-1.37718 l 0.49185,2.2871 q -1.50014,1.77066 -4.03317,2.65599 -2.50843,0.86073 -5.16441,0.86073 -4.27909,0 -7.08263,-2.95109 -2.80354,-2.9511 -2.80354,-8.33685 z"
         id="path4571"
         inkscape:connector-curvature="0" /></g></g></svg>