<?xml version="1.0" encoding="UTF-8" standalone="no"?>
<!-- Created with Inkscape (http://www.inkscape.org/) -->

<svg
   xmlns:dc="http://purl.org/dc/elements/1.1/"
   xmlns:cc="http://creativecommons.org/ns#"
   xmlns:rdf="http://www.w3.org/1999/02/22-rdf-syntax-ns#"
   xmlns:svg="http://www.w3.org/2000/svg"
   xmlns="http://www.w3.org/2000/svg"
   xmlns:xlink="http://www.w3.org/1999/xlink"
   xmlns:sodipodi="http://sodipodi.sourceforge.net/DTD/sodipodi-0.dtd"
   xmlns:inkscape="http://www.inkscape.org/namespaces/inkscape"
   id="svg7233"
   version="1.1"
   inkscape:version="0.91+devel+osxmenu r12855"
   xml:space="preserve"
   width="444.82666"
   height="343.73334"
   viewBox="0 0 444.82666 343.73334"
   sodipodi:docname="royal_logo_svg.svg"><metadata
     id="metadata7239"><rdf:RDF><cc:Work
         rdf:about=""><dc:format>image/svg+xml</dc:format><dc:type
           rdf:resource="http://purl.org/dc/dcmitype/StillImage" /><dc:title /></cc:Work></rdf:RDF></metadata><defs
     id="defs7237"><inkscape:path-effect
       effect="spiro"
       id="path-effect6121"
       is_visible="true" /></defs><sodipodi:namedview
     pagecolor="#ffffff"
     bordercolor="#666666"
     borderopacity="1"
     objecttolerance="10"
     gridtolerance="10"
     guidetolerance="10"
     inkscape:pageopacity="0"
     inkscape:pageshadow="2"
     inkscape:window-width="1680"
     inkscape:window-height="1001"
     id="namedview7235"
     showgrid="false"
     inkscape:zoom="3.4283018"
     inkscape:cx="953.13529"
     inkscape:cy="77.374143"
     inkscape:window-x="0"
     inkscape:window-y="23"
     inkscape:window-maximized="0"
     inkscape:current-layer="g7241"
     showguides="false"
     inkscape:guide-bbox="true"><sodipodi:guide
       orientation="0,1"
       position="371.67278,186.04265"
       id="guide4537" /><sodipodi:guide
       orientation="0,1"
       position="270.19497,156.75434"
       id="guide5843" /><sodipodi:guide
       orientation="0,1"
       position="176.90975,200.53661"
       id="guide5845" /><sodipodi:guide
       orientation="0,1"
       position="305.54487,145.55312"
       id="guide5847" /><sodipodi:guide
       orientation="0,1"
       position="47.107873,184.49368"
       id="guide6544" /><sodipodi:guide
       orientation="0,1"
       position="193.46785,165.88115"
       id="guide4516" /><sodipodi:guide
       orientation="1,0"
       position="373.65439,120.46781"
       id="guide4542" /><sodipodi:guide
       orientation="0,1"
       position="383.71769,98.736934"
       id="guide4544" /><sodipodi:guide
       orientation="0,1"
       position="692.19414,18.975525"
       id="guide4588" /><sodipodi:guide
       orientation="1,0"
       position="656.71816,89.927487"
       id="guide4590" /><sodipodi:guide
       orientation="0,1"
       position="152.62922,77.964656"
       id="guide4640" /><sodipodi:guide
       orientation="0,1"
       position="169.74844,72.808263"
       id="guide4642" /><sodipodi:guide
       orientation="0,1"
       position="172.32664,64.661163"
       id="guide4674" /><sodipodi:guide
       orientation="0,1"
       position="299.12769,72.2661"
       id="guide5887" /><sodipodi:guide
       orientation="0,1"
       position="122.21794,92.90314"
       id="guide5889" /><sodipodi:guide
       orientation="0,1"
       position="104.67477,91.654876"
       id="guide5891" /><sodipodi:guide
       orientation="0,1"
       position="890.82006,53.087508"
       id="guide4573" /><sodipodi:guide
       orientation="0,1"
       position="504.62302,98.736934"
       id="guide4575" /><sodipodi:guide
       orientation="0,1"
       position="503.47016,102.92159"
       id="guide4577" /><sodipodi:guide
       orientation="0,1"
       position="689.30654,107.45922"
       id="guide4579" /></sodipodi:namedview><g
     id="g7241"
     inkscape:groupmode="layer"
     inkscape:label="ink_ext_XXXXXX"
     transform="matrix(1.3333333,0,0,-1.3333333,0,343.73333)"><path
       inkscape:connector-curvature="0"
       id="path7309-4-0-8"
       style="fill:#ffffff;fill-opacity:1;fill-rule:nonzero;stroke:none"
       d="m 295.40843,134.72504 c -0.711,0.082 -1.43201,0.082 -2.14301,0 -0.57499,-0.066 -1.14399,-0.186 -1.69599,-0.3571 0.486,0.7301 1.146,1.3454 1.91,1.7762 0.253,0.1442 0.52399,0.2692 0.813,0.2981 0.145,0.014 0.29299,0.003 0.432,-0.0411 0.138,-0.0449 0.267,-0.123 0.363,-0.2308 0.108,-0.1223 0.172,-0.2774 0.21799,-0.432 0.045,-0.1571 0.074,-0.3161 0.123,-0.4723 0.065,-0.2059 0.16601,-0.4 0.29501,-0.5719 l -0.315,0.0309 0,0" /><path
       inkscape:connector-curvature="0"
       style="fill:#100f0d;fill-opacity:1;fill-rule:nonzero;stroke:none"
       d="m 377.7816,77.087102 c -0.0896,-0.005 -0.179,-0.0179 -0.2666,-0.0381 -0.3015,-0.0699 -0.58015,-0.22796 -0.81445,-0.43066 -0.2364,-0.2032 -0.42909,-0.44972 -0.59619,-0.71192 -0.3348,-0.52299 -0.56787,-1.10677 -0.90967,-1.62597 -0.6269,-0.9492 -1.5822,-1.62706 -2.5459,-2.23096 -3.2528,-2.041 -6.84355,-3.49076 -10.13965,-5.46386 -1.9563,-1.17111 -3.82857,-2.54749 -5.2251,-4.35059 -1.39766,-1.8032 -2.28603,-4.07607 -2.09033,-6.34717 0.18828,-2.1922 1.38413,-4.23236 3.05713,-5.66016 1.6731,-1.42809 3.79175,-2.27534 5.96045,-2.64404 2.9367,-0.5 6.05079,-0.13537 8.68359,1.25684 2.6324,1.39179 4.73463,3.85015 5.46973,6.73535 0.659,2.5879 0.18266,5.44471 -1.28174,7.67871 -1.4641,2.234 -3.89424,3.81115 -6.53174,4.23925 1.7383,0.5121 3.43043,1.18477 5.04493,2.00977 0.9882,0.5039 1.95944,1.07363 2.75244,1.84864 0.7949,0.7762 1.40359,1.78237 1.53369,2.88427 0.0828,0.7129 -0.0482,1.47285 -0.47901,2.04786 -0.2149,0.28789 -0.50123,0.52377 -0.83203,0.66357 -0.24787,0.10522 -0.52076,0.15495 -0.78955,0.13916 z m -7.75781,-11.38183 c 0.23018,-0.006 0.45982,-0.0217 0.68994,-0.0498 0.9207,-0.1129 1.8269,-0.41321 2.5957,-0.93311 0.7671,-0.51999 1.39205,-1.26687 1.70655,-2.13867 0.3027,-0.8403 0.31076,-1.77298 0.085,-2.63818 -0.2261,-0.8649 -0.67548,-1.66068 -1.24659,-2.34668 -1.1457,-1.3711 -2.74001,-2.28138 -4.32861,-3.09668 -1.7012,-0.8738 -3.49121,-1.68733 -5.39941,-1.81933 -0.9543,-0.0648 -1.9263,0.0455 -2.8169,0.3955 -0.8911,0.3492 -1.69585,0.94441 -2.23095,1.73731 -0.6309,0.934 -0.8642,2.10905 -0.7251,3.22705 0.1363,1.1179 0.63055,2.17761 1.32275,3.06591 1.3871,1.7769 3.49493,2.8315 5.60742,3.61671 1.52163,0.56533 3.12896,1.02429 4.74024,0.97998 z"
       id="path7245-7-2-5-6"
       sodipodi:nodetypes="ccccccccccccccccccccccccccccccccccccc" /><path
       inkscape:connector-curvature="0"
       id="path7249-9-2-8-2"
       style="fill:#100f0d;fill-opacity:1;fill-rule:nonzero;stroke:none"
       d="m 379.79194,60.597042 c -0.12429,1.5449 0.34101,3.1418 1.32341,4.3418 0.982,1.1992 2.4832,1.9742 4.03399,2.0203 1.08711,0.0316 2.17191,-0.2864 3.10351,-0.8453 0.9324,-0.559 1.7129,-1.3539 2.31129,-2.2618 1.1946,-1.816 1.64301,-4.03 1.75001,-6.2019 0.1098,-2.2371 -0.13751,-4.55899 -1.2195,-6.52109 -0.54101,-0.9801 -1.2891,-1.8551 -2.2148,-2.4859 -0.925,-0.6313 -2.0313,-1.0122 -3.1504,-1.0153 -1.4278,-0.005 -2.8282,0.609 -3.86211,1.5942 -1.0344,0.9847 -1.70749,2.3179 -1.98559,3.7187 -0.073,0.3723 -0.1211,0.7613 -0.0227,1.1274 0.0493,0.18279 0.13481,0.35779 0.2598,0.49999 0.12621,0.1418 0.2934,0.25 0.47771,0.2918 0.1653,0.0378 0.3411,0.023 0.4993,-0.034 0.159,-0.0571 0.3035,-0.1539 0.4215,-0.275 0.2343,-0.2418 0.3644,-0.57 0.4296,-0.902 0.0637,-0.332 0.0696,-0.6711 0.0871,-1.009 0.0188,-0.3371 0.0516,-0.6789 0.1708,-0.9949 0.1332,-0.3539 0.371,-0.6652 0.671,-0.8949 0.3008,-0.2293 0.6602,-0.3781 1.0332,-0.4383 0.7461,-0.1187 1.5262,0.1223 2.1309,0.5762 0.6047,0.4539 1.041,1.1051 1.3184,1.809 0.2761,0.7039 0.4004,1.4578 0.4582,2.2109 0.0664,0.8898 0.0418,1.784 -0.0102,2.6738 -0.0496,0.8762 -0.125,1.7543 -0.3113,2.6114 -0.1453,0.6687 -0.3645,1.3277 -0.7141,1.9168 -0.3511,0.5878 -0.8406,1.1039 -1.448,1.4179 -0.6074,0.3153 -1.3399,0.4153 -1.9903,0.2039 -0.3253,-0.1047 -0.6281,-0.2867 -0.8664,-0.5316 -0.239,-0.2453 -0.4148,-0.5531 -0.4937,-0.8863 -0.0735,-0.311 -0.0625,-0.636 -0.0344,-0.9539 0.0274,-0.3188 0.0723,-0.6372 0.0645,-0.9571 -0.006,-0.3199 -0.0664,-0.6461 -0.2356,-0.9179 -0.084,-0.136 -0.1949,-0.2559 -0.3277,-0.3438 -0.1328,-0.0891 -0.2895,-0.1453 -0.4485,-0.1531 -0.1867,-0.0102 -0.3718,0.0461 -0.53,0.1449 -0.1567,0.098 -0.2864,0.2379 -0.3852,0.3961 -0.198,0.318 -0.2637,0.6969 -0.2937,1.068 l 0,0"
       sodipodi:nodetypes="cccccccccccccccccccccscccccccccccccccccc" /><path
       style="fill:#100f0d;fill-opacity:1;fill-rule:nonzero;stroke:none"
       d="m 419.14913,77.238272 c -0.29123,0.004 -0.58521,-0.0267 -0.87049,-0.0835 -0.57179,-0.11481 -1.11781,-0.33225 -1.64228,-0.58662 -1.21472,-0.58833 -2.33581,-1.38567 -3.23615,-2.38991 -0.90153,-1.00411 -1.57769,-2.22024 -1.88959,-3.53309 -0.17901,-0.75139 -0.32363,-1.71457 -0.25961,-2.48437 -1.78157,-0.91632 -2.48606,-2.29813 -2.54433,-3.69422 -0.0198,-0.8242 0.38705,-1.62644 0.71629,-2.27396 0.35417,-0.0996 1.3441,-0.14425 2.0512,-0.15268 1.0698,-0.0127 3.10289,0.16721 4.31765,-0.31113 0.51149,-0.15442 1.00386,-0.3954 1.40831,-0.74513 0.40569,-0.34866 0.72013,-0.81047 0.8552,-1.32741 0.14465,-0.55599 0.0748,-1.15814 -0.15204,-1.68479 -0.22687,-0.52666 -0.60436,-0.98096 -1.05494,-1.33779 -0.89807,-0.71435 -2.04469,-1.03207 -3.16998,-1.25332 -3.61517,-0.71263 -7.36401,-0.61333 -10.98925,0.0552 -1.20884,0.22406 -2.44743,0.52886 -3.41872,1.2819 -0.48569,0.37667 -0.89404,0.86388 -1.13014,1.43195 -0.23494,0.56714 -0.28792,1.21676 -0.10051,1.80177 0.129,0.39875 0.36827,0.75179 0.66837,1.04449 0.0439,0.038 0.0838,0.0799 0.12996,0.1158 0.45203,0.35214 1.00539,0.60116 1.58866,0.77896 0.088,0.0209 0.17563,0.0438 0.26438,0.0599 0.0816,0.015 0.13344,0.0386 0.20708,0.0561 0.76223,0.18083 1.5422,0.26687 2.19372,0.29248 1.58484,0.0624 3.07986,0.003 4.03667,-0.12433 0.48015,1.20403 0.76046,3.10596 -0.0181,4.5061 -0.34943,0.5767 -0.84551,1.05926 -1.41177,1.42531 -1.13053,0.73236 -2.50572,0.9994 -3.85089,1.07075 -1.16691,0.062 -2.38737,-0.0221 -3.41272,-0.58411 -0.51421,-0.28076 -0.96814,-0.68072 -1.27385,-1.17945 -0.30575,-0.49764 -0.45733,-1.09674 -0.38191,-1.67705 0.0521,-0.40512 0.21797,-0.79442 0.46803,-1.1165 0.25109,-0.32278 0.58941,-0.57512 0.96927,-0.72593 0.37987,-0.15072 0.79917,-0.19753 1.20172,-0.13425 0.4036,0.0619 0.79001,0.23566 1.10567,0.49478 0.51469,0.4218 1.04101,0.82918 1.58151,1.2189 0.26723,0.19569 0.53807,0.38656 0.83445,0.53617 0.29539,0.14916 0.62038,0.25433 0.95128,0.26254 0.54182,0.0142 1.0815,-0.24335 1.41225,-0.67197 0.32874,-0.42907 0.44134,-1.01846 0.28819,-1.53841 -0.8581,0.0349 -1.71515,0.0327 -2.57245,-0.006 -1.50877,-0.0684 -3.29553,-0.46748 -4.41851,-1.04377 -1.75224,-0.89921 -3.11811,-2.55074 -3.5133,-4.7505 -0.39518,-2.19975 0.29415,-4.62923 1.72972,-6.45052 1.34459,-1.70325 3.28579,-2.87779 5.35696,-3.52521 2.07119,-0.64714 4.27157,-0.79339 6.44026,-0.69339 2.85283,0.13098 5.75863,0.7115 8.16352,2.25316 1.20125,0.771 2.26163,1.77875 3.02604,2.98326 0.76482,1.20503 1.22882,2.61198 1.25152,4.03973 0.0211,1.34615 -0.35395,2.69752 -1.06659,3.83937 -0.71276,1.14146 -1.7596,2.0729 -2.97848,2.64627 1.32685,0.54737 1.78376,1.3869 1.89165,2.54131 0.0293,2.24798 -2.66514,3.56331 -5.14013,3.01784 0.58144,1.7256 2.02175,3.10334 3.77792,3.58347 0.77515,0.21111 1.59125,0.25391 2.36011,0.48914 0.38546,0.11709 0.75832,0.28441 1.0761,0.53095 0.31904,0.2452 0.57897,0.57334 0.70641,0.95527 0.0902,0.27722 0.11023,0.57497 0.0613,0.86268 -0.0481,0.28819 -0.16373,0.56322 -0.32761,0.80397 -0.32694,0.48239 -0.84499,0.8181 -1.40632,0.9781 -0.27947,0.08 -0.56943,0.11755 -0.86066,0.12136 z m -4.54368,-10.39681 c 1.29786,-0.0336 1.86962,-0.65073 1.8433,-1.31966 -0.008,-0.21014 -0.0718,-0.43162 -0.21201,-0.59379 -0.24263,-0.28161 -0.55083,-0.36547 -0.86053,-0.35354 -0.52463,0.0207 -1.07929,0.27362 -1.40658,0.70989 -0.28124,0.37459 -0.41183,0.9007 -0.35701,1.36633 0.18906,0.10325 0.67058,0.19913 0.99283,0.19077 z m -2.84986,-0.84345 c 0.0604,-0.41326 0.17323,-0.81766 0.33619,-1.20146 0.13944,-0.32789 0.31432,-0.64034 0.52266,-0.93072 -0.55363,-0.0682 -1.4129,-0.14019 -2.03878,0.0862 -0.35384,0.43771 -0.0547,1.07411 0.11856,1.29079 0.31467,0.38572 0.60387,0.5606 1.06139,0.7551 z"
       id="path7251-7-8-9-4"
       inkscape:connector-curvature="0"
       sodipodi:nodetypes="ccccccccscccccccccccccccccccccccccccccccccsccccccccccccccccccsccccccccccccccc" /><path
       style="fill:#100f0d;fill-opacity:1;fill-rule:nonzero;stroke:none"
       d="m 439.88934,74.024812 c -1.8263,-1.71921 -3.12408,-3.99205 -3.67439,-6.43875 l -3.39139,-2.53901 c -0.0354,1.09058 -0.49807,2.16137 -1.26902,2.93501 -0.70278,0.70575 -1.66194,1.1599 -2.6556,1.21858 -0.86743,0.0514 -1.74174,-0.19645 -2.48065,-0.6509 -0.73961,-0.45484 -1.34953,-1.10884 -1.79519,-1.85448 -0.54008,-0.89863 -0.84867,-1.93486 -0.88049,-2.98269 -0.0187,-0.58384 0.0484,-1.17519 0.24817,-1.72519 0.19891,-0.54888 0.53411,-1.0562 0.99539,-1.41466 0.4613,-0.35885 1.05248,-0.56232 1.63419,-0.51415 0.29134,0.0241 0.57756,0.11145 0.8302,0.25698 0.25417,0.1456 0.473,0.353 0.62703,0.6003 0.28174,0.44924 0.34051,1.00641 0.2949,1.53379 -0.0456,0.52747 -0.18819,1.04059 -0.28347,1.56145 -0.0953,0.52087 -0.14264,1.06487 0.004,1.57475 0.0721,0.25401 0.19296,0.49643 0.36723,0.69662 0.17387,0.1991 0.4,0.35387 0.65464,0.42717 0.25542,0.0735 0.53401,0.0629 0.78793,-0.0168 0.25434,-0.0794 0.48512,-0.22535 0.67865,-0.40806 0.3967,-0.37583 0.63261,-0.91703 0.63894,-1.46243 0.006,-0.54497 -0.21708,-1.08976 -0.60489,-1.47506 -0.8491,-1.05379 -1.66173,-2.13712 -2.43441,-3.24865 -1.44634,-2.07887 -2.75296,-4.25181 -4.16434,-6.35481 -0.19355,-0.28841 -0.38878,-0.57566 -0.53758,-0.88831 -0.14958,-0.31333 -0.25182,-0.65407 -0.24423,-1.00106 0.008,-0.34699 0.13298,-0.70028 0.38334,-0.93986 0.12621,-0.12004 0.27962,-0.20998 0.4487,-0.25345 0.16799,-0.0427 0.34796,-0.0386 0.51145,0.0199 0.15996,0.0562 0.29924,0.16308 0.41882,0.28301 0.1191,0.12063 0.22103,0.25615 0.32903,0.38788 0.1063,0.13216 0.2201,0.2599 0.3566,0.36126 0.13581,0.10187 0.29541,0.17313 0.4647,0.18148 0.1813,0.009 0.361,-0.0566 0.50522,-0.16613 0.14465,-0.10803 0.2541,-0.25696 0.33721,-0.41789 0.16213,-0.32271 0.21439,-0.68849 0.3165,-1.03441 0.2534,-0.84354 0.82153,-1.58178 1.55587,-2.06913 0.73423,-0.48735 1.62356,-0.72604 2.50389,-0.7073 1.07838,0.0221 2.14515,0.43099 2.96152,1.13398 0.81796,0.70409 1.3801,1.69561 1.56238,2.75917 0.14142,-0.91354 0.55676,-1.78254 1.17695,-2.46679 0.62029,-0.68504 1.44595,-1.18226 2.34022,-1.41178 1.16779,-0.30061 2.42889,-0.1424 3.52947,0.3476 1.10059,0.49029 2.04373,1.29731 2.78204,2.24908 1.57773,2.03578 2.20984,4.79217 1.61147,7.29698 -0.54402,2.27547 -2.07249,4.27585 -4.06367,5.5056 -1.99069,1.22986 -4.41514,1.70272 -6.7406,1.4346 -0.6844,-0.0784 -1.36033,-0.2176 -2.01984,-0.41812 1.56839,1.09861 3.42247,1.7862 5.32684,1.97646 3.16338,0.31699 6.36571,-0.74266 8.99606,-2.52766 1.6898,-1.14679 3.18759,-2.60223 4.24647,-4.34865 1.05785,-1.7457 1.66081,-3.7895 1.56574,-5.82965 -0.0892,-1.63402 -0.49934,-3.47583 -2.76304,-3.59031 -1.17149,-0.007 -1.67945,0.80816 -2.00651,1.56002 l -2.0564,-0.58916 c 0.49692,-1.76252 1.88588,-3.29793 4.18468,-3.33286 1.43011,0.004 2.90175,0.72501 3.87311,1.7725 0.97236,1.04748 1.58486,2.38467 1.98239,3.75704 0.77639,2.67526 0.77957,5.56965 0.0109,8.24735 -0.76869,2.6776 -2.61251,5.31947 -4.69032,7.17591 1.5595,0.87582 2.06602,2.19637 2.08378,3.49089 0.0136,0.97255 -0.28385,1.96988 -0.81769,2.80017 -0.53285,0.83029 -1.28965,1.50945 -2.14992,1.99294 -1.07723,0.60321 -2.60009,0.85116 -4.2466,0.87538 -3.12849,0.0191 -6.23644,-1.56963 -8.15622,-3.33592 z m 8.59719,-4.31558 c 0,0 -1.07503,0.15421 -1.52253,0.20865 -2.70712,0.32476 -6.17741,-0.1168 -8.39761,-1.12527 0.19662,0.71895 1.55357,2.41236 2.7309,3.1512 2.28089,1.43139 4.81222,2.32022 7.79829,2.10913 0,0 -1.24706,-0.65302 -1.26847,-2.61189 -0.0108,-1.0186 0.65942,-1.73182 0.65942,-1.73182 z m 3.21691,3.52836 c 1.12272,-0.0228 1.89073,-1.04877 1.87427,-1.98114 -0.0223,-1.24877 -0.82004,-1.95021 -1.85367,-1.91996 -1.22423,0.004 -2.05094,1.085 -2.00626,2.02614 -0.008,0.76959 0.55058,1.90404 1.98566,1.87496 z m -17.50102,-17.28408 c -0.28547,-1.54666 -1.27431,-3.27877 -3.94562,-3.16311 -1.33169,0.0577 -2.51904,1.7402 -3.83606,1.12928 0.75578,1.37544 1.60743,2.69829 2.54834,3.95508 1.22983,1.64298 2.65204,3.20781 4.47663,4.14998 1.2306,0.63534 2.62641,0.96416 4.00811,0.90395 l 0,-4e-5 c 0.19738,-0.009 0.39503,-0.0251 0.59134,-0.0497 1.57033,-0.19747 3.08067,-0.92431 4.16627,-2.07726 0.76236,-0.81065 1.32253,-1.86652 1.32719,-2.97951 0.004,-0.76917 -0.25831,-1.53058 -0.70391,-2.15821 -0.44489,-0.62655 -1.068,-1.12038 -1.76336,-1.44756 -0.69586,-0.32717 -1.47815,-0.49331 -2.24092,-0.40569 -0.76489,0.0864 -1.50703,0.43529 -2.01306,1.01449 -0.47903,0.54775 -0.56354,0.8879 -0.74436,1.59351 -0.0958,0.37379 -0.15481,0.6926 -0.24225,1.04702 l -1.59126,-0.8171 c 0,0 0.0143,-0.43286 -0.037,-0.6951 z"
       id="path7253-9-0-8-4"
       inkscape:connector-curvature="0"
       sodipodi:nodetypes="cccccccccccccsscccccccccccccccccccccccccccccccccccccccccccscccccccccaacscssccscsccccccccccccscccc" /><path
       style="fill:#100f0d;fill-opacity:1;fill-rule:nonzero;stroke:none"
       d="m 481.57775,69.719262 c -2.41472,-0.0126 -4.32097,-1.021 -5.31006,-3.05273 -0.93739,-1.92554 -0.15967,-3.73535 -0.15966,-3.73535 1.55715,0.57144 3.27666,0.76674 4.58496,0.85839 1.46709,0.0581 2.72882,-0.41301 3.56982,-1.35791 0.843,-0.9442 1.25709,-2.68666 0.93164,-3.85988 -0.67234,-2.42376 -3.28113,-3.89318 -5.63379,-4.05323 -0.0689,-0.004 -0.14129,7.5e-4 -0.21094,-10e-4 0.008,0.009 0.0227,0.0177 0.0308,0.0263 -1.9099,-0.10755 -2.8995,0.41101 -3.77958,1.4209 -0.46944,0.55599 -0.82962,1.22699 -0.99814,1.93563 -0.0893,0.37541 -0.16604,0.68094 -0.24726,1.16251 l -1.59112,-0.72261 c 0,0 -0.0163,-0.49372 -0.0595,-0.73783 -0.37839,-2.13441 -2.96555,-3.36642 -4.77071,-3.47315 -1.02567,-0.0607 -2.2005,0.31017 -2.97364,0.81155 -1.01,0.6711 -1.74603,1.72995 -2.06103,2.90185 -0.31601,1.1711 -0.0838,2.77031 0.36524,3.89651 0.54501,1.364 1.46705,2.51116 2.76806,3.18897 0.887,0.46329 1.55298,0.69189 2.54049,0.68017 1.6437,-0.0195 2.99971,-0.87664 3.77592,-2.31348 l 1.70213,0.74609 c -0.80041,2.45146 -3.09578,3.68347 -5.43796,3.64437 -3.38891,-0.0685 -5.82606,-2.38154 -7.05568,-5.06575 -0.605,-1.35 -0.94359,-2.81223 -1.07959,-4.28613 -0.207,-2.264 0.0793,-4.61535 1.13233,-6.63135 0.525,-1.0082 1.23868,-1.9229 2.11669,-2.64551 0.879,-0.72309 1.92269,-1.24999 3.03369,-1.48828 1.55199,-0.33201 3.22294,-0.0804 4.60694,0.6958 1.383,0.7762 2.472,2.06862 3,3.56543 0.357,-1.15391 1.05587,-2.2009 1.98486,-2.97509 0.93,-0.77261 2.08665,-1.27138 3.28565,-1.41358 1.09,-0.1289 2.20844,0.0321 3.23144,0.43213 1.02,0.4 1.94405,1.03609 2.70704,1.8252 1.52399,1.5777 2.37343,3.73517 2.58544,5.91796 0.26299,2.7192 -0.44599,5.54848 -2.083,7.73438 -0.404,0.53709 -1.26812,1.29324 -1.54835,1.42675 0.52508,0.34107 0.75471,1.1276 0.76172,1.72559 -0.10545,1.86251 -1.93034,3.17115 -3.71484,3.2168 z m -0.88623,-2.05371 c 0.83406,-0.0378 1.04926,-0.55057 0.9331,-1.0957 -0.14971,-0.70257 0.0776,-0.87159 0.0776,-0.87159 -0.79999,0.13384 -1.36996,0.0335 -2.0376,-0.0424 -0.57499,-0.066 -1.14575,-0.18484 -1.69775,-0.35595 0.023,1.26809 1.21982,2.23977 2.72461,2.36572 z"
       id="path7255-7-8-3-3"
       inkscape:connector-curvature="0"
       sodipodi:nodetypes="cscccscccccccssccccsccccccccccccccccccccccccccc" /><path
       sodipodi:nodetypes="cssasssscccccccccccccccccccccccaacsscscssss"
       inkscape:connector-curvature="0"
       id="path7293-4-1-4-4"
       d="m 505.58685,74.665642 c -0.0431,-2.28228 0.82514,-3.27267 2.81696,-3.96796 1.97551,-0.6896 4.52022,-0.5077 8.91487,-0.83474 4.0286,-0.29981 7.20737,-2.69146 8.53439,-5.88132 0.89031,-2.14015 0.43903,-4.90697 -1.23769,-6.84284 -2.09216,-2.41553 -5.77865,-3.20633 -8.96924,-3.38524 -3.1357,-0.17583 -8.68207,0.71506 -8.69678,3.89061 -0.0137,2.97141 3.38225,3.45049 5.45508,3.48048 1.5859,0.023 3.07937,-0.0727 4.03272,-0.22413 0.50988,1.19175 0.83732,3.08682 0.0937,4.50586 -0.33501,0.5852 -0.81849,1.07899 -1.3755,1.45898 -1.11199,0.7602 -2.48024,1.06132 -3.82323,1.16602 -1.16501,0.091 -2.38728,0.0369 -3.42627,-0.49951 -0.52101,-0.2679 -0.98425,-0.65598 -1.30225,-1.14697 -0.318,-0.4899 -0.48434,-1.085 -0.42334,-1.667 0.042,-0.40629 0.19745,-0.79973 0.43945,-1.12792 0.243,-0.32891 0.57469,-0.58981 0.95068,-0.75 0.37601,-0.1601 0.79425,-0.21727 1.19825,-0.16407 0.405,0.0519 0.79567,0.21609 1.11767,0.46729 0.525,0.4089 1.06133,0.803 1.61133,1.1792 0.272,0.189 0.54815,0.37342 0.84815,0.51562 0.299,0.1418 0.62554,0.23877 0.95654,0.23877 0.542,7.5e-4 1.07599,-0.26935 1.396,-0.70605 0.318,-0.4371 0.41502,-1.02942 0.24902,-1.54542 -0.857,0.0558 -1.71427,0.0743 -2.57227,0.0572 -1.51,-0.0309 -3.05243,-0.18224 -4.41943,-0.82324 -1.83,-0.8582 -3.22484,-2.60975 -3.61084,-4.59375 -0.204,-1.0461 -0.13412,-2.13716 0.15088,-3.16406 0.285,-1.027 0.78429,-1.98834 1.42529,-2.84034 1.909,-2.541 5.0125,-4.01774 8.16651,-4.41064 4.59199,-0.57111 9.44018,1.10801 12.59618,4.49121 1.578,1.6906 2.89635,3.7641 3.31788,6.01465 0.45899,2.45055 0.0526,5.1515 -0.99765,7.41264 -0.79116,1.70326 -2.26667,3.12687 -3.78193,4.17616 0.54913,0.11213 2.71486,1.11108 2.72657,3.34415 0.0236,4.50309 -5.1355,7.74964 -11.20447,7.87951 -6.18675,0.13238 -10.99462,-2.20839 -11.15723,-5.70315 z m 19.12066,-2.81739 c 0.0114,-0.88196 -0.96486,-1.73416 -2.16792,-1.30301 -1.42343,0.63175 -2.82117,1.20019 -5.40264,1.29919 -4.18905,0.16063 -10.5898,-0.19939 -9.11139,2.70819 1.00714,1.98074 6.12057,1.88071 10.34893,1.14816 3.71515,-0.64363 6.30587,-1.76224 6.33302,-3.85253 z"
       style="fill:#100f0d;fill-opacity:1;fill-rule:nonzero;stroke:none" /><path
       style="fill:#100f0d;fill-opacity:1;fill-rule:nonzero;stroke:none"
       d="m 542.11598,68.882452 c -0.52102,-0.2679 -0.98425,-0.65598 -1.30225,-1.14697 -0.318,-0.4899 -0.48435,-1.08499 -0.42334,-1.66699 0.042,-0.40629 0.19745,-0.79974 0.43945,-1.12793 0.243,-0.32891 0.57469,-0.58981 0.95068,-0.75 0.37602,-0.1601 0.79425,-0.21726 1.19825,-0.16406 0.405,0.0519 0.79567,0.21608 1.11767,0.46728 0.525,0.4089 1.06133,0.803 1.61133,1.1792 0.272,0.189 0.54815,0.37342 0.84815,0.51562 0.299,0.14181 0.62554,0.23877 0.95654,0.23877 0.542,7.5e-4 1.07599,-0.26935 1.396,-0.70605 0.318,-0.4371 0.62772,-1.3218 0.46172,-1.8378 -0.857,0.0558 -3.847,0.10159 -5.98183,-0.0759 -2.13483,-0.1775 -4.51088,-0.45736 -6.52355,-1.61013 -1.31598,-0.7539 -2.42821,-1.86405 -3.15819,-3.19335 -0.729,-1.32771 -1.0733,-2.87046 -0.94629,-4.38135 0.144,-1.71021 0.88843,-3.35299 2.02441,-4.6377 1.136,-1.28599 4.54733,-2.98743 7.10862,-2.99514 2.27527,-0.007 5.73747,0.76405 7.23202,2.10705 1.0924,0.98162 1.26586,1.28124 2.32494,2.1156 0.33799,0.2598 0.71864,0.48587 1.13965,0.56397 0.21099,0.0379 -1.23227,0.38636 -1.02427,0.33636 0,0 1.00316,-0.2036 0.54187,0.26447 0.141,0.19179 1.15276,1.4422 1.25276,1.6594 0.34604,0.71474 0.38326,1.25944 -2.8e-4,1.6568 -0.22864,0.23687 -0.75763,0.22396 -0.98702,0.0351 -0.32752,-0.26968 -1.16989,-1.7741 -1.74463,-2.68799 -0.78798,-1.18281 -2.0277,-2.05495 -3.40869,-2.39794 -1.671,-0.41601 -3.51324,-0.0378 -4.90723,0.97119 -1.397,1.00899 -2.3265,2.62227 -2.54151,4.33008 -0.11901,0.94108 -0.0259,1.9184 0.35304,2.78759 1.19751,2.2739 3.78445,2.86243 5.96484,3.18018 2.10849,0.3001 3.50794,0.18193 4.26123,0.11133 0.17533,-0.0208 0.35952,-0.0406 0.50977,-0.0644 0.50988,1.19175 0.62466,3.37921 -0.11895,4.79824 -0.33501,0.58521 -0.81849,1.079 -1.3755,1.45899 -1.11198,0.7602 -2.49468,1.06536 -3.82323,1.16601 -1.15086,0.0872 -2.43669,-0.004 -3.42624,-0.49955 z"
       id="path7295-1-1-5-23"
       inkscape:connector-curvature="0"
       sodipodi:nodetypes="cccccccccccccccccsscccccasccccccccccacc" /><path
       inkscape:connector-curvature="0"
       id="path7303-3-6-1-8"
       style="fill:#100f0d;fill-opacity:1;fill-rule:nonzero;stroke:none"
       d="m 583.1958,62.918142 c -0.106,0.3367 -0.038,0.725 0.179,1.0039 0.173,0.2211 0.427,0.3699 0.695,0.4449 0.271,0.075 0.554,0.0801 0.834,0.0789 l 9.127,-0.0109 c 0.155,-0.0719 0.281,-0.2032 0.347,-0.3598 0.065,-0.157 0.068,-0.3391 0.012,-0.4992 -0.048,-0.1301 -0.134,-0.245 -0.242,-0.3328 -0.105,-0.0891 -0.231,-0.152 -0.364,-0.1954 -0.263,-0.0847 -0.546,-0.0867 -0.822,-0.0859 -0.544,0.003 -1.089,0.016 -1.631,-0.0219 -0.178,-0.0129 -0.355,-0.0308 -0.532,-0.0558 -0.173,-0.025 -0.347,-0.0571 -0.51,-0.116 -0.163,-0.0602 -0.319,-0.1481 -0.438,-0.2743 -0.108,-0.1129 -0.184,-0.2531 -0.225,-0.4039 -0.04,-0.15 -0.046,-0.309 -0.02,-0.4621 0.053,-0.3058 0.231,-0.5828 0.465,-0.7867 0.23501,-0.2043 0.52401,-0.3383 0.82301,-0.423 0.29899,-0.084 0.609,-0.1211 0.919,-0.1461 0.863,-0.07 1.73499,-0.0539 2.589,0.0789 0.777,0.1211 1.551,0.3429 2.202,0.7832 0.32499,0.2199 0.61599,0.4929 0.84,0.8136 0.227,0.3223 0.383,0.6934 0.441,1.0813 0.091,0.6098 -0.072,1.2418 -0.376,1.7777 -0.30701,0.5371 -0.747,0.9852 -1.232,1.3692 -1.003,0.7949 -2.20401,1.3289 -3.457,1.598 -1.25201,0.2692 -2.553,0.275 -3.818,0.0762 -2.502,-0.3934 -4.85901,-1.6 -6.675,-3.3652 -1.81401,-1.7649 -3.081,-4.0758 -3.639,-6.545 -0.583,-2.5832 -0.39,-5.341 0.582,-7.8039 0.971,-2.4633 2.72199,-4.6179 4.955,-6.0422 1.87699,-1.1968 4.105,-1.8769 6.331,-1.7808 2.22399,0.0961 4.431,0.9937 5.99,2.5847 1.419,1.4493 2.266,3.4524 2.287,5.4801 0.006,0.4781 -0.034,0.9653 -0.207,1.411 -0.172,0.4472 -0.486,0.8531 -0.921,1.055 -0.382,0.1789 -0.841,0.1852 -1.227,0.0172 -0.388,-0.1679 -0.696,-0.5082 -0.82701,-0.9101 l -2.40999,0.8039 c 0.143,0.6961 0.51,1.3429 1.035,1.82109 0.52599,0.47811 1.205,0.78321 1.911,0.85821 0.70899,0.075 1.43499,-0.0801 2.06799,-0.4071 0.633,-0.32811 1.17201,-0.825 1.578,-1.41009 0.81401,-1.16991 1.08401,-2.65311 0.996,-4.07581 -0.094,-1.5293 -0.579,-3.0273 -1.359,-4.34529 -0.78199,-1.31801 -1.85499,-2.457 -3.09799,-3.35391 -2.483,-1.7942 -5.603,-2.5899 -8.66801,-2.5692 -2.68999,0.0184 -5.38299,0.6461 -7.782,1.8633 -2.40099,1.218 -4.50399,3.027 -6.02799,5.2457 -1.525,2.2184 -2.461,4.8442 -2.63901,7.53011 -0.17799,2.68588 0.41201,5.42418 1.719,7.77808 1.509,2.72001 3.94901,4.8782 6.74801,6.2371 2.799,1.359 5.943,1.9411 9.054,1.8879 2.245,-0.039 4.50199,-0.407 6.56299,-1.2949 1.30301,-0.5609 2.535,-1.3441 3.43301,-2.441 0.898,-1.0981 1.43299,-2.53588 1.254,-3.943 -0.161,-1.2801 -0.90101,-2.4453 -1.892,-3.2711 -0.99,-0.8261 -2.21901,-1.332 -3.477,-1.6172 -1.17801,-0.2679 -2.418,-0.3488 -3.592,-0.0597 -1.173,0.289 -2.27501,0.9758 -2.915,2.0008 -0.685,1.1023 -0.771,2.5519 -0.222,3.7281 l -4.732,9.8e-4 0,0"
       sodipodi:nodetypes="cccccccccccccccccccccccccccccccccccccccccccccccccsccccccccccccc" /><path
       inkscape:connector-curvature="0"
       id="path7309-4-0-8-3"
       style="fill:#ffffff;fill-opacity:1;fill-rule:nonzero;stroke:none"
       d="m 624.59532,65.126022 c -0.711,0.082 -1.43201,0.082 -2.14301,0 -0.57499,-0.066 -1.14399,-0.186 -1.69599,-0.3571 0.486,0.7301 1.146,1.3454 1.91,1.7762 0.253,0.1442 0.52399,0.2692 0.813,0.2981 0.145,0.014 0.29299,0.003 0.432,-0.0411 0.138,-0.0449 0.267,-0.123 0.363,-0.2308 0.108,-0.1223 0.172,-0.2774 0.21799,-0.432 0.045,-0.1571 0.074,-0.3161 0.123,-0.4723 0.065,-0.2059 0.16601,-0.4 0.29501,-0.5719 l -0.315,0.0309 0,0"
       sodipodi:nodetypes="cccccccccccc" /><path
       style="fill:#100f0d;fill-opacity:1;fill-rule:nonzero;stroke:none"
       d="m 552.59792,51.677052 c 0.86414,0.0179 1.38501,-0.9938 1.14369,-2.62668 -0.55869,-3.78044 -3.19201,-7.1022 -4.3234,-8.46164 l 1.0777,-0.80055 c 0.26055,0.28375 0.93338,1.12727 1.09136,1.27678 0.15783,0.1631 0.76221,0.72555 2.2496,0.701 1.83476,-0.0303 2.74224,-2.40248 5.06032,-2.41727 2.27445,-0.0145 4.06219,1.24423 4.04144,4.93108 -0.008,1.46711 -0.6107,3.14125 -1.87881,4.00122 1.9669,3.17799 -0.10482,5.20949 -1.69772,5.24457 -1.97908,0.0436 -2.87887,-1.52383 -2.82332,-2.74028 0.10607,-2.32287 3.49059,-3.97794 3.46535,-6.46444 -0.0106,-1.04359 -0.63803,-1.97448 -1.58736,-2.01678 -1.62365,-0.0724 -3.52347,1.69347 -5.42624,0.69846 0.6597,0.87326 1.87371,3.07365 2.30479,5.36982 0.65336,3.48016 -0.29184,5.29538 -2.36664,5.21253 -0.8361,-0.0334 -1.2744,-0.74542 -2.81601,-1.51984 -1.44107,-1.07137 -1.05965,-1.10552 -0.95279,-2.42398 0.0824,-1.01609 1.2523,-1.07941 1.68132,-0.6862 0.74922,0.6867 0.61483,2.69854 1.75672,2.7222 z m 7.5084,-2.86769 c -2.16871,0.9868 -2.54235,3.20231 -0.79035,3.20627 1.37687,0.003 1.75243,-2.21282 0.79035,-3.20627 z"
       id="path7295-1-1-5-2-7"
       inkscape:connector-curvature="0"
       sodipodi:nodetypes="sscccssscsssscsscssscsc" /><path
       inkscape:connector-curvature="0"
       id="path7249-9-2-8-6-4"
       style="fill:#100f0d;fill-opacity:1;fill-rule:nonzero;stroke:none"
       d="m 561.23486,51.193712 c 0.69229,0.80029 1.7311,1.3015 2.79031,1.30436 0.74249,9.8e-4 1.47695,-0.23553 2.10242,-0.63415 0.62602,-0.39869 1.14402,-0.95558 1.53565,-1.58622 0.78175,-1.2614 1.04694,-2.78062 1.07989,-4.26484 0.0337,-1.52875 -0.17787,-3.10879 -0.95257,-4.42789 -0.38731,-0.6589 -0.91399,-1.24227 -1.55737,-1.65568 -0.64294,-0.41376 -1.40496,-0.65331 -2.16876,-0.63477 -0.9745,0.0233 -1.9189,0.46779 -2.60633,1.15922 -0.68777,0.69111 -1.12252,1.61338 -1.28648,2.57451 -0.0429,0.25542 -0.0686,0.52179 0.005,0.76982 0.037,0.12385 0.0987,0.2417 0.18654,0.33643 0.0888,0.0944 0.20485,0.16519 0.3314,0.19034 0.11347,0.0227 0.23319,0.009 0.34012,-0.0324 0.10739,-0.0419 0.20428,-0.11057 0.28259,-0.19546 0.15544,-0.16933 0.23817,-0.39572 0.27654,-0.6235 0.0374,-0.22774 0.035,-0.45927 0.0409,-0.6902 0.007,-0.23041 0.0227,-0.46429 0.0983,-0.68214 0.0843,-0.24399 0.24091,-0.46082 0.4414,-0.62312 0.20106,-0.16204 0.4436,-0.27021 0.69704,-0.31818 0.50699,-0.0948 1.04383,0.0553 1.46489,0.35392 0.42105,0.29862 0.73083,0.73497 0.93312,1.21026 0.20141,0.47528 0.30015,0.98749 0.35349,1.50038 0.0617,0.60604 0.0614,1.21676 0.0413,1.82499 -0.0178,0.5989 -0.0529,1.19954 -0.16428,1.78791 -0.0868,0.45906 -0.22426,0.91284 -0.45198,1.32133 -0.22878,0.40763 -0.55332,0.76888 -0.96204,0.99437 -0.40872,0.22638 -0.90678,0.30815 -1.35455,0.17587 -0.55265,-0.10417 -1.0527,-0.68682 -1.21985,-0.84955 -0.16765,-0.163 -0.4323,0.21497 -0.49229,-0.011"
       sodipodi:nodetypes="cccccccccccccccccccccccccccccc" /><use
       x="0"
       y="0"
       xlink:href="#path7255-7-8-3-3"
       id="use4716"
       transform="translate(144,-1.7375e-6)"
       width="100%"
       height="100%" /><path
       style="font-style:normal;font-variant:normal;font-weight:bold;font-stretch:normal;font-size:medium;line-height:125%;font-family:Neuton;-inkscape-font-specification:'Neuton Bold';letter-spacing:0px;word-spacing:0px;fill:#000000;fill-opacity:1;stroke:none;stroke-width:1px;stroke-linecap:butt;stroke-linejoin:miter;stroke-opacity:1"
       sodipodi:nodetypes="ccsascccccccsasccccsscccccc"
       inkscape:connector-curvature="0"
       id="path4549"
       d="m 216.2135,-121.21708 0.29942,-11.5364 c 0,0 1.80002,-1.2476 4.21984,-0.7817 3.79403,0.7305 4.86903,3.38114 4.96717,5.96732 0.0911,2.4001 -0.93145,4.64286 -4.17685,5.87139 -1.60188,0.60639 -5.30958,0.47939 -5.30958,0.47939 z m -11.00595,-27.46204 0.42689,2.38065 c 3.41468,-0.46413 4.46153,0.0375 4.70809,1.64169 l 0.0773,23.44677 c -1.19756,-0.0969 -4.12403,-0.002 -5.93221,0.7685 l 1.11759,1.57375 c 5.02094,-0.79449 9.83803,0.40911 13.85243,0.40911 4.03028,0 6.56025,-0.25876 8.95564,-2.18313 1.98255,-1.59272 3.42612,-4.5701 3.36185,-6.8486 -0.17323,-6.14066 -4.49332,-7.62348 -8.36112,-8.20548 0,0 4.22094,0.40485 5.90066,-3.17935 2.89116,-5.76588 4.0698,-8.40266 6.58055,-7.97583 l 1.30861,-2.20787 c -2.32921,-1.27823 -8.3705,-0.39201 -10.4396,1.85417 -1.70507,1.85099 -2.48265,4.08374 -2.83696,6.16992 -0.50961,3.00066 -1.28163,4.69533 -3.76538,4.92646 -1.65015,0.30376 -2.77455,0.45086 -3.59902,0.87037 l -0.0499,-10.84536 3.92714,-0.96671 -0.26182,-1.62908 z" /><path
       style="font-style:normal;font-variant:normal;font-weight:bold;font-stretch:normal;font-size:medium;line-height:125%;font-family:Neuton;-inkscape-font-specification:'Neuton Bold';letter-spacing:0px;word-spacing:0px;fill:#000000;fill-opacity:1;stroke:none;stroke-width:1px;stroke-linecap:butt;stroke-linejoin:miter;stroke-opacity:1"
       inkscape:connector-curvature="0"
       id="path4551"
       d="m 694.611,66.927223 c -2.68156,0 -3.58481,-2.921938 -3.58481,-7.015676 0,-3.871595 0.72989,-6.569012 2.18968,-8.092262 0.79335,-0.84097 1.81678,-1.26145 3.07029,-1.26145 1.25351,0 2.19761,0.49982 2.8323,1.49946 0.63469,1.0155 0.95203,2.20554 0.95203,3.570119 0,1.38044 -0.0476,2.507009 -0.14281,3.379706 -0.0793,0.872699 -0.238,1.745394 -0.47601,2.618086 -0.22214,0.888564 -0.51568,1.65019 -0.88063,2.284879 -0.82509,1.428046 -2.4368,3.017138 -3.96004,3.017138 z m -9.05899,-12.894468 c -0.41255,1.31698 -0.61882,2.800563 -0.61882,4.450752 0,1.650184 0.32528,3.213101 0.97583,4.68875 0.65055,1.475649 1.50738,2.68949 2.57049,3.641523 2.23727,1.9834 4.86328,2.9751 7.87805,2.9751 3.01477,0 5.41072,-0.959966 7.18785,-2.879897 1.77712,-1.904065 2.66568,-4.609421 2.66568,-8.116068 0,-3.49078 -1.00757,-6.31514 -3.0227,-8.47308 -1.99927,-2.15794 -4.57768,-3.23691 -7.73525,-3.23691 -5.18857,0 -8.48895,2.31661 -9.90113,6.94983 z"
       sodipodi:nodetypes="sscscscccscsscscscsc" /><path
       style="font-style:normal;font-variant:normal;font-weight:bold;font-stretch:normal;font-size:medium;line-height:125%;font-family:Neuton;-inkscape-font-specification:'Neuton Bold';letter-spacing:0px;word-spacing:0px;fill:#000000;fill-opacity:1;stroke:none;stroke-width:1px;stroke-linecap:butt;stroke-linejoin:miter;stroke-opacity:1"
       inkscape:connector-curvature="0"
       id="path4553"
       d="m 449.82158,-221.0956 q 0,2.23727 1.66606,3.78432 1.85646,-1.64225 4.45075,-1.64225 2.59429,0 3.73672,2.49908 l 0.38081,0.85683 -7.09263,17.61258 -2.9989,1.16624 0.42841,2.8085 11.59098,0 -0.357,-2.7609 -2.57049,-1.11864 4.11754,-11.01976 4.40314,10.85316 -2.95129,1.28524 0.49981,2.7609 9.0681,0 -0.28561,-2.7609 -2.35627,-1.21384 -7.78286,-18.2076 q -1.97547,-4.61735 -4.04614,-6.42622 -2.07067,-1.83266 -5.33137,-1.83266 -1.80886,0 -3.18931,1.02344 -1.38045,0.99963 -1.38045,2.33248 z" /><path
       style="font-style:normal;font-variant:normal;font-weight:bold;font-stretch:normal;font-size:medium;line-height:125%;font-family:Neuton;-inkscape-font-specification:'Neuton Bold';letter-spacing:0px;word-spacing:0px;fill:#000000;fill-opacity:1;stroke:none;stroke-width:1px;stroke-linecap:butt;stroke-linejoin:miter;stroke-opacity:1"
       inkscape:connector-curvature="0"
       id="path4555"
       d="m 480.28659,-209.50462 q 0,-0.88063 0.59502,-1.57085 0.61883,-0.69022 1.90407,-0.69022 1.30904,0 2.80849,1.40424 l 0,4.80776 q -5.30758,-0.88063 -5.30758,-3.95093 z m -5.61698,-1.64226 q 0,3.09411 2.80849,5.25998 2.83229,2.18967 8.11607,2.38008 l 0,1.78506 q 0,2.16587 -0.92823,3.61771 -0.92823,1.45185 -2.42768,1.45185 -1.47565,0 -1.88026,-1.04723 -0.40461,-1.04723 -0.64263,-4.06994 -3.1893,0 -3.99852,1.30905 -0.38082,0.59502 -0.38082,1.66605 0,1.09484 1.54705,2.40388 1.54705,1.33285 3.80813,2.16587 2.28487,0.83303 4.30794,0.83303 6.18821,0 6.18821,-7.30684 l 0,-8.30648 q 0,-0.97583 0.0714,-1.19003 0.0952,-0.19041 0.19041,-0.47602 0.119,-0.28561 0.2618,-0.38081 0.16661,-0.0952 0.40462,-0.26181 0.38081,-0.26181 1.33284,-0.42841 l 0.92823,-0.16661 -0.45222,-3.0465 q -1.49944,-0.92823 -3.57012,-0.92823 -2.04686,0 -2.87988,0.83303 -0.83303,0.85682 -1.21385,2.64188 l -0.28561,0.0714 q -0.57122,-1.33284 -2.35627,-2.47528 -1.76127,-1.14244 -3.99854,-1.14244 -2.21347,0 -3.59392,1.23764 -1.35664,1.26144 -1.35664,3.57012 z" /><path
       style="font-style:normal;font-variant:normal;font-weight:bold;font-stretch:normal;font-size:medium;line-height:125%;font-family:Neuton;-inkscape-font-specification:'Neuton Bold';letter-spacing:0px;word-spacing:0px;fill:#000000;fill-opacity:1;stroke:none;stroke-width:1px;stroke-linecap:butt;stroke-linejoin:miter;stroke-opacity:1"
       inkscape:connector-curvature="0"
       id="path4557"
       d="m 495.16208,-215.38342 0.30942,3.04651 3.61772,1.07103 0,20.77809 -3.85573,1.85646 0.54742,2.9513 8.06846,0.57122 0.97584,-0.95203 0,-25.20504 3.76053,-1.09484 -0.30942,-3.0227 -13.11424,0 z" /><path
       style="font-style:normal;font-variant:normal;font-weight:bold;font-stretch:normal;font-size:medium;line-height:125%;font-family:Neuton;-inkscape-font-specification:'Neuton Bold';letter-spacing:0px;word-spacing:0px;fill:#000000;fill-opacity:1;stroke:none;stroke-width:1px;stroke-linecap:butt;stroke-linejoin:miter;stroke-opacity:1"
       inkscape:connector-curvature="0"
       id="path4559"
       d="m 521.55715,-201.43615 q 0,4.73636 2.38009,8.75868 2.80849,4.68876 8.09226,6.49762 2.97511,1.02343 6.06921,1.02343 3.0941,0 5.73598,-0.64261 2.64189,-0.61883 4.09373,-1.73746 l -0.71402,-8.99671 -3.0941,0.42842 -1.23764,5.37898 q -0.83302,1.04724 -2.38007,1.66606 -1.52326,0.61881 -3.28452,0.61881 -3.87953,0 -6.1644,-2.80849 -2.26108,-2.78469 -2.26108,-8.30647 0,-5.49798 2.9037,-8.78249 2.9275,-3.28451 7.49725,-3.28451 4.56975,0 8.54448,2.92749 l 1.14244,-2.49907 q -1.59465,-1.88027 -4.85536,-3.35592 -3.23691,-1.45184 -7.04503,-1.45184 -6.99744,0 -11.21017,3.85573 -4.21275,3.85572 -4.21275,10.71035 z" /><path
       style="font-style:normal;font-variant:normal;font-weight:bold;font-stretch:normal;font-size:medium;line-height:125%;font-family:Neuton;-inkscape-font-specification:'Neuton Bold';letter-spacing:0px;word-spacing:0px;fill:#000000;fill-opacity:1;stroke:none;stroke-width:1px;stroke-linecap:butt;stroke-linejoin:miter;stroke-opacity:1"
       inkscape:connector-curvature="0"
       id="path4561"
       d="m 560.04304,-197.05681 q -4.02234,0 -4.02234,-6.14061 0,-5.80739 2.18968,-8.09226 1.19003,-1.26145 3.0703,-1.26145 1.88026,0 2.83229,1.49946 0.95204,1.52325 0.95204,3.57012 0,2.07066 -0.14281,3.37971 -0.11901,1.30905 -0.47602,2.61808 -0.33321,1.33285 -0.88063,2.28488 -1.23764,2.14207 -3.52251,2.14207 z m -9.49652,-12.0194 q -0.61882,1.97547 -0.61882,4.45075 0,2.47528 0.97583,4.68875 0.97584,2.21348 2.57049,3.64153 3.35591,2.9751 7.87806,2.9751 4.52215,0 7.18784,-2.8799 2.66568,-2.8561 2.66568,-8.11607 0,-5.23617 -3.02269,-8.47308 -2.9989,-3.23691 -7.73526,-3.23691 -7.78286,0 -9.90113,6.94983 z" /><path
       style="font-style:normal;font-variant:normal;font-weight:bold;font-stretch:normal;font-size:medium;line-height:125%;font-family:Neuton;-inkscape-font-specification:'Neuton Bold';letter-spacing:0px;word-spacing:0px;fill:#000000;fill-opacity:1;stroke:none;stroke-width:1px;stroke-linecap:butt;stroke-linejoin:miter;stroke-opacity:1"
       inkscape:connector-curvature="0"
       id="path4563"
       d="m 572.18143,-215.38342 0.30941,3.04651 3.61773,1.07103 0,20.77809 -3.85573,1.85646 0.54741,2.9513 8.06847,0.57122 0.97583,-0.95203 0,-25.20504 3.76053,-1.09484 -0.30941,-3.0227 -13.11424,0 z" /><path
       style="font-style:normal;font-variant:normal;font-weight:bold;font-stretch:normal;font-size:medium;line-height:125%;font-family:Neuton;-inkscape-font-specification:'Neuton Bold';letter-spacing:0px;word-spacing:0px;fill:#000000;fill-opacity:1;stroke:none;stroke-width:1px;stroke-linecap:butt;stroke-linejoin:miter;stroke-opacity:1"
       inkscape:connector-curvature="0"
       id="path4565"
       d="m 585.8907,-215.38342 0.3094,3.04651 3.61772,1.07103 0,20.77809 -3.85573,1.85646 0.54742,2.9513 8.06847,0.57122 0.97583,-0.95203 0,-25.20504 3.76053,-1.09484 -0.30941,-3.0227 -13.11423,0 z" /><path
       style="font-style:normal;font-variant:normal;font-weight:bold;font-stretch:normal;font-size:medium;line-height:125%;font-family:Neuton;-inkscape-font-specification:'Neuton Bold';letter-spacing:0px;word-spacing:0px;fill:#000000;fill-opacity:1;stroke:none;stroke-width:1px;stroke-linecap:butt;stroke-linejoin:miter;stroke-opacity:1"
       inkscape:connector-curvature="0"
       id="path4567"
       d="m 612.02395,-200.86493 q 0,3.85573 -2.64189,3.85573 -1.38044,0 -2.33248,-1.66606 -0.92822,-1.64226 -0.99963,-4.47455 l 5.83119,0.57122 q 0.14281,0.57122 0.14281,1.71366 z m -11.9242,-4.30795 q 0,2.59429 0.92824,4.85536 0.95203,2.26108 2.49908,3.73673 3.2607,3.1893 7.33065,3.1893 3.2607,0 5.21237,-2.21347 1.95166,-2.21348 1.95166,-5.974 0,-1.78505 -0.45222,-3.66532 l -11.42437,-0.238 q 0.1428,-2.71329 1.78505,-4.52216 1.66606,-1.80886 4.68876,-1.80886 3.0465,0 5.47419,1.33285 l 0.47601,-2.21348 q -1.45186,-1.71366 -3.90333,-2.57048 -2.42768,-0.83303 -4.99817,-0.83303 -4.14134,0 -6.85463,2.85609 -2.71329,2.8561 -2.71329,8.06847 z" /><path
       style="font-style:normal;font-variant:normal;font-weight:bold;font-stretch:normal;font-size:medium;line-height:125%;font-family:Neuton;-inkscape-font-specification:'Neuton Bold';letter-spacing:0px;word-spacing:0px;fill:#000000;fill-opacity:1;stroke:none;stroke-width:1px;stroke-linecap:butt;stroke-linejoin:miter;stroke-opacity:1"
       inkscape:connector-curvature="0"
       id="path4569"
       d="m 629.23192,-195.91437 q -2.71329,0 -2.71329,-4.56975 0,-3.30831 2.35628,-4.61735 0.45221,-0.23801 0.69022,-0.23801 1.64225,0 2.30867,0.97583 0.69023,0.99964 0.69023,3.47491 0,1.38045 -0.54742,2.61809 -1.04723,2.35628 -2.78469,2.35628 z m -4.45075,-21.70632 q 0,-3.54632 5.02197,-3.54632 5.04576,0 5.04576,3.35591 0,1.40426 -1.09483,1.95167 -1.07103,0.54742 -3.73673,0.54742 l -4.40314,0 q -0.0238,-0.0714 -0.23801,-0.40461 -0.59502,-0.85683 -0.59502,-1.90407 z m -2.35628,-5.855 q -1.38044,0.57122 -2.21347,1.71366 -0.83302,1.11864 -0.83302,2.49909 0,1.38044 1.14243,2.52288 1.16624,1.14244 2.64189,1.64225 l 0,0.28561 q -2.26107,1.09484 -2.26107,3.45112 0,1.19004 1.38044,2.42768 1.38044,1.23764 2.92749,1.68985 l -0.0238,0.28561 q -1.23765,0.42842 -2.57049,2.18967 -1.33285,1.76126 -1.33285,3.80814 0,2.95129 2.47529,5.21237 2.49908,2.26107 6.0216,2.26107 3.52251,0 5.83119,-1.49945 l 5.35517,0.57121 0.59503,-0.69022 -0.99964,-3.61771 -0.59502,-0.0476 -2.54668,0.80923 -0.0476,-0.23801 q 0.42842,-1.19004 0.42842,-2.26107 0,-2.23727 -1.23765,-3.97473 -2.47528,-3.40352 -7.14023,-3.40352 -0.71403,0 -1.85646,0.21421 -0.90444,-0.95203 -0.90444,-1.64225 0,-1.45186 3.33212,-1.45186 l 3.2369,0 q 3.59393,0 5.45038,-1.19004 1.88026,-1.19003 1.88026,-4.28413 0,-3.11791 -3.57012,-5.736 -3.57011,-2.64188 -8.71108,-2.64188 -3.28451,0 -5.855,1.09483 z" /><path
       style="font-style:normal;font-variant:normal;font-weight:bold;font-stretch:normal;font-size:medium;line-height:125%;font-family:Neuton;-inkscape-font-specification:'Neuton Bold';letter-spacing:0px;word-spacing:0px;fill:#000000;fill-opacity:1;stroke:none;stroke-width:1px;stroke-linecap:butt;stroke-linejoin:miter;stroke-opacity:1"
       inkscape:connector-curvature="0"
       id="path4571"
       d="m 654.29415,-200.86493 q 0,3.85573 -2.64188,3.85573 -1.38045,0 -2.33248,-1.66606 -0.92823,-1.64226 -0.99964,-4.47455 l 5.8312,0.57122 q 0.1428,0.57122 0.1428,1.71366 z m -11.92419,-4.30795 q 0,2.59429 0.92823,4.85536 0.95203,2.26108 2.49908,3.73673 3.26071,3.1893 7.33064,3.1893 3.26071,0 5.21238,-2.21347 1.95166,-2.21348 1.95166,-5.974 0,-1.78505 -0.45221,-3.66532 l -11.42438,-0.238 q 0.14281,-2.71329 1.78506,-4.52216 1.66605,-1.80886 4.68875,-1.80886 3.04651,0 5.47418,1.33285 l 0.47602,-2.21348 q -1.45185,-1.71366 -3.90333,-2.57048 -2.42768,-0.83303 -4.99816,-0.83303 -4.14134,0 -6.85463,2.85609 -2.71329,2.8561 -2.71329,8.06847 z" /><path
       sodipodi:nodetypes="ccccccccccccccccccccccccaaaccccc"
       id="path7245-7-2-5-6-5"
       d="m 428.95408,-35.791022 c -0.0896,-0.0048 -0.17901,-0.0179 -0.2666,-0.03813 -0.3015,-0.06988 -0.58015,-0.227968 -0.81445,-0.430665 -0.23641,-0.203201 -0.42909,-0.449721 -0.59619,-0.71192 -0.3348,-0.522994 -0.56787,-1.106776 -0.90967,-1.625966 -0.6269,-0.949207 -1.5822,-1.627069 -2.5459,-2.230972 -3.2528,-2.040991 -6.84355,-3.490748 -10.13966,-5.463847 -1.95629,-1.171116 -3.82857,-2.547504 -5.22509,-4.350598 -1.39766,-1.8032 -2.28604,-4.076069 -2.09033,-6.347166 0.18827,-2.192201 1.38413,-4.23236 3.05713,-5.660158 1.6731,-1.428097 3.79174,-2.275346 5.96045,-2.644042 2.93669,-0.500008 6.05079,-0.135367 8.68359,1.256834 2.6324,1.391796 4.73463,3.850154 5.46973,6.735354 0.659,2.5879 0.18265,5.444715 -1.28175,7.678706 -1.46409,2.234001 -3.89423,3.811151 -6.53173,4.239251 1.7383,0.512106 3.43043,1.184771 5.04493,2.00977 0.9882,0.503908 1.95944,1.073638 2.75243,1.848639 0.7949,0.776201 1.4036,1.782373 1.5337,2.884271 0.0828,0.712897 -0.0482,1.472859 -0.47902,2.047863 -0.21489,0.287894 -0.50123,0.523768 -0.83202,0.663568 -0.24788,0.10522 -0.52076,0.154956 -0.78955,0.139161 z m -8.68757,-11.600596 c 0.23018,-0.0058 0.45982,-0.02168 0.68994,-0.04984 2.01887,-0.30436 3.95655,-1.391592 4.90385,-3.071775 0.99563,-1.765903 1.22187,-4.395982 0.0947,-6.080973 -1.38791,-2.074787 -4.47612,-2.562933 -6.96528,-2.750325 -2.59824,-0.195603 -6.4034,-1.81e-4 -7.61836,1.749964 -1.59227,1.860822 -1.85404,4.051133 -0.41335,5.934381 1.3871,1.776905 2.94802,2.886197 5.06051,3.671409 1.52163,0.565326 2.63673,0.641448 4.24801,0.597132 z"
       style="font-style:normal;font-variant:normal;font-weight:bold;font-stretch:normal;font-size:medium;line-height:125%;font-family:Neuton;-inkscape-font-specification:'Neuton Bold';letter-spacing:0px;word-spacing:0px;fill:#100f0d;fill-opacity:1;fill-rule:nonzero;stroke:none;stroke-width:1px;stroke-linecap:butt;stroke-linejoin:miter;stroke-opacity:1"
       inkscape:connector-curvature="0" /><path
       sodipodi:nodetypes="cccccccccccccccccccccscccccccccccccccccc"
       d="m 430.96442,-52.281078 c -0.12429,1.544902 0.34101,3.141795 1.32341,4.3418 0.982,1.199201 2.48319,1.974193 4.03399,2.020299 1.08711,0.03155 2.17191,-0.286403 3.10351,-0.845302 0.93239,-0.558997 1.71289,-1.353906 2.31129,-2.261797 1.19459,-1.816005 1.64301,-4.030001 1.75001,-6.201908 0.1098,-2.237098 -0.13752,-4.558986 -1.21951,-6.521091 -0.541,-0.980099 -1.28909,-1.855094 -2.2148,-2.485892 -0.92499,-0.631301 -2.03129,-1.012202 -3.1504,-1.015299 -1.42779,-0.0048 -2.82819,0.609003 -3.8621,1.594203 -1.0344,0.984696 -1.7075,2.317891 -1.9856,3.718686 -0.073,0.372306 -0.1211,0.761307 -0.0227,1.12741 0.0493,0.18279 0.13481,0.357789 0.2598,0.499989 0.12621,0.141793 0.2934,0.249994 0.47771,0.291794 0.1653,0.03784 0.34109,0.02303 0.4993,-0.03397 0.15899,-0.0571 0.3035,-0.153901 0.4215,-0.275003 0.2343,-0.241807 0.3644,-0.57 0.4296,-0.901997 0.0637,-0.332007 0.0696,-0.671098 0.0871,-1.009008 0.0188,-0.337097 0.0516,-0.678898 0.1708,-0.994897 0.1332,-0.353898 0.371,-0.665194 0.671,-0.894903 0.30081,-0.229293 0.6602,-0.378094 1.03321,-0.438291 0.7461,-0.118712 1.5262,0.122302 2.1309,0.576194 0.60469,0.453902 1.041,1.105101 1.31839,1.809008 0.27611,0.703896 0.4004,1.45779 0.4582,2.210889 0.0664,0.889803 0.0418,1.784009 -0.0102,2.673803 -0.0496,0.876205 -0.12499,1.754307 -0.3113,2.611407 -0.14529,0.668697 -0.36449,1.327697 -0.71409,1.916792 -0.3511,0.587799 -0.8406,1.103902 -1.44801,1.417897 -0.60739,0.315303 -1.3399,0.415306 -1.9903,0.203908 -0.32529,-0.104698 -0.62809,-0.286704 -0.8664,-0.531598 -0.239,-0.24531 -0.4148,-0.553102 -0.49369,-0.886299 -0.0735,-0.311005 -0.0625,-0.636005 -0.0345,-0.953901 0.0274,-0.318805 0.0723,-0.637205 0.0645,-0.957104 -0.006,-0.319899 -0.0664,-0.646099 -0.23561,-0.917898 -0.084,-0.135997 -0.19489,-0.255898 -0.3277,-0.343804 -0.1328,-0.08913 -0.2895,-0.145297 -0.4485,-0.153098 -0.1867,-0.01016 -0.37179,0.04617 -0.53,0.1449 -0.1567,0.098 -0.28639,0.237907 -0.3852,0.396095 -0.19799,0.318003 -0.26369,0.696909 -0.2937,1.068005 l 0,0"
       style="font-style:normal;font-variant:normal;font-weight:bold;font-stretch:normal;font-size:medium;line-height:125%;font-family:Neuton;-inkscape-font-specification:'Neuton Bold';letter-spacing:0px;word-spacing:0px;fill:#100f0d;fill-opacity:1;fill-rule:nonzero;stroke:none;stroke-width:1px;stroke-linecap:butt;stroke-linejoin:miter;stroke-opacity:1"
       id="path7249-9-2-8-2-1"
       inkscape:connector-curvature="0" /><path
       sodipodi:nodetypes="ccccccccscccccccccccccccccccccccccccccccccsccccccccccccccccccsccccccccccccccc"
       inkscape:connector-curvature="0"
       id="path7251-7-8-9-4-3"
       d="m 470.32161,-35.63985 c -0.29124,0.0039 -0.58521,-0.02671 -0.87049,-0.08352 -0.57179,-0.114811 -1.11782,-0.332248 -1.64228,-0.586617 -1.21473,-0.588331 -2.33581,-1.385669 -3.23616,-2.389906 -0.90152,-1.00412 -1.57768,-2.220239 -1.88959,-3.533099 -0.179,-0.751387 -0.32362,-1.714559 -0.2596,-2.484364 -1.78157,-0.91632 -2.48606,-2.298137 -2.54433,-3.69422 -0.0198,-0.824205 0.38704,-1.62645 0.71629,-2.273962 0.35416,-0.09961 1.3441,-0.144252 2.05119,-0.152681 1.06981,-0.01268 3.1029,0.167208 4.31766,-0.311131 0.51148,-0.154414 1.00386,-0.395398 1.4083,-0.745135 0.40569,-0.348653 0.72014,-0.810462 0.85521,-1.327407 0.14465,-0.555986 0.0748,-1.158137 -0.15204,-1.684789 -0.22687,-0.526662 -0.60436,-0.980961 -1.05494,-1.337782 -0.89807,-0.714358 -2.04469,-1.03208 -3.16998,-1.253331 -3.61517,-0.712626 -7.36402,-0.613329 -10.98925,0.05517 -1.20884,0.224058 -2.44743,0.528859 -3.41872,1.281901 -0.48569,0.376671 -0.89405,0.863875 -1.13014,1.431949 -0.23495,0.567145 -0.28793,1.216767 -0.10051,1.801769 0.129,0.398756 0.36827,0.751793 0.66837,1.044487 0.0438,0.03804 0.0838,0.07994 0.12996,0.115798 0.45203,0.352147 1.00538,0.601164 1.58865,0.77897 0.088,0.0209 0.17564,0.04384 0.26439,0.05991 0.0816,0.015 0.13344,0.03862 0.20708,0.05613 0.76223,0.180835 1.54219,0.266873 2.19372,0.292491 1.58484,0.06242 3.07986,0.0029 4.03666,-0.124334 0.48015,1.20403 0.76047,3.105957 -0.0181,4.506104 -0.34943,0.576698 -0.84551,1.059257 -1.41177,1.425311 -1.13052,0.732359 -2.50572,0.999397 -3.85089,1.070744 -1.16691,0.06204 -2.38737,-0.02216 -3.41272,-0.584111 -0.51422,-0.280751 -0.96815,-0.680718 -1.27385,-1.179448 -0.30575,-0.497647 -0.45733,-1.09674 -0.38191,-1.677047 0.0522,-0.405125 0.21796,-0.794426 0.46804,-1.116502 0.25107,-0.322774 0.5894,-0.57512 0.96927,-0.725934 0.37986,-0.150717 0.79916,-0.19753 1.20171,-0.134254 0.4036,0.06184 0.79002,0.235671 1.10568,0.494792 0.51468,0.421799 1.041,0.829169 1.5815,1.218896 0.26723,0.195691 0.53806,0.386552 0.83445,0.536166 0.29539,0.149158 0.62038,0.25433 0.95128,0.262547 0.54182,0.01413 1.0815,-0.243356 1.41225,-0.671969 0.32874,-0.429078 0.44134,-1.018463 0.28819,-1.538418 -0.8581,0.03484 -1.71515,0.03271 -2.57245,-0.0058 -1.50877,-0.06842 -3.29553,-0.467471 -4.41851,-1.043771 -1.75225,-0.89921 -3.11811,-2.550736 -3.5133,-4.750496 -0.39518,-2.19975 0.29415,-4.629229 1.72973,-6.450518 1.34458,-1.703246 3.28578,-2.877797 5.35695,-3.525212 2.0712,-0.647144 4.27158,-0.79339 6.44026,-0.693386 2.85284,0.130983 5.75863,0.711493 8.16352,2.253154 1.20125,0.771004 2.26163,1.778754 3.02604,2.983258 0.76482,1.205038 1.22882,2.611989 1.25152,4.039738 0.0211,1.346144 -0.35395,2.697513 -1.06659,3.839372 -0.71276,1.141452 -1.7596,2.07289 -2.97848,2.646268 1.32685,0.547363 1.78376,1.386898 1.89164,2.541309 0.0293,2.247976 -2.66514,3.563305 -5.14012,3.017839 0.58144,1.725602 2.02175,3.103334 3.77791,3.583474 0.77516,0.211108 1.59126,0.253904 2.36012,0.48913 0.38546,0.117095 0.75832,0.284419 1.07611,0.530959 0.31902,0.245194 0.57896,0.573339 0.7064,0.955265 0.0902,0.277219 0.11023,0.574975 0.0613,0.862685 -0.0481,0.288184 -0.16373,0.563216 -0.32761,0.803968 -0.32694,0.482394 -0.84499,0.818098 -1.40632,0.978096 -0.27947,0.08004 -0.56943,0.11755 -0.86066,0.121363 z m -4.54368,-10.396814 c 1.29786,-0.03358 1.86962,-0.650725 1.8433,-1.319655 -0.008,-0.21014 -0.0718,-0.431623 -0.21201,-0.593789 -0.24263,-0.281612 -0.55084,-0.365473 -0.86054,-0.35354 -0.52463,0.02071 -1.07928,0.273619 -1.40657,0.709887 -0.28125,0.37459 -0.41183,0.900701 -0.35701,1.366323 0.18906,0.103255 0.67058,0.199136 0.99283,0.190774 z m -2.84986,-0.843454 c 0.0604,-0.413254 0.17322,-0.817653 0.33619,-1.201447 0.13943,-0.327893 0.31432,-0.64035 0.52266,-0.930722 -0.55363,-0.06813 -1.41291,-0.140196 -2.03878,0.08623 -0.35384,0.437711 -0.0547,1.074112 0.11856,1.290785 0.31467,0.38573 0.60387,0.560603 1.06138,0.755103 z"
       style="font-style:normal;font-variant:normal;font-weight:bold;font-stretch:normal;font-size:medium;line-height:125%;font-family:Neuton;-inkscape-font-specification:'Neuton Bold';letter-spacing:0px;word-spacing:0px;fill:#100f0d;fill-opacity:1;fill-rule:nonzero;stroke:none;stroke-width:1px;stroke-linecap:butt;stroke-linejoin:miter;stroke-opacity:1" /><path
       sodipodi:nodetypes="cccccccccccccsscccccccccccccccccccccccccccccccccccccccccccscccccccccaacscssccscsccccccccccccscccc"
       inkscape:connector-curvature="0"
       id="path7253-9-0-8-4-7"
       d="m 491.06182,-38.853312 c -1.8263,-1.719214 -3.12408,-3.992053 -3.67439,-6.438749 l -3.39139,-2.539006 c -0.0354,1.090574 -0.49808,2.161367 -1.26902,2.935004 -0.70278,0.705745 -1.66194,1.159908 -2.6556,1.218586 -0.86744,0.05139 -1.74174,-0.196455 -2.48066,-0.650909 -0.7396,-0.454831 -1.34952,-1.108837 -1.79518,-1.854475 -0.54008,-0.898629 -0.84867,-1.934861 -0.8805,-2.982688 -0.0187,-0.58384 0.0484,-1.17519 0.24818,-1.725186 0.19891,-0.548882 0.5341,-1.056207 0.99539,-1.414674 0.4613,-0.358844 1.05248,-0.562315 1.63419,-0.514138 0.29133,0.0241 0.57756,0.111443 0.8302,0.256972 0.25417,0.145597 0.47299,0.353008 0.62702,0.600303 0.28175,0.449247 0.34052,1.006414 0.2949,1.533792 -0.0456,0.527474 -0.18819,1.040587 -0.28347,1.561452 -0.0953,0.520864 -0.14263,1.064859 0.004,1.574739 0.0721,0.254011 0.19296,0.496438 0.36723,0.696629 0.17386,0.199097 0.4,0.353869 0.65464,0.427171 0.25542,0.07346 0.53401,0.06291 0.78792,-0.01684 0.25434,-0.07936 0.48513,-0.225354 0.67866,-0.408057 0.39669,-0.375839 0.63261,-0.917037 0.63894,-1.462435 0.006,-0.544963 -0.21708,-1.089762 -0.60489,-1.475056 -0.8491,-1.053798 -1.66173,-2.137124 -2.43441,-3.248651 -1.44634,-2.078871 -2.75296,-4.251813 -4.16434,-6.354812 -0.19355,-0.288407 -0.38878,-0.575662 -0.53758,-0.888312 -0.14958,-0.313328 -0.25182,-0.654064 -0.24424,-1.001062 0.008,-0.346988 0.13299,-0.700277 0.38334,-0.939858 0.12622,-0.120037 0.27963,-0.209985 0.44871,-0.25345 0.16799,-0.04268 0.34796,-0.03862 0.51145,0.01984 0.15996,0.05623 0.29924,0.163086 0.41881,0.283007 0.11911,0.120637 0.22104,0.256159 0.32904,0.387888 0.10629,0.132154 0.2201,0.259895 0.3566,0.361263 0.1358,0.101862 0.2954,0.173131 0.46469,0.181474 0.18131,0.0087 0.36101,-0.05662 0.50523,-0.166134 0.14465,-0.108027 0.25409,-0.256953 0.33721,-0.41788 0.16213,-0.322716 0.21439,-0.688499 0.31649,-1.034423 0.2534,-0.843531 0.82154,-1.581776 1.55588,-2.069125 0.73423,-0.487349 1.62356,-0.72604 2.50389,-0.707293 1.07838,0.02216 2.14515,0.430984 2.96152,1.133971 0.81796,0.704099 1.3801,1.695609 1.56238,2.759172 0.14141,-0.913533 0.55676,-1.782538 1.17695,-2.466788 0.62029,-0.685043 1.44594,-1.182265 2.34022,-1.41178 1.16779,-0.300611 2.42888,-0.142404 3.52947,0.347598 1.10059,0.490291 2.04373,1.297308 2.78204,2.249089 1.57773,2.035775 2.20983,4.792169 1.61147,7.296973 -0.54402,2.275472 -2.07249,4.275853 -4.06367,5.505599 -1.99069,1.229861 -4.41514,1.702723 -6.7406,1.434601 -0.6844,-0.07839 -1.36034,-0.217602 -2.01985,-0.418122 1.5684,1.098607 3.42248,1.786206 5.32686,1.976467 3.16337,0.316987 6.3657,-0.742657 8.99604,-2.527663 1.68981,-1.146794 3.18759,-2.602232 4.24647,-4.348652 1.05785,-1.745693 1.66082,-3.789501 1.56575,-5.82965 -0.0892,-1.634018 -0.49934,-3.475834 -2.76304,-3.590307 -1.17148,-0.0068 -1.67945,0.808159 -2.00651,1.56002 l -2.0564,-0.589163 c 0.49692,-1.762524 1.88588,-3.297932 4.18468,-3.33286 1.43011,0.0039 2.90175,0.725014 3.87311,1.772502 0.97235,1.047478 1.58486,2.384669 1.98239,3.75704 0.77638,2.675254 0.77957,5.569649 0.0108,8.247342 -0.7687,2.677605 -2.61252,5.319479 -4.69032,7.175919 1.5595,0.875818 2.06602,2.196373 2.08378,3.490884 0.0136,0.97256 -0.28385,1.969886 -0.8177,2.800169 -0.53285,0.830302 -1.28964,1.509451 -2.14991,1.992949 -1.07724,0.603206 -2.60009,0.851158 -4.2466,0.875373 -3.12849,0.01916 -6.23645,-1.56963 -8.15622,-3.335919 z m 8.59718,-4.315572 c 0,0 -1.07502,0.154201 -1.52252,0.20865 -2.70713,0.324757 -6.17741,-0.116805 -8.39762,-1.125271 0.19662,0.718946 1.55358,2.412359 2.73091,3.151193 2.28089,1.431398 4.81222,2.320223 7.79829,2.109134 0,0 -1.24706,-0.653018 -1.26847,-2.611891 -0.0108,-1.018599 0.65941,-1.731815 0.65941,-1.731815 z m 3.21692,3.528357 c 1.12272,-0.02284 1.89073,-1.048775 1.87427,-1.981142 -0.0223,-1.248772 -0.82004,-1.95021 -1.85367,-1.919966 -1.22423,0.0039 -2.05093,1.085009 -2.00626,2.026145 -0.008,0.769591 0.55058,1.904036 1.98566,1.874963 z m -17.50103,-17.284084 c -0.28546,-1.546664 -1.2743,-3.27877 -3.94561,-3.163107 -1.33169,0.05768 -2.51904,1.740196 -3.83606,1.129277 0.75578,1.375439 1.60742,2.698288 2.54834,3.955074 1.22983,1.64298 2.65203,3.207809 4.47663,4.14999 1.2306,0.635337 2.62641,0.964159 4.0081,0.903952 l 0,-4.8e-5 c 0.19739,-0.0087 0.39504,-0.02516 0.59135,-0.04975 1.57033,-0.197471 3.08067,-0.924315 4.16626,-2.077255 0.76236,-0.810655 1.32254,-1.866534 1.32719,-2.979513 0.004,-0.769175 -0.2583,-1.530588 -0.7039,-2.158212 -0.44489,-0.626559 -1.06801,-1.120383 -1.76336,-1.44756 -0.69586,-0.327168 -1.47815,-0.493311 -2.24093,-0.405696 -0.76489,0.08643 -1.50702,0.435291 -2.01306,1.014495 -0.47902,0.547751 -0.56353,0.887897 -0.74436,1.593516 -0.0958,0.373777 -0.1548,0.692592 -0.24224,1.047013 l -1.59126,-0.817101 c 0,0 0.0143,-0.432862 -0.037,-0.695099 z"
       style="font-style:normal;font-variant:normal;font-weight:bold;font-stretch:normal;font-size:medium;line-height:125%;font-family:Neuton;-inkscape-font-specification:'Neuton Bold';letter-spacing:0px;word-spacing:0px;fill:#100f0d;fill-opacity:1;fill-rule:nonzero;stroke:none;stroke-width:1px;stroke-linecap:butt;stroke-linejoin:miter;stroke-opacity:1" /><path
       sodipodi:nodetypes="cscccscccccccssccccsccccccccccccccccccccccccccc"
       inkscape:connector-curvature="0"
       id="path7255-7-8-3-3-3"
       d="m 532.75023,-43.158858 c -2.41472,-0.01258 -4.32098,-1.020998 -5.31007,-3.052737 -0.93739,-1.925532 -0.15966,-3.735343 -0.15965,-3.735343 1.55715,0.571443 3.27665,0.766737 4.58496,0.858388 1.46709,0.05816 2.72881,-0.413012 3.56982,-1.357912 0.84299,-0.944194 1.25708,-2.686655 0.93163,-3.85988 -0.67234,-2.423759 -3.28112,-3.893173 -5.63378,-4.053229 -0.0689,-0.0039 -0.1413,7.55e-4 -0.21094,-7.45e-4 0.008,0.0087 0.0227,0.01771 0.0309,0.02632 -1.9099,-0.107552 -2.8995,0.411009 -3.77958,1.420897 -0.46945,0.555987 -0.82962,1.226988 -0.99814,1.935626 -0.0893,0.375413 -0.16605,0.68094 -0.24726,1.162522 l -1.59113,-0.722614 c 0,0 -0.0163,-0.493728 -0.0594,-0.737838 -0.3784,-2.134404 -2.96555,-3.366414 -4.77072,-3.473144 -1.02567,-0.06068 -2.20049,0.310173 -2.97363,0.811546 -1.01001,0.671098 -1.74604,1.729947 -2.06103,2.901857 -0.31602,1.171096 -0.0838,2.770302 0.36524,3.896501 0.54501,1.36401 1.46704,2.511172 2.76806,3.188976 0.88699,0.46329 1.55297,0.691887 2.54049,0.680176 1.64369,-0.01955 2.99971,-0.87665 3.77592,-2.313487 l 1.70213,0.746083 c -0.80041,2.451468 -3.09579,3.683478 -5.43796,3.644378 -3.38891,-0.06852 -5.82606,-2.381543 -7.05569,-5.065749 -0.60499,-1.350005 -0.94358,-2.812228 -1.07959,-4.286132 -0.20699,-2.264003 0.0793,-4.615351 1.13234,-6.631353 0.525,-1.008205 1.23868,-1.922899 2.11669,-2.645513 0.879,-0.723088 1.92269,-1.249983 3.03369,-1.488276 1.55199,-0.332007 3.22294,-0.08043 4.60693,0.695796 1.383,0.776211 2.47201,2.068622 3.00001,3.565434 0.35699,-1.153908 1.05586,-2.200893 1.98485,-2.975091 0.93001,-0.772601 2.08666,-1.27138 3.28565,-1.41358 1.09001,-0.128903 2.20845,0.03213 3.23144,0.432126 1.02,0.400005 1.94405,1.036097 2.70704,1.825209 1.524,1.577691 2.37344,3.735168 2.58545,5.917962 0.26299,2.719202 -0.446,5.548473 -2.08301,7.734374 -0.404,0.537085 -1.26812,1.293243 -1.54835,1.426753 0.52509,0.341074 0.75471,1.127593 0.76173,1.725582 -0.10546,1.862518 -1.93034,3.171159 -3.71485,3.21681 z m -0.88623,-2.053717 c 0.83405,-0.03784 1.04925,-0.550567 0.93309,-1.095695 -0.1497,-0.70257 0.0776,-0.871588 0.0776,-0.871588 -0.79999,0.133838 -1.36996,0.03349 -2.03761,-0.04239 -0.57498,-0.066 -1.14575,-0.184832 -1.69775,-0.35595 0.023,1.268099 1.21982,2.239779 2.72462,2.365729 z"
       style="font-style:normal;font-variant:normal;font-weight:bold;font-stretch:normal;font-size:medium;line-height:125%;font-family:Neuton;-inkscape-font-specification:'Neuton Bold';letter-spacing:0px;word-spacing:0px;fill:#100f0d;fill-opacity:1;fill-rule:nonzero;stroke:none;stroke-width:1px;stroke-linecap:butt;stroke-linejoin:miter;stroke-opacity:1" /><path
       style="font-style:normal;font-variant:normal;font-weight:bold;font-stretch:normal;font-size:medium;line-height:125%;font-family:Neuton;-inkscape-font-specification:'Neuton Bold';letter-spacing:0px;word-spacing:0px;fill:#100f0d;fill-opacity:1;fill-rule:nonzero;stroke:none;stroke-width:1px;stroke-linecap:butt;stroke-linejoin:miter;stroke-opacity:1"
       d="m 556.75932,-38.212487 c -0.0432,-2.282276 0.82514,-3.272663 2.81697,-3.967955 1.9755,-0.689602 4.52022,-0.507693 8.91487,-0.834744 4.0286,-0.299798 7.20737,-2.691455 8.53439,-5.881322 0.89031,-2.140143 0.43903,-4.906961 -1.2377,-6.842829 -2.09215,-2.415533 -5.77865,-3.206338 -8.96923,-3.385247 -3.13571,-0.175832 -8.68208,0.715065 -8.69679,3.890607 -0.0137,2.971413 3.38226,3.450498 5.45509,3.48048 1.58589,0.02303 3.07937,-0.07268 4.03271,-0.224125 0.50988,1.19175 0.83733,3.086815 0.0937,4.505863 -0.335,0.585195 -0.81849,1.07899 -1.37549,1.458971 -1.112,0.760203 -2.48024,1.061327 -3.82324,1.166025 -1.165,0.09097 -2.38728,0.03687 -3.42627,-0.499515 -0.52101,-0.267899 -0.98425,-0.65598 -1.30225,-1.146959 -0.31799,-0.489905 -0.48434,-1.08501 -0.42334,-1.667011 0.042,-0.406286 0.19745,-0.799719 0.43945,-1.127912 0.243,-0.32891 0.57469,-0.589812 0.95068,-0.750003 0.37602,-0.160105 0.79425,-0.217264 1.19826,-0.164073 0.40499,0.05188 0.79566,0.216092 1.11767,0.467297 0.525,0.408899 1.06133,0.803 1.61133,1.179196 0.27199,0.189004 0.54814,0.373419 0.84814,0.515619 0.299,0.141804 0.62554,0.238768 0.95654,0.238768 0.542,7.55e-4 1.07599,-0.26935 1.396,-0.706045 0.318,-0.4371 0.41502,-1.029418 0.24902,-1.545425 -0.857,0.05584 -1.71426,0.07433 -2.57226,0.0572 -1.51001,-0.03087 -3.05243,-0.182238 -4.41944,-0.823237 -1.83,-0.858204 -3.22484,-2.609753 -3.61084,-4.59375 -0.204,-1.046103 -0.13411,-2.137162 0.15089,-3.164064 0.285,-1.026999 0.78428,-1.988343 1.42529,-2.840343 1.90899,-2.540999 5.01249,-4.017739 8.16651,-4.41063 4.59198,-0.571114 9.44018,1.108004 12.59617,4.49121 1.578,1.690596 2.89635,3.764096 3.31789,6.014647 0.45898,2.450548 0.0525,5.151497 -0.99765,7.412635 -0.79116,1.703255 -2.26668,3.126872 -3.78194,4.17616 0.54914,0.11213 2.71487,1.111082 2.72657,3.344154 0.0236,4.503086 -5.13549,7.749636 -11.20446,7.879507 -6.18675,0.132386 -10.99463,-2.208393 -11.15724,-5.703148 z m 19.12067,-2.817386 c 0.0114,-0.881954 -0.96487,-1.734158 -2.16792,-1.303009 -1.42344,0.631747 -2.82117,1.200189 -5.40265,1.299195 -4.18905,0.160628 -10.58979,-0.199387 -9.11139,2.708189 1.00714,1.980735 6.12058,1.880703 10.34894,1.148159 3.71514,-0.643631 6.30586,-1.762243 6.33302,-3.852534 z"
       id="path7293-4-1-4-4-5"
       inkscape:connector-curvature="0"
       sodipodi:nodetypes="cssasssscccccccccccccccccccccccaacsscscssss" /><path
       sodipodi:nodetypes="cccccccccccccccccsscccccasccccccccccacc"
       inkscape:connector-curvature="0"
       id="path7295-1-1-5-23-4"
       d="m 593.28845,-43.995673 c -0.52102,-0.267899 -0.98425,-0.65598 -1.30225,-1.146969 -0.31799,-0.489904 -0.48435,-1.08499 -0.42334,-1.666991 0.042,-0.406286 0.19745,-0.799738 0.43945,-1.127932 0.243,-0.328909 0.5747,-0.589802 0.95069,-0.749993 0.37601,-0.160105 0.79425,-0.217263 1.19824,-0.164063 0.405,0.05188 0.79568,0.216083 1.11768,0.467277 0.52499,0.408899 1.06132,0.803 1.61132,1.179207 0.272,0.188993 0.54816,0.373409 0.84816,0.515609 0.29899,0.141813 0.62553,0.238778 0.95653,0.238778 0.542,7.45e-4 1.076,-0.269351 1.39601,-0.706055 0.318,-0.437101 0.62772,-1.321803 0.46171,-1.8378 -0.857,0.05584 -3.847,0.101601 -5.98183,-0.07588 -2.13483,-0.177496 -4.51088,-0.457357 -6.52355,-1.610133 -1.31598,-0.753903 -2.42821,-1.864046 -3.15819,-3.19335 -0.729,-1.327707 -1.07329,-2.870461 -0.94629,-4.381355 0.144,-1.710204 0.88844,-3.35298 2.02442,-4.637697 1.13599,-1.285985 4.54732,-2.98743 7.10862,-2.995144 2.27527,-0.0068 5.73746,0.764056 7.23201,2.107054 1.09241,0.981619 1.26587,1.281242 2.32495,2.1156 0.33799,0.259798 0.71863,0.485878 1.13964,0.56397 0.21099,0.03784 -1.23226,0.386359 -1.02426,0.336362 0,0 1.00316,-0.203598 0.54187,0.264473 0.141,0.19179 1.15276,1.442199 1.25276,1.659394 0.34604,0.714746 0.38326,1.259447 -2.9e-4,1.6568 -0.22864,0.236881 -0.75762,0.223961 -0.98701,0.03513 -0.32752,-0.26968 -1.16989,-1.774099 -1.74463,-2.68799 -0.78798,-1.182807 -2.02771,-2.054947 -3.40869,-2.397939 -1.671,-0.416012 -3.51324,-0.03784 -4.90723,0.971186 -1.39701,1.008998 -2.32651,2.622276 -2.54152,4.33008 -0.11901,0.941087 -0.0258,1.918409 0.35304,2.787597 1.19751,2.273894 3.78446,2.862428 5.96484,3.180179 2.10849,0.300098 3.50795,0.181928 4.26123,0.111327 0.17533,-0.02081 0.35953,-0.04055 0.50978,-0.06446 0.50988,1.191749 0.62466,3.379208 -0.11896,4.798237 -0.335,0.585205 -0.81848,1.079 -1.37549,1.45899 -1.11198,0.760194 -2.49468,1.065354 -3.82323,1.166006 -1.15086,0.0872 -2.43669,-0.0039 -3.42625,-0.499544 z"
       style="font-style:normal;font-variant:normal;font-weight:bold;font-stretch:normal;font-size:medium;line-height:125%;font-family:Neuton;-inkscape-font-specification:'Neuton Bold';letter-spacing:0px;word-spacing:0px;fill:#100f0d;fill-opacity:1;fill-rule:nonzero;stroke:none;stroke-width:1px;stroke-linecap:butt;stroke-linejoin:miter;stroke-opacity:1" /><path
       sodipodi:nodetypes="cccccccccccccccccccccccccccccccccccccccccccccccccsccccccccccccc"
       d="m 634.36828,-49.959984 c -0.10601,0.336701 -0.038,0.725005 0.17899,1.003898 0.173,0.221105 0.42701,0.369906 0.69501,0.444901 0.27099,0.075 0.554,0.08013 0.83399,0.07888 l 9.12701,-0.01084 c 0.15499,-0.07191 0.28099,-0.203201 0.34699,-0.359802 0.065,-0.156998 0.068,-0.3391 0.012,-0.499195 -0.048,-0.130103 -0.134,-0.245001 -0.242,-0.33281 -0.105,-0.08913 -0.231,-0.151994 -0.364,-0.195391 -0.263,-0.08468 -0.546,-0.08671 -0.822,-0.08594 -0.54399,0.0029 -1.08899,0.01597 -1.631,-0.02187 -0.17799,-0.01287 -0.355,-0.03078 -0.532,-0.05574 -0.17299,-0.02497 -0.347,-0.0571 -0.51,-0.116002 -0.16299,-0.0602 -0.31899,-0.148104 -0.438,-0.274306 -0.10799,-0.112904 -0.184,-0.253101 -0.22499,-0.403905 -0.04,-0.149991 -0.046,-0.308992 -0.02,-0.462089 0.053,-0.305799 0.23101,-0.582805 0.46501,-0.786703 0.23501,-0.204294 0.52401,-0.338297 0.82301,-0.423 0.29899,-0.084 0.609,-0.121101 0.919,-0.1461 0.863,-0.06997 1.73499,-0.05391 2.589,0.07888 0.777,0.121092 1.551,0.342894 2.202,0.783189 0.32499,0.219905 0.61599,0.492904 0.84,0.813597 0.227,0.322309 0.383,0.693406 0.441,1.081313 0.091,0.609796 -0.072,1.241794 -0.376,1.777689 -0.30701,0.537104 -0.74699,0.9852 -1.232,1.369206 -1.003,0.7949 -2.20401,1.328898 -3.457,1.597997 -1.25201,0.269196 -2.553,0.275002 -3.81801,0.07617 -2.50199,-0.393404 -4.859,-1.599999 -6.67499,-3.365204 -1.81401,-1.764895 -3.081,-4.075798 -3.63899,-6.544996 -0.58301,-2.583205 -0.39,-5.341003 0.582,-7.803901 0.97099,-2.463304 2.72198,-4.617906 4.95499,-6.0422 1.87699,-1.196801 4.105,-1.876899 6.33099,-1.780806 2.224,0.0961 4.43101,0.993707 5.99001,2.584706 1.419,1.449302 2.266,3.452394 2.287,5.480097 0.006,0.478107 -0.034,0.965302 -0.20701,1.410997 -0.17198,0.447205 -0.48599,0.853103 -0.92099,1.055007 -0.38199,0.1789 -0.841,0.18519 -1.227,0.01713 -0.388,-0.167896 -0.696,-0.508196 -0.82701,-0.910088 l -2.41,0.80389 c 0.14301,0.696106 0.51001,1.342901 1.03501,1.821095 0.52599,0.478107 1.20501,0.783209 1.911,0.858204 0.70899,0.075 1.43499,-0.08013 2.06798,-0.407099 0.63301,-0.328106 1.17202,-0.824998 1.57801,-1.410086 0.81401,-1.169916 1.08401,-2.653111 0.996,-4.075808 -0.094,-1.529301 -0.579,-3.027304 -1.359,-4.345294 -0.78199,-1.318009 -1.85499,-2.457003 -3.09799,-3.35391 -2.483,-1.7942 -5.603,-2.589902 -8.66801,-2.569201 -2.68999,0.01839 -5.38299,0.646109 -7.78199,1.863302 -2.401,1.217996 -4.504,3.027003 -6.02799,5.245703 -1.52501,2.218391 -2.46101,4.844199 -2.63901,7.530109 -0.17799,2.68588 0.412,5.424177 1.719,7.77808 1.509,2.720015 3.949,4.878198 6.748,6.237097 2.799,1.359006 5.943,1.941104 9.054,1.887903 2.245,-0.039 4.50199,-0.407002 6.56299,-1.294898 1.30301,-0.560903 2.535,-1.344102 3.43301,-2.441006 0.898,-1.098094 1.43299,-2.535879 1.254,-3.942995 -0.161,-1.2801 -0.90101,-2.445303 -1.892,-3.271104 -0.99,-0.826102 -2.21901,-1.331994 -3.47701,-1.617198 -1.178,-0.267899 -2.41799,-0.348798 -3.59199,-0.05971 -1.173,0.289007 -2.27501,0.975803 -2.91501,2.000808 -0.68499,1.102295 -0.77099,2.551897 -0.22199,3.728094 l -4.732,7.55e-4 0,0"
       style="font-style:normal;font-variant:normal;font-weight:bold;font-stretch:normal;font-size:medium;line-height:125%;font-family:Neuton;-inkscape-font-specification:'Neuton Bold';letter-spacing:0px;word-spacing:0px;fill:#100f0d;fill-opacity:1;fill-rule:nonzero;stroke:none;stroke-width:1px;stroke-linecap:butt;stroke-linejoin:miter;stroke-opacity:1"
       id="path7303-3-6-1-8-0"
       inkscape:connector-curvature="0" /><path
       sodipodi:nodetypes="cccccccccccc"
       d="m 675.7678,-47.752104 c -0.711,0.08197 -1.43202,0.08197 -2.14302,0 -0.57498,-0.066 -1.14399,-0.185993 -1.69599,-0.357092 0.48601,0.730095 1.146,1.345389 1.91001,1.776189 0.253,0.144204 0.52398,0.269206 0.813,0.298104 0.145,0.01403 0.29298,0.0029 0.432,-0.04113 0.138,-0.04491 0.267,-0.122999 0.36299,-0.230794 0.108,-0.122302 0.172,-0.277402 0.21799,-0.432 0.045,-0.157104 0.074,-0.316106 0.123,-0.4723 0.065,-0.205901 0.16602,-0.400005 0.29502,-0.571907 l -0.315,0.03087 0,0"
       style="font-style:normal;font-variant:normal;font-weight:bold;font-stretch:normal;font-size:medium;line-height:125%;font-family:Neuton;-inkscape-font-specification:'Neuton Bold';letter-spacing:0px;word-spacing:0px;fill:#ffffff;fill-opacity:1;fill-rule:nonzero;stroke:none;stroke-width:1px;stroke-linecap:butt;stroke-linejoin:miter;stroke-opacity:1"
       id="path7309-4-0-8-3-1"
       inkscape:connector-curvature="0" /><path
       sodipodi:nodetypes="sscccssscsssscsscssscsc"
       inkscape:connector-curvature="0"
       id="path7295-1-1-5-2-7-0"
       d="m 603.7704,-61.201075 c 0.86413,0.01791 1.38501,-0.993803 1.14368,-2.626679 -0.55868,-3.780443 -3.19201,-7.102202 -4.3234,-8.461643 l 1.0777,-0.800552 c 0.26056,0.283762 0.93339,1.127274 1.09136,1.276791 0.15783,0.163095 0.76221,0.725546 2.2496,0.700993 1.83477,-0.03029 2.74225,-2.402477 5.06032,-2.417265 2.27445,-0.01452 4.06219,1.244223 4.04145,4.931079 -0.008,1.46711 -0.61071,3.141243 -1.87881,4.001218 1.9669,3.177992 -0.10482,5.209498 -1.69773,5.244572 -1.97907,0.04355 -2.87886,-1.523824 -2.82331,-2.740281 0.10606,-2.322875 3.49058,-3.977943 3.46534,-6.464436 -0.0105,-1.043587 -0.63802,-1.974483 -1.58736,-2.016786 -1.62364,-0.07239 -3.52347,1.693471 -5.42623,0.698458 0.6597,0.873263 1.87371,3.073652 2.30478,5.369825 0.65337,3.48016 -0.29183,5.295381 -2.36664,5.212527 -0.8361,-0.03339 -1.2744,-0.745415 -2.81601,-1.519836 -1.44106,-1.071373 -1.05965,-1.105518 -0.95279,-2.423982 0.0824,-1.016092 1.25231,-1.079406 1.68132,-0.686195 0.74923,0.686698 0.61484,2.698529 1.75673,2.722192 z m 7.5084,-2.867693 c -2.16872,0.986807 -2.54235,3.202313 -0.79036,3.206281 1.37688,0.0029 1.75243,-2.212826 0.79036,-3.206281 z"
       style="font-style:normal;font-variant:normal;font-weight:bold;font-stretch:normal;font-size:medium;line-height:125%;font-family:Neuton;-inkscape-font-specification:'Neuton Bold';letter-spacing:0px;word-spacing:0px;fill:#100f0d;fill-opacity:1;fill-rule:nonzero;stroke:none;stroke-width:1px;stroke-linecap:butt;stroke-linejoin:miter;stroke-opacity:1" /><path
       sodipodi:nodetypes="cccccccccccccccccccccccccccccc"
       d="m 612.40734,-61.684408 c 0.69229,0.80029 1.7311,1.301499 2.7903,1.304354 0.7425,7.45e-4 1.47696,-0.235526 2.10243,-0.634147 0.62602,-0.398698 1.14402,-0.955584 1.53564,-1.586218 0.78175,-1.261402 1.04695,-2.780619 1.07989,-4.26484 0.0337,-1.528759 -0.17787,-3.108793 -0.95256,-4.427896 -0.38731,-0.658893 -0.91399,-1.242269 -1.55737,-1.655678 -0.64294,-0.413757 -1.40496,-0.653309 -2.16876,-0.634766 -0.97451,0.02332 -1.9189,0.46779 -2.60634,1.159222 -0.68777,0.691111 -1.12251,1.613374 -1.28648,2.574505 -0.0429,0.255424 -0.0686,0.521793 0.005,0.769814 0.037,0.12386 0.0987,0.24171 0.18655,0.336439 0.0888,0.09436 0.20484,0.165185 0.33139,0.190338 0.11348,0.02274 0.2332,0.0087 0.34013,-0.03242 0.10739,-0.04191 0.20428,-0.110563 0.28259,-0.195459 0.15544,-0.169327 0.23817,-0.395727 0.27654,-0.6235 0.0375,-0.227745 0.035,-0.459264 0.0408,-0.690202 0.007,-0.230406 0.0227,-0.464287 0.0983,-0.682141 0.0843,-0.243984 0.24091,-0.460821 0.4414,-0.623123 0.20106,-0.16203 0.44361,-0.270202 0.69705,-0.318176 0.50698,-0.09475 1.04383,0.05526 1.46488,0.353927 0.42106,0.298617 0.73083,0.734963 0.93312,1.210254 0.20141,0.475281 0.30015,0.987493 0.35349,1.500383 0.0617,0.606041 0.0615,1.216757 0.0413,1.824986 -0.0178,0.598909 -0.0528,1.19954 -0.16429,1.787909 -0.0868,0.459061 -0.22425,0.912837 -0.45197,1.321339 -0.22878,0.407621 -0.55333,0.768875 -0.96204,0.994365 -0.40873,0.22638 -0.90678,0.30815 -1.35456,0.17587 -0.55264,-0.104175 -1.0527,-0.686815 -1.21984,-0.849552 -0.16765,-0.162998 -0.4323,0.21497 -0.4923,-0.01103"
       style="font-style:normal;font-variant:normal;font-weight:bold;font-stretch:normal;font-size:medium;line-height:125%;font-family:Neuton;-inkscape-font-specification:'Neuton Bold';letter-spacing:0px;word-spacing:0px;fill:#100f0d;fill-opacity:1;fill-rule:nonzero;stroke:none;stroke-width:1px;stroke-linecap:butt;stroke-linejoin:miter;stroke-opacity:1"
       id="path7249-9-2-8-6-4-7"
       inkscape:connector-curvature="0" /><path
       sodipodi:nodetypes="ccsascccccccccccccsccccc"
       inkscape:connector-curvature="0"
       id="path4549-0"
       d="m 662.25651,75.003969 0.33926,-10.141556 c 0,0 2.85278,-1.186546 5.17964,-0.920275 2.82737,0.323547 4.77031,2.946019 4.75559,5.326037 -0.0175,2.823682 -1.26808,5.737321 -5.71981,6.248612 -1.61723,0.185743 -4.55468,-0.512818 -4.55468,-0.512818 z m -10.40539,-26.901594 0.40572,1.56647 c 3.24532,-0.44111 4.24025,0.73171 4.47458,2.25638 l 0.0735,22.515889 c -1.13816,-0.09213 -3.84213,-0.0019 -5.56063,0.730385 l 0.98481,1.263652 c 4.77192,-0.755075 10.71805,0.771669 14.53334,0.771669 5.61598,-0.0045 11.50851,-1.723649 11.41319,-7.265013 -0.16463,-5.836086 -7.40068,-7.71608 -10.45787,-7.573098 0,0 7.37043,-2.772668 8.96684,-6.179104 1.76332,-2.96408 1.94113,-9.0619 5.51729,-5.71777 l 1.00068,-1.99286 c -2.54183,-1.98053 -5.08995,-2.172 -7.5076,-1.29576 -6.05329,2.19393 -5.32801,13.804214 -13.05169,15.800704 l -0.009,-12.685264 3.61634,-0.64805 -0.24883,-1.54828 z"
       style="font-style:normal;font-variant:normal;font-weight:bold;font-stretch:normal;font-size:50.3653717px;line-height:125%;font-family:Neuton;-inkscape-font-specification:'Neuton Bold';letter-spacing:0px;word-spacing:0px;fill:#000000;fill-opacity:1;stroke:none;stroke-width:1px;stroke-linecap:butt;stroke-linejoin:miter;stroke-opacity:1" /><path
       inkscape:connector-curvature="0"
       id="path4691"
       style="font-style:normal;font-variant:normal;font-weight:normal;font-stretch:normal;font-size:medium;line-height:125%;font-family:'Old Standard TT';-inkscape-font-specification:'Old Standard TT';letter-spacing:0px;word-spacing:0px;fill:#000000;fill-opacity:1;stroke:none;stroke-width:1px;stroke-linecap:butt;stroke-linejoin:miter;stroke-opacity:1"
       d="m 420.94044,-167.94163 3.3878,0 q 5.4135,0 5.4135,4.56001 0,1.83 -1.15256,2.82 -1.11762,1.01999 -3.07346,1.01999 l -3.63229,0 q -0.94299,0 -0.94299,-0.80999 l 0,-7.59001 z m -6.67082,-11.99999 0,0.96 2.51465,0 q 0.943,0 0.943,0.81 l 0,17.82 q 0,0.80999 -0.943,0.80999 l -2.51465,0 0,0.96001 11.45565,0 q 3.66721,0 5.6929,-1.26 2.0257,-1.23 2.0257,-3.54 0,-2.22 -1.95585,-3.57 -1.92092,-1.35 -4.64512,-1.59 l 0,-0.12 q 1.99077,-0.33 3.24809,-1.59 1.29226,-1.23 1.71137,-4.23 0.34925,-2.46 0.66359,-3.18 0.31433,-0.72 1.15254,-0.72 1.50181,0 1.50181,3.24 l 0.87315,0 q 0,-5.16 -3.63228,-5.16 -2.30511,0 -3.17825,1.41 -0.94299,1.56 -1.01284,5.31 -0.035,2.01 -0.83822,3.33 -0.8033,1.35 -2.58451,1.35 l -3.80691,0 0,-9.27 q 0,-0.81 0.94299,-0.81 l 3.1084,0 0,-0.96 -10.72221,0 z" /><path
       inkscape:connector-curvature="0"
       id="path4693"
       style="font-style:normal;font-variant:normal;font-weight:normal;font-stretch:normal;font-size:medium;line-height:125%;font-family:'Old Standard TT';-inkscape-font-specification:'Old Standard TT';letter-spacing:0px;word-spacing:0px;fill:#000000;fill-opacity:1;stroke:none;stroke-width:1px;stroke-linecap:butt;stroke-linejoin:miter;stroke-opacity:1"
       d="m 445.73228,-179.58162 q 3.91168,0 3.91168,6.48 0,6.48 -3.91168,6.48 -3.91168,0 -3.91168,-6.48 0,-6.48 3.91168,-6.48 z m 0,-0.72 q -2.93376,0 -4.95946,2.1 -2.02569,2.13 -2.02569,5.1 0,2.96999 2.02569,5.07 2.0257,2.13 4.95946,2.13 2.93376,0 4.95945,-2.13 2.0257,-2.10001 2.0257,-5.07 0,-2.97 -2.0257,-5.1 -2.02569,-2.1 -4.95945,-2.1 z" /><path
       inkscape:connector-curvature="0"
       id="path4695"
       style="font-style:normal;font-variant:normal;font-weight:normal;font-stretch:normal;font-size:medium;line-height:125%;font-family:'Old Standard TT';-inkscape-font-specification:'Old Standard TT';letter-spacing:0px;word-spacing:0px;fill:#000000;fill-opacity:1;stroke:none;stroke-width:1px;stroke-linecap:butt;stroke-linejoin:miter;stroke-opacity:1"
       d="m 459.07719,-187.08162 q -1.3621,0 -2.23524,0.75 -0.97792,0.78 -0.97792,1.89 0,0.84 0.55881,1.26 0.52389,0.45 1.18747,0.45 0.8033,0 1.18748,-0.42 0.4191,-0.45 0.4191,-1.11 0,-0.36 -0.2794,-0.84 -0.20956,-0.3 -0.20956,-0.57 0,-0.45 0.69852,-0.45 1.04778,0 1.74629,0.72 0.73344,0.69 1.0827,1.65 l 0.94299,2.61 -4.95946,12.39 q -0.2794,0.66 -0.48896,0.96 -0.17463,0.33 -0.59374,0.57 -0.38418,0.24 -0.97792,0.24 l -1.15255,0 0,0.72 7.89323,0 0,-0.72 -1.11763,0 q -0.41911,0 -0.76836,-0.21 -0.34926,-0.18 -0.34926,-0.51 0,-0.51 0.20955,-0.99 l 3.63228,-9.21 2.89884,8.22 q 0.38418,0.93 0.38418,1.53 0,0.51 -0.34925,0.84 -0.34926,0.33 -0.90807,0.33 l -0.83822,0 0,0.72 6.35649,0 0,-0.72 -0.80329,0 q -1.71137,0 -2.40989,-1.77 l -5.62304,-15.36 q -0.38419,-1.11 -1.46689,-2.04 -1.08269,-0.93 -2.68928,-0.93 z" /><path
       inkscape:connector-curvature="0"
       id="path4697"
       style="font-style:normal;font-variant:normal;font-weight:normal;font-stretch:normal;font-size:medium;line-height:125%;font-family:'Old Standard TT';-inkscape-font-specification:'Old Standard TT';letter-spacing:0px;word-spacing:0px;fill:#000000;fill-opacity:1;stroke:none;stroke-width:1px;stroke-linecap:butt;stroke-linejoin:miter;stroke-opacity:1"
       d="m 476.60501,-176.85162 q 0,-2.37 2.1654,-2.37 0.83822,0 1.50181,0.33 0.69852,0.36 1.18748,1.02 0.52389,0.69 0.76836,1.17 0.27941,0.51 0.59374,1.25999 l 0,2.85001 -3.03854,-0.57 q -1.67644,-0.3 -2.4448,-1.2 -0.73345,-0.87 -0.73345,-2.49 z m -2.93376,0.09 q 0,0.93001 0.41911,1.65001 0.41911,0.75 0.94299,1.17 0.55882,0.42 1.50181,0.75 0.94301,0.33 1.50181,0.45 0.59374,0.12 1.57166,0.27 l 3.21317,0.51 0,2.55 q 0,2.79 -3.2481,2.79 -1.18747,0 -2.16539,-0.54 -0.97792,-0.51 -0.97792,-1.17 0,-0.3 0.10477,-0.45 0.13971,-0.24 0.52389,-0.3 1.29226,-0.3 1.29226,-1.17 0,-1.17 -1.53674,-1.17 -0.76837,0 -1.39702,0.51 -0.62867,0.51 -0.62867,1.47 0,1.65 1.50181,2.58 1.5018,0.96 3.38779,0.96 2.30511,0 3.98155,-1.05 1.67643,-1.02 1.67643,-3.21 l 0,-7.38 q 0,-1.5 1.0827,-1.5 1.64151,0 1.64151,3 l 0.62866,0 q 0,-4.26 -2.79406,-4.26 -2.96869,0 -3.07347,2.88 l -0.17463,0.06 q -0.52388,-1.05 -1.71136,-2.01 -1.15255,-0.92999 -2.72421,-0.92999 -1.85106,0 -3.21317,0.77999 -1.32718,0.78 -1.32718,2.76 z" /><path
       inkscape:connector-curvature="0"
       id="path4699"
       style="font-style:normal;font-variant:normal;font-weight:normal;font-stretch:normal;font-size:medium;line-height:125%;font-family:'Old Standard TT';-inkscape-font-specification:'Old Standard TT';letter-spacing:0px;word-spacing:0px;fill:#000000;fill-opacity:1;stroke:none;stroke-width:1px;stroke-linecap:butt;stroke-linejoin:miter;stroke-opacity:1"
       d="m 490.57368,-179.94162 0,0.72 1.81615,0 q 0.76836,0 0.76836,0.66 l 0,18.6 q 0,0.66 -0.76836,0.66 l -1.81615,0 0,0.72 5.09916,0 0,-19.98 q 0,-0.66 0.76838,-0.66 l 1.81613,0 0,-0.72 -7.68367,0 z" /><path
       inkscape:connector-curvature="0"
       id="path4701"
       style="font-style:normal;font-variant:normal;font-weight:normal;font-stretch:normal;font-size:medium;line-height:125%;font-family:'Old Standard TT';-inkscape-font-specification:'Old Standard TT';letter-spacing:0px;word-spacing:0px;fill:#000000;fill-opacity:1;stroke:none;stroke-width:1px;stroke-linecap:butt;stroke-linejoin:miter;stroke-opacity:1"
       d="m 511.20881,-169.08162 q 0,3.03 1.15256,5.52 1.15255,2.49 3.38779,3.99 2.23525,1.53 5.23887,1.53 2.13047,0 4.3308,-1.38 0.5588,-0.3 0.90806,-0.57001 0.55882,-0.42 0.97792,-0.42 0.27941,0 0.38418,0.12001 0.13971,0.15 0.31433,0.54 l 0.59374,1.47 0.87315,0 0,-8.34 -0.87315,0 q -1.15254,3.66 -3.24809,5.64 -2.06062,1.98 -4.26094,1.98 -1.46688,0 -2.54958,-0.48 -1.0827,-0.48 -1.7463,-1.29 -0.66358,-0.81 -1.0827,-2.13 -0.4191,-1.32 -0.5588,-2.79 -0.1397,-1.44 -0.1397,-3.39 0,-1.95001 0.17462,-3.45 0.17463,-1.5 0.62866,-2.88 0.45404,-1.35001 1.18748,-2.22 0.73344,-0.87 1.88599,-1.38 1.18748,-0.51 2.75914,-0.51 1.74628,0 3.10839,0.63 1.3621,0.63 2.1654,1.71 0.83822,1.08 1.29225,2.34 0.45404,1.26 0.55881,2.67 l 1.25734,0 q -0.035,-0.66 -0.17464,-1.35 -0.10476,-0.69 -0.38418,-1.53 -0.27941,-0.81 -0.69852,-1.56 -0.4191,-0.75 -1.0827,-1.47001 -0.66359,-0.71999 -1.5018,-1.25999 -0.80329,-0.51001 -1.99077,-0.81 -1.15255,-0.33 -2.54958,-0.33 -2.4448,0 -4.47049,0.99 -1.99078,0.99 -3.2481,2.61 -1.25734,1.62 -1.95584,3.63 -0.6636,2.01 -0.6636,4.17 z" /><path
       inkscape:connector-curvature="0"
       id="path4703"
       style="font-style:normal;font-variant:normal;font-weight:normal;font-stretch:normal;font-size:medium;line-height:125%;font-family:'Old Standard TT';-inkscape-font-specification:'Old Standard TT';letter-spacing:0px;word-spacing:0px;fill:#000000;fill-opacity:1;stroke:none;stroke-width:1px;stroke-linecap:butt;stroke-linejoin:miter;stroke-opacity:1"
       d="m 544.73482,-180.48162 q -2.93377,0 -5.30872,1.62 -2.34002,1.65 -3.59735,4.2 -1.22241,2.55 -1.22241,5.39999 0,2.85001 1.22241,5.40001 1.25733,2.54999 3.59735,4.17 2.37495,1.65 5.30872,1.65 2.93376,0 5.27378,-1.65 2.37496,-1.62001 3.59736,-4.17 1.25733,-2.55 1.25733,-5.40001 0,-2.84999 -1.25733,-5.39999 -1.2224,-2.55 -3.59736,-4.2 -2.34002,-1.62 -5.27378,-1.62 z m 0,0.96 q 6.42634,0 6.42634,10.25999 0,10.26001 -6.42634,10.26001 -6.42635,0 -6.42635,-10.26001 0,-10.25999 6.42635,-10.25999 z" /><path
       inkscape:connector-curvature="0"
       id="path4705"
       style="font-style:normal;font-variant:normal;font-weight:normal;font-stretch:normal;font-size:medium;line-height:125%;font-family:'Old Standard TT';-inkscape-font-specification:'Old Standard TT';letter-spacing:0px;word-spacing:0px;fill:#000000;fill-opacity:1;stroke:none;stroke-width:1px;stroke-linecap:butt;stroke-linejoin:miter;stroke-opacity:1"
       d="m 557.62842,-179.94162 0,0.72 1.81614,0 q 0.76836,0 0.76836,0.66 l 0,18.6 q 0,0.66 -0.76836,0.66 l -1.81614,0 0,0.72 5.09916,0 0,-19.98 q 0,-0.66 0.76837,-0.66 l 1.81613,0 0,-0.72 -7.68366,0 z" /><path
       inkscape:connector-curvature="0"
       id="path4707"
       style="font-style:normal;font-variant:normal;font-weight:normal;font-stretch:normal;font-size:medium;line-height:125%;font-family:'Old Standard TT';-inkscape-font-specification:'Old Standard TT';letter-spacing:0px;word-spacing:0px;fill:#000000;fill-opacity:1;stroke:none;stroke-width:1px;stroke-linecap:butt;stroke-linejoin:miter;stroke-opacity:1"
       d="m 567.04201,-179.94162 0,0.72 1.81613,0 q 0.76838,0 0.76838,0.66 l 0,18.6 q 0,0.66 -0.76838,0.66 l -1.81613,0 0,0.72 5.09916,0 0,-19.98 q 0,-0.66 0.76837,-0.66 l 1.81614,0 0,-0.72 -7.68367,0 z" /><path
       inkscape:connector-curvature="0"
       id="path4709"
       style="font-style:normal;font-variant:normal;font-weight:normal;font-stretch:normal;font-size:medium;line-height:125%;font-family:'Old Standard TT';-inkscape-font-specification:'Old Standard TT';letter-spacing:0px;word-spacing:0px;fill:#000000;fill-opacity:1;stroke:none;stroke-width:1px;stroke-linecap:butt;stroke-linejoin:miter;stroke-opacity:1"
       d="m 580.22758,-172.38162 6.6359,0 q 0,1.08 -0.17463,2.04 -0.17463,0.96 -0.52389,1.83 -0.34925,0.87 -1.01284,1.38 -0.6636,0.51 -1.57166,0.51 -0.90807,0 -1.57166,-0.51 -0.6636,-0.51 -1.04778,-1.38 -0.38418,-0.87 -0.55881,-1.86 -0.17463,-0.96 -0.17463,-2.01 z m -3.07347,-0.72 q 0,1.86 0.8033,3.48 0.80329,1.62 2.30509,2.67 1.53674,1.05 3.45766,1.05 1.25732,0 2.3051,-0.45 1.04777,-0.45 1.74629,-1.2 0.69851,-0.75 1.18747,-1.71001 0.48897,-0.95999 0.69852,-1.94999 0.20956,-0.99 0.20956,-2.01001 l -9.63952,0 q 0,-1.46999 0.17463,-2.57999 0.17463,-1.08 0.59374,-1.98 0.41911,-0.87 1.2224,-1.35 0.80329,-0.45 1.99077,-0.45 0.69851,0 1.32718,0.18 0.66359,0.18 1.32718,0.63 0.69851,0.45 1.15254,1.35 0.48896,0.9 0.6636,2.16 l 0.83821,0 q -0.20955,-2.22 -1.57166,-3.63 -1.3621,-1.41 -3.8069,-1.41 -3.14332,0 -5.06424,2.01 -1.92092,2.01 -1.92092,5.19 z" /><path
       inkscape:connector-curvature="0"
       id="path4711"
       style="font-style:normal;font-variant:normal;font-weight:normal;font-stretch:normal;font-size:medium;line-height:125%;font-family:'Old Standard TT';-inkscape-font-specification:'Old Standard TT';letter-spacing:0px;word-spacing:0px;fill:#000000;fill-opacity:1;stroke:none;stroke-width:1px;stroke-linecap:butt;stroke-linejoin:miter;stroke-opacity:1"
       d="m 593.46062,-183.60162 q 0,1.11 1.01285,1.95 1.01284,0.84 2.40987,1.02 l 0,0.09 q -3.07347,0.57 -3.07347,2.22 0,1.23 1.0827,1.92 1.11763,0.72 2.72422,0.96 l 0,0.09 q -3.52752,1.29 -3.52752,4.53 0,2.28 1.81615,3.6 1.85106,1.32 4.40064,1.32 1.46688,0 2.86392,-0.57 1.43195,-0.57 1.78121,-0.99 0.31434,0.78 1.01285,1.17 0.69851,0.39 1.39703,0.39 1.18747,0 1.95584,-0.6 0.76837,-0.6 0.76837,-1.56 0,-0.72 -0.41911,-1.17 -0.38418,-0.45 -1.04777,-0.45 -0.55882,0 -0.97792,0.24 -0.41911,0.27 -0.41911,0.84 0,0.66 0.59374,0.96 0.38418,0.21 0.38418,0.54 0,0.48001 -0.943,0.48001 -0.62866,0 -1.15255,-0.45001 -0.48896,-0.42 -0.55881,-0.99 0.97792,-1.17 0.97792,-2.76 0,-2.25 -1.81614,-3.6 -1.78121,-1.32 -4.40065,-1.32 -1.99077,0 -3.56243,-0.48 -1.53673,-0.45 -1.53673,-1.53 0,-0.99 2.23525,-0.99 0.73344,0 1.18748,0.03 0.41911,0.03 1.08269,0.03 l 3.59736,0 q 2.23525,0 3.73706,-1.05001 1.5018,-1.01999 1.5018,-3.02999 0,-2.1 -2.09554,-3.21001 -2.06062,-1.10999 -5.44842,-1.10999 -3.07347,0 -5.30872,0.84 -2.23524,0.84 -2.23524,2.64 z m 3.42272,12.78 q 0,-1.98 0.90807,-3.09 0.90807,-1.11 2.51465,-1.11 1.60659,0 2.51466,1.11 0.90807,1.11 0.90807,3.09 0,1.98 -0.90807,3.09 -0.90807,1.11 -2.51466,1.11 -1.60658,0 -2.51465,-1.11 -0.90807,-1.11 -0.90807,-3.09 z m -1.88599,-12.72 q 0,-1.41 1.85106,-2.1 1.85107,-0.72 4.15617,-0.72 1.57166,0 2.86391,0.27 1.32718,0.24 2.37496,1.05 1.04777,0.78 1.04777,2.04 0,0.93 -0.66359,1.62 -0.62867,0.66 -2.23525,0.66 l -3.87676,0 q -1.39703,0 -2.54958,-0.21 -1.15255,-0.24001 -2.06062,-0.9 -0.90807,-0.66 -0.90807,-1.71 z" /><path
       inkscape:connector-curvature="0"
       id="path4713"
       style="font-style:normal;font-variant:normal;font-weight:normal;font-stretch:normal;font-size:medium;line-height:125%;font-family:'Old Standard TT';-inkscape-font-specification:'Old Standard TT';letter-spacing:0px;word-spacing:0px;fill:#000000;fill-opacity:1;stroke:none;stroke-width:1px;stroke-linecap:butt;stroke-linejoin:miter;stroke-opacity:1"
       d="m 615.22156,-172.38162 6.6359,0 q 0,1.08 -0.17463,2.04 -0.17464,0.96 -0.52389,1.83 -0.34925,0.87 -1.01285,1.38 -0.66359,0.51 -1.57166,0.51 -0.90806,0 -1.57166,-0.51 -0.66359,-0.51 -1.04777,-1.38 -0.38418,-0.87 -0.55881,-1.86 -0.17463,-0.96 -0.17463,-2.01 z m -3.07346,-0.72 q 0,1.86 0.80329,3.48 0.80328,1.62 2.30509,2.67 1.53674,1.05 3.45766,1.05 1.25732,0 2.30509,-0.45 1.04778,-0.45 1.7463,-1.2 0.69852,-0.75 1.18748,-1.71001 0.48896,-0.95999 0.6985,-1.94999 0.20956,-0.99 0.20956,-2.01001 l -9.63951,0 q 0,-1.46999 0.17463,-2.57999 0.17463,-1.08 0.59374,-1.98 0.4191,-0.87 1.2224,-1.35 0.80329,-0.45 1.99077,-0.45 0.69851,0 1.32717,0.18 0.6636,0.18 1.32719,0.63 0.69851,0.45 1.15254,1.35 0.48896,0.9 0.66359,2.16 l 0.83822,0 q -0.20955,-2.22 -1.57165,-3.63 -1.36211,-1.41 -3.80691,-1.41 -3.14332,0 -5.06424,2.01 -1.92091,2.01 -1.92091,5.19 z" /><rect
       style="opacity:0.53699999;fill:#ffff00;fill-opacity:1;stroke:none;stroke-opacity:1"
       id="rect4742"
       width="18.157679"
       height="1.7501376"
       x="696.35956"
       y="-39.545982" /><path
       inkscape:connector-curvature="0"
       id="path4695-0"
       style="font-style:normal;font-variant:normal;font-weight:normal;font-stretch:normal;font-size:medium;line-height:125%;font-family:'Old Standard TT';-inkscape-font-specification:'Old Standard TT';letter-spacing:0px;word-spacing:0px;fill:#000000;fill-opacity:1;stroke:none;stroke-width:1px;stroke-linecap:butt;stroke-linejoin:miter;stroke-opacity:1"
       d="m 714.24041,39.50916 c -2.27556,-0.03069 -4.77254,1.342804 -4.82072,3.654141 0.14997,1.60057 1.15258,2.261116 2.22313,2.32602 1.18699,0.07196 1.87566,-0.662211 2.75843,-2.262326 0.57707,-1.046005 2.64216,-1.603446 4.06933,0.808375 0.73142,1.236042 1.40705,3.027958 1.73956,3.941936 l -0.0842,0.01472 -7.08256,17.694028 c -0.26601,0.62836 -0.49876,1.085349 -0.69827,1.370968 -0.16627,0.314179 -0.44891,0.585516 -0.84792,0.814011 -0.36577,0.228495 -0.83129,0.342742 -1.39657,0.342742 l -1.64594,0 6.99572,0.435998 4.27653,0.592226 0,-1.028224 -1.59608,0 c -0.43934,-0.161793 -0.94802,-0.273659 -1.25814,-0.624408 l 5.49662,-12.417915 3.21166,9.418517 c 0.36576,0.885415 0.54864,1.420376 0.54864,1.991612 0,0.485551 0.41384,0.846743 0.0813,1.160922 -0.32868,0.162481 -0.6531,0.335946 -0.99386,0.471272 l 0,1.028224 7.57765,0 0,-1.028224 -1.14718,0 c -1.62933,0 -2.77651,-0.842574 -3.44154,-2.527721 l -7.6048,-21.007313 c -0.36577,-1.056787 -1.48945,-2.95604 -2.52024,-3.841459 -1.03079,-0.885415 -2.31098,-1.328122 -3.84055,-1.328122 z"
       sodipodi:nodetypes="ccasscccccsccccccccscccccsccsc" /><path
       sodipodi:nodetypes="ccccc"
       inkscape:connector-curvature="0"
       id="path4549-0-3"
       d="m 713.19095,67.178472 c -1.13816,-0.09213 -3.84213,-0.0019 -5.56063,0.73038 l 1.10083,1.108958 c 3.10898,-0.987108 3.6409,-0.388518 7.45619,-0.388518 0.6436,-1.460981 2.00165,-0.961864 -2.99639,-1.45082 z"
       style="font-style:normal;font-variant:normal;font-weight:bold;font-stretch:normal;font-size:50.3653717px;line-height:125%;font-family:Neuton;-inkscape-font-specification:'Neuton Bold';letter-spacing:0px;word-spacing:0px;fill:#000000;fill-opacity:1;stroke:none;stroke-width:1px;stroke-linecap:butt;stroke-linejoin:miter;stroke-opacity:1" /><path
       sodipodi:nodetypes="ccccc"
       inkscape:connector-curvature="0"
       id="path4549-0-3-8"
       d="m 719.33814,69.63464 c -1.13816,-0.09213 -3.84213,-0.0019 -5.56063,0.73038 l 1.10083,1.10895 c 3.10898,-0.9871 3.6409,-0.38851 7.45619,-0.38851 0.6436,-1.46099 2.00165,-0.96187 -2.99639,-1.45082 z"
       style="font-style:normal;font-variant:normal;font-weight:bold;font-stretch:normal;font-size:50.3653717px;line-height:125%;font-family:Neuton;-inkscape-font-specification:'Neuton Bold';letter-spacing:0px;word-spacing:0px;fill:#000000;fill-opacity:1;stroke:none;stroke-width:1px;stroke-linecap:butt;stroke-linejoin:miter;stroke-opacity:1" /></g></svg>